<svg width="28" height="28" viewBox="0 0 28 28" fill="currentColor" xmlns="http://www.w3.org/2000/svg">
<g clip-path="url(#clip0_437_1678)">
<path d="M27.2999 14.0002C27.2999 6.66447 21.3357 0.700195 13.9999 0.700195C6.66423 0.700195 0.699951 6.66447 0.699951 14.0002C0.699951 21.3359 6.66423 27.3002 13.9999 27.3002C21.3357 27.3002 27.2999 21.3359 27.2999 14.0002ZM13.1042 18.5916L7.97995 13.4402C7.72839 13.1886 7.61573 12.8802 7.61573 12.5444C7.61573 12.2086 7.72729 11.9002 7.97995 11.6486C8.45573 11.1729 9.2684 11.1729 9.74417 11.6486L13.9999 15.9318L18.2556 11.6761C18.7314 11.2003 19.5441 11.2003 20.0198 11.6761C20.4956 12.1519 20.4956 12.9645 20.0198 13.4403L14.8956 18.5917C14.6713 18.816 14.3356 18.956 13.9998 18.956C13.664 18.956 13.3556 18.816 13.104 18.5917L13.1042 18.5916Z" fill="currentColor"/>
</g>
<defs>
<clipPath id="clip0_437_1678">
<rect width="28" height="28" fill="white"/>
</clipPath>
</defs>
</svg>
