<svg width="24" height="24" viewBox="0 0 24 24" fill="none" xmlns="http://www.w3.org/2000/svg">
<path d="M11.9999 10.0001C13.1053 10.0001 13.9999 10.8947 13.9999 12.0001C13.9999 13.1054 13.1053 14 11.9999 14C10.8946 14 10 13.1054 10 12.0001C10 10.8947 10.8946 10.0001 11.9999 10.0001Z" fill="#696969"/>
<path d="M11.9999 17.0028C13.1053 17.0028 13.9999 17.8986 13.9999 19.0027C13.9999 20.108 13.1053 21.0039 11.9999 21.0039C10.8946 21.0039 10 20.1081 10 19.0027C10 17.8986 10.8946 17.0028 11.9999 17.0028Z" fill="#696969"/>
<path d="M11.9999 2.99619C13.1053 2.99619 13.9999 3.89202 13.9999 4.99738C13.9999 6.10148 13.1053 6.99731 11.9999 6.99731C10.8946 6.99731 10 6.10148 10 4.99738C10 3.89205 10.8946 2.99619 11.9999 2.99619Z" fill="#696969"/>
</svg>
