<svg width="26" height="25" viewBox="0 0 26 25" fill="none" xmlns="http://www.w3.org/2000/svg">
<path d="M13.2279 1.38281C10.0438 1.38281 7.42334 4.00329 7.42334 7.18735C7.42334 8.14218 8.2318 8.95063 9.21151 8.95063C10.2161 8.95063 10.9997 8.14218 10.9997 7.18735C10.9997 5.96271 12.0043 4.95812 13.2289 4.95812C14.4287 4.95812 15.4084 5.96271 15.4084 7.18735C15.4084 8.31441 14.9185 8.87696 14.0125 9.90654C12.8854 11.0575 11.392 12.6495 11.392 15.6873C11.392 16.7158 12.2005 17.4994 13.2041 17.4994C14.1838 17.4994 14.9674 16.7158 14.9674 15.6873C14.9674 14.0465 15.6533 13.3117 16.5843 12.3321C17.6377 11.1811 18.936 9.7853 18.936 7.16359C18.9838 4.00354 16.412 1.38281 13.2279 1.38281H13.2279ZM13.2279 19.1151C12.0281 19.1151 11.0484 20.046 11.0484 21.2706C11.0484 22.4704 12.0281 23.4262 13.2279 23.4262C14.3788 23.4262 15.3834 22.4714 15.3834 21.2706C15.3825 20.0709 14.4028 19.1151 13.2279 19.1151Z" fill="#0101C8"/>
</svg>
