<svg width="120" height="120" viewBox="0 0 120 120" fill="none" xmlns="http://www.w3.org/2000/svg">
<path fill-rule="evenodd" clip-rule="evenodd" d="M50.2129 2.97192C36.4033 2.97192 25.1257 14.2032 25.1257 27.9979C25.1257 36.9089 29.8319 44.7559 36.8866 49.1947C20.2366 54.7447 8.24622 70.4203 8.24622 88.9207V101.961C8.24622 102.763 8.56028 103.531 9.12747 104.099C9.68997 104.661 10.4588 104.98 11.2602 104.975H25.4958C26.2927 104.97 27.0568 104.652 27.6146 104.089C28.1771 103.522 28.4911 102.758 28.4864 101.961C28.4817 100.311 27.1458 98.9752 25.4958 98.9705H14.2458V88.9205C14.2458 68.9897 30.2394 53.0429 50.2086 53.0429C63.573 53.0429 75.1182 60.2148 81.3246 70.9121V70.9168C82.159 72.3464 83.9965 72.834 85.4262 71.9996C86.1199 71.6011 86.6215 70.9496 86.8278 70.1808C87.0387 69.4121 86.9309 68.5918 86.5372 67.9028C81.4652 59.1605 73.3 52.4432 63.5452 49.1948C70.5905 44.751 75.2874 36.9044 75.2874 27.9932C75.2874 14.198 64.0234 2.96716 50.2134 2.96716L50.2129 2.97192ZM50.2129 8.9532C60.7832 8.9532 69.2821 17.4469 69.2821 27.9984C69.2821 38.5453 60.7883 47.0388 50.2129 47.0436C39.6425 47.0436 31.1257 38.5499 31.1257 27.9984C31.1257 17.4515 39.6429 8.9532 50.2129 8.9532ZM80.1289 79.0404C78.9757 79.0451 77.9258 79.706 77.4289 80.7467L64.4965 107.606L60.3808 100.458C59.8418 99.5391 58.8574 98.9719 57.7886 98.9719H40.8242C39.1742 98.9719 37.8335 100.313 37.8335 101.963C37.8382 103.613 39.1742 104.949 40.8242 104.953H56.0582L62.1285 115.519C62.6863 116.489 63.7316 117.07 64.8472 117.028C65.9628 116.986 66.9659 116.325 67.4441 115.317L80.1281 88.9592L87.0609 103.27C87.5671 104.302 88.6125 104.953 89.7609 104.953H108.74C109.537 104.958 110.301 104.644 110.863 104.081C111.431 103.524 111.749 102.759 111.754 101.963C111.749 101.17 111.431 100.406 110.868 99.8439C110.301 99.2814 109.537 98.9673 108.74 98.972H91.6497L82.8325 80.7464C82.3309 79.7058 81.2809 79.0448 80.1278 79.0401L80.1289 79.0404Z" fill="#696969"/>
</svg>
