<svg width="20" height="20" viewBox="0 0 20 20" fill="none" xmlns="http://www.w3.org/2000/svg">
<g clip-path="url(#clip0_4362_10718)">
<path d="M8.42791 2.73569C9.31132 2.57584 10.1851 2.57584 11.0673 2.73569C11.1406 2.74771 11.2152 2.75372 11.2885 2.75372C11.8726 2.75372 12.3894 2.33544 12.4976 1.74169C12.6178 1.07341 12.1743 0.433996 11.5036 0.311412C10.3317 0.0986701 9.15866 0.0986701 7.98916 0.311412C7.32088 0.431602 6.87497 1.07104 6.99516 1.74169C7.11535 2.40997 7.75479 2.85587 8.42543 2.73569L8.42791 2.73569Z" fill="white"/>
<path d="M3.97241 3.48934C3.45198 3.04944 2.67675 3.11433 2.23684 3.63357C1.85223 4.08911 1.51087 4.57228 1.22121 5.07708C0.931548 5.57828 0.682751 6.11674 0.479612 6.67684C0.248843 7.31625 0.580573 8.02179 1.22121 8.25256C1.35943 8.30184 1.49766 8.32588 1.63709 8.32588C2.14189 8.32588 2.61546 8.01218 2.79454 7.51098C2.94478 7.08911 3.13349 6.68286 3.35103 6.30785C3.56617 5.93283 3.8246 5.56988 4.11426 5.22492C4.55417 4.70449 4.48927 3.92926 3.97003 3.48935L3.97241 3.48934Z" fill="white"/>
<path d="M4.11653 14.7755C3.82686 14.4341 3.56846 14.0675 3.35329 13.6925C3.13815 13.3175 2.95065 12.9113 2.7968 12.4894C2.56603 11.85 1.86169 11.517 1.22108 11.7478C0.581663 11.9786 0.248709 12.6829 0.479479 13.3235C0.678999 13.8836 0.928986 14.4221 1.22108 14.9233C1.51074 15.4245 1.85209 15.9112 2.23671 16.3668C2.4795 16.6564 2.82806 16.8043 3.17782 16.8043C3.45787 16.8043 3.74031 16.7093 3.97108 16.5122C4.49151 16.0723 4.5552 15.2971 4.11531 14.7766L4.11653 14.7755Z" fill="white"/>
<path d="M18.1697 15.0985C18.2033 15.0396 18.243 14.982 18.2779 14.9231C18.3151 14.8582 18.3512 14.7909 18.386 14.7259C18.398 14.7043 18.4101 14.6827 18.4233 14.661C18.4762 14.5625 18.5242 14.4639 18.5735 14.3654C18.6012 14.3101 18.6264 14.2572 18.6541 14.2019C18.6817 14.1406 18.7093 14.0793 18.7406 14.0144C18.7803 13.9279 18.8175 13.8389 18.8548 13.75C18.8644 13.7259 18.8728 13.7043 18.8824 13.6791C19.344 12.5409 19.5988 11.3005 19.5988 9.99876C19.5988 8.69707 19.3343 7.35574 18.8079 6.13107C18.8019 6.11544 18.7899 6.10342 18.7839 6.0878C18.6336 5.74045 18.4666 5.40149 18.2791 5.0782C17.9894 4.577 17.6456 4.09023 17.2634 3.63469C16.8235 3.11426 16.0483 3.05057 15.5279 3.49046C15.0074 3.93035 14.9437 4.7056 15.3836 5.22603C15.6733 5.56738 15.9317 5.93397 16.1469 6.30895C16.3656 6.68397 16.5495 7.09021 16.7033 7.51209C16.7033 7.5181 16.7094 7.52171 16.7094 7.52772C16.993 8.31858 17.1372 9.1491 17.1372 10.0013C17.1372 10.8534 16.9834 11.7092 16.707 12.4845V12.4905C16.636 12.69 16.5531 12.8847 16.4666 13.0746C16.457 13.0926 16.4509 13.1118 16.4425 13.1299C16.3656 13.2993 16.2791 13.4616 16.1877 13.619C16.1637 13.6647 16.1348 13.708 16.1108 13.7549C16.0243 13.8991 15.9329 14.0409 15.8368 14.1827C15.8055 14.2284 15.7719 14.2717 15.7418 14.3186C15.6433 14.4568 15.5387 14.589 15.4305 14.7212C14.3416 16.0253 12.8115 16.952 11.0699 17.2657C10.8548 17.3053 10.6396 17.333 10.4233 17.3522H10.3956C9.74297 17.4111 9.09152 17.3799 8.43528 17.2633C7.7646 17.1407 7.12758 17.5866 7.005 18.2573C6.88481 18.9255 7.32832 19.565 7.999 19.6875C8.58312 19.7921 9.17448 19.8474 9.7562 19.8474C9.91005 19.8474 10.0639 19.8438 10.2177 19.8354C10.3103 19.8318 10.4028 19.8234 10.4942 19.8174C10.5495 19.8137 10.6048 19.8113 10.66 19.8053C10.7766 19.7933 10.8944 19.7813 11.011 19.7657C11.0422 19.7621 11.0699 19.7597 11.0999 19.7537C11.2225 19.7356 11.3463 19.7164 11.4689 19.6948C11.4846 19.6948 11.4966 19.6911 11.5122 19.6887H11.5218C13.7862 19.2765 15.7861 18.0854 17.2261 16.4051C17.2381 16.393 17.2538 16.3834 17.2658 16.3678C17.6047 15.9711 17.9052 15.5457 18.1708 15.1094C18.1708 15.1094 18.1744 15.1034 18.1768 15.0998L18.1697 15.0985Z" fill="white"/>
</g>
<defs>
<clipPath id="clip0_4362_10718">
<rect width="20" height="20" fill="white"/>
</clipPath>
</defs>
</svg>
