<svg width="104" height="94" viewBox="0 0 104 94" fill="none" xmlns="http://www.w3.org/2000/svg">
<mask id="mask0_155_5871" style="mask-type:alpha" maskUnits="userSpaceOnUse" x="-2" y="0" width="106" height="89">
<path d="M-1.79537 3.27413C-1.79537 1.57889 -0.421106 0.204633 1.27413 0.204633H100.726C102.421 0.204633 103.795 1.57889 103.795 3.27413V85.5367C103.795 87.2319 102.421 88.6062 100.726 88.6062H1.27413C-0.421106 88.6062 -1.79537 87.2319 -1.79537 85.5367V3.27413Z" fill="white" stroke="#DBDBDB" stroke-width="0.409266"/>
</mask>
<g mask="url(#mask0_155_5871)">
<path d="M57.2705 24.5844C57.2705 25.565 57.6417 26.5094 58.3099 27.2284C58.9781 27.9474 59.8939 28.3879 60.8738 28.4616H82.9332C84.0944 28.4381 85.2032 27.9749 86.035 27.166C86.8668 26.3571 87.3593 25.263 87.4128 24.1052C87.4662 22.9475 87.0767 21.8127 86.323 20.9309C85.5693 20.0491 84.5079 19.4861 83.3538 19.3561C83.2977 17.5701 82.6204 15.8593 81.4382 14.5171C80.256 13.175 78.6426 12.2853 76.8748 12.0006C75.107 11.716 73.295 12.0541 71.7497 12.957C70.2045 13.8599 69.0223 15.2713 68.406 16.9491C67.771 16.6287 67.069 16.4626 66.3575 16.4644C65.1922 16.4643 64.0708 16.9076 63.2217 17.704C62.3727 18.5004 61.86 19.5899 61.7882 20.7505C61.5793 20.7153 61.3678 20.6981 61.156 20.699C60.1248 20.7012 59.1365 21.1115 58.408 21.8399C57.6796 22.5683 57.2705 23.5553 57.2705 24.5844Z" fill="#0101C8"/>
<path d="M74.7577 22.8164H70.0229V28.4725H74.7577V22.8164Z" fill="white"/>
<path d="M68.5415 23.6475H76.2392L72.389 19.1367L68.5415 23.6475Z" fill="white"/>
<path d="M83.1965 30.1992H62.1221V31.6748H83.1965V30.1992Z" fill="#DBDBDB"/>
<path d="M77.8567 30.1992H62.1221V31.6748H77.8567V30.1992Z" fill="#0101C8"/>
<path d="M40.5596 87.0312L41.2596 91.2307L46.0134 116.847H46.7812L43.3245 91.2307L42.8143 87.0312H40.5596Z" fill="#C7C7C7"/>
<path d="M42.8143 87.0312H40.5596L41.2596 91.2307H43.3245L42.8143 87.0312Z" fill="#A6A6A6"/>
<path d="M25.6309 116.847H26.3987L31.1525 91.2307L31.8525 87.0312H29.5978L29.0876 91.2307L25.6309 116.847Z" fill="#C7C7C7"/>
<path d="M29.5985 87.0312L29.0884 91.2307H31.1532L31.8533 87.0312H29.5985Z" fill="#A6A6A6"/>
<path d="M11.375 116.847H12.1402L16.8939 91.2307L17.5967 87.0312H15.3419L14.8318 91.2307L11.375 116.847Z" fill="#C7C7C7"/>
<path d="M14.8306 91.2307H16.8927L17.5955 87.0312H15.3407L14.8306 91.2307Z" fill="#A6A6A6"/>
<path d="M12.5879 89.0039H47.4217V85.3406H34.3814L29.9993 64.625H13.9174L12.5879 89.0039Z" fill="#C7C7C7"/>
<path d="M14.6175 85.3398H47.4217V89.0032H14.4873L14.6175 85.3398Z" fill="#DBDBDB"/>
<path d="M12.5879 89.0039H14.4872L15.7245 64.625H13.9174L12.5879 89.0039Z" fill="#DBDBDB"/>
<path d="M47.4944 112.732L34.7417 108.917C34.7417 108.917 45.2505 87.0646 44.9194 85.9518C44.6997 85.2099 28.9433 85.1584 24.3252 81.0213C19.5471 76.7379 23.267 68.3255 23.267 68.3255L36.5135 68.2578C36.5135 68.2578 36.2856 71.0168 36.7849 71.4473C37.1186 71.7316 55.2355 73.3237 58.6977 79.968C61.8561 85.9978 47.4944 112.732 47.4944 112.732Z" fill="#183C4F"/>
<path d="M44.9217 85.9518C44.9814 86.1386 44.7236 86.9238 44.2569 88.0989L53.778 99.7712C57.1751 92.0492 60.366 83.1413 58.7081 79.968C55.2378 73.3237 37.129 71.7316 36.7925 71.4473C36.2906 71.0195 36.5212 68.2578 36.5212 68.2578L28.1099 68.3011L42.0835 85.4292C43.7658 85.6133 44.8647 85.7595 44.9217 85.9518Z" fill="#263238"/>
<path d="M23.9802 70.8393C24.0209 70.398 24.0725 69.9594 24.1213 69.518C24.1213 69.4666 24.2082 69.4693 24.2027 69.518C24.0264 71.305 23.8446 73.1354 24.1729 74.9169C24.4754 76.5613 25.3059 78.0629 26.5389 79.1949C29.1681 81.6317 32.842 82.36 36.2662 82.9421C38.228 83.2752 40.2006 83.5297 42.1813 83.7246C43.1509 83.8185 44.1213 83.8961 45.0927 83.9575C46.0586 84.0171 47.0246 84.0252 47.9878 84.0793C48.2917 84.0956 48.5631 84.2364 48.5142 84.5829C48.4653 84.7946 48.3877 84.9987 48.2836 85.1894L47.9743 85.8907C47.5853 86.7625 47.1964 87.6344 46.8075 88.5062C46.0026 90.3004 45.1886 92.0901 44.3655 93.8753C42.7176 97.4186 41.0091 100.933 39.24 104.419C39.023 104.849 38.8005 105.282 38.5807 105.715C38.5807 105.743 38.5264 105.715 38.54 105.688C40.2277 102.16 41.8964 98.6208 43.5461 95.072C44.3601 93.3121 45.1741 91.5522 45.9881 89.7842C46.3933 88.9015 46.7949 88.0179 47.1928 87.1335C47.3936 86.693 47.5926 86.2499 47.7897 85.804C47.8901 85.5847 47.9878 85.3627 48.0882 85.1407C48.1886 84.9187 48.4708 84.5152 48.2619 84.3284C48.1235 84.2147 47.8386 84.2526 47.6731 84.2499L46.9025 84.2228C46.4168 84.2066 45.9311 84.1876 45.4427 84.1633C44.4587 84.1145 43.4746 84.0477 42.4906 83.9629C40.5641 83.795 38.6458 83.5513 36.7383 83.2454C33.3358 82.7039 29.6348 82.0838 26.9107 79.8041C25.6946 78.8162 24.7886 77.5005 24.3004 76.0135C23.7713 74.3483 23.8229 72.5613 23.9802 70.8393Z" fill="#455A64"/>
<path d="M70.5637 101.24L57.849 107.578C57.849 107.578 47.9291 87.4556 46.8411 86.1532C45.3894 84.4231 26.4911 86.8653 22.0331 81.2796C17.4204 75.5044 21.3737 68.332 21.3737 68.332H35.7544C35.7544 68.332 35.7978 69.9241 34.9675 72.2526C34.9675 72.2526 51.4184 71.2752 56.0745 75.7914C59.6534 79.2516 70.5637 101.24 70.5637 101.24Z" fill="#183C4F"/>
<path d="M32.3435 73.6949C33.0797 73.1885 33.8433 72.723 34.6309 72.3005C35.1841 72.0101 35.7649 71.7752 36.3647 71.5993C36.7853 71.4991 36.967 71.4693 36.5736 71.6534L35.5154 72.1543C35.5914 72.1543 35.6674 72.1543 35.7406 72.1543C36.012 72.1543 36.305 72.1299 36.5872 72.1245C37.1298 72.1083 37.6942 72.1245 38.2477 72.111C39.3711 72.111 40.4808 72.2085 41.6014 72.2653C41.6062 72.267 41.6104 72.2701 41.6133 72.2742C41.6162 72.2783 41.6178 72.2833 41.6178 72.2883C41.6178 72.2934 41.6162 72.2983 41.6133 72.3025C41.6104 72.3066 41.6062 72.3097 41.6014 72.3114C40.4835 72.2762 39.3602 72.333 38.2423 72.3303C37.6996 72.3303 37.1353 72.3438 36.5818 72.3547L35.7678 72.3682C35.5391 72.3804 35.3099 72.3804 35.0813 72.3682L34.772 72.5144C33.958 72.8962 33.144 73.2969 32.3652 73.7382C32.3435 73.7409 32.3272 73.7112 32.3435 73.6949Z" fill="#455A64"/>
<path d="M36.0994 67.7876C35.9529 68.4672 35.8281 69.1414 35.6572 69.821C35.5812 70.1296 35.5025 70.441 35.3858 70.7415C35.299 70.9961 35.1606 71.2831 34.8703 71.3508C34.5393 71.4266 34.4335 71.145 34.4524 70.8688C34.4714 70.5926 34.542 70.2488 34.5908 69.9455C34.6505 69.5935 34.7102 69.2416 34.7618 68.8896C34.7862 68.7136 34.8133 68.5376 34.8377 68.3481C34.8377 68.3047 34.8649 67.969 34.8866 67.8715C34.8866 67.8715 34.8866 67.8878 34.9056 67.8851C34.9104 67.8845 34.9149 67.8823 34.9184 67.8789C34.9218 67.8754 34.924 67.8709 34.9246 67.8661C34.9277 67.8571 34.9274 67.8472 34.924 67.8383C34.9205 67.8294 34.914 67.822 34.9056 67.8174C34.9056 67.8174 34.8866 67.8174 34.8757 67.8174C34.8133 67.8526 34.8106 67.9419 34.7943 68.0069C34.7455 68.1775 34.6939 68.3508 34.6505 68.5213C34.5691 68.8463 34.4877 69.1712 34.4172 69.4961C34.3466 69.821 34.2788 70.1513 34.211 70.4762C34.1353 70.719 34.1213 70.9767 34.1703 71.2262C34.2046 71.3438 34.2758 71.4472 34.3735 71.5213C34.4712 71.5954 34.5902 71.6362 34.7129 71.6378C34.7129 71.6594 34.6885 71.6811 34.6804 71.7027C34.6532 71.7704 34.6342 71.8408 34.6098 71.9112C34.5854 71.9816 34.5664 72.052 34.5474 72.1224C34.5448 72.1576 34.5448 72.1929 34.5474 72.228C34.5474 72.2659 34.5474 72.3038 34.5474 72.3444C34.5445 72.3577 34.5466 72.3715 34.5534 72.3832C34.5601 72.395 34.5711 72.4038 34.584 72.4078C34.597 72.4119 34.611 72.411 34.6233 72.4053C34.6356 72.3996 34.6453 72.3894 34.6505 72.3769C34.6695 72.3417 34.6939 72.3146 34.7129 72.2822C34.7318 72.2451 34.7464 72.2061 34.7563 72.1657C34.7753 72.098 34.7943 72.0304 34.8079 71.9627C34.8265 71.8941 34.841 71.8245 34.8513 71.7542C34.8553 71.7137 34.8553 71.6729 34.8513 71.6323C34.9923 71.6147 35.1256 71.5584 35.2366 71.4699C35.4211 71.3024 35.553 71.0851 35.6165 70.8444C35.7087 70.5601 35.7793 70.2677 35.8471 69.978C36.0286 69.2677 36.1475 68.5429 36.2025 67.812C36.1992 67.8019 36.1933 67.7929 36.1854 67.7858C36.1776 67.7787 36.1681 67.7736 36.1578 67.7712C36.1475 67.7688 36.1367 67.769 36.1265 67.7719C36.1163 67.7747 36.107 67.7801 36.0994 67.7876Z" fill="#455A64"/>
<path d="M29.1636 69.7191C29.1121 70.0549 29.0849 70.3906 29.0198 70.7237C28.9547 71.0567 28.8787 71.3762 28.7838 71.6957C28.6975 72.0052 28.5688 72.3013 28.4012 72.5756C28.2248 72.8333 28.0118 73.064 27.769 73.2606C27.3072 73.6537 26.7838 73.9684 26.2197 74.1921C25.9354 74.3051 25.6445 74.401 25.3487 74.4791C25.194 74.517 25.0394 74.5494 24.882 74.5765C24.7518 74.5848 24.6245 74.6189 24.5075 74.6767C24.4963 74.6834 24.487 74.693 24.4806 74.7044C24.4741 74.7157 24.4707 74.7286 24.4707 74.7417C24.4707 74.7548 24.4741 74.7676 24.4806 74.779C24.487 74.7904 24.4963 74.7999 24.5075 74.8067C24.7369 74.8678 24.9783 74.8678 25.2076 74.8067C25.459 74.7743 25.7075 74.7227 25.951 74.6523C26.443 74.505 26.9116 74.289 27.343 74.0106C27.7797 73.744 28.1678 73.4053 28.4907 73.0088C28.7899 72.5919 28.9894 72.1121 29.0741 71.6063C29.2098 70.9888 29.2582 70.3554 29.2179 69.7246C29.2154 69.7198 29.2117 69.7157 29.2073 69.7126C29.2028 69.7096 29.1976 69.7077 29.1922 69.7072C29.1868 69.7067 29.1814 69.7075 29.1764 69.7096C29.1714 69.7116 29.167 69.7149 29.1636 69.7191Z" fill="#455A64"/>
<path d="M21.3827 71.6737C21.3827 71.6608 21.3878 71.6484 21.397 71.6393C21.4061 71.6301 21.4186 71.625 21.4315 71.625C21.4445 71.625 21.4569 71.6301 21.466 71.6393C21.4752 71.6484 21.4804 71.6608 21.4804 71.6737C21.4532 74.7901 21.9335 78.2748 24.3402 80.5112C26.9749 82.9643 30.7789 83.2567 34.2005 83.2188C36.1676 83.2026 38.1266 83.1538 40.0911 83.2188C42.0556 83.2838 44.058 83.3758 46.0197 83.6276C46.7827 83.6989 47.4953 84.0387 48.0303 84.5861C48.5466 85.1716 48.9944 85.8139 49.3653 86.5004C50.3529 88.1249 51.3098 89.7765 52.236 91.4552C54.0792 94.7747 55.7832 98.1637 57.3479 101.622C57.5433 102.052 57.7359 102.482 57.9258 102.914C57.9394 102.941 57.896 102.965 57.8824 102.938C56.2924 99.4669 54.5803 96.0563 52.7461 92.7061C51.8308 91.0292 50.8856 89.3704 49.9107 87.7296C49.4521 86.9579 49.0098 86.1673 48.497 85.4282C48.0466 84.7756 47.4795 84.1637 46.6981 83.9255C46.218 83.8064 45.7271 83.7356 45.2329 83.7143C44.7318 83.6692 44.2298 83.6276 43.727 83.5897C42.7484 83.5193 41.7679 83.4661 40.7857 83.43C38.805 83.3569 36.827 83.3812 34.8462 83.4164C31.4084 83.4787 27.6505 83.3623 24.8069 81.1773C23.5884 80.2237 22.6686 78.9423 22.156 77.4842C21.6516 75.9886 21.3932 74.4214 21.3908 72.8434C21.3718 72.4589 21.3745 72.0663 21.3827 71.6737Z" fill="#455A64"/>
<path d="M41.9724 85.3282C42.6724 85.3282 43.3752 85.3688 44.0752 85.3931C44.6597 85.3835 45.2435 85.4353 45.8172 85.5475C46.3598 85.6801 46.7695 85.7424 47.2037 86.3354C47.7463 87.0745 50.6985 92.7685 51.9384 95.2893C52.2821 95.9878 52.6213 96.6891 52.9559 97.3931C53.3005 98.1214 53.6044 98.866 53.949 99.5943C53.949 99.6187 53.9219 99.6431 53.9083 99.616C53.6044 99.0068 53.2653 98.4165 52.9532 97.8127C52.6412 97.209 52.3319 96.5997 52.028 95.9905C51.4112 94.7613 50.7952 93.533 50.1802 92.3056C49.5643 91.0871 48.8235 89.9012 48.1968 88.691C47.6731 87.6729 46.9595 86.2812 46.4602 86.0754C45.7639 85.8029 45.0337 85.6261 44.2896 85.5502C43.5163 85.496 42.743 85.45 41.9697 85.3823C41.9661 85.3821 41.9626 85.3813 41.9594 85.3797C41.9562 85.3782 41.9533 85.3761 41.9509 85.3734C41.9485 85.3708 41.9466 85.3677 41.9454 85.3643C41.9442 85.361 41.9437 85.3574 41.9439 85.3539C41.9441 85.3503 41.9449 85.3468 41.9465 85.3436C41.948 85.3404 41.9501 85.3375 41.9528 85.3351C41.9554 85.3327 41.9585 85.3309 41.9619 85.3297C41.9652 85.3285 41.9688 85.328 41.9724 85.3282Z" fill="#455A64"/>
<path d="M30.8105 42.09C30.3325 42.2728 29.9105 42.5767 29.586 42.9717C29.2616 43.3667 29.0458 43.8392 28.96 44.3427C28.874 44.9941 28.7025 45.6313 28.4499 46.238C28.1281 46.8363 27.7194 47.3837 27.237 47.8626C26.5044 48.6559 25.9753 49.46 25.7989 50.5701C25.586 51.743 25.6202 52.9473 25.8993 54.1062C25.6843 52.8868 25.7221 51.6363 26.0106 50.432C26.2982 49.2163 27.0471 48.488 27.8204 47.5999C28.4365 46.911 28.8554 46.0693 29.0332 45.1631C29.139 44.6081 29.1689 44.0232 29.4294 43.5115C29.7414 42.8969 30.3031 42.5314 30.8593 42.2092C30.8702 42.1999 30.8779 42.1875 30.8813 42.1736C30.8847 42.1597 30.8836 42.1451 30.8782 42.1319C30.8728 42.1187 30.8633 42.1075 30.8511 42.1C30.839 42.0925 30.8247 42.089 30.8105 42.09Z" fill="#183C4F"/>
<path d="M40.3398 49.2078C39.7185 48.2845 39.0619 47.4912 38.7363 46.373C38.4405 45.355 38.3021 44.2909 37.9982 43.2728C37.9982 43.2566 37.9684 43.2728 37.9738 43.2728C38.4242 45.0734 38.4188 46.8631 39.4661 48.4172C40.0332 49.262 40.6057 50.0418 40.953 51.0436C41.3029 52.0837 41.4502 53.181 41.3872 54.2764C41.3872 54.3143 41.436 54.317 41.4442 54.2764C41.7234 52.5085 41.3295 50.7004 40.3398 49.2078Z" fill="#183C4F"/>
<path d="M32.7559 55.5786C33.6268 60.7906 37.1162 67.3754 37.9519 67.7789C39.4334 68.4937 49.3479 69.2626 49.7359 69.2274C50.7073 69.1353 51.9066 62.6534 51.0926 61.9874C50.9081 61.8385 41.4901 61.7681 41.0912 61.6489C40.6001 61.5027 38.2775 58.1589 35.868 54.7555C34.1912 52.3647 32.2946 52.7979 32.7559 55.5786Z" fill="#3D8BC5"/>
<path d="M48.5371 68.8969C49.4679 69.2865 50.4232 69.6148 51.397 69.8798C52.1757 70.0557 54.4224 70.5025 54.7018 69.6713C54.8945 69.1027 53.6165 68.683 52.6967 68.3662C52.2191 68.2011 51.6113 67.7462 51.7362 67.4402C51.9451 66.8987 53.1769 67.359 53.9909 67.7706C55.5701 68.5666 57.6946 70.0395 58.5819 69.2137C58.9156 68.8996 58.4761 68.4014 57.8466 67.9059C58.8532 68.4475 59.9196 68.8942 60.3049 68.5612C60.4041 68.476 60.4669 68.3563 60.4806 68.2264C60.4942 68.0966 60.4575 67.9664 60.3781 67.8626C60.504 67.9121 60.6418 67.9233 60.774 67.8949C60.9063 67.8664 61.0272 67.7997 61.1216 67.7029C61.4173 67.3536 61.2355 66.8906 60.8502 66.3978C60.9084 66.387 60.9632 66.3627 61.0103 66.327C61.0574 66.2913 61.0955 66.2451 61.1216 66.1921C61.7321 65.1361 58.2129 62.4015 57.0516 62.2065C53.6002 61.5973 49.9969 62.1036 49.9969 62.1036C48.7244 63.2489 48.5344 68.8942 48.5371 68.8969Z" fill="#EB9481"/>
<path d="M53.3562 65.4377C54.1758 65.5085 54.9693 65.7611 55.6788 66.1769C56.5063 66.6751 57.1792 67.3818 57.9498 67.9531C57.9715 67.9693 57.9498 68.0018 57.9254 67.9856C57.5618 67.6877 57.1657 67.4251 56.7885 67.1408C56.4114 66.8565 56.0613 66.5722 55.6761 66.3285C54.9798 65.8646 54.1861 65.5663 53.3562 65.4567C53.3562 65.4567 53.348 65.435 53.3562 65.4377Z" fill="#263238"/>
<path d="M53.906 63.9573C54.8278 64.117 55.7307 64.3711 56.6003 64.7155C57.5364 65.1243 58.2934 65.8364 59.0423 66.5214C59.4873 66.9302 59.9241 67.3526 60.3501 67.7831C60.3691 67.7994 60.3501 67.8319 60.3257 67.8129C59.5714 67.1053 58.7972 66.4212 58.0031 65.7606C57.2695 65.1416 56.4201 64.6741 55.5041 64.3851C54.9804 64.22 54.4459 64.0954 53.9114 63.9709C53.8924 63.9709 53.8951 63.9546 53.906 63.9573Z" fill="#263238"/>
<path d="M54.7879 62.6406C55.667 62.7679 56.4349 62.8762 57.2299 63.2959C58.1278 63.8228 58.9563 64.4595 59.6963 65.1912C60.1015 65.5756 60.4958 65.97 60.8793 66.3744C60.8929 66.3906 60.8657 66.4177 60.8495 66.4014C59.9679 65.5212 59.0308 64.6982 58.0439 63.9375C57.58 63.5669 57.0609 63.2709 56.5054 63.0603C55.9445 62.8781 55.369 62.744 54.7852 62.6596C54.7852 62.6596 54.7852 62.6406 54.7879 62.6406Z" fill="#263238"/>
<path d="M48.7942 64.6262V69.4998C48.7942 69.4998 40.5565 69.1641 37.911 68.0242C36.4892 67.4096 32.8669 58.2986 32.3731 55.3826C31.8874 52.5126 33.0243 50.8122 35.9655 54.1425C38.2203 56.6957 41.5306 61.3013 41.7938 61.4286C42.057 61.5558 48.805 61.0603 48.805 61.0603V64.6208" fill="#0190FF"/>
<path d="M33 57.3717C33 57.4404 32.9771 57.5071 32.9349 57.5613C32.8833 57.3961 32.8318 57.2337 32.7856 57.0766C32.8481 57.0967 32.9026 57.1362 32.9411 57.1892C32.9797 57.2423 33.0003 57.3062 33 57.3717ZM36.9343 57.0577C36.8721 57.0577 36.8112 57.0761 36.7595 57.1106C36.7077 57.1451 36.6674 57.1942 36.6435 57.2516C36.6197 57.3089 36.6135 57.3721 36.6256 57.433C36.6378 57.4939 36.6678 57.5499 36.7118 57.5938C36.7558 57.6378 36.8119 57.6677 36.8729 57.6798C36.934 57.6919 36.9973 57.6857 37.0548 57.6619C37.1123 57.6381 37.1614 57.5979 37.196 57.5462C37.2306 57.4946 37.2491 57.4339 37.2491 57.3717C37.2484 57.2887 37.215 57.2092 37.1561 57.1504C37.0972 57.0917 37.0176 57.0584 36.9343 57.0577ZM34.8098 53.8086C34.7475 53.8086 34.6867 53.827 34.6349 53.8615C34.5832 53.896 34.5428 53.9451 34.519 54.0025C34.4952 54.0599 34.4889 54.123 34.5011 54.1839C34.5132 54.2449 34.5432 54.3008 34.5872 54.3448C34.6312 54.3887 34.6873 54.4186 34.7484 54.4307C34.8094 54.4428 34.8727 54.4366 34.9302 54.4128C34.9878 54.3891 35.0369 54.3488 35.0715 54.2972C35.1061 54.2455 35.1245 54.1848 35.1245 54.1227C35.1224 54.0408 35.0883 53.963 35.0295 53.9058C34.9707 53.8487 34.8919 53.8167 34.8098 53.8167V53.8086ZM36.9343 63.3555C36.8713 63.3549 36.8096 63.3731 36.7569 63.4077C36.7043 63.4423 36.6632 63.4918 36.6389 63.5498C36.6145 63.6078 36.608 63.6717 36.6201 63.7334C36.6323 63.7951 36.6626 63.8518 36.7072 63.8962C36.7517 63.9407 36.8085 63.9709 36.8704 63.9831C36.9322 63.9952 36.9962 63.9887 37.0544 63.9644C37.1125 63.9401 37.162 63.8991 37.1967 63.8466C37.2314 63.794 37.2496 63.7324 37.2491 63.6695C37.2484 63.5865 37.215 63.507 37.1561 63.4482C37.0972 63.3895 37.0176 63.3562 36.9343 63.3555ZM41.1807 63.3555C41.1178 63.3555 41.0563 63.3741 41.004 63.409C40.9518 63.444 40.9111 63.4936 40.8872 63.5517C40.8632 63.6097 40.8571 63.6735 40.8695 63.7351C40.882 63.7966 40.9125 63.853 40.9572 63.8972C41.0019 63.9414 41.0587 63.9714 41.1204 63.9833C41.1822 63.9952 41.2461 63.9885 41.3041 63.9641C41.362 63.9397 41.4114 63.8987 41.446 63.8463C41.4805 63.7938 41.4987 63.7323 41.4982 63.6695C41.4982 63.6281 41.4899 63.587 41.4739 63.5487C41.458 63.5104 41.4345 63.4757 41.405 63.4465C41.3755 63.4173 41.3405 63.3942 41.302 63.3786C41.2635 63.363 41.2223 63.3551 41.1807 63.3555ZM45.4298 63.3555C45.3668 63.3549 45.305 63.3731 45.2524 63.4077C45.1998 63.4423 45.1587 63.4918 45.1343 63.5498C45.1099 63.6078 45.1034 63.6717 45.1156 63.7334C45.1277 63.7951 45.158 63.8518 45.2026 63.8962C45.2472 63.9407 45.304 63.9709 45.3658 63.9831C45.4276 63.9952 45.4917 63.9887 45.5498 63.9644C45.6079 63.9401 45.6575 63.8991 45.6922 63.8466C45.7268 63.794 45.7451 63.7324 45.7445 63.6695C45.7445 63.5862 45.7114 63.5064 45.6523 63.4475C45.5933 63.3886 45.5133 63.3555 45.4298 63.3555ZM34.8098 60.1064C34.7468 60.1059 34.685 60.124 34.6324 60.1586C34.5798 60.1932 34.5387 60.2427 34.5143 60.3007C34.49 60.3587 34.4834 60.4226 34.4956 60.4843C34.5078 60.546 34.5381 60.6027 34.5826 60.6472C34.6272 60.6916 34.684 60.7219 34.7458 60.734C34.8077 60.7461 34.8717 60.7396 34.9298 60.7153C34.9879 60.691 35.0375 60.65 35.0722 60.5975C35.1068 60.545 35.1251 60.4833 35.1245 60.4205C35.1245 60.3372 35.0914 60.2573 35.0324 60.1984C34.9733 60.1395 34.8933 60.1064 34.8098 60.1064ZM39.0589 60.1064C38.9959 60.1059 38.9341 60.124 38.8815 60.1586C38.8289 60.1932 38.7878 60.2427 38.7634 60.3007C38.739 60.3587 38.7325 60.4226 38.7447 60.4843C38.7568 60.546 38.7871 60.6027 38.8317 60.6472C38.8763 60.6916 38.9331 60.7219 38.9949 60.734C39.0567 60.7461 39.1208 60.7396 39.1789 60.7153C39.237 60.691 39.2866 60.65 39.3212 60.5975C39.3559 60.545 39.3742 60.4833 39.3736 60.4205C39.3736 60.3372 39.3405 60.2573 39.2814 60.1984C39.2224 60.1395 39.1423 60.1064 39.0589 60.1064ZM39.0589 66.3988C38.996 66.3982 38.9343 66.4164 38.8818 66.4508C38.8292 66.4853 38.7881 66.5346 38.7636 66.5924C38.7392 66.6503 38.7325 66.7141 38.7445 66.7757C38.7564 66.8373 38.7864 66.894 38.8307 66.9386C38.875 66.9832 38.9316 67.0136 38.9932 67.026C39.0549 67.0385 39.1188 67.0324 39.177 67.0085C39.2352 66.9846 39.2849 66.944 39.3199 66.8918C39.3549 66.8397 39.3736 66.7783 39.3736 66.7156C39.3729 66.6325 39.3395 66.553 39.2806 66.4943C39.2218 66.4355 39.1421 66.4022 39.0589 66.4015V66.3988ZM43.3052 66.3988C43.2424 66.3988 43.1811 66.4174 43.1289 66.4522C43.0767 66.487 43.036 66.5364 43.0119 66.5943C42.9879 66.6522 42.9816 66.7159 42.9939 66.7774C43.0061 66.8388 43.0364 66.8953 43.0808 66.9396C43.1252 66.9839 43.1817 67.014 43.2433 67.0263C43.3049 67.0385 43.3687 67.0322 43.4267 67.0082C43.4847 66.9843 43.5343 66.9436 43.5692 66.8916C43.6041 66.8395 43.6227 66.7782 43.6227 66.7156C43.6227 66.6741 43.6145 66.633 43.5985 66.5947C43.5825 66.5565 43.5591 66.5217 43.5296 66.4925C43.5 66.4633 43.465 66.4402 43.4265 66.4246C43.388 66.409 43.3468 66.4011 43.3052 66.4015V66.3988ZM47.5543 66.3988C47.4914 66.3982 47.4298 66.4164 47.3772 66.4508C47.3247 66.4853 47.2835 66.5346 47.2591 66.5924C47.2346 66.6503 47.228 66.7141 47.2399 66.7757C47.2519 66.8373 47.2819 66.894 47.3262 66.9386C47.3705 66.9832 47.427 67.0136 47.4887 67.026C47.5503 67.0385 47.6143 67.0324 47.6725 67.0085C47.7306 66.9846 47.7804 66.944 47.8154 66.8918C47.8504 66.8397 47.8691 66.7783 47.8691 66.7156C47.8691 66.6323 47.8359 66.5524 47.7769 66.4935C47.7179 66.4346 47.6378 66.4015 47.5543 66.4015V66.3988Z" fill="white"/>
<path d="M47.0334 65.1263C47.0334 64.5306 47.0524 63.9376 47.0659 63.342C47.0795 62.7463 47.0659 62.1506 47.131 61.5604C47.131 61.5333 47.1772 61.5306 47.1799 61.5604C47.2314 62.1317 47.2179 62.7138 47.2287 63.2878C47.2396 63.8618 47.2287 64.5035 47.245 65.11C47.245 66.3122 47.2097 67.5116 47.1473 68.7111C47.1473 68.7409 47.1039 68.7354 47.1039 68.7111C47.0524 67.5116 47.0198 66.3203 47.0334 65.1263Z" fill="#263238"/>
<path opacity="0.1" d="M44.2638 69.186C41.8923 68.9586 39.2142 68.5931 37.9064 68.0299C36.4819 67.4153 32.8623 58.3043 32.3712 55.3855C32.0999 53.7773 32.3332 52.5345 33.1174 52.3477L44.2638 69.186Z" fill="black"/>
<path d="M36.8641 65.4631L37.1354 70.4965H19.7891C19.7891 70.4965 24.7328 56.2655 28.0674 53.2574C30.3222 51.224 32.7154 51.6112 34.1073 53.3061C34.4601 53.7339 38.0851 58.7781 38.3591 61.1581C38.6033 63.2483 36.8641 65.4631 36.8641 65.4631Z" fill="#0190FF"/>
<path d="M37.0166 68.2301C36.9244 67.3095 36.8484 66.3862 36.7833 65.4656V65.4359L36.805 65.4061C37.2756 64.781 37.6556 64.0928 37.9337 63.3619C38.0691 62.9974 38.1664 62.6199 38.2241 62.2355C38.2896 61.8551 38.2942 61.4667 38.2376 61.0848C38.1847 60.6987 38.0938 60.3187 37.9663 59.9503C37.8441 59.5769 37.7028 59.21 37.543 58.8511C37.2159 58.1305 36.8481 57.429 36.4414 56.75C36.9101 57.3934 37.3231 58.0755 37.676 58.7888C38.0506 59.4991 38.3141 60.2625 38.4574 61.0523C38.568 61.8607 38.4612 62.684 38.1481 63.4377C37.859 64.1889 37.4514 64.889 36.9407 65.5117L36.9596 65.4548C36.9814 66.3808 37.0085 67.3041 37.0166 68.2301Z" fill="#263238"/>
<path d="M37.2661 57.4688C37.4338 57.7563 37.5694 58.0614 37.6704 58.3785C37.7215 58.5375 37.7632 58.6993 37.7952 58.8631C37.8304 59.0277 37.8441 59.196 37.8359 59.364C37.7355 59.0446 37.6243 58.7386 37.5239 58.4272C37.4195 58.113 37.3335 57.7929 37.2661 57.4688Z" fill="#263238"/>
<path d="M28.7539 57.3754C28.7544 57.4381 28.7363 57.4996 28.7017 57.5521C28.6672 57.6045 28.6178 57.6456 28.5598 57.6699C28.5019 57.6943 28.4379 57.701 28.3762 57.6891C28.3144 57.6772 28.2576 57.6472 28.2129 57.603C28.1683 57.5588 28.1378 57.5024 28.1253 57.4409C28.1128 57.3793 28.1189 57.3155 28.1429 57.2575C28.1668 57.1994 28.2075 57.1498 28.2598 57.1149C28.312 57.0799 28.3735 57.0613 28.4364 57.0613C28.478 57.0609 28.5192 57.0688 28.5577 57.0844C28.5962 57.1 28.6312 57.1231 28.6607 57.1523C28.6903 57.1815 28.7137 57.2163 28.7297 57.2545C28.7457 57.2928 28.7539 57.3339 28.7539 57.3754ZM32.6855 57.0613C32.6233 57.0613 32.5624 57.0797 32.5106 57.1142C32.4589 57.1487 32.4185 57.1978 32.3947 57.2552C32.3709 57.3126 32.3647 57.3757 32.3768 57.4366C32.389 57.4976 32.4189 57.5535 32.463 57.5974C32.507 57.6414 32.5631 57.6713 32.6241 57.6834C32.6852 57.6955 32.7485 57.6893 32.806 57.6655C32.8635 57.6418 32.9126 57.6015 32.9472 57.5498C32.9818 57.4982 33.0003 57.4375 33.0003 57.3754C33.0003 57.3341 32.9921 57.2933 32.9763 57.2552C32.9605 57.2171 32.9373 57.1824 32.9081 57.1533C32.8788 57.1241 32.8441 57.101 32.806 57.0852C32.7678 57.0694 32.7268 57.0613 32.6855 57.0613ZM36.6823 57.1858C36.64 57.24 36.6171 57.3067 36.6171 57.3754C36.6178 57.4589 36.6516 57.5388 36.7111 57.5976C36.7705 57.6564 36.8509 57.6894 36.9346 57.6894H36.9563C36.8749 57.5189 36.7799 57.351 36.685 57.1858H36.6823ZM30.561 53.8203C30.4988 53.8209 30.4383 53.8397 30.3869 53.8746C30.3355 53.9094 30.2955 53.9586 30.2721 54.0161C30.2487 54.0735 30.2429 54.1366 30.2553 54.1973C30.2678 54.2581 30.298 54.3138 30.3421 54.3574C30.3862 54.4011 30.4423 54.4307 30.5033 54.4426C30.5643 54.4545 30.6274 54.4482 30.6848 54.4243C30.7421 54.4005 30.7911 54.3602 30.8256 54.3086C30.86 54.257 30.8784 54.1964 30.8784 54.1344C30.8784 54.0929 30.8702 54.0519 30.8542 54.0136C30.8382 53.9753 30.8148 53.9406 30.7853 53.9114C30.7558 53.8822 30.7208 53.8591 30.6823 53.8434C30.6438 53.8278 30.6025 53.82 30.561 53.8203ZM34.5767 53.9259C34.5237 53.9824 34.4945 54.057 34.4953 54.1344C34.4953 54.2177 34.5285 54.2976 34.5875 54.3565C34.6465 54.4154 34.7266 54.4485 34.8101 54.4485C34.8499 54.4483 34.8895 54.441 34.9267 54.4268C34.7992 54.24 34.6825 54.0721 34.5767 53.9259ZM24.2036 63.3591C24.1406 63.3585 24.0789 63.3767 24.0262 63.4113C23.9736 63.4459 23.9325 63.4954 23.9082 63.5534C23.8838 63.6114 23.8773 63.6753 23.8894 63.737C23.9016 63.7987 23.9319 63.8554 23.9765 63.8998C24.021 63.9443 24.0778 63.9745 24.1397 63.9867C24.2015 63.9988 24.2655 63.9923 24.3237 63.968C24.3818 63.9437 24.4313 63.9027 24.466 63.8502C24.5007 63.7977 24.5189 63.736 24.5184 63.6732C24.5184 63.5899 24.4852 63.51 24.4262 63.4511C24.3672 63.3922 24.2871 63.3591 24.2036 63.3591ZM28.45 63.3591C28.3871 63.3591 28.3256 63.3777 28.2734 63.4127C28.2211 63.4476 28.1804 63.4972 28.1565 63.5553C28.1325 63.6133 28.1264 63.6771 28.1389 63.7387C28.1513 63.8002 28.1818 63.8566 28.2265 63.9008C28.2712 63.945 28.328 63.975 28.3897 63.9869C28.4515 63.9988 28.5154 63.9921 28.5734 63.9677C28.6313 63.9434 28.6807 63.9023 28.7153 63.8499C28.7498 63.7974 28.768 63.7359 28.7675 63.6732C28.7675 63.6305 28.7589 63.5883 28.742 63.5491C28.7252 63.5099 28.7006 63.4745 28.6696 63.4451C28.6386 63.4157 28.602 63.3929 28.5619 63.3782C28.5218 63.3634 28.4791 63.3569 28.4364 63.3591H28.45ZM32.6991 63.3591C32.6361 63.3585 32.5743 63.3767 32.5217 63.4113C32.4691 63.4459 32.428 63.4954 32.4036 63.5534C32.3792 63.6114 32.3727 63.6753 32.3849 63.737C32.397 63.7987 32.4273 63.8554 32.4719 63.8998C32.5165 63.9443 32.5733 63.9745 32.6351 63.9867C32.6969 63.9988 32.761 63.9923 32.8191 63.968C32.8772 63.9437 32.9268 63.9027 32.9615 63.8502C32.9961 63.7977 33.0144 63.736 33.0138 63.6732C33.0139 63.6307 33.0053 63.5888 32.9886 63.5497C32.972 63.5107 32.9476 63.4755 32.9169 63.4461C32.8862 63.4168 32.8499 63.3939 32.8101 63.379C32.7704 63.364 32.728 63.3572 32.6855 63.3591H32.6991ZM36.9482 63.3591C36.8851 63.3585 36.8234 63.3767 36.7708 63.4113C36.7182 63.4459 36.677 63.4954 36.6527 63.5534C36.6283 63.6114 36.6218 63.6753 36.634 63.737C36.6461 63.7987 36.6764 63.8554 36.721 63.8998C36.7655 63.9443 36.8224 63.9745 36.8842 63.9867C36.946 63.9988 37.0101 63.9923 37.0682 63.968C37.1263 63.9437 37.1759 63.9027 37.2105 63.8502C37.2452 63.7977 37.2634 63.736 37.2629 63.6732C37.2626 63.6309 37.2537 63.589 37.237 63.5502C37.2202 63.5114 37.1957 63.4763 37.1651 63.447C37.1345 63.4177 37.0984 63.3949 37.0588 63.3798C37.0192 63.3647 36.977 63.3576 36.9346 63.3591H36.9482ZM26.3282 60.11C26.2652 60.1095 26.2034 60.1277 26.1508 60.1623C26.0982 60.1969 26.0571 60.2463 26.0327 60.3043C26.0083 60.3623 26.0018 60.4262 26.014 60.4879C26.0261 60.5496 26.0564 60.6063 26.101 60.6508C26.1456 60.6952 26.2024 60.7255 26.2642 60.7376C26.326 60.7497 26.3901 60.7432 26.4482 60.7189C26.5063 60.6946 26.5559 60.6536 26.5906 60.6011C26.6252 60.5486 26.6435 60.487 26.6429 60.4241C26.643 60.3817 26.6344 60.3397 26.6177 60.3007C26.6011 60.2617 26.5767 60.2264 26.546 60.1971C26.5153 60.1677 26.479 60.1449 26.4392 60.1299C26.3995 60.1149 26.3571 60.1082 26.3146 60.11H26.3282ZM30.5745 60.11C30.5116 60.11 30.4502 60.1286 30.3979 60.1636C30.3456 60.1985 30.3049 60.2481 30.281 60.3062C30.257 60.3642 30.2509 60.4281 30.2634 60.4896C30.2759 60.5511 30.3064 60.6075 30.351 60.6517C30.3957 60.6959 30.4525 60.7259 30.5143 60.7378C30.576 60.7497 30.64 60.7431 30.6979 60.7187C30.7559 60.6943 30.8053 60.6533 30.8398 60.6008C30.8744 60.5484 30.8925 60.4868 30.892 60.4241C30.8921 60.3814 30.8834 60.3392 30.8666 60.3C30.8498 60.2608 30.8251 60.2254 30.7941 60.196C30.7632 60.1667 30.7265 60.1439 30.6864 60.1291C30.6463 60.1143 30.6037 60.1078 30.561 60.11H30.5745ZM34.8236 60.11C34.7606 60.1095 34.6989 60.1277 34.6462 60.1623C34.5936 60.1969 34.5525 60.2463 34.5281 60.3043C34.5038 60.3623 34.4973 60.4262 34.5094 60.4879C34.5216 60.5496 34.5519 60.6063 34.5964 60.6508C34.641 60.6952 34.6978 60.7255 34.7596 60.7376C34.8215 60.7497 34.8855 60.7432 34.9437 60.7189C35.0018 60.6946 35.0513 60.6536 35.086 60.6011C35.1207 60.5486 35.1389 60.487 35.1384 60.4241C35.1384 60.3817 35.1298 60.3397 35.1132 60.3007C35.0965 60.2617 35.0721 60.2264 35.0414 60.1971C35.0108 60.1677 34.9744 60.1449 34.9347 60.1299C34.8949 60.1149 34.8525 60.1082 34.8101 60.11H34.8236ZM20.0956 69.6785L19.8867 70.2661C19.9092 70.2689 19.932 70.2689 19.9546 70.2661C20.0257 70.2665 20.0949 70.2428 20.1509 70.1988C20.2068 70.1549 20.2462 70.0934 20.2625 70.0242C20.2789 69.9551 20.2713 69.8825 20.241 69.8182C20.2107 69.754 20.1595 69.7019 20.0956 69.6704V69.6785ZM24.2036 69.6433C24.1406 69.6428 24.0789 69.661 24.0262 69.6956C23.9736 69.7302 23.9325 69.7796 23.9082 69.8376C23.8838 69.8956 23.8773 69.9595 23.8894 70.0212C23.9016 70.083 23.9319 70.1396 23.9765 70.1841C24.021 70.2286 24.0778 70.2588 24.1397 70.2709C24.2015 70.2831 24.2655 70.2766 24.3237 70.2523C24.3818 70.2279 24.4313 70.1869 24.466 70.1344C24.5007 70.0819 24.5189 70.0203 24.5184 69.9574C24.5177 69.8746 24.4842 69.7954 24.4252 69.7371C24.3663 69.6788 24.2866 69.646 24.2036 69.646V69.6433ZM28.45 69.6433C28.3871 69.6433 28.3256 69.662 28.2734 69.6969C28.2211 69.7318 28.1804 69.7815 28.1565 69.8395C28.1325 69.8976 28.1264 69.9614 28.1389 70.0229C28.1513 70.0844 28.1818 70.1409 28.2265 70.1851C28.2712 70.2293 28.328 70.2592 28.3897 70.2711C28.4515 70.2831 28.5154 70.2764 28.5734 70.252C28.6313 70.2276 28.6807 70.1866 28.7153 70.1341C28.7498 70.0817 28.768 70.0202 28.7675 69.9574C28.7672 69.915 28.7582 69.8731 28.7412 69.8342C28.7243 69.7953 28.6995 69.7602 28.6686 69.7311C28.6377 69.7021 28.6012 69.6795 28.5613 69.6649C28.5213 69.6503 28.4789 69.6438 28.4364 69.646L28.45 69.6433ZM32.6991 69.6433C32.6361 69.6428 32.5743 69.661 32.5217 69.6956C32.4691 69.7302 32.428 69.7796 32.4036 69.8376C32.3792 69.8956 32.3727 69.9595 32.3849 70.0212C32.397 70.083 32.4273 70.1396 32.4719 70.1841C32.5165 70.2286 32.5733 70.2588 32.6351 70.2709C32.6969 70.2831 32.761 70.2766 32.8191 70.2523C32.8772 70.2279 32.9268 70.1869 32.9615 70.1344C32.9961 70.0819 33.0144 70.0203 33.0138 69.9574C33.0135 69.9152 33.0047 69.8735 32.9878 69.8348C32.971 69.7961 32.9466 69.7612 32.9159 69.7322C32.8853 69.7031 32.8491 69.6805 32.8095 69.6657C32.7699 69.6509 32.7277 69.6442 32.6855 69.646L32.6991 69.6433ZM37.1137 69.6921C37.0646 69.6598 37.007 69.6428 36.9482 69.6433C36.9042 69.6393 36.8598 69.6444 36.818 69.6584C36.7761 69.6724 36.7376 69.695 36.705 69.7246C36.6723 69.7543 36.6463 69.7905 36.6284 69.8308C36.6106 69.8711 36.6014 69.9147 36.6014 69.9588C36.6014 70.0028 36.6106 70.0464 36.6284 70.0867C36.6463 70.127 36.6723 70.1632 36.705 70.1929C36.7376 70.2226 36.7761 70.2451 36.818 70.2591C36.8598 70.2731 36.9042 70.2783 36.9482 70.2742C37.0184 70.2749 37.0866 70.251 37.1408 70.2065L37.1137 69.6921ZM22.0791 66.4024C22.0162 66.4018 21.9546 66.42 21.902 66.4544C21.8494 66.4889 21.8083 66.5382 21.7839 66.596C21.7594 66.6539 21.7528 66.7177 21.7647 66.7793C21.7766 66.8409 21.8067 66.8976 21.8509 66.9422C21.8952 66.9868 21.9518 67.0172 22.0134 67.0296C22.0751 67.0421 22.1391 67.036 22.1972 67.0121C22.2554 66.9882 22.3051 66.9476 22.3401 66.8954C22.3752 66.8433 22.3938 66.7819 22.3938 66.7192C22.3939 66.6768 22.3853 66.6348 22.3687 66.5958C22.352 66.5567 22.3276 66.5215 22.2969 66.4922C22.2662 66.4628 22.2299 66.44 22.1901 66.425C22.1504 66.41 22.108 66.4033 22.0655 66.4051L22.0791 66.4024ZM26.3282 66.4024C26.2653 66.4018 26.2036 66.42 26.1511 66.4544C26.0985 66.4889 26.0574 66.5382 26.033 66.596C26.0085 66.6539 26.0018 66.7177 26.0138 66.7793C26.0257 66.8409 26.0557 66.8976 26.1 66.9422C26.1443 66.9868 26.2009 67.0172 26.2625 67.0296C26.3242 67.0421 26.3881 67.036 26.4463 67.0121C26.5045 66.9882 26.5542 66.9476 26.5892 66.8954C26.6242 66.8433 26.6429 66.7819 26.6429 66.7192C26.6426 66.6769 26.6338 66.6351 26.617 66.5962C26.6002 66.5574 26.5758 66.5223 26.5452 66.493C26.5146 66.4637 26.4784 66.4409 26.4388 66.4258C26.3992 66.4107 26.357 66.4036 26.3146 66.4051L26.3282 66.4024ZM30.5745 66.4024C30.5118 66.4024 30.4504 66.421 30.3982 66.4558C30.346 66.4906 30.3053 66.5401 30.2812 66.5979C30.2572 66.6558 30.2509 66.7195 30.2632 66.781C30.2754 66.8424 30.3057 66.8989 30.3501 66.9432C30.3945 66.9875 30.451 67.0176 30.5126 67.0299C30.5742 67.0421 30.638 67.0358 30.696 67.0118C30.754 66.9879 30.8036 66.9473 30.8385 66.8952C30.8734 66.8431 30.892 66.7818 30.892 66.7192C30.8921 66.6765 30.8834 66.6343 30.8666 66.5951C30.8498 66.5559 30.8251 66.5205 30.7941 66.4911C30.7632 66.4617 30.7265 66.439 30.6864 66.4242C30.6463 66.4094 30.6037 66.4029 30.561 66.4051L30.5745 66.4024ZM34.8236 66.4024C34.7607 66.4018 34.6991 66.42 34.6465 66.4544C34.594 66.4889 34.5528 66.5382 34.5284 66.596C34.504 66.6539 34.4973 66.7177 34.5092 66.7793C34.5212 66.8409 34.5512 66.8976 34.5955 66.9422C34.6398 66.9868 34.6963 67.0172 34.758 67.0296C34.8196 67.0421 34.8836 67.036 34.9418 67.0121C34.9999 66.9882 35.0497 66.9476 35.0847 66.8954C35.1197 66.8433 35.1384 66.7819 35.1384 66.7192C35.1384 66.6768 35.1298 66.6348 35.1132 66.5958C35.0965 66.5567 35.0721 66.5215 35.0414 66.4922C35.0108 66.4628 34.9744 66.44 34.9347 66.425C34.8949 66.41 34.8525 66.4033 34.8101 66.4051L34.8236 66.4024Z" fill="white"/>
<path d="M34.1728 64.4144C33.35 64.4865 32.5338 64.6195 31.7308 64.8124C31.3373 64.9126 30.9493 65.0317 30.5613 65.159C30.3687 65.2239 30.1733 65.2808 29.978 65.335C29.7753 65.3988 29.5659 65.4388 29.3539 65.4541C29.3503 65.4541 29.3469 65.4555 29.3443 65.4581C29.3418 65.4606 29.3403 65.464 29.3403 65.4676C29.3403 65.4712 29.3418 65.4747 29.3443 65.4772C29.3469 65.4797 29.3503 65.4812 29.3539 65.4812C29.5544 65.496 29.7557 65.496 29.9563 65.4812C30.1496 65.46 30.3411 65.4238 30.5288 65.3729C30.9331 65.2754 31.3292 65.159 31.7308 65.0561C32.5448 64.8476 33.3588 64.6418 34.1728 64.4929C34.2189 64.4739 34.2108 64.409 34.1728 64.4144Z" fill="#263238"/>
<path d="M36.1914 65.141C35.5182 65.0707 34.8415 65.0381 34.1646 65.0435C33.8254 65.0435 33.489 65.0706 33.1525 65.1031L32.6695 65.1573C32.4932 65.1789 32.3195 65.2277 32.1432 65.2466C32.1242 65.2466 32.1242 65.2764 32.1432 65.2764C32.3114 65.2629 32.4823 65.2764 32.6505 65.2764L33.1579 65.2547C33.4944 65.2547 33.8336 65.2547 34.17 65.2304C34.8456 65.2087 35.5267 65.1925 36.1969 65.1925C36.2294 65.1952 36.2267 65.1437 36.1914 65.141Z" fill="#263238"/>
<path d="M28.6309 52.4928C22.3469 55.1787 14.9123 61.6823 15.1701 64.0243C15.4577 66.6317 24.4823 62.8438 24.4171 62.4485C24.3629 62.1155 26.3816 59.4702 29.2659 55.6796C32.199 51.8051 30.1857 51.8295 28.6309 52.4928Z" fill="#0190FF"/>
<path d="M24.505 57.3727C24.505 57.4348 24.4865 57.4955 24.4519 57.5472C24.4174 57.5988 24.3682 57.6391 24.3107 57.6628C24.2532 57.6866 24.1899 57.6928 24.1288 57.6807C24.0678 57.6686 24.0117 57.6387 23.9677 57.5948C23.9237 57.5508 23.8937 57.4949 23.8815 57.4339C23.8694 57.373 23.8756 57.3099 23.8994 57.2525C23.9233 57.1951 23.9636 57.146 24.0154 57.1115C24.0671 57.077 24.128 57.0586 24.1902 57.0586C24.2737 57.0586 24.3538 57.0917 24.4128 57.1506C24.4718 57.2095 24.505 57.2894 24.505 57.3727Z" fill="white"/>
<path d="M26.629 54.1344C26.6296 54.1973 26.6114 54.2589 26.5767 54.3114C26.542 54.3639 26.4925 54.4049 26.4343 54.4292C26.3762 54.4536 26.3122 54.4601 26.2503 54.4479C26.1885 54.4358 26.1317 54.4056 26.0871 54.3611C26.0426 54.3166 26.0123 54.2599 26.0001 54.1982C25.9879 54.1365 25.9945 54.0726 26.0188 54.0146C26.0432 53.9566 26.0843 53.9072 26.1369 53.8726C26.1895 53.838 26.2513 53.8198 26.3143 53.8203C26.3978 53.8203 26.4778 53.8534 26.5369 53.9123C26.5959 53.9712 26.629 54.0511 26.629 54.1344Z" fill="white"/>
<path d="M30.4445 53.8398C30.3876 53.9563 30.3224 54.0781 30.2465 54.2081C30.2291 54.1332 30.2396 54.0545 30.276 53.9867C30.3125 53.919 30.3724 53.8668 30.4445 53.8398Z" fill="white"/>
<path d="M16.0089 63.6656C16.0095 63.7284 15.9913 63.7899 15.9568 63.8424C15.9222 63.8948 15.8728 63.9358 15.8148 63.9602C15.7569 63.9846 15.693 63.9913 15.6312 63.9794C15.5695 63.9675 15.5126 63.9375 15.468 63.8933C15.4233 63.8491 15.3928 63.7927 15.3803 63.7312C15.3679 63.6696 15.374 63.6058 15.3979 63.5478C15.4219 63.4897 15.4626 63.4401 15.5148 63.4051C15.5671 63.3702 15.6286 63.3516 15.6915 63.3516C15.7752 63.3516 15.8555 63.3846 15.915 63.4434C15.9745 63.5022 16.0082 63.5821 16.0089 63.6656Z" fill="white"/>
<path d="M20.2555 63.6656C20.2555 63.7278 20.237 63.7885 20.2024 63.8401C20.1678 63.8918 20.1187 63.932 20.0612 63.9558C20.0037 63.9796 19.9404 63.9858 19.8793 63.9737C19.8183 63.9616 19.7622 63.9317 19.7182 63.8877C19.6741 63.8438 19.6442 63.7878 19.632 63.7269C19.6199 63.666 19.6261 63.6028 19.6499 63.5454C19.6738 63.4881 19.7141 63.439 19.7659 63.4045C19.8176 63.37 19.8785 63.3516 19.9407 63.3516C20.024 63.3523 20.1036 63.3856 20.1625 63.4443C20.2214 63.5031 20.2548 63.5826 20.2555 63.6656Z" fill="white"/>
<path d="M18.1339 60.4274C18.1345 60.4901 18.1163 60.5516 18.0818 60.6041C18.0472 60.6565 17.9978 60.6976 17.9399 60.722C17.8819 60.7463 17.818 60.753 17.7562 60.7411C17.6945 60.7292 17.6376 60.6992 17.593 60.655C17.5483 60.6108 17.5178 60.5544 17.5053 60.4929C17.4929 60.4313 17.499 60.3675 17.5229 60.3095C17.5469 60.2514 17.5876 60.2018 17.6398 60.1669C17.6921 60.1319 17.7536 60.1133 17.8165 60.1133C17.9002 60.1133 17.9805 60.1463 18.04 60.2051C18.0995 60.2639 18.1332 60.3438 18.1339 60.4274Z" fill="white"/>
<path d="M22.38 60.4274C22.38 60.4895 22.3615 60.5502 22.3269 60.6019C22.2924 60.6535 22.2432 60.6938 22.1857 60.7175C22.1282 60.7413 22.0649 60.7475 22.0038 60.7354C21.9428 60.7233 21.8867 60.6934 21.8427 60.6494C21.7987 60.6055 21.7687 60.5496 21.7565 60.4886C21.7444 60.4277 21.7506 60.3646 21.7744 60.3072C21.7983 60.2498 21.8386 60.2007 21.8904 60.1662C21.9421 60.1317 22.003 60.1133 22.0652 60.1133C22.1487 60.1133 22.2288 60.1464 22.2878 60.2053C22.3468 60.2642 22.38 60.3441 22.38 60.4274Z" fill="white"/>
<path d="M15.1706 64.0236C15.5857 65.8567 18.1986 67.2402 24.4474 71.3341C25.313 71.8999 30.9594 66.8855 30.0695 66.233C28.9461 65.4207 24.404 62.4668 24.0459 62.2908C21.0151 60.8287 14.8884 62.7782 15.1706 64.0236Z" fill="#EB9481"/>
<path d="M28.8381 65.3672C28.8381 65.3672 31.5378 66.9728 32.6937 68.2562C33.8628 69.6191 34.6822 71.2452 35.0815 72.9944C35.521 74.8897 35.2741 79.7444 33.8578 79.9176C32.5771 80.0747 33.079 75.1171 33.079 75.1171C33.079 75.1171 33.4019 80.2615 31.8228 80.1613C30.2436 80.0611 31.158 74.3455 31.158 74.3455C31.158 74.3455 31.3723 79.6333 29.7579 79.2787C28.5396 79.0079 29.0741 73.7823 29.0741 73.7823C29.0741 73.7823 29.2261 78.3283 27.9617 78.1144C26.5643 77.868 26.7542 73.0106 26.7542 73.0106C23.6339 71.9087 22.6001 70.1108 22.0168 68.7435C21.8757 68.4078 28.8381 65.3672 28.8381 65.3672Z" fill="#BEBEFF"/>
<path d="M33.0837 73.3344C33.1407 73.9382 33.2058 74.5474 33.2112 75.1539C33.2166 75.7604 33.2112 76.3641 33.1515 76.9679C33.1 77.7584 32.9589 78.5404 32.731 79.2991C33.0403 77.9237 33.0511 75.7549 33.0457 75.1484C33.0403 74.5419 33.0647 73.9409 33.0457 73.3344C33.0593 73.3208 33.081 73.3208 33.0837 73.3344Z" fill="#263238"/>
<path d="M30.8921 73.3152C30.9328 74.0869 31.0061 74.8504 31.0142 75.6275C31.0224 76.4045 30.9627 77.1302 30.9193 77.8991C30.9193 77.9587 30.884 77.937 30.884 77.8775C30.9003 77.1058 30.8514 76.3937 30.8569 75.6221C30.8623 74.8504 30.8949 74.0814 30.8731 73.3125C30.8731 73.3017 30.8894 73.3017 30.8921 73.3152Z" fill="#263238"/>
<path d="M29.0119 72.9619C29.1074 74.1448 29.0792 75.3344 28.9278 76.5115C28.9278 76.5711 28.8871 76.5386 28.8898 76.479C28.9386 75.2985 28.9875 74.3726 28.9712 72.9592C28.9712 72.943 29.0092 72.9375 29.0119 72.9619Z" fill="#263238"/>
<path d="M30.2186 65.617C30.2186 65.617 22.3743 70.8101 22.2983 70.7614C22.2224 70.7126 15.1623 65.95 15.1704 64.0114C15.1786 62.0728 21.3514 61.0195 24.0403 62.265C26.7292 63.5105 30.2186 65.617 30.2186 65.617Z" fill="#0190FF"/>
<path d="M27.7307 64.6277C27.4269 64.7847 24.9442 66.523 24.4123 66.9183C23.8805 67.3136 21.699 68.884 21.1808 69.3307C21.1771 69.3319 21.1738 69.334 21.1711 69.3367C21.1685 69.3394 21.1664 69.3427 21.1653 69.3463C21.1641 69.3499 21.1638 69.3538 21.1643 69.3575C21.1649 69.3613 21.1664 69.3649 21.1686 69.368C21.1708 69.3711 21.1738 69.3736 21.1771 69.3754C21.1805 69.3772 21.1843 69.3781 21.1881 69.3782C21.1919 69.3783 21.1957 69.3774 21.1991 69.3758C21.2026 69.3741 21.2056 69.3717 21.2079 69.3686C21.794 69.0248 24.0053 67.4435 24.5561 67.0564C25.107 66.6692 27.5218 64.8903 27.7606 64.6602C27.7904 64.6412 27.7633 64.6168 27.7307 64.6277Z" fill="#263238"/>
<path d="M16.0089 63.6656C16.0095 63.7284 15.9913 63.7899 15.9568 63.8424C15.9222 63.8948 15.8728 63.9358 15.8148 63.9602C15.7569 63.9846 15.693 63.9913 15.6312 63.9794C15.5695 63.9675 15.5126 63.9375 15.468 63.8933C15.4233 63.8491 15.3928 63.7927 15.3803 63.7312C15.3679 63.6696 15.374 63.6058 15.3979 63.5478C15.4219 63.4897 15.4626 63.4401 15.5148 63.4051C15.5671 63.3702 15.6286 63.3516 15.6915 63.3516C15.7752 63.3516 15.8555 63.3846 15.915 63.4434C15.9745 63.5022 16.0082 63.5821 16.0089 63.6656ZM19.9405 63.357C19.8775 63.3564 19.8158 63.3746 19.7632 63.4092C19.7105 63.4438 19.6694 63.4933 19.6451 63.5513C19.6207 63.6093 19.6142 63.6732 19.6264 63.7349C19.6385 63.7966 19.6688 63.8533 19.7134 63.8978C19.7579 63.9422 19.8147 63.9724 19.8766 63.9846C19.9384 63.9967 20.0025 63.9902 20.0606 63.9659C20.1187 63.9416 20.1683 63.9006 20.2029 63.8481C20.2376 63.7956 20.2558 63.7339 20.2553 63.6711C20.2553 63.5878 20.2221 63.5079 20.1631 63.449C20.1041 63.3901 20.024 63.357 19.9405 63.357ZM24.2032 63.357C24.1402 63.3564 24.0784 63.3746 24.0258 63.4092C23.9732 63.4438 23.9321 63.4933 23.9077 63.5513C23.8834 63.6093 23.8768 63.6732 23.889 63.7349C23.9012 63.7966 23.9315 63.8533 23.976 63.8978C24.0206 63.9422 24.0774 63.9724 24.1392 63.9846C24.2011 63.9967 24.2651 63.9902 24.3232 63.9659C24.3813 63.9416 24.4309 63.9006 24.4656 63.8481C24.5003 63.7956 24.5185 63.7339 24.5179 63.6711C24.5179 63.5878 24.4848 63.5079 24.4258 63.449C24.3667 63.3901 24.2867 63.357 24.2032 63.357ZM17.8296 66.4084C17.7668 66.4084 17.7054 66.427 17.6532 66.4618C17.601 66.4966 17.5603 66.5461 17.5363 66.604C17.5123 66.6618 17.506 66.7255 17.5182 66.787C17.5305 66.8484 17.5607 66.9049 17.6051 66.9492C17.6495 66.9935 17.7061 67.0237 17.7676 67.0359C17.8292 67.0481 17.8931 67.0418 17.9511 67.0179C18.0091 66.9939 18.0587 66.9533 18.0935 66.9012C18.1284 66.8491 18.147 66.7878 18.147 66.7252C18.1482 66.6819 18.1404 66.6388 18.1241 66.5986C18.1078 66.5584 18.0833 66.5221 18.0522 66.4918C18.0211 66.4615 17.9841 66.438 17.9434 66.4227C17.9028 66.4075 17.8594 66.4007 17.816 66.403L17.8296 66.4084ZM22.0787 66.4084C22.0158 66.4079 21.9541 66.426 21.9016 66.4605C21.849 66.495 21.8079 66.5442 21.7834 66.6021C21.759 66.6599 21.7523 66.7237 21.7643 66.7853C21.7762 66.8469 21.8062 66.9036 21.8505 66.9482C21.8948 66.9928 21.9514 67.0232 22.013 67.0357C22.0747 67.0481 22.1386 67.042 22.1968 67.0181C22.255 66.9942 22.3047 66.9536 22.3397 66.9015C22.3747 66.8493 22.3934 66.788 22.3934 66.7252C22.3946 66.6821 22.3868 66.6392 22.3707 66.5993C22.3545 66.5593 22.3303 66.5231 22.2995 66.4928C22.2687 66.4626 22.232 66.439 22.1916 66.4236C22.1513 66.4081 22.1082 66.4011 22.0651 66.403L22.0787 66.4084ZM26.3277 66.4084C26.2648 66.4079 26.2032 66.426 26.1506 66.4605C26.0981 66.495 26.057 66.5442 26.0325 66.6021C26.0081 66.6599 26.0014 66.7237 26.0133 66.7853C26.0253 66.8469 26.0553 66.9036 26.0996 66.9482C26.1439 66.9928 26.2004 67.0232 26.2621 67.0357C26.3237 67.0481 26.3877 67.042 26.4459 67.0181C26.504 66.9942 26.5538 66.9536 26.5888 66.9015C26.6238 66.8493 26.6425 66.788 26.6425 66.7252C26.6432 66.6822 26.6352 66.6395 26.6189 66.5997C26.6026 66.5599 26.5784 66.5239 26.5477 66.4937C26.517 66.4636 26.4804 66.44 26.4403 66.4244C26.4001 66.4088 26.3572 66.4015 26.3142 66.403L26.3277 66.4084Z" fill="white"/>
<path d="M20.7363 61.773C21.3848 61.7135 23.1594 61.681 24.535 62.4905C24.5513 62.4905 24.535 62.5203 24.535 62.5122C23.3303 61.9924 21.3794 61.7866 20.7363 61.7974C20.7255 61.7974 20.7201 61.7757 20.7363 61.773Z" fill="#263238"/>
<path d="M29.7363 65.9357L30.2085 65.6V65.6325C29.7363 65.3455 29.2534 65.0747 28.7785 64.7959C28.3037 64.517 27.818 64.2543 27.335 63.9836C26.3718 63.4421 25.395 62.9276 24.4019 62.4538L24.2988 62.4051L24.3585 62.3103C24.9934 61.3112 25.6474 60.3284 26.3447 59.3726C27.0311 58.4139 27.7655 57.4904 28.5452 56.6055C27.8216 57.5369 27.127 58.4899 26.4614 59.4647C25.7966 60.4367 25.14 61.4168 24.5213 62.4186L24.4806 62.2751C25.4791 62.7571 26.4505 63.2877 27.4083 63.8401C27.8859 64.1108 28.358 64.406 28.8301 64.6984C29.3022 64.9908 29.7608 65.2913 30.222 65.6L30.2465 65.6162L30.222 65.6325L29.7363 65.9357Z" fill="#263238"/>
<path d="M26.917 58.7117C27.0174 58.6034 27.1151 58.4951 27.2209 58.3922C27.3267 58.2893 27.4298 58.1919 27.5411 58.0944C27.76 57.899 27.9951 57.7224 28.2438 57.5664C28.0577 57.7936 27.8525 58.0047 27.6306 58.1973C27.5194 58.292 27.4054 58.3868 27.2887 58.468C27.1725 58.5604 27.0481 58.642 26.917 58.7117Z" fill="#263238"/>
<path d="M20.2231 69.2969C20.8252 69.6166 21.3803 70.0175 21.8729 70.4882C21.5726 70.3286 21.2842 70.1476 21.01 69.9467C20.732 69.7497 20.469 69.5326 20.2231 69.2969Z" fill="#263238"/>
<path d="M30.6583 52.7046C30.6772 53.1649 31.4723 55.3472 32.8561 55.4826C33.567 55.553 33.9088 53.0837 33.9088 53.0837L33.9658 52.905L34.7798 50.4276L31.5916 47.9258C31.5916 47.9258 30.6501 52.572 30.6583 52.7046Z" fill="#DEDEFF"/>
<path d="M31.2588 49.6559C31.4595 50.3561 31.8045 51.0068 32.2717 51.5663C32.739 52.1258 33.3181 52.5817 33.9721 52.905L34.7861 50.4276L31.5925 47.9258C31.5925 47.9258 31.4324 48.7137 31.2588 49.6559Z" fill="#263238"/>
<path d="M38.7329 46.8798C38.6053 51.461 35.8404 51.8997 34.8501 51.8726C33.952 51.8455 30.894 51.6424 30.5494 47.0721C30.2049 42.5017 32.3782 41.1154 34.4377 41.064C36.4971 41.0125 38.855 42.2986 38.7329 46.8798Z" fill="#DEDEFF"/>
<path d="M38.0718 45.759C37.9689 45.7337 37.8675 45.7029 37.7679 45.6669C37.6566 45.6491 37.5545 45.5948 37.4775 45.5126C37.4575 45.4826 37.4483 45.4468 37.4512 45.411C37.4542 45.3751 37.4692 45.3412 37.4938 45.315C37.5505 45.2703 37.6179 45.2414 37.6893 45.2309C37.7608 45.2205 37.8337 45.2289 37.9008 45.2554C38.0437 45.2907 38.1689 45.3762 38.2536 45.4964C38.2719 45.5251 38.2813 45.5586 38.2806 45.5926C38.28 45.6267 38.2693 45.6598 38.2499 45.6878C38.2305 45.7158 38.2032 45.7375 38.1716 45.7502C38.1399 45.7628 38.1052 45.7659 38.0718 45.759Z" fill="#183C4F"/>
<path d="M35.1419 45.5248C35.2474 45.5177 35.3525 45.505 35.4566 45.4869C35.5698 45.4891 35.6804 45.4539 35.7714 45.3867C35.796 45.3604 35.811 45.3266 35.814 45.2907C35.8169 45.2549 35.8077 45.219 35.7877 45.1891C35.7403 45.1352 35.6794 45.0947 35.6112 45.0719C35.5431 45.0491 35.4701 45.0447 35.3997 45.0591C35.2518 45.0687 35.1127 45.1323 35.0089 45.2378C34.987 45.263 34.9728 45.294 34.968 45.3271C34.9633 45.3602 34.9683 45.3939 34.9823 45.4243C34.9964 45.4546 35.0189 45.4802 35.0472 45.4981C35.0755 45.5159 35.1084 45.5252 35.1419 45.5248Z" fill="#183C4F"/>
<path d="M35.6517 46.7305C35.6517 46.7305 35.6273 46.7305 35.6273 46.7575C35.6273 47.0689 35.5513 47.4263 35.2637 47.5102V47.5292C35.6001 47.5021 35.6924 47.0283 35.6517 46.7305Z" fill="white"/>
<path d="M35.3931 46.3903C34.8938 46.3199 34.7907 47.3217 35.252 47.3866C35.7132 47.4516 35.8109 46.4471 35.3931 46.3903Z" fill="white"/>
<path d="M35.1903 46.4226C35.098 46.4686 35.0003 46.5607 34.8945 46.5607C34.7887 46.5607 34.6883 46.4469 34.6232 46.3359H34.6042C34.5825 46.5282 34.6341 46.7312 34.8376 46.7827C35.0411 46.8341 35.1767 46.6717 35.2446 46.4821C35.2554 46.4578 35.2283 46.4036 35.1903 46.4226Z" fill="white"/>
<path d="M37.368 46.8555C37.368 46.8555 37.3897 46.8717 37.3897 46.8853C37.3436 47.1939 37.3463 47.5567 37.6149 47.6975C37.6149 47.6975 37.6149 47.7165 37.6149 47.7138C37.273 47.6217 37.2757 47.1398 37.368 46.8555Z" fill="white"/>
<path d="M37.6833 46.5707C38.1853 46.5897 38.1147 47.5942 37.648 47.578C37.1813 47.5617 37.26 46.5464 37.6833 46.5707Z" fill="white"/>
<path d="M37.8867 46.6397C37.9626 46.6993 38.0359 46.8022 38.1282 46.8157C38.2204 46.8293 38.329 46.7264 38.3995 46.6289H38.4158C38.4158 46.8211 38.329 47.0161 38.1444 47.0405C37.9599 47.0648 37.8731 46.8888 37.8297 46.6939C37.8243 46.6695 37.8568 46.6181 37.8867 46.6397Z" fill="white"/>
<path d="M36.7968 48.1944C36.7968 48.1944 36.8186 48.6656 36.7968 48.8849C36.5869 48.9151 36.3728 48.8886 36.1766 48.8081C35.9805 48.7276 35.8096 48.5961 35.6817 48.4273C35.6654 48.4056 35.6979 48.384 35.7169 48.3975C35.9792 48.6143 36.3048 48.7406 36.6449 48.7576C36.6639 48.6981 36.5798 47.9454 36.6151 47.9454C36.7839 47.9779 36.948 48.0316 37.1034 48.1051C37.0845 47.125 36.9108 46.1529 36.9081 45.1782C36.9081 45.1703 36.9112 45.1627 36.9168 45.1572C36.9224 45.1516 36.93 45.1484 36.9379 45.1484C36.9459 45.1484 36.9534 45.1516 36.959 45.1572C36.9646 45.1627 36.9678 45.1703 36.9678 45.1782C37.1863 46.2121 37.3009 47.2651 37.3097 48.3217C37.3178 48.4463 36.881 48.2405 36.7968 48.1944Z" fill="#263238"/>
<path d="M36.5006 48.8368C36.3652 48.977 36.1962 49.0804 36.0095 49.1373C35.9066 49.1653 35.7976 49.1605 35.6975 49.1238C35.4804 49.0398 35.4967 48.834 35.5564 48.6635C35.5892 48.5728 35.6329 48.4864 35.6866 48.4062C35.9049 48.6329 36.1902 48.7838 36.5006 48.8368Z" fill="#263238"/>
<path d="M36.0095 49.134C35.9066 49.162 35.7976 49.1572 35.6975 49.1204C35.4804 49.0365 35.4967 48.8307 35.5564 48.6602C35.6734 48.6789 35.7811 48.7354 35.8629 48.821C35.9447 48.9065 35.9962 49.0165 36.0095 49.134Z" fill="#FF9BBC"/>
<path d="M31.8629 41.34C32.278 41.2696 33.0676 39.174 31.8439 37.8771C30.6202 36.5801 28.5689 37.3924 28.9895 39.3121C29.2554 40.5251 30.9865 41.4862 31.8629 41.34Z" fill="#183C4F"/>
<path d="M29.8802 37.3672C29.3925 37.6375 29.0101 38.0638 28.7949 38.5775C28.6898 38.816 28.6495 39.078 28.6781 39.3371C28.7067 39.5961 28.8031 39.8431 28.9577 40.0531C29.2882 40.4841 29.73 40.8173 30.2357 41.017C30.4913 41.127 30.7565 41.2131 31.028 41.2742C31.3005 41.3503 31.585 41.3742 31.8664 41.3446C31.5893 41.4351 31.2955 41.4629 31.0063 41.4258C30.7145 41.4 30.4267 41.34 30.1489 41.2471C29.572 41.0684 29.0655 40.7144 28.7 40.2345C28.5153 39.9832 28.4053 39.685 28.3828 39.3742C28.3602 39.0634 28.4259 38.7525 28.5724 38.4773C28.7033 38.2132 28.8868 37.9786 29.1117 37.7877C29.3365 37.5968 29.5981 37.4538 29.8802 37.3672Z" fill="#183C4F"/>
<path d="M30.8186 46.9723C31.6543 47.1917 32.1318 45.2774 32.1318 45.2774C32.1318 45.2774 35.8355 45.1474 36.5356 42.2449C36.8313 43.5039 37.6032 44.6002 38.69 45.3045C38.69 45.3045 38.9939 42.0554 36.5193 41.0942C36.5193 41.0942 33.4939 39.5157 31.364 41.7982C29.234 44.0807 30.2596 46.8234 30.8186 46.9723Z" fill="#183C4F"/>
<path d="M36.5775 42.0312C36.5594 42.4907 36.4438 42.941 36.2383 43.3525C36.0346 43.7676 35.7474 44.1363 35.3944 44.4356C35.3087 44.5117 35.218 44.5823 35.1231 44.6468L34.982 44.7496C34.9332 44.7794 34.8816 44.8065 34.8301 44.8336C34.727 44.8877 34.6266 44.9473 34.5235 44.996L34.1979 45.1179L34.0351 45.1774L33.8668 45.2181L33.5331 45.2966C33.3052 45.3291 33.0773 45.348 32.8521 45.3643C33.0718 45.302 33.2943 45.2614 33.5087 45.1991L33.8289 45.0908L33.9889 45.0394L34.1409 44.9717C34.2413 44.9229 34.3417 44.8769 34.4448 44.8336C34.5479 44.7903 34.6347 44.7199 34.7297 44.6657L34.8735 44.5818L35.0064 44.4843C35.1005 44.4215 35.1911 44.3537 35.2778 44.2812C35.6147 43.9933 35.8984 43.6488 36.1162 43.2632C36.2288 43.0713 36.3251 42.8702 36.4038 42.6621C36.48 42.4573 36.5381 42.2462 36.5775 42.0312Z" fill="#263238"/>
<path d="M34.5636 48.2972C34.2928 48.2377 34.0441 48.1036 33.8459 47.9101C33.6476 47.7166 33.5078 47.4714 33.4423 47.2025C33.3768 46.9336 33.3883 46.6518 33.4754 46.389C33.5624 46.1263 33.7217 45.8933 33.935 45.7164C34.1482 45.5395 34.407 45.4259 34.6818 45.3885C34.9566 45.3512 35.2363 45.3915 35.4893 45.505C35.7422 45.6184 35.9582 45.8004 36.1125 46.0303C36.2669 46.2602 36.3536 46.5287 36.3626 46.8053C36.3688 47.03 36.3238 47.2532 36.231 47.4581C36.1381 47.6629 35.9999 47.844 35.8266 47.9877C35.6533 48.1314 35.4496 48.2339 35.2308 48.2875C35.012 48.3411 34.7839 48.3444 34.5636 48.2972ZM35.1578 45.5896C35.0536 45.5669 34.9469 45.5578 34.8404 45.5625C34.517 45.5755 34.2107 45.711 33.9838 45.9414C33.757 46.1718 33.6267 46.4798 33.6194 46.8028C33.6121 47.1257 33.7284 47.4392 33.9446 47.6796C34.1608 47.9199 34.4607 48.0691 34.7832 48.0966C35.1057 48.1241 35.4266 48.0279 35.6806 47.8276C35.9346 47.6274 36.1025 47.3381 36.1502 47.0186C36.198 46.6991 36.1219 46.3735 35.9376 46.108C35.7532 45.8426 35.4744 45.6572 35.1578 45.5896Z" fill="#3D8AC3"/>
<path d="M37.9488 48.6194C37.4061 48.4975 37.0154 47.8206 37.0941 47.0544C37.1239 46.6866 37.2681 46.3373 37.5065 46.0553C37.6021 45.9286 37.7288 45.8287 37.8744 45.7651C38.02 45.7014 38.1795 45.6763 38.3376 45.6921C38.4958 45.7079 38.6472 45.764 38.7772 45.8551C38.9073 45.9463 39.0117 46.0693 39.0802 46.2124C39.2586 46.5359 39.3316 46.9069 39.2892 47.2737C39.2078 48.086 38.6488 48.6952 38.0437 48.6275L37.9488 48.6194ZM38.3938 45.9118C38.3685 45.909 38.343 45.909 38.3178 45.9118C38.1915 45.9045 38.0654 45.9278 37.9501 45.9796C37.8348 46.0315 37.7338 46.1104 37.6557 46.2096C37.4442 46.4595 37.3162 46.769 37.2894 47.095C37.2189 47.799 37.5608 48.4109 38.0627 48.4488C38.5647 48.4867 39.0205 47.9669 39.0911 47.2629C39.1301 46.9385 39.0665 46.61 38.9093 46.3234C38.8581 46.2206 38.7857 46.1299 38.6969 46.0571C38.608 45.9843 38.5047 45.9311 38.3938 45.901V45.9118Z" fill="#3D8AC3"/>
<path d="M36.2966 46.9696L36.1826 46.8044C36.4268 46.6393 36.9695 46.4389 37.2897 46.8613L37.1323 46.9804C36.8447 46.6041 36.3183 46.9533 36.2966 46.9696Z" fill="#3D8AC3"/>
<path d="M29.6904 46.6928L29.5249 46.5872C29.5737 46.5087 30.0296 45.8318 30.4773 45.802C30.925 45.7722 33.5108 46.3002 33.622 46.3002L33.5841 46.4951C32.8352 46.3462 30.811 45.9699 30.4881 45.9888C30.1652 46.0078 29.8125 46.506 29.6904 46.6928Z" fill="#3D8AC3"/>
<path d="M31.3803 46.8728C31.3803 46.8728 30.5473 45.3349 29.8608 45.6165C29.1743 45.8981 29.6844 48.0533 30.4035 48.4107C30.4934 48.4655 30.5935 48.5014 30.6978 48.5162C30.8021 48.5309 30.9083 48.5243 31.0099 48.4967C31.1116 48.469 31.2065 48.421 31.2888 48.3555C31.3712 48.2899 31.4392 48.2083 31.4888 48.1156L31.3803 46.8728Z" fill="#DEDEFF"/>
<path d="M30.0234 46.2305V46.2494C30.5308 46.5202 30.7533 47.0617 30.8917 47.5843C30.8673 47.5272 30.8307 47.4762 30.7844 47.4347C30.7382 47.3933 30.6834 47.3625 30.6239 47.3444C30.5645 47.3263 30.5017 47.3215 30.4402 47.3302C30.3786 47.3389 30.3198 47.3609 30.2676 47.3947C30.2514 47.3947 30.2676 47.4245 30.2676 47.4245C30.3647 47.4051 30.4654 47.4164 30.5559 47.4566C30.6463 47.4969 30.7219 47.5642 30.7723 47.6492C30.854 47.792 30.9213 47.9426 30.9731 48.0987C30.9921 48.1501 31.0816 48.1339 31.0681 48.077C31.1603 47.3839 30.7425 46.3821 30.0234 46.2305Z" fill="#263238"/>
<path d="M30.5184 48.2569C30.5263 48.3082 30.5543 48.3543 30.5963 48.3851C30.6383 48.4158 30.6908 48.4286 30.7422 48.4207C30.7937 48.4128 30.8399 48.3848 30.8707 48.3429C30.9015 48.3011 30.9143 48.2487 30.9064 48.1973C30.9025 48.1719 30.8936 48.1475 30.8802 48.1255C30.8668 48.1035 30.8493 48.0844 30.8285 48.0692C30.8077 48.054 30.7841 48.043 30.7591 48.0369C30.734 48.0308 30.708 48.0296 30.6826 48.0335C30.6571 48.0374 30.6326 48.0463 30.6106 48.0597C30.5885 48.073 30.5694 48.0905 30.5541 48.1113C30.5389 48.132 30.5279 48.1556 30.5217 48.1805C30.5156 48.2055 30.5145 48.2315 30.5184 48.2569Z" fill="#455A64"/>
<path d="M30.6192 48.2398C30.6232 48.2646 30.6368 48.2868 30.6572 48.3015C30.6775 48.3163 30.7029 48.3224 30.7277 48.3184C30.7515 48.3138 30.7726 48.3003 30.7867 48.2806C30.8008 48.261 30.8069 48.2366 30.8037 48.2126C30.802 48.2005 30.7979 48.1887 30.7917 48.1782C30.7855 48.1676 30.7772 48.1584 30.7673 48.151C30.7574 48.1437 30.7462 48.1384 30.7343 48.1355C30.7224 48.1325 30.71 48.132 30.6978 48.1339C30.6739 48.1386 30.6525 48.152 30.6379 48.1716C30.6234 48.1912 30.6167 48.2155 30.6192 48.2398Z" fill="#263238"/>
<path d="M30.2003 47.9754C30.2064 48.0119 30.2265 48.0445 30.2565 48.0663C30.2864 48.0881 30.3238 48.0973 30.3604 48.0918C30.3784 48.0891 30.3957 48.083 30.4113 48.0737C30.427 48.0643 30.4406 48.052 30.4514 48.0374C30.4622 48.0228 30.4701 48.0063 30.4745 47.9886C30.4789 47.971 30.4798 47.9527 30.4771 47.9348C30.4748 47.9166 30.4689 47.8992 30.4596 47.8834C30.4504 47.8676 30.438 47.8539 30.4233 47.843C30.4086 47.8322 30.3919 47.8244 30.3741 47.8201C30.3563 47.8159 30.3378 47.8153 30.3197 47.8183C30.2832 47.8237 30.2502 47.8432 30.2279 47.8725C30.2056 47.9019 30.1957 47.9388 30.2003 47.9754Z" fill="#455A64"/>
<path d="M3.47432 72.7813L94.8594 72.7812V69.5376L3.47432 69.5376V72.7813Z" fill="#37474F"/>
<path d="M6.7432 76.0313L91.5864 76.0312V72.7903L6.7432 72.7903V76.0313Z" fill="#455A64"/>
<path d="M91.5813 121.532H92.8945L89.0715 76.0312H85.7178L91.5813 121.532Z" fill="#455A64"/>
<path d="M85.7178 76.0312L86.1112 79.0746H89.3265L89.0715 76.0312H85.7178Z" fill="#263238"/>
<path d="M6.75124 121.532H5.43799L9.26108 76.0312H12.6148L6.75124 121.532Z" fill="#455A64"/>
<path d="M12.6156 76.0312L12.2221 79.0746H9.00684L9.26189 76.0312H12.6156Z" fill="#263238"/>
<path d="M55.866 68.7422H38.0312V69.5409H55.866V68.7422Z" fill="#C7C7C7"/>
<path d="M55.8634 68.7422H46.8877V69.5409H55.8634V68.7422Z" fill="#A6A6A6"/>
<path d="M47.853 69.5423H65.2346L67.5057 57.7617H50.1268L47.853 69.5423Z" fill="#C7C7C7"/>
<path d="M56.6239 63.6522C56.6085 63.7861 56.6218 63.9216 56.6629 64.0499C56.704 64.1782 56.7719 64.2963 56.8622 64.3964C56.9526 64.4965 57.0632 64.5763 57.1867 64.6306C57.3103 64.6848 57.444 64.7122 57.579 64.7109C57.8666 64.7058 58.1423 64.5959 58.3543 64.4019C58.5662 64.2078 58.6996 63.9431 58.7294 63.6577C58.7441 63.5232 58.7299 63.3872 58.6878 63.2587C58.6457 63.1301 58.5767 63.012 58.4853 62.9121C58.394 62.8122 58.2823 62.7329 58.1579 62.6794C58.0334 62.6258 57.899 62.5994 57.7635 62.6017C57.4782 62.6093 57.2054 62.72 56.9958 62.9132C56.7862 63.1065 56.654 63.3691 56.6239 63.6522Z" fill="#A6A6A6"/>
<path d="M68.2301 44.2667C68.2628 44.4601 68.2374 44.6588 68.1569 44.8377C68.0765 45.0166 67.9446 45.1677 67.7781 45.2718C67.6115 45.3759 67.4178 45.4283 67.2213 45.4225C67.0249 45.4167 66.8346 45.3528 66.6746 45.239C66.5145 45.1252 66.3919 44.9666 66.3223 44.7832C66.2526 44.5998 66.2391 44.4 66.2833 44.2089C66.3275 44.0178 66.4276 43.8442 66.5708 43.7099C66.714 43.5756 66.8939 43.4867 67.0878 43.4545C67.347 43.4121 67.6126 43.4737 67.8265 43.6258C68.0405 43.778 68.1856 44.0084 68.2301 44.2667Z" fill="white"/>
<path d="M71.1714 42.3257C71.2043 42.5192 71.1789 42.718 71.0983 42.8971C71.0178 43.0761 70.8859 43.2273 70.7192 43.3314C70.5525 43.4355 70.3586 43.4879 70.162 43.4819C69.9655 43.4759 69.7751 43.4118 69.6151 43.2978C69.4551 43.1837 69.3326 43.0248 69.2632 42.8412C69.1937 42.6576 69.1805 42.4576 69.2251 42.2665C69.2698 42.0753 69.3703 41.9018 69.5139 41.7677C69.6575 41.6336 69.8377 41.5451 70.0318 41.5134C70.2909 41.4704 70.5565 41.5318 70.7702 41.6841C70.9839 41.8364 71.1282 42.0672 71.1714 42.3257Z" fill="white"/>
<path d="M77.5965 52.532L69.0576 48.514L74.2265 37.5781L80.5649 40.5619L81.7804 43.6783L77.5965 52.532Z" fill="#EBEBEB"/>
<path d="M80.565 40.5625L81.7806 43.6789L79.5801 42.6446L80.565 40.5625Z" fill="#DBDBDB"/>
<path d="M74.0517 40.0913L78.7983 42.3242L78.9314 42.0426L74.1848 39.8097L74.0517 40.0913Z" fill="#DBDBDB"/>
<path d="M73.7182 40.7984L78.4648 43.0312L78.5979 42.7496L73.8513 40.5167L73.7182 40.7984Z" fill="#DBDBDB"/>
<path d="M73.3823 41.5093L78.1289 43.7422L78.262 43.4605L73.5154 41.2277L73.3823 41.5093Z" fill="#DBDBDB"/>
<path d="M73.0475 42.2163L80.0029 45.4883L80.136 45.2066L73.1805 41.9347L73.0475 42.2163Z" fill="#DBDBDB"/>
<path d="M72.7125 42.9273L79.668 46.1992L79.801 45.9176L72.8456 42.6456L72.7125 42.9273Z" fill="#DBDBDB"/>
<path d="M72.379 43.6343L79.3345 46.9062L79.4675 46.6246L72.5121 43.3527L72.379 43.6343Z" fill="#DBDBDB"/>
<path d="M72.0416 44.3452L78.9971 47.6172L79.1301 47.3355L72.1747 44.0636L72.0416 44.3452Z" fill="#DBDBDB"/>
<path d="M71.7076 45.0523L78.6631 48.3242L78.7961 48.0426L71.8407 44.7706L71.7076 45.0523Z" fill="#DBDBDB"/>
<path d="M71.3736 45.7593L78.3291 49.0312L78.4622 48.7496L71.5067 45.4777L71.3736 45.7593Z" fill="#DBDBDB"/>
<path d="M71.0358 46.4702L77.9912 49.7422L78.1243 49.4605L71.1688 46.1886L71.0358 46.4702Z" fill="#DBDBDB"/>
<path d="M70.7018 47.1812L77.6572 50.4531L77.7903 50.1715L70.8348 46.8995L70.7018 47.1812Z" fill="#DBDBDB"/>
<path d="M70.3653 47.8882L77.3208 51.1602L77.4539 50.8785L70.4984 47.6066L70.3653 47.8882Z" fill="#DBDBDB"/>
<path d="M77.1956 55.8459L79.3945 45.4062L67.0633 42.8199L64.8643 53.2596L77.1956 55.8459Z" fill="#0101C8"/>
<path d="M70.8047 51.4451L77.8159 52.9153L75.2166 47.8711L70.8047 51.4451Z" fill="#0101C8"/>
<g opacity="0.3">
<path opacity="0.3" d="M70.8057 51.4412L77.8169 52.9114L75.2175 47.8672L70.8057 51.4412Z" fill="white"/>
</g>
<path d="M67.353 50.7294L73.5693 52.0318L71.0513 48.5742L67.353 50.7294Z" fill="#0101C8"/>
<g opacity="0.5">
<path opacity="0.5" d="M67.3535 50.7294L73.5698 52.0318L71.0518 48.5742L67.3535 50.7294Z" fill="white"/>
</g>
<path d="M77.8117 52.9184L65.4805 50.332L64.8626 53.2652L77.1939 55.8516L77.8117 52.9184Z" fill="#0101C8"/>
<g opacity="0.5">
<path opacity="0.5" d="M77.8108 52.9184L65.4795 50.332L64.8617 53.2652L77.1929 55.8516L77.8108 52.9184Z" fill="white"/>
</g>
<path opacity="0.9" d="M68.3379 47.5868C68.5296 47.6688 68.7426 47.687 68.9455 47.6388C69.1484 47.5906 69.3303 47.4785 69.4644 47.3191C69.5985 47.1597 69.6776 46.9615 69.6901 46.7537C69.7025 46.546 69.6476 46.3398 69.5335 46.1656C69.4194 45.9913 69.2521 45.8584 69.0565 45.7864C68.8608 45.7144 68.6471 45.7072 68.447 45.7658C68.2469 45.8243 68.0709 45.9456 67.9453 46.1117C67.8196 46.2778 67.7508 46.4798 67.7491 46.6879C67.7471 46.8791 67.8021 47.0665 67.9069 47.2265C68.0117 47.3865 68.1617 47.5119 68.3379 47.5868Z" fill="white"/>
<path d="M54.9535 53.8945H54.6821V54.436H54.9535V53.8945Z" fill="#263238"/>
<path d="M54.9535 53.0067H54.6821V51.8289H54.9535V53.0067ZM54.9535 50.9435H54.6821V49.7631H54.9535V50.9435ZM54.9535 48.8804H54.6821V47.6999H54.9535V48.8804ZM54.9535 46.8145H54.6821V45.6367H54.9535V46.8145Z" fill="#263238"/>
<path d="M54.9505 44.7511H54.6792V44.0742H55.3575V44.345H54.9505V44.7511Z" fill="#263238"/>
<path d="M59.0372 44.345H57.9871V44.0742H59.0372V44.345ZM57.1975 44.345H56.1475V44.0742H57.1975V44.345Z" fill="#263238"/>
<path d="M60.3669 44.0742H59.8242V44.345H60.3669V44.0742Z" fill="#263238"/>
<path d="M55.3278 54.4231C55.3278 54.5238 55.2979 54.6222 55.2419 54.7059C55.1858 54.7896 55.1061 54.8548 55.0129 54.8934C54.9197 54.9319 54.8172 54.942 54.7182 54.9223C54.6193 54.9027 54.5284 54.8542 54.457 54.783C54.3857 54.7118 54.3371 54.6211 54.3174 54.5224C54.2977 54.4237 54.3078 54.3213 54.3464 54.2283C54.3851 54.1353 54.4504 54.0558 54.5343 53.9999C54.6182 53.9439 54.7168 53.9141 54.8177 53.9141C54.953 53.9141 55.0828 53.9677 55.1784 54.0632C55.2741 54.1586 55.3278 54.2881 55.3278 54.4231Z" fill="#263238"/>
<path d="M60.3421 44.7212C60.443 44.7212 60.5417 44.6913 60.6255 44.6354C60.7094 44.5795 60.7748 44.5 60.8134 44.4069C60.852 44.3139 60.8621 44.2116 60.8424 44.1128C60.8228 44.0141 60.7742 43.9234 60.7028 43.8522C60.6315 43.781 60.5406 43.7325 60.4417 43.7129C60.3427 43.6933 60.2401 43.7033 60.1469 43.7419C60.0537 43.7804 59.974 43.8456 59.918 43.9294C59.8619 44.0131 59.832 44.1115 59.832 44.2121C59.832 44.3471 59.8858 44.4766 59.9814 44.5721C60.0771 44.6675 60.2069 44.7212 60.3421 44.7212Z" fill="#263238"/>
<path d="M84.2219 43.8906H83.6792V44.1614H84.2219V43.8906Z" fill="#263238"/>
<path d="M88.5096 44.1614H87.2858V43.8906H88.5096V44.1614ZM86.3687 44.1614H85.145V43.8906H86.3687V44.1614Z" fill="#263238"/>
<path d="M90.0992 44.1613H89.4209V43.8905H89.8279V43.4844H90.0992V44.1613Z" fill="#263238"/>
<path d="M90.0995 42.6864H89.8281V41.6196H90.0995V42.6864ZM90.0995 40.8182H89.8281V39.7514H90.0995V40.8182ZM90.0995 38.9527H89.8281V37.8697H90.0995V38.9527ZM90.0995 37.0845H89.8281V36.0123H90.0995V37.0845ZM90.0995 35.2162H89.8281V34.1495H90.0995V35.2162ZM90.0995 33.348H89.8281V32.2812H90.0995V33.348Z" fill="#263238"/>
<path d="M90.0992 31.4816H89.8279V31.0754H89.4209V30.8047H90.0992V31.4816Z" fill="#263238"/>
<path d="M88.3846 30.8047H86.998V31.0754H88.3846V30.8047Z" fill="#263238"/>
<path d="M85.9587 30.8047H85.416V31.0754H85.9587V30.8047Z" fill="#263238"/>
<path d="M83.7064 44.5376C83.9881 44.5376 84.2165 44.3097 84.2165 44.0286C84.2165 43.7474 83.9881 43.5195 83.7064 43.5195C83.4247 43.5195 83.1963 43.7474 83.1963 44.0286C83.1963 44.3097 83.4247 44.5376 83.7064 44.5376Z" fill="#263238"/>
<path d="M85.4413 30.4297C85.3404 30.4297 85.2417 30.4595 85.1579 30.5155C85.074 30.5714 85.0086 30.6509 84.97 30.7439C84.9314 30.8369 84.9213 30.9393 84.941 31.038C84.9606 31.1368 85.0092 31.2275 85.0806 31.2986C85.1519 31.3698 85.2428 31.4183 85.3417 31.438C85.4407 31.4576 85.5433 31.4475 85.6365 31.409C85.7297 31.3705 85.8093 31.3052 85.8654 31.2215C85.9215 31.1378 85.9514 31.0394 85.9514 30.9387C85.9514 30.8037 85.8976 30.6742 85.802 30.5788C85.7063 30.4833 85.5765 30.4297 85.4413 30.4297Z" fill="#263238"/>
</g>
</svg>
