<svg width="20" height="19" viewBox="0 0 20 19" fill="none" xmlns="http://www.w3.org/2000/svg">
<path d="M3.75078 13.7467V13.903C3.75078 14.5069 4.24062 14.9968 4.84454 14.9968H8.90694C9.51084 14.9968 10.0007 14.5069 10.0007 13.903V13.7467C10.0265 12.6374 9.29914 11.6513 8.23194 11.3483C8.8585 10.7866 9.07334 9.89601 8.77256 9.11015C8.47178 8.32421 7.7171 7.80469 6.87568 7.80469C6.03426 7.80469 5.27958 8.32423 4.9788 9.11015C4.67802 9.89609 4.89287 10.7867 5.51942 11.3483C4.45224 11.6515 3.72488 12.6374 3.75066 13.7467H3.75078ZM6.87578 8.43435C7.44454 8.43435 7.95702 8.77731 8.175 9.30231C8.39296 9.82809 8.27266 10.4328 7.87032 10.8351C7.46798 11.2375 6.86328 11.3578 6.3375 11.1398C5.8125 10.9218 5.46954 10.4093 5.46954 9.84059C5.46954 9.06403 6.09922 8.43435 6.87578 8.43435ZM6.25078 11.8719H7.50078C8.00156 11.861 8.48516 12.0548 8.83906 12.4087C9.19296 12.7626 9.38672 13.2462 9.37578 13.7469V13.9032C9.37578 14.1618 9.16562 14.372 8.90702 14.372H4.84462C4.58602 14.372 4.37586 14.1618 4.37586 13.9032V13.7469C4.36493 13.2462 4.55868 12.7626 4.91258 12.4087C5.26648 12.0548 5.75008 11.861 6.25086 11.8719H6.25078Z" fill="white"/>
<path d="M16.5624 11.5546C16.3898 11.5546 16.2499 11.6945 16.2499 11.8671V15.7733C16.2499 16.0319 16.0398 16.2421 15.7812 16.2421H2.96876C2.71016 16.2421 2.5 16.0319 2.5 15.7733V6.71095C2.5 6.45235 2.71016 6.24219 2.96876 6.24219H9.84376C10.0164 6.24219 10.1563 6.10234 10.1563 5.92969C10.1563 5.75703 10.0164 5.61719 9.84376 5.61719H2.96876C2.36486 5.61719 1.875 6.10703 1.875 6.71095V15.7733C1.875 16.3772 2.36484 16.8671 2.96876 16.8671H15.7812C16.3851 16.8671 16.8749 16.3773 16.8749 15.7733V11.8671C16.8749 11.7843 16.8421 11.7046 16.7835 11.646C16.7249 11.5874 16.6452 11.5546 16.5624 11.5546L16.5624 11.5546Z" fill="white"/>
<path d="M18.4812 3.97264C18.4655 3.82342 18.346 3.70702 18.1968 3.69452C17.6007 3.61718 17.0187 3.45546 16.4687 3.21328C15.9007 2.97656 15.371 2.65624 14.8983 2.26172C14.7788 2.15234 14.596 2.15234 14.4765 2.26172C14.0038 2.65626 13.4741 2.97656 12.9061 3.21328C12.3593 3.45468 11.7804 3.6164 11.1874 3.69452C11.0374 3.70624 10.9178 3.82343 10.9014 3.97264C10.8874 4.10545 10.5749 7.22584 11.3468 8.76644C12.2702 10.6071 14.4718 11.6398 14.564 11.6836C14.6476 11.7219 14.7429 11.7219 14.8265 11.6836C14.9186 11.6399 17.1203 10.6071 18.0437 8.76644C18.8077 7.22582 18.4952 4.10544 18.4812 3.97264ZM17.4765 8.48664C16.7749 9.8882 15.1561 10.8054 14.6875 11.0506C14.2187 10.8053 12.5999 9.88814 11.8985 8.48664C11.3235 7.33664 11.4391 5.03504 11.4954 4.28204C12.0649 4.18282 12.6204 4.0172 13.1516 3.78828C13.6985 3.55704 14.2149 3.25782 14.6875 2.89766C15.1602 3.25782 15.6766 3.55704 16.2235 3.78828C16.7547 4.01718 17.3102 4.18282 17.8797 4.28204C17.9375 5.03516 18.0532 7.33664 17.4766 8.48664H17.4765Z" fill="white"/>
<path d="M14.9521 7.84432C14.8946 7.90175 14.8228 7.93047 14.7367 7.93047C14.6505 7.93047 14.5767 7.90175 14.5151 7.84432C14.4577 7.78278 14.4269 7.70893 14.4228 7.62278L14.349 5.08124C14.3449 4.98688 14.3757 4.90483 14.4413 4.83508C14.511 4.76534 14.5931 4.73047 14.6875 4.73047H14.7859C14.8803 4.73047 14.9603 4.76534 15.0259 4.83508C15.0957 4.90483 15.1285 4.98688 15.1244 5.08124L15.0505 7.62278C15.0464 7.70893 15.0136 7.78278 14.9521 7.84432ZM14.7551 8.42278C14.8495 8.42278 14.9316 8.45765 15.0013 8.52739C15.071 8.59714 15.1059 8.67919 15.1059 8.77355V8.87201C15.1059 8.96637 15.071 9.04842 15.0013 9.11816C14.9316 9.1879 14.8495 9.22278 14.7551 9.22278H14.7182C14.6239 9.22278 14.5418 9.1879 14.4721 9.11816C14.4023 9.04842 14.3675 8.96637 14.3675 8.87201V8.77355C14.3675 8.67919 14.4023 8.59714 14.4721 8.52739C14.5418 8.45765 14.6239 8.42278 14.7182 8.42278H14.7551Z" fill="white"/>
<path d="M11.5625 14.9922H14.6875C14.8602 14.9922 15 14.8523 15 14.6797C15 14.507 14.8602 14.3672 14.6875 14.3672H11.5625C11.3898 14.3672 11.25 14.507 11.25 14.6797C11.25 14.8523 11.3898 14.9922 11.5625 14.9922Z" fill="white"/>
<path d="M11.5625 13.1172H13.4375C13.6102 13.1172 13.75 12.9773 13.75 12.8047C13.75 12.632 13.6102 12.4922 13.4375 12.4922H11.5625C11.3898 12.4922 11.25 12.632 11.25 12.8047C11.25 12.9773 11.3898 13.1172 11.5625 13.1172Z" fill="white"/>
</svg>
