<svg width="106" height="94" viewBox="0 0 106 94" fill="none" xmlns="http://www.w3.org/2000/svg">
<mask id="mask0_441_794" style="mask-type:alpha" maskUnits="userSpaceOnUse" x="0" y="0" width="106" height="89">
<path d="M3.27413 0.204633H102.726C104.421 0.204633 105.795 1.57889 105.795 3.27413V85.5367C105.795 87.2319 104.421 88.6062 102.726 88.6062H3.27413C1.57889 88.6062 0.204633 87.2319 0.204633 85.5367V3.27413C0.204633 1.57889 1.57889 0.204633 3.27413 0.204633Z" fill="white" stroke="#DBDBDB" stroke-width="0.409266"/>
</mask>
<g mask="url(#mask0_441_794)">
<path d="M59.2705 24.5844C59.2705 25.565 59.6417 26.5094 60.3099 27.2284C60.9781 27.9474 61.8939 28.3879 62.8738 28.4616H84.9332C86.0944 28.4381 87.2032 27.9749 88.035 27.166C88.8668 26.3571 89.3593 25.263 89.4128 24.1052C89.4662 22.9475 89.0767 21.8127 88.323 20.9309C87.5693 20.0491 86.5079 19.4861 85.3538 19.3561C85.2977 17.5701 84.6204 15.8593 83.4382 14.5171C82.256 13.175 80.6426 12.2853 78.8748 12.0006C77.107 11.716 75.295 12.0541 73.7497 12.957C72.2045 13.8599 71.0223 15.2713 70.406 16.9491C69.771 16.6287 69.069 16.4626 68.3575 16.4644C67.1922 16.4643 66.0708 16.9076 65.2217 17.704C64.3727 18.5004 63.86 19.5899 63.7882 20.7505C63.5793 20.7153 63.3678 20.6981 63.156 20.699C62.1248 20.7012 61.1365 21.1115 60.408 21.8399C59.6796 22.5683 59.2705 23.5553 59.2705 24.5844Z" fill="#0101C8"/>
<path d="M76.7577 22.8164H72.0229V28.4725H76.7577V22.8164Z" fill="white"/>
<path d="M70.5415 23.6475H78.2392L74.389 19.1367L70.5415 23.6475Z" fill="white"/>
<path d="M85.1965 30.1992H64.1221V31.6748H85.1965V30.1992Z" fill="#DBDBDB"/>
<path d="M79.8567 30.1992H64.1221V31.6748H79.8567V30.1992Z" fill="#0101C8"/>
<path d="M42.5596 87.0312L43.2596 91.2307L48.0134 116.847H48.7812L45.3245 91.2307L44.8143 87.0312H42.5596Z" fill="#C7C7C7"/>
<path d="M44.8143 87.0312H42.5596L43.2596 91.2307H45.3245L44.8143 87.0312Z" fill="#A6A6A6"/>
<path d="M27.6309 116.847H28.3987L33.1525 91.2307L33.8525 87.0312H31.5978L31.0876 91.2307L27.6309 116.847Z" fill="#C7C7C7"/>
<path d="M31.5985 87.0312L31.0884 91.2307H33.1532L33.8533 87.0312H31.5985Z" fill="#A6A6A6"/>
<path d="M13.375 116.847H14.1402L18.8939 91.2307L19.5967 87.0312H17.3419L16.8318 91.2307L13.375 116.847Z" fill="#C7C7C7"/>
<path d="M16.8306 91.2307H18.8927L19.5955 87.0312H17.3407L16.8306 91.2307Z" fill="#A6A6A6"/>
<path d="M14.5879 89.0039H49.4217V85.3406H36.3814L31.9994 64.625H15.9174L14.5879 89.0039Z" fill="#C7C7C7"/>
<path d="M16.6175 85.3398H49.4217V89.0032H16.4873L16.6175 85.3398Z" fill="#DBDBDB"/>
<path d="M14.5879 89.0039H16.4872L17.7245 64.625H15.9174L14.5879 89.0039Z" fill="#DBDBDB"/>
<path d="M49.4944 112.732L36.7417 108.917C36.7417 108.917 47.2505 87.0646 46.9194 85.9518C46.6997 85.2099 30.9433 85.1584 26.3252 81.0213C21.5471 76.7379 25.267 68.3255 25.267 68.3255L38.5135 68.2578C38.5135 68.2578 38.2856 71.0168 38.7849 71.4473C39.1186 71.7316 57.2355 73.3237 60.6977 79.968C63.8561 85.9978 49.4944 112.732 49.4944 112.732Z" fill="#183C4F"/>
<path d="M46.9217 85.9518C46.9814 86.1386 46.7236 86.9238 46.2569 88.0988L55.778 99.7712C59.1751 92.0492 62.366 83.1413 60.7081 79.968C57.2378 73.3237 39.129 71.7316 38.7925 71.4473C38.2906 71.0195 38.5212 68.2578 38.5212 68.2578L30.1099 68.3011L44.0835 85.4292C45.7658 85.6133 46.8647 85.7595 46.9217 85.9518Z" fill="#263238"/>
<path d="M25.9802 70.8393C26.0209 70.398 26.0725 69.9594 26.1213 69.518C26.1213 69.4666 26.2082 69.4693 26.2027 69.518C26.0264 71.305 25.8446 73.1354 26.1729 74.9169C26.4754 76.5613 27.3059 78.0629 28.5389 79.1949C31.1681 81.6317 34.842 82.36 38.2662 82.9421C40.228 83.2752 42.2006 83.5297 44.1813 83.7246C45.1509 83.8185 46.1213 83.8961 47.0927 83.9575C48.0586 84.0171 49.0246 84.0252 49.9878 84.0793C50.2917 84.0956 50.5631 84.2364 50.5142 84.5829C50.4653 84.7946 50.3877 84.9987 50.2836 85.1894L49.9743 85.8907C49.5853 86.7625 49.1964 87.6344 48.8075 88.5062C48.0026 90.3004 47.1886 92.0901 46.3655 93.8753C44.7176 97.4186 43.0091 100.933 41.24 104.419C41.023 104.849 40.8005 105.282 40.5807 105.715C40.5807 105.743 40.5264 105.715 40.54 105.688C42.2277 102.16 43.8964 98.6208 45.5461 95.072C46.3601 93.3121 47.1741 91.5522 47.9881 89.7842C48.3933 88.9015 48.7949 88.0179 49.1928 87.1335C49.3936 86.693 49.5926 86.2499 49.7897 85.804C49.8901 85.5847 49.9878 85.3627 50.0882 85.1407C50.1886 84.9187 50.4708 84.5152 50.2619 84.3284C50.1235 84.2147 49.8386 84.2526 49.6731 84.2499L48.9025 84.2228C48.4168 84.2066 47.9311 84.1876 47.4427 84.1633C46.4587 84.1145 45.4746 84.0477 44.4906 83.9629C42.5641 83.795 40.6458 83.5513 38.7383 83.2454C35.3358 82.7039 31.6348 82.0839 28.9107 79.8041C27.6946 78.8162 26.7886 77.5005 26.3004 76.0135C25.7713 74.3483 25.8229 72.5613 25.9802 70.8393Z" fill="#455A64"/>
<path d="M72.5637 101.24L59.849 107.578C59.849 107.578 49.9291 87.4556 48.8411 86.1532C47.3894 84.4231 28.4911 86.8653 24.0331 81.2796C19.4204 75.5044 23.3737 68.332 23.3737 68.332H37.7544C37.7544 68.332 37.7978 69.9241 36.9675 72.2526C36.9675 72.2526 53.4184 71.2752 58.0745 75.7914C61.6534 79.2516 72.5637 101.24 72.5637 101.24Z" fill="#183C4F"/>
<path d="M34.3435 73.6949C35.0797 73.1885 35.8433 72.723 36.6309 72.3005C37.1841 72.0101 37.7649 71.7752 38.3647 71.5993C38.7853 71.4991 38.967 71.4693 38.5736 71.6534L37.5154 72.1543C37.5914 72.1543 37.6674 72.1543 37.7406 72.1543C38.012 72.1543 38.305 72.1299 38.5872 72.1245C39.1298 72.1083 39.6942 72.1245 40.2477 72.111C41.3711 72.111 42.4808 72.2085 43.6014 72.2653C43.6062 72.267 43.6104 72.2701 43.6133 72.2742C43.6162 72.2783 43.6178 72.2833 43.6178 72.2883C43.6178 72.2934 43.6162 72.2983 43.6133 72.3025C43.6104 72.3066 43.6062 72.3097 43.6014 72.3114C42.4835 72.2762 41.3602 72.333 40.2423 72.3303C39.6996 72.3303 39.1353 72.3438 38.5818 72.3547L37.7678 72.3682C37.5391 72.3804 37.3099 72.3804 37.0813 72.3682L36.772 72.5144C35.958 72.8962 35.144 73.2969 34.3652 73.7382C34.3435 73.7409 34.3272 73.7112 34.3435 73.6949Z" fill="#455A64"/>
<path d="M38.0994 67.7876C37.9529 68.4672 37.8281 69.1414 37.6572 69.821C37.5812 70.1296 37.5025 70.441 37.3858 70.7415C37.299 70.9961 37.1606 71.2831 36.8703 71.3508C36.5393 71.4266 36.4335 71.145 36.4524 70.8688C36.4714 70.5926 36.542 70.2488 36.5908 69.9455C36.6505 69.5935 36.7102 69.2416 36.7618 68.8896C36.7862 68.7136 36.8133 68.5376 36.8377 68.3481C36.8377 68.3047 36.8649 67.969 36.8866 67.8715C36.8866 67.8715 36.8866 67.8878 36.9056 67.8851C36.9104 67.8845 36.9149 67.8823 36.9184 67.8789C36.9218 67.8754 36.924 67.8709 36.9246 67.8661C36.9277 67.8571 36.9274 67.8472 36.924 67.8383C36.9205 67.8294 36.914 67.822 36.9056 67.8174C36.9056 67.8174 36.8866 67.8174 36.8757 67.8174C36.8133 67.8526 36.8106 67.9419 36.7943 68.0069C36.7455 68.1775 36.6939 68.3508 36.6505 68.5213C36.5691 68.8463 36.4877 69.1712 36.4172 69.4961C36.3466 69.821 36.2788 70.1513 36.211 70.4762C36.1353 70.719 36.1213 70.9767 36.1703 71.2262C36.2046 71.3438 36.2758 71.4472 36.3735 71.5213C36.4712 71.5954 36.5902 71.6362 36.7129 71.6378C36.7129 71.6594 36.6885 71.6811 36.6804 71.7027C36.6532 71.7704 36.6342 71.8408 36.6098 71.9112C36.5854 71.9816 36.5664 72.052 36.5474 72.1224C36.5448 72.1576 36.5448 72.1929 36.5474 72.228C36.5474 72.2659 36.5474 72.3038 36.5474 72.3444C36.5445 72.3577 36.5466 72.3715 36.5534 72.3832C36.5601 72.395 36.5711 72.4038 36.584 72.4078C36.597 72.4119 36.611 72.411 36.6233 72.4053C36.6356 72.3996 36.6453 72.3894 36.6505 72.3769C36.6695 72.3417 36.6939 72.3146 36.7129 72.2822C36.7318 72.2451 36.7464 72.2061 36.7563 72.1657C36.7753 72.098 36.7943 72.0304 36.8079 71.9627C36.8265 71.8941 36.841 71.8245 36.8513 71.7542C36.8553 71.7137 36.8553 71.6729 36.8513 71.6323C36.9923 71.6147 37.1256 71.5584 37.2366 71.4699C37.4211 71.3024 37.553 71.0851 37.6165 70.8444C37.7087 70.5601 37.7793 70.2677 37.8471 69.978C38.0286 69.2677 38.1475 68.5429 38.2025 67.812C38.1992 67.8019 38.1933 67.7929 38.1854 67.7858C38.1776 67.7787 38.1681 67.7736 38.1578 67.7712C38.1475 67.7688 38.1367 67.769 38.1265 67.7719C38.1163 67.7747 38.107 67.7801 38.0994 67.7876Z" fill="#455A64"/>
<path d="M31.1636 69.7191C31.1121 70.0549 31.0849 70.3906 31.0198 70.7237C30.9547 71.0567 30.8787 71.3762 30.7838 71.6957C30.6975 72.0052 30.5688 72.3013 30.4012 72.5756C30.2248 72.8333 30.0118 73.064 29.769 73.2606C29.3072 73.6537 28.7838 73.9684 28.2197 74.1921C27.9354 74.3051 27.6445 74.401 27.3487 74.4791C27.194 74.517 27.0394 74.5494 26.882 74.5765C26.7518 74.5848 26.6245 74.6189 26.5075 74.6767C26.4963 74.6834 26.487 74.693 26.4806 74.7044C26.4741 74.7157 26.4707 74.7286 26.4707 74.7417C26.4707 74.7548 26.4741 74.7676 26.4806 74.779C26.487 74.7904 26.4963 74.7999 26.5075 74.8067C26.7369 74.8678 26.9783 74.8678 27.2076 74.8067C27.459 74.7743 27.7075 74.7227 27.951 74.6523C28.443 74.505 28.9116 74.289 29.343 74.0106C29.7797 73.744 30.1678 73.4053 30.4907 73.0088C30.7899 72.5919 30.9894 72.1121 31.0741 71.6063C31.2098 70.9888 31.2582 70.3554 31.2179 69.7246C31.2154 69.7198 31.2117 69.7157 31.2073 69.7126C31.2028 69.7096 31.1976 69.7077 31.1922 69.7072C31.1868 69.7067 31.1814 69.7075 31.1764 69.7096C31.1714 69.7116 31.167 69.7149 31.1636 69.7191V69.7191Z" fill="#455A64"/>
<path d="M23.3827 71.6737C23.3827 71.6608 23.3878 71.6484 23.397 71.6393C23.4061 71.6301 23.4186 71.625 23.4315 71.625C23.4445 71.625 23.4569 71.6301 23.466 71.6393C23.4752 71.6484 23.4804 71.6608 23.4804 71.6737C23.4532 74.7901 23.9335 78.2748 26.3402 80.5112C28.9749 82.9643 32.7789 83.2567 36.2005 83.2188C38.1676 83.2026 40.1267 83.1538 42.0911 83.2188C44.0556 83.2838 46.058 83.3758 48.0197 83.6276C48.7827 83.6989 49.4953 84.0387 50.0303 84.5861C50.5466 85.1716 50.9944 85.8139 51.3653 86.5004C52.3529 88.1249 53.3098 89.7765 54.236 91.4552C56.0792 94.7747 57.7832 98.1637 59.3479 101.622C59.5433 102.052 59.7359 102.482 59.9258 102.914C59.9394 102.941 59.896 102.965 59.8824 102.938C58.2924 99.4669 56.5803 96.0563 54.7461 92.7061C53.8308 91.0292 52.8856 89.3704 51.9107 87.7296C51.4521 86.9579 51.0098 86.1673 50.497 85.4282C50.0466 84.7756 49.4795 84.1637 48.6981 83.9255C48.218 83.8064 47.7271 83.7356 47.2329 83.7143C46.7318 83.6692 46.2298 83.6276 45.727 83.5897C44.7484 83.5193 43.7679 83.4661 42.7857 83.43C40.805 83.3569 38.827 83.3812 36.8462 83.4164C33.4084 83.4787 29.6505 83.3623 26.8069 81.1773C25.5884 80.2237 24.6686 78.9423 24.156 77.4842C23.6516 75.9886 23.3932 74.4214 23.3908 72.8434C23.3718 72.4589 23.3745 72.0663 23.3827 71.6737Z" fill="#455A64"/>
<path d="M43.9724 85.3282C44.6724 85.3282 45.3752 85.3688 46.0752 85.3931C46.6597 85.3835 47.2435 85.4353 47.8172 85.5475C48.3598 85.6801 48.7695 85.7424 49.2037 86.3354C49.7463 87.0745 52.6985 92.7685 53.9384 95.2893C54.2821 95.9878 54.6213 96.6891 54.9559 97.3931C55.3005 98.1214 55.6044 98.866 55.949 99.5943C55.949 99.6187 55.9219 99.6431 55.9083 99.616C55.6044 99.0068 55.2653 98.4165 54.9532 97.8127C54.6412 97.209 54.3319 96.5997 54.028 95.9905C53.4112 94.7613 52.7952 93.533 52.1802 92.3056C51.5643 91.0871 50.8235 89.9012 50.1968 88.691C49.6731 87.6729 48.9595 86.2812 48.4602 86.0754C47.7639 85.8029 47.0337 85.6261 46.2896 85.5502C45.5163 85.496 44.743 85.45 43.9697 85.3823C43.9661 85.3821 43.9626 85.3813 43.9594 85.3797C43.9562 85.3782 43.9533 85.3761 43.9509 85.3734C43.9485 85.3708 43.9466 85.3677 43.9454 85.3643C43.9442 85.361 43.9437 85.3574 43.9439 85.3539C43.9441 85.3503 43.9449 85.3468 43.9465 85.3436C43.948 85.3404 43.9501 85.3375 43.9528 85.3351C43.9554 85.3327 43.9585 85.3309 43.9619 85.3297C43.9652 85.3285 43.9688 85.328 43.9724 85.3282V85.3282Z" fill="#455A64"/>
<path d="M32.8105 42.09C32.3325 42.2728 31.9105 42.5767 31.586 42.9717C31.2616 43.3667 31.0458 43.8392 30.96 44.3427C30.874 44.9941 30.7025 45.6313 30.4499 46.238C30.1281 46.8363 29.7194 47.3837 29.237 47.8626C28.5044 48.6559 27.9753 49.46 27.7989 50.5701C27.586 51.743 27.6202 52.9473 27.8993 54.1062C27.8993 54.1062 27.8993 54.1062 27.8993 54.1062C27.6843 52.8868 27.7221 51.6363 28.0106 50.432C28.2982 49.2163 29.0471 48.488 29.8204 47.5999C30.4365 46.911 30.8554 46.0693 31.0332 45.1631C31.139 44.6081 31.1689 44.0232 31.4294 43.5115C31.7414 42.8969 32.3031 42.5314 32.8593 42.2092C32.8702 42.1999 32.8779 42.1875 32.8813 42.1736C32.8847 42.1597 32.8836 42.1451 32.8782 42.1319C32.8728 42.1187 32.8633 42.1075 32.8511 42.1C32.839 42.0925 32.8247 42.089 32.8105 42.09V42.09Z" fill="#183C4F"/>
<path d="M42.3398 49.2078C41.7185 48.2845 41.0619 47.4912 40.7363 46.373C40.4405 45.355 40.3021 44.2909 39.9982 43.2728C39.9982 43.2566 39.9684 43.2728 39.9738 43.2728C40.4242 45.0734 40.4188 46.8631 41.4661 48.4172C42.0332 49.262 42.6057 50.0418 42.953 51.0436C43.3029 52.0837 43.4502 53.181 43.3872 54.2764C43.3872 54.3143 43.436 54.317 43.4442 54.2764C43.7234 52.5085 43.3295 50.7004 42.3398 49.2078Z" fill="#183C4F"/>
<path d="M34.7559 55.5786C35.6268 60.7906 39.1162 67.3754 39.9519 67.7789C41.4334 68.4937 51.3479 69.2626 51.7359 69.2274C52.7073 69.1353 53.9066 62.6534 53.0926 61.9874C52.9081 61.8385 43.4901 61.7681 43.0912 61.6489C42.6001 61.5027 40.2775 58.1589 37.868 54.7555C36.1912 52.3647 34.2946 52.7979 34.7559 55.5786Z" fill="#3D8BC5"/>
<path d="M50.5371 68.8969C51.4679 69.2865 52.4232 69.6148 53.397 69.8798C54.1757 70.0557 56.4224 70.5025 56.7018 69.6713C56.8945 69.1027 55.6165 68.683 54.6967 68.3662C54.2191 68.2011 53.6113 67.7462 53.7362 67.4402C53.9451 66.8987 55.1769 67.359 55.9909 67.7706C57.5701 68.5666 59.6946 70.0395 60.5819 69.2137C60.9156 68.8996 60.4761 68.4014 59.8466 67.9059C60.8532 68.4475 61.9196 68.8942 62.3049 68.5612C62.4041 68.476 62.4669 68.3563 62.4806 68.2264C62.4942 68.0966 62.4575 67.9664 62.3781 67.8626C62.504 67.9121 62.6418 67.9233 62.774 67.8949C62.9063 67.8664 63.0272 67.7997 63.1216 67.7029C63.4173 67.3536 63.2355 66.8906 62.8502 66.3978C62.9084 66.387 62.9632 66.3627 63.0103 66.327C63.0574 66.2913 63.0955 66.2451 63.1216 66.1921C63.7321 65.1361 60.2129 62.4015 59.0516 62.2065C55.6002 61.5973 51.9969 62.1036 51.9969 62.1036C50.7244 63.2489 50.5344 68.8942 50.5371 68.8969Z" fill="#EB9481"/>
<path d="M55.3562 65.4377C56.1758 65.5085 56.9693 65.7611 57.6788 66.1769C58.5063 66.6751 59.1792 67.3818 59.9498 67.9531C59.9715 67.9693 59.9498 68.0018 59.9254 67.9856C59.5618 67.6877 59.1657 67.4251 58.7885 67.1408C58.4114 66.8565 58.0613 66.5722 57.6761 66.3285C56.9798 65.8646 56.1861 65.5663 55.3562 65.4567C55.3562 65.4567 55.348 65.435 55.3562 65.4377Z" fill="#263238"/>
<path d="M55.906 63.9573C56.8278 64.117 57.7307 64.3711 58.6003 64.7155C59.5364 65.1243 60.2934 65.8364 61.0423 66.5214C61.4873 66.9302 61.9241 67.3526 62.3501 67.7831C62.3691 67.7994 62.3501 67.8319 62.3257 67.8129C61.5714 67.1053 60.7972 66.4212 60.0031 65.7606C59.2695 65.1416 58.4201 64.6741 57.5041 64.3851C56.9804 64.22 56.4459 64.0954 55.9114 63.9709C55.8924 63.9709 55.8951 63.9546 55.906 63.9573Z" fill="#263238"/>
<path d="M56.7879 62.6406C57.667 62.7679 58.4349 62.8762 59.2299 63.2959C60.1278 63.8228 60.9563 64.4595 61.6963 65.1912C62.1015 65.5756 62.4958 65.97 62.8793 66.3744C62.8929 66.3906 62.8657 66.4177 62.8495 66.4014C61.9679 65.5212 61.0308 64.6982 60.0439 63.9375C59.58 63.5669 59.0609 63.2709 58.5054 63.0603C57.9445 62.8781 57.369 62.744 56.7852 62.6596C56.7852 62.6596 56.7852 62.6406 56.7879 62.6406Z" fill="#263238"/>
<path d="M50.7942 64.6262V69.4998C50.7942 69.4998 42.5565 69.1641 39.911 68.0242C38.4892 67.4096 34.8669 58.2986 34.3731 55.3826C33.8874 52.5126 35.0243 50.8122 37.9655 54.1425C40.2203 56.6957 43.5306 61.3013 43.7938 61.4286C44.057 61.5558 50.805 61.0603 50.805 61.0603V64.6208" fill="#0190FF"/>
<path d="M35 57.3717C35 57.4404 34.9771 57.5071 34.9349 57.5613C34.8833 57.3961 34.8318 57.2337 34.7856 57.0766C34.8481 57.0967 34.9026 57.1362 34.9411 57.1892C34.9797 57.2423 35.0003 57.3062 35 57.3717ZM38.9343 57.0577C38.8721 57.0577 38.8112 57.0761 38.7595 57.1106C38.7077 57.1451 38.6674 57.1942 38.6435 57.2516C38.6197 57.3089 38.6135 57.3721 38.6256 57.433C38.6378 57.4939 38.6678 57.5499 38.7118 57.5938C38.7558 57.6378 38.8119 57.6677 38.8729 57.6798C38.934 57.6919 38.9973 57.6857 39.0548 57.6619C39.1123 57.6381 39.1614 57.5979 39.196 57.5462C39.2306 57.4946 39.2491 57.4339 39.2491 57.3717C39.2484 57.2887 39.215 57.2092 39.1561 57.1504C39.0972 57.0917 39.0176 57.0584 38.9343 57.0577ZM36.8098 53.8086C36.7475 53.8086 36.6867 53.827 36.6349 53.8615C36.5832 53.896 36.5428 53.9451 36.519 54.0025C36.4952 54.0599 36.4889 54.123 36.5011 54.1839C36.5132 54.2449 36.5432 54.3008 36.5872 54.3448C36.6312 54.3887 36.6873 54.4186 36.7484 54.4307C36.8094 54.4428 36.8727 54.4366 36.9302 54.4128C36.9878 54.3891 37.0369 54.3488 37.0715 54.2972C37.1061 54.2455 37.1245 54.1848 37.1245 54.1227C37.1224 54.0408 37.0883 53.963 37.0295 53.9058C36.9707 53.8487 36.8919 53.8167 36.8098 53.8167V53.8086ZM38.9343 63.3555C38.8713 63.3549 38.8096 63.3731 38.7569 63.4077C38.7043 63.4423 38.6632 63.4918 38.6389 63.5498C38.6145 63.6078 38.608 63.6717 38.6201 63.7334C38.6323 63.7951 38.6626 63.8518 38.7072 63.8962C38.7517 63.9407 38.8085 63.9709 38.8704 63.9831C38.9322 63.9952 38.9962 63.9887 39.0544 63.9644C39.1125 63.9401 39.162 63.8991 39.1967 63.8466C39.2314 63.794 39.2496 63.7324 39.2491 63.6695C39.2484 63.5865 39.215 63.507 39.1561 63.4482C39.0972 63.3895 39.0176 63.3562 38.9343 63.3555V63.3555ZM43.1807 63.3555C43.1178 63.3555 43.0563 63.3741 43.004 63.409C42.9518 63.444 42.9111 63.4936 42.8872 63.5517C42.8632 63.6097 42.8571 63.6735 42.8695 63.7351C42.882 63.7966 42.9125 63.853 42.9572 63.8972C43.0019 63.9414 43.0587 63.9714 43.1204 63.9833C43.1822 63.9952 43.2461 63.9885 43.3041 63.9641C43.362 63.9397 43.4114 63.8987 43.446 63.8463C43.4805 63.7938 43.4987 63.7323 43.4982 63.6695C43.4982 63.6281 43.4899 63.587 43.4739 63.5487C43.458 63.5104 43.4345 63.4757 43.405 63.4465C43.3755 63.4173 43.3405 63.3942 43.302 63.3786C43.2635 63.363 43.2223 63.3551 43.1807 63.3555V63.3555ZM47.4298 63.3555C47.3668 63.3549 47.305 63.3731 47.2524 63.4077C47.1998 63.4423 47.1587 63.4918 47.1343 63.5498C47.1099 63.6078 47.1034 63.6717 47.1156 63.7334C47.1277 63.7951 47.158 63.8518 47.2026 63.8962C47.2472 63.9407 47.304 63.9709 47.3658 63.9831C47.4276 63.9952 47.4917 63.9887 47.5498 63.9644C47.6079 63.9401 47.6575 63.8991 47.6922 63.8466C47.7268 63.794 47.7451 63.7324 47.7445 63.6695C47.7445 63.5862 47.7114 63.5064 47.6523 63.4475C47.5933 63.3886 47.5133 63.3555 47.4298 63.3555ZM36.8098 60.1064C36.7468 60.1059 36.685 60.124 36.6324 60.1586C36.5798 60.1932 36.5387 60.2427 36.5143 60.3007C36.49 60.3587 36.4834 60.4226 36.4956 60.4843C36.5078 60.546 36.5381 60.6027 36.5826 60.6472C36.6272 60.6916 36.684 60.7219 36.7458 60.734C36.8077 60.7461 36.8717 60.7396 36.9298 60.7153C36.9879 60.691 37.0375 60.65 37.0722 60.5975C37.1068 60.545 37.1251 60.4833 37.1245 60.4205C37.1245 60.3372 37.0914 60.2573 37.0324 60.1984C36.9733 60.1395 36.8933 60.1064 36.8098 60.1064V60.1064ZM41.0589 60.1064C40.9959 60.1059 40.9341 60.124 40.8815 60.1586C40.8289 60.1932 40.7878 60.2427 40.7634 60.3007C40.739 60.3587 40.7325 60.4226 40.7447 60.4843C40.7568 60.546 40.7871 60.6027 40.8317 60.6472C40.8763 60.6916 40.9331 60.7219 40.9949 60.734C41.0567 60.7461 41.1208 60.7396 41.1789 60.7153C41.237 60.691 41.2866 60.65 41.3212 60.5975C41.3559 60.545 41.3742 60.4833 41.3736 60.4205C41.3736 60.3372 41.3405 60.2573 41.2814 60.1984C41.2224 60.1395 41.1423 60.1064 41.0589 60.1064V60.1064ZM41.0589 66.3988C40.996 66.3982 40.9343 66.4164 40.8818 66.4508C40.8292 66.4853 40.7881 66.5346 40.7636 66.5924C40.7392 66.6503 40.7325 66.7141 40.7445 66.7757C40.7564 66.8373 40.7864 66.894 40.8307 66.9386C40.875 66.9832 40.9316 67.0136 40.9932 67.026C41.0549 67.0385 41.1188 67.0324 41.177 67.0085C41.2352 66.9846 41.2849 66.944 41.3199 66.8918C41.3549 66.8397 41.3736 66.7783 41.3736 66.7156C41.3729 66.6325 41.3395 66.553 41.2806 66.4943C41.2218 66.4355 41.1421 66.4022 41.0589 66.4015V66.3988ZM45.3052 66.3988C45.2424 66.3988 45.1811 66.4174 45.1289 66.4522C45.0767 66.487 45.036 66.5364 45.0119 66.5943C44.9879 66.6522 44.9816 66.7159 44.9939 66.7774C45.0061 66.8388 45.0364 66.8953 45.0808 66.9396C45.1252 66.9839 45.1817 67.014 45.2433 67.0263C45.3049 67.0385 45.3687 67.0322 45.4267 67.0082C45.4847 66.9843 45.5343 66.9436 45.5692 66.8916C45.6041 66.8395 45.6227 66.7782 45.6227 66.7156C45.6227 66.6741 45.6145 66.633 45.5985 66.5947C45.5825 66.5565 45.5591 66.5217 45.5296 66.4925C45.5 66.4633 45.465 66.4402 45.4265 66.4246C45.388 66.409 45.3468 66.4011 45.3052 66.4015V66.3988ZM49.5543 66.3988C49.4914 66.3982 49.4298 66.4164 49.3772 66.4508C49.3247 66.4853 49.2835 66.5346 49.2591 66.5924C49.2346 66.6503 49.228 66.7141 49.2399 66.7757C49.2519 66.8373 49.2819 66.894 49.3262 66.9386C49.3705 66.9832 49.427 67.0136 49.4887 67.026C49.5503 67.0385 49.6143 67.0324 49.6725 67.0085C49.7306 66.9846 49.7804 66.944 49.8154 66.8918C49.8504 66.8397 49.8691 66.7783 49.8691 66.7156C49.8691 66.6323 49.8359 66.5524 49.7769 66.4935C49.7179 66.4346 49.6378 66.4015 49.5543 66.4015V66.3988Z" fill="white"/>
<path d="M49.0334 65.1263C49.0334 64.5306 49.0524 63.9376 49.0659 63.342C49.0795 62.7463 49.0659 62.1506 49.131 61.5604C49.131 61.5333 49.1772 61.5306 49.1799 61.5604C49.2314 62.1317 49.2179 62.7138 49.2287 63.2878C49.2396 63.8618 49.2287 64.5035 49.245 65.11C49.245 66.3122 49.2097 67.5116 49.1473 68.7111C49.1473 68.7409 49.1039 68.7354 49.1039 68.7111C49.0524 67.5116 49.0198 66.3203 49.0334 65.1263Z" fill="#263238"/>
<path opacity="0.1" d="M46.2638 69.186C43.8923 68.9586 41.2142 68.5931 39.9064 68.0299C38.4819 67.4153 34.8623 58.3043 34.3712 55.3855C34.0999 53.7773 34.3332 52.5345 35.1174 52.3477L46.2638 69.186Z" fill="black"/>
<path d="M38.8641 65.4631L39.1354 70.4965H21.7891C21.7891 70.4965 26.7328 56.2655 30.0674 53.2574C32.3222 51.224 34.7154 51.6112 36.1073 53.3061C36.4601 53.7339 40.0851 58.7781 40.3591 61.1581C40.6033 63.2483 38.8641 65.4631 38.8641 65.4631Z" fill="#0190FF"/>
<path d="M39.0166 68.2301C38.9244 67.3095 38.8484 66.3862 38.7833 65.4656V65.4359L38.805 65.4061C39.2756 64.781 39.6556 64.0928 39.9337 63.3619C40.0691 62.9974 40.1664 62.6199 40.2241 62.2355C40.2896 61.8551 40.2942 61.4667 40.2376 61.0848C40.1847 60.6987 40.0938 60.3187 39.9663 59.9503C39.8441 59.5769 39.7028 59.21 39.543 58.8511C39.2159 58.1305 38.8481 57.429 38.4414 56.75C38.9101 57.3934 39.3231 58.0755 39.676 58.7888C40.0506 59.4991 40.3141 60.2625 40.4574 61.0523C40.568 61.8607 40.4612 62.684 40.1481 63.4377C39.859 64.1889 39.4514 64.889 38.9407 65.5117L38.9596 65.4548C38.9814 66.3808 39.0085 67.3041 39.0166 68.2301Z" fill="#263238"/>
<path d="M39.2661 57.4688C39.4338 57.7563 39.5694 58.0614 39.6704 58.3785C39.7215 58.5375 39.7632 58.6993 39.7952 58.8631C39.8304 59.0277 39.8441 59.196 39.8359 59.364C39.7355 59.0446 39.6243 58.7386 39.5239 58.4272C39.4195 58.113 39.3335 57.7929 39.2661 57.4688V57.4688Z" fill="#263238"/>
<path d="M30.7539 57.3754C30.7544 57.4381 30.7363 57.4996 30.7017 57.5521C30.6672 57.6045 30.6178 57.6456 30.5598 57.6699C30.5019 57.6943 30.4379 57.701 30.3762 57.6891C30.3144 57.6772 30.2576 57.6472 30.2129 57.603C30.1683 57.5588 30.1378 57.5024 30.1253 57.4409C30.1128 57.3793 30.1189 57.3155 30.1429 57.2575C30.1668 57.1994 30.2075 57.1498 30.2598 57.1149C30.312 57.0799 30.3735 57.0613 30.4364 57.0613C30.478 57.0609 30.5192 57.0688 30.5577 57.0844C30.5962 57.1 30.6312 57.1231 30.6607 57.1523C30.6903 57.1815 30.7137 57.2163 30.7297 57.2545C30.7457 57.2928 30.7539 57.3339 30.7539 57.3754V57.3754ZM34.6855 57.0613C34.6233 57.0613 34.5624 57.0797 34.5106 57.1142C34.4589 57.1487 34.4185 57.1978 34.3947 57.2552C34.3709 57.3126 34.3647 57.3757 34.3768 57.4366C34.389 57.4976 34.4189 57.5535 34.463 57.5974C34.507 57.6414 34.5631 57.6713 34.6241 57.6834C34.6852 57.6955 34.7485 57.6893 34.806 57.6655C34.8635 57.6418 34.9126 57.6015 34.9472 57.5498C34.9818 57.4982 35.0003 57.4375 35.0003 57.3754C35.0003 57.3341 34.9921 57.2933 34.9763 57.2552C34.9605 57.2171 34.9373 57.1824 34.9081 57.1533C34.8788 57.1241 34.8441 57.101 34.806 57.0852C34.7678 57.0694 34.7268 57.0613 34.6855 57.0613V57.0613ZM38.6823 57.1858C38.64 57.24 38.6171 57.3067 38.6171 57.3754C38.6178 57.4589 38.6516 57.5388 38.7111 57.5976C38.7705 57.6564 38.8509 57.6894 38.9346 57.6894H38.9563C38.8749 57.5189 38.7799 57.351 38.685 57.1858H38.6823ZM32.561 53.8203C32.4988 53.8209 32.4383 53.8397 32.3869 53.8746C32.3355 53.9094 32.2955 53.9586 32.2721 54.0161C32.2487 54.0735 32.2429 54.1366 32.2553 54.1973C32.2678 54.2581 32.298 54.3138 32.3421 54.3574C32.3862 54.4011 32.4423 54.4307 32.5033 54.4426C32.5643 54.4545 32.6274 54.4482 32.6848 54.4243C32.7421 54.4005 32.7911 54.3602 32.8256 54.3086C32.86 54.257 32.8784 54.1964 32.8784 54.1344C32.8784 54.0929 32.8702 54.0519 32.8542 54.0136C32.8382 53.9753 32.8148 53.9406 32.7853 53.9114C32.7558 53.8822 32.7208 53.8591 32.6823 53.8434C32.6438 53.8278 32.6025 53.82 32.561 53.8203V53.8203ZM36.5767 53.9259C36.5237 53.9824 36.4945 54.057 36.4953 54.1344C36.4953 54.2177 36.5285 54.2976 36.5875 54.3565C36.6465 54.4154 36.7266 54.4485 36.8101 54.4485C36.8499 54.4483 36.8895 54.441 36.9267 54.4268C36.7992 54.24 36.6825 54.0721 36.5767 53.9259V53.9259ZM26.2036 63.3591C26.1406 63.3585 26.0789 63.3767 26.0262 63.4113C25.9736 63.4459 25.9325 63.4954 25.9082 63.5534C25.8838 63.6114 25.8773 63.6753 25.8894 63.737C25.9016 63.7987 25.9319 63.8554 25.9765 63.8998C26.021 63.9443 26.0778 63.9745 26.1397 63.9867C26.2015 63.9988 26.2655 63.9923 26.3237 63.968C26.3818 63.9437 26.4313 63.9027 26.466 63.8502C26.5007 63.7977 26.5189 63.736 26.5184 63.6732C26.5184 63.5899 26.4852 63.51 26.4262 63.4511C26.3672 63.3922 26.2871 63.3591 26.2036 63.3591ZM30.45 63.3591C30.3871 63.3591 30.3256 63.3777 30.2734 63.4127C30.2211 63.4476 30.1804 63.4972 30.1565 63.5553C30.1325 63.6133 30.1264 63.6771 30.1389 63.7387C30.1513 63.8002 30.1818 63.8566 30.2265 63.9008C30.2712 63.945 30.328 63.975 30.3897 63.9869C30.4515 63.9988 30.5154 63.9921 30.5734 63.9677C30.6313 63.9434 30.6807 63.9023 30.7153 63.8499C30.7498 63.7974 30.768 63.7359 30.7675 63.6732C30.7675 63.6305 30.7589 63.5883 30.742 63.5491C30.7252 63.5099 30.7006 63.4745 30.6696 63.4451C30.6386 63.4157 30.602 63.3929 30.5619 63.3782C30.5218 63.3634 30.4791 63.3569 30.4364 63.3591H30.45ZM34.6991 63.3591C34.6361 63.3585 34.5743 63.3767 34.5217 63.4113C34.4691 63.4459 34.428 63.4954 34.4036 63.5534C34.3792 63.6114 34.3727 63.6753 34.3849 63.737C34.397 63.7987 34.4273 63.8554 34.4719 63.8998C34.5165 63.9443 34.5733 63.9745 34.6351 63.9867C34.6969 63.9988 34.761 63.9923 34.8191 63.968C34.8772 63.9437 34.9268 63.9027 34.9615 63.8502C34.9961 63.7977 35.0144 63.736 35.0138 63.6732C35.0139 63.6307 35.0053 63.5888 34.9886 63.5497C34.972 63.5107 34.9476 63.4755 34.9169 63.4461C34.8862 63.4168 34.8499 63.3939 34.8101 63.379C34.7704 63.364 34.728 63.3572 34.6855 63.3591H34.6991ZM38.9482 63.3591C38.8851 63.3585 38.8234 63.3767 38.7708 63.4113C38.7182 63.4459 38.677 63.4954 38.6527 63.5534C38.6283 63.6114 38.6218 63.6753 38.634 63.737C38.6461 63.7987 38.6764 63.8554 38.721 63.8998C38.7655 63.9443 38.8224 63.9745 38.8842 63.9867C38.946 63.9988 39.0101 63.9923 39.0682 63.968C39.1263 63.9437 39.1759 63.9027 39.2105 63.8502C39.2452 63.7977 39.2634 63.736 39.2629 63.6732C39.2626 63.6309 39.2537 63.589 39.237 63.5502C39.2202 63.5114 39.1957 63.4763 39.1651 63.447C39.1345 63.4177 39.0984 63.3949 39.0588 63.3798C39.0192 63.3647 38.977 63.3576 38.9346 63.3591H38.9482ZM28.3282 60.11C28.2652 60.1095 28.2034 60.1277 28.1508 60.1623C28.0982 60.1969 28.0571 60.2463 28.0327 60.3043C28.0083 60.3623 28.0018 60.4262 28.014 60.4879C28.0261 60.5496 28.0564 60.6063 28.101 60.6508C28.1456 60.6952 28.2024 60.7255 28.2642 60.7376C28.326 60.7497 28.3901 60.7432 28.4482 60.7189C28.5063 60.6946 28.5559 60.6536 28.5906 60.6011C28.6252 60.5486 28.6435 60.487 28.6429 60.4241C28.643 60.3817 28.6344 60.3397 28.6177 60.3007C28.6011 60.2617 28.5767 60.2264 28.546 60.1971C28.5153 60.1677 28.479 60.1449 28.4392 60.1299C28.3995 60.1149 28.3571 60.1082 28.3146 60.11H28.3282ZM32.5745 60.11C32.5116 60.11 32.4502 60.1286 32.3979 60.1636C32.3456 60.1985 32.3049 60.2481 32.281 60.3062C32.257 60.3642 32.2509 60.4281 32.2634 60.4896C32.2759 60.5511 32.3064 60.6075 32.351 60.6517C32.3957 60.6959 32.4525 60.7259 32.5143 60.7378C32.576 60.7497 32.64 60.7431 32.6979 60.7187C32.7559 60.6943 32.8053 60.6533 32.8398 60.6008C32.8744 60.5484 32.8925 60.4868 32.892 60.4241C32.8921 60.3814 32.8834 60.3392 32.8666 60.3C32.8498 60.2608 32.8251 60.2254 32.7941 60.196C32.7632 60.1667 32.7265 60.1439 32.6864 60.1291C32.6463 60.1143 32.6037 60.1078 32.561 60.11H32.5745ZM36.8236 60.11C36.7606 60.1095 36.6989 60.1277 36.6462 60.1623C36.5936 60.1969 36.5525 60.2463 36.5281 60.3043C36.5038 60.3623 36.4973 60.4262 36.5094 60.4879C36.5216 60.5496 36.5519 60.6063 36.5964 60.6508C36.641 60.6952 36.6978 60.7255 36.7596 60.7376C36.8215 60.7497 36.8855 60.7432 36.9437 60.7189C37.0018 60.6946 37.0513 60.6536 37.086 60.6011C37.1207 60.5486 37.1389 60.487 37.1384 60.4241C37.1384 60.3817 37.1298 60.3397 37.1132 60.3007C37.0965 60.2617 37.0721 60.2264 37.0414 60.1971C37.0108 60.1677 36.9744 60.1449 36.9347 60.1299C36.8949 60.1149 36.8525 60.1082 36.8101 60.11H36.8236ZM22.0956 69.6785L21.8867 70.2661C21.9092 70.2689 21.932 70.2689 21.9546 70.2661C22.0257 70.2665 22.0949 70.2428 22.1509 70.1988C22.2068 70.1549 22.2462 70.0934 22.2625 70.0242C22.2789 69.9551 22.2713 69.8825 22.241 69.8182C22.2107 69.754 22.1595 69.7019 22.0956 69.6704V69.6785ZM26.2036 69.6433C26.1406 69.6428 26.0789 69.661 26.0262 69.6956C25.9736 69.7302 25.9325 69.7796 25.9082 69.8376C25.8838 69.8956 25.8773 69.9595 25.8894 70.0212C25.9016 70.0829 25.9319 70.1396 25.9765 70.1841C26.021 70.2286 26.0778 70.2588 26.1397 70.2709C26.2015 70.2831 26.2655 70.2766 26.3237 70.2523C26.3818 70.2279 26.4313 70.1869 26.466 70.1344C26.5007 70.0819 26.5189 70.0203 26.5184 69.9574C26.5177 69.8746 26.4842 69.7954 26.4252 69.7371C26.3663 69.6788 26.2866 69.646 26.2036 69.646V69.6433ZM30.45 69.6433C30.3871 69.6433 30.3256 69.662 30.2734 69.6969C30.2211 69.7318 30.1804 69.7815 30.1565 69.8395C30.1325 69.8976 30.1264 69.9614 30.1389 70.0229C30.1513 70.0844 30.1818 70.1409 30.2265 70.1851C30.2712 70.2293 30.328 70.2592 30.3897 70.2711C30.4515 70.2831 30.5154 70.2764 30.5734 70.252C30.6313 70.2276 30.6807 70.1866 30.7153 70.1341C30.7498 70.0817 30.768 70.0202 30.7675 69.9574C30.7672 69.915 30.7582 69.8731 30.7412 69.8342C30.7243 69.7953 30.6995 69.7602 30.6686 69.7311C30.6377 69.7021 30.6012 69.6795 30.5613 69.6649C30.5213 69.6503 30.4789 69.6438 30.4364 69.646L30.45 69.6433ZM34.6991 69.6433C34.6361 69.6428 34.5743 69.661 34.5217 69.6956C34.4691 69.7302 34.428 69.7796 34.4036 69.8376C34.3792 69.8956 34.3727 69.9595 34.3849 70.0212C34.397 70.0829 34.4273 70.1396 34.4719 70.1841C34.5165 70.2286 34.5733 70.2588 34.6351 70.2709C34.6969 70.2831 34.761 70.2766 34.8191 70.2523C34.8772 70.2279 34.9268 70.1869 34.9615 70.1344C34.9961 70.0819 35.0144 70.0203 35.0138 69.9574C35.0135 69.9152 35.0047 69.8735 34.9878 69.8348C34.971 69.7961 34.9466 69.7612 34.9159 69.7322C34.8853 69.7031 34.8491 69.6805 34.8095 69.6657C34.7699 69.6509 34.7277 69.6442 34.6855 69.646L34.6991 69.6433ZM39.1137 69.6921C39.0646 69.6598 39.007 69.6428 38.9482 69.6433C38.9042 69.6393 38.8598 69.6444 38.818 69.6584C38.7761 69.6724 38.7376 69.695 38.705 69.7246C38.6723 69.7543 38.6463 69.7905 38.6284 69.8308C38.6106 69.8711 38.6014 69.9147 38.6014 69.9588C38.6014 70.0028 38.6106 70.0464 38.6284 70.0867C38.6463 70.127 38.6723 70.1632 38.705 70.1929C38.7376 70.2226 38.7761 70.2451 38.818 70.2591C38.8598 70.2731 38.9042 70.2783 38.9482 70.2742C39.0184 70.2749 39.0866 70.251 39.1408 70.2065L39.1137 69.6921ZM24.0791 66.4024C24.0162 66.4018 23.9546 66.42 23.902 66.4544C23.8494 66.4889 23.8083 66.5382 23.7839 66.596C23.7594 66.6539 23.7528 66.7177 23.7647 66.7793C23.7766 66.8409 23.8067 66.8976 23.8509 66.9422C23.8952 66.9868 23.9518 67.0172 24.0134 67.0296C24.0751 67.0421 24.1391 67.036 24.1972 67.0121C24.2554 66.9882 24.3051 66.9476 24.3401 66.8954C24.3752 66.8433 24.3938 66.7819 24.3938 66.7192C24.3939 66.6768 24.3853 66.6348 24.3687 66.5958C24.352 66.5567 24.3276 66.5215 24.2969 66.4922C24.2662 66.4628 24.2299 66.44 24.1901 66.425C24.1504 66.41 24.108 66.4033 24.0655 66.4051L24.0791 66.4024ZM28.3282 66.4024C28.2653 66.4018 28.2036 66.42 28.1511 66.4544C28.0985 66.4889 28.0574 66.5382 28.033 66.596C28.0085 66.6539 28.0018 66.7177 28.0138 66.7793C28.0257 66.8409 28.0557 66.8976 28.1 66.9422C28.1443 66.9868 28.2009 67.0172 28.2625 67.0296C28.3242 67.0421 28.3881 67.036 28.4463 67.0121C28.5045 66.9882 28.5542 66.9476 28.5892 66.8954C28.6242 66.8433 28.6429 66.7819 28.6429 66.7192C28.6426 66.6769 28.6338 66.6351 28.617 66.5962C28.6002 66.5574 28.5758 66.5223 28.5452 66.493C28.5146 66.4637 28.4784 66.4409 28.4388 66.4258C28.3992 66.4107 28.357 66.4036 28.3146 66.4051L28.3282 66.4024ZM32.5745 66.4024C32.5118 66.4024 32.4504 66.421 32.3982 66.4558C32.346 66.4906 32.3053 66.5401 32.2812 66.5979C32.2572 66.6558 32.2509 66.7195 32.2632 66.781C32.2754 66.8424 32.3057 66.8989 32.3501 66.9432C32.3945 66.9875 32.451 67.0176 32.5126 67.0299C32.5742 67.0421 32.638 67.0358 32.696 67.0118C32.754 66.9879 32.8036 66.9473 32.8385 66.8952C32.8734 66.8431 32.892 66.7818 32.892 66.7192C32.8921 66.6765 32.8834 66.6343 32.8666 66.5951C32.8498 66.5559 32.8251 66.5205 32.7941 66.4911C32.7632 66.4617 32.7265 66.439 32.6864 66.4242C32.6463 66.4094 32.6037 66.4029 32.561 66.4051L32.5745 66.4024ZM36.8236 66.4024C36.7607 66.4018 36.6991 66.42 36.6465 66.4544C36.594 66.4889 36.5528 66.5382 36.5284 66.596C36.504 66.6539 36.4973 66.7177 36.5092 66.7793C36.5212 66.8409 36.5512 66.8976 36.5955 66.9422C36.6398 66.9868 36.6963 67.0172 36.758 67.0296C36.8196 67.0421 36.8836 67.036 36.9418 67.0121C36.9999 66.9882 37.0497 66.9476 37.0847 66.8954C37.1197 66.8433 37.1384 66.7819 37.1384 66.7192C37.1384 66.6768 37.1298 66.6348 37.1132 66.5958C37.0965 66.5567 37.0721 66.5215 37.0414 66.4922C37.0108 66.4628 36.9744 66.44 36.9347 66.425C36.8949 66.41 36.8525 66.4033 36.8101 66.4051L36.8236 66.4024Z" fill="white"/>
<path d="M36.1728 64.4144C35.35 64.4865 34.5338 64.6195 33.7308 64.8124C33.3373 64.9126 32.9493 65.0317 32.5613 65.159C32.3687 65.2239 32.1733 65.2808 31.978 65.335C31.7753 65.3988 31.5659 65.4388 31.3539 65.4541C31.3503 65.4541 31.3469 65.4555 31.3443 65.4581C31.3418 65.4606 31.3403 65.464 31.3403 65.4676C31.3403 65.4712 31.3418 65.4747 31.3443 65.4772C31.3469 65.4797 31.3503 65.4812 31.3539 65.4812C31.5544 65.496 31.7557 65.496 31.9563 65.4812C32.1496 65.46 32.3411 65.4238 32.5288 65.3729C32.9331 65.2754 33.3292 65.159 33.7308 65.0561C34.5448 64.8476 35.3588 64.6418 36.1728 64.4929C36.2189 64.4739 36.2108 64.409 36.1728 64.4144Z" fill="#263238"/>
<path d="M38.1914 65.141C37.5182 65.0707 36.8415 65.0381 36.1646 65.0435C35.8254 65.0435 35.489 65.0706 35.1525 65.1031L34.6695 65.1573C34.4932 65.1789 34.3195 65.2277 34.1432 65.2466C34.1242 65.2466 34.1242 65.2764 34.1432 65.2764C34.3114 65.2629 34.4823 65.2764 34.6505 65.2764L35.1579 65.2547C35.4944 65.2547 35.8336 65.2547 36.17 65.2304C36.8456 65.2087 37.5267 65.1925 38.1969 65.1925C38.2294 65.1952 38.2267 65.1437 38.1914 65.141Z" fill="#263238"/>
<path d="M30.6309 52.4928C24.3469 55.1787 16.9123 61.6823 17.1701 64.0243C17.4577 66.6317 26.4823 62.8438 26.4171 62.4485C26.3629 62.1155 28.3816 59.4702 31.2659 55.6796C34.199 51.8051 32.1857 51.8295 30.6309 52.4928Z" fill="#0190FF"/>
<path d="M26.505 57.3727C26.505 57.4348 26.4865 57.4955 26.4519 57.5472C26.4174 57.5988 26.3682 57.6391 26.3107 57.6628C26.2532 57.6866 26.1899 57.6928 26.1288 57.6807C26.0678 57.6686 26.0117 57.6387 25.9677 57.5948C25.9237 57.5508 25.8937 57.4949 25.8815 57.4339C25.8694 57.373 25.8756 57.3099 25.8994 57.2525C25.9233 57.1951 25.9636 57.146 26.0154 57.1115C26.0671 57.077 26.128 57.0586 26.1902 57.0586C26.2737 57.0586 26.3538 57.0917 26.4128 57.1506C26.4718 57.2095 26.505 57.2894 26.505 57.3727V57.3727Z" fill="white"/>
<path d="M28.629 54.1344C28.6296 54.1973 28.6114 54.2589 28.5767 54.3114C28.542 54.3639 28.4925 54.4049 28.4343 54.4292C28.3762 54.4536 28.3122 54.4601 28.2503 54.4479C28.1885 54.4358 28.1317 54.4056 28.0871 54.3611C28.0426 54.3166 28.0123 54.2599 28.0001 54.1982C27.9879 54.1365 27.9945 54.0726 28.0188 54.0146C28.0432 53.9566 28.0843 53.9072 28.1369 53.8726C28.1895 53.838 28.2513 53.8198 28.3143 53.8203C28.3978 53.8203 28.4778 53.8534 28.5369 53.9123C28.5959 53.9712 28.629 54.0511 28.629 54.1344Z" fill="white"/>
<path d="M32.4445 53.8398C32.3876 53.9563 32.3224 54.0781 32.2465 54.2081C32.2291 54.1332 32.2396 54.0545 32.276 53.9867C32.3125 53.919 32.3724 53.8668 32.4445 53.8398V53.8398Z" fill="white"/>
<path d="M18.0089 63.6656C18.0095 63.7284 17.9913 63.7899 17.9568 63.8424C17.9222 63.8948 17.8728 63.9358 17.8148 63.9602C17.7569 63.9846 17.693 63.9913 17.6312 63.9794C17.5695 63.9675 17.5126 63.9375 17.468 63.8933C17.4233 63.8491 17.3928 63.7927 17.3803 63.7312C17.3679 63.6696 17.374 63.6058 17.3979 63.5478C17.4219 63.4897 17.4626 63.4401 17.5148 63.4051C17.5671 63.3702 17.6286 63.3516 17.6915 63.3516C17.7752 63.3516 17.8555 63.3846 17.915 63.4434C17.9745 63.5022 18.0082 63.5821 18.0089 63.6656Z" fill="white"/>
<path d="M22.2555 63.6656C22.2555 63.7278 22.237 63.7885 22.2024 63.8401C22.1678 63.8918 22.1187 63.932 22.0612 63.9558C22.0037 63.9796 21.9404 63.9858 21.8793 63.9737C21.8183 63.9616 21.7622 63.9317 21.7182 63.8877C21.6741 63.8438 21.6442 63.7878 21.632 63.7269C21.6199 63.666 21.6261 63.6028 21.6499 63.5454C21.6738 63.4881 21.7141 63.439 21.7659 63.4045C21.8176 63.37 21.8785 63.3516 21.9407 63.3516C22.024 63.3523 22.1036 63.3856 22.1625 63.4443C22.2214 63.5031 22.2548 63.5826 22.2555 63.6656V63.6656Z" fill="white"/>
<path d="M20.1339 60.4274C20.1345 60.4901 20.1163 60.5516 20.0818 60.6041C20.0472 60.6565 19.9978 60.6976 19.9399 60.722C19.8819 60.7463 19.818 60.753 19.7562 60.7411C19.6945 60.7292 19.6376 60.6992 19.593 60.655C19.5483 60.6108 19.5178 60.5544 19.5053 60.4929C19.4929 60.4313 19.499 60.3675 19.5229 60.3095C19.5469 60.2514 19.5876 60.2018 19.6398 60.1669C19.6921 60.1319 19.7536 60.1133 19.8165 60.1133C19.9002 60.1133 19.9805 60.1463 20.04 60.2051C20.0995 60.2639 20.1332 60.3438 20.1339 60.4274Z" fill="white"/>
<path d="M24.38 60.4274C24.38 60.4895 24.3615 60.5502 24.3269 60.6019C24.2924 60.6535 24.2432 60.6938 24.1857 60.7175C24.1282 60.7413 24.0649 60.7475 24.0038 60.7354C23.9428 60.7233 23.8867 60.6934 23.8427 60.6494C23.7987 60.6055 23.7687 60.5496 23.7565 60.4886C23.7444 60.4277 23.7506 60.3646 23.7744 60.3072C23.7983 60.2498 23.8386 60.2007 23.8904 60.1662C23.9421 60.1317 24.003 60.1133 24.0652 60.1133C24.1487 60.1133 24.2288 60.1464 24.2878 60.2053C24.3468 60.2642 24.38 60.3441 24.38 60.4274Z" fill="white"/>
<path d="M17.1706 64.0236C17.5857 65.8567 20.1986 67.2402 26.4474 71.3341C27.313 71.8999 32.9594 66.8855 32.0695 66.233C30.9461 65.4207 26.404 62.4668 26.0459 62.2908C23.0151 60.8287 16.8884 62.7782 17.1706 64.0236Z" fill="#EB9481"/>
<path d="M30.8381 65.3672C30.8381 65.3672 33.5378 66.9728 34.6937 68.2562C35.8628 69.6191 36.6822 71.2452 37.0815 72.9944C37.521 74.8897 37.2741 79.7444 35.8578 79.9176C34.5771 80.0747 35.079 75.1171 35.079 75.1171C35.079 75.1171 35.4019 80.2615 33.8228 80.1613C32.2436 80.0611 33.158 74.3455 33.158 74.3455C33.158 74.3455 33.3723 79.6333 31.7579 79.2787C30.5396 79.0079 31.0741 73.7823 31.0741 73.7823C31.0741 73.7823 31.2261 78.3283 29.9617 78.1144C28.5643 77.868 28.7542 73.0106 28.7542 73.0106C25.6339 71.9087 24.6001 70.1108 24.0168 68.7435C23.8757 68.4078 30.8381 65.3672 30.8381 65.3672Z" fill="#BEBEFF"/>
<path d="M35.0837 73.3344C35.1407 73.9382 35.2058 74.5474 35.2112 75.1539C35.2166 75.7604 35.2112 76.3641 35.1515 76.9679C35.1 77.7584 34.9589 78.5404 34.731 79.2991C35.0403 77.9237 35.0511 75.7549 35.0457 75.1484C35.0403 74.5419 35.0647 73.9409 35.0457 73.3344C35.0593 73.3208 35.081 73.3208 35.0837 73.3344Z" fill="#263238"/>
<path d="M32.8921 73.3152C32.9328 74.0869 33.0061 74.8504 33.0142 75.6275C33.0224 76.4045 32.9627 77.1302 32.9193 77.8991C32.9193 77.9587 32.884 77.937 32.884 77.8775C32.9003 77.1058 32.8514 76.3937 32.8569 75.6221C32.8623 74.8504 32.8949 74.0814 32.8731 73.3125C32.8731 73.3017 32.8894 73.3017 32.8921 73.3152Z" fill="#263238"/>
<path d="M31.0119 72.9619C31.1074 74.1448 31.0792 75.3344 30.9278 76.5115C30.9278 76.5711 30.8871 76.5386 30.8898 76.479C30.9386 75.2985 30.9875 74.3726 30.9712 72.9592C30.9712 72.943 31.0092 72.9375 31.0119 72.9619Z" fill="#263238"/>
<path d="M32.2186 65.617C32.2186 65.617 24.3743 70.8101 24.2983 70.7614C24.2224 70.7126 17.1623 65.95 17.1704 64.0114C17.1786 62.0728 23.3514 61.0195 26.0403 62.265C28.7292 63.5105 32.2186 65.617 32.2186 65.617Z" fill="#0190FF"/>
<path d="M29.7307 64.6277C29.4269 64.7847 26.9442 66.523 26.4123 66.9183C25.8805 67.3136 23.699 68.884 23.1808 69.3307C23.1771 69.3319 23.1738 69.334 23.1711 69.3367C23.1685 69.3394 23.1664 69.3427 23.1653 69.3463C23.1641 69.3499 23.1638 69.3538 23.1643 69.3575C23.1649 69.3613 23.1664 69.3649 23.1686 69.368C23.1708 69.3711 23.1738 69.3736 23.1771 69.3754C23.1805 69.3772 23.1843 69.3781 23.1881 69.3782C23.1919 69.3783 23.1957 69.3774 23.1991 69.3758C23.2026 69.3741 23.2056 69.3717 23.2079 69.3686C23.794 69.0248 26.0053 67.4435 26.5561 67.0564C27.107 66.6692 29.5218 64.8903 29.7606 64.6602C29.7904 64.6412 29.7633 64.6168 29.7307 64.6277Z" fill="#263238"/>
<path d="M18.0089 63.6656C18.0095 63.7284 17.9913 63.7899 17.9568 63.8424C17.9222 63.8948 17.8728 63.9358 17.8148 63.9602C17.7569 63.9846 17.693 63.9913 17.6312 63.9794C17.5695 63.9675 17.5126 63.9375 17.468 63.8933C17.4233 63.8491 17.3928 63.7927 17.3803 63.7312C17.3679 63.6696 17.374 63.6058 17.3979 63.5478C17.4219 63.4897 17.4626 63.4401 17.5148 63.4051C17.5671 63.3702 17.6286 63.3516 17.6915 63.3516C17.7752 63.3516 17.8555 63.3846 17.915 63.4434C17.9745 63.5022 18.0082 63.5821 18.0089 63.6656ZM21.9406 63.357C21.8775 63.3564 21.8158 63.3746 21.7632 63.4092C21.7105 63.4438 21.6694 63.4933 21.6451 63.5513C21.6207 63.6093 21.6142 63.6732 21.6264 63.7349C21.6385 63.7966 21.6688 63.8533 21.7134 63.8978C21.7579 63.9422 21.8147 63.9724 21.8766 63.9846C21.9384 63.9967 22.0025 63.9902 22.0606 63.9659C22.1187 63.9416 22.1683 63.9006 22.2029 63.8481C22.2376 63.7956 22.2558 63.7339 22.2553 63.6711C22.2553 63.5878 22.2221 63.5079 22.1631 63.449C22.1041 63.3901 22.024 63.357 21.9406 63.357ZM26.2032 63.357C26.1402 63.3564 26.0784 63.3746 26.0258 63.4092C25.9732 63.4438 25.9321 63.4933 25.9077 63.5513C25.8834 63.6093 25.8768 63.6732 25.889 63.7349C25.9012 63.7966 25.9315 63.8533 25.976 63.8978C26.0206 63.9422 26.0774 63.9724 26.1392 63.9846C26.2011 63.9967 26.2651 63.9902 26.3232 63.9659C26.3813 63.9416 26.4309 63.9006 26.4656 63.8481C26.5003 63.7956 26.5185 63.7339 26.5179 63.6711C26.5179 63.5878 26.4848 63.5079 26.4258 63.449C26.3667 63.3901 26.2867 63.357 26.2032 63.357ZM19.8296 66.4084C19.7668 66.4084 19.7054 66.427 19.6532 66.4618C19.601 66.4966 19.5603 66.5461 19.5363 66.604C19.5123 66.6618 19.506 66.7255 19.5182 66.787C19.5305 66.8484 19.5607 66.9049 19.6051 66.9492C19.6495 66.9935 19.7061 67.0237 19.7676 67.0359C19.8292 67.0481 19.8931 67.0418 19.9511 67.0179C20.0091 66.9939 20.0587 66.9533 20.0935 66.9012C20.1284 66.8491 20.147 66.7878 20.147 66.7252C20.1482 66.6819 20.1404 66.6388 20.1241 66.5986C20.1078 66.5584 20.0833 66.5221 20.0522 66.4918C20.0211 66.4615 19.9841 66.438 19.9434 66.4227C19.9028 66.4075 19.8594 66.4007 19.816 66.403L19.8296 66.4084ZM24.0787 66.4084C24.0158 66.4079 23.9541 66.426 23.9016 66.4605C23.849 66.495 23.8079 66.5442 23.7834 66.6021C23.759 66.6599 23.7523 66.7237 23.7643 66.7853C23.7762 66.8469 23.8062 66.9036 23.8505 66.9482C23.8948 66.9928 23.9514 67.0232 24.013 67.0357C24.0747 67.0481 24.1386 67.042 24.1968 67.0181C24.255 66.9942 24.3047 66.9536 24.3397 66.9015C24.3747 66.8493 24.3934 66.788 24.3934 66.7252C24.3946 66.6821 24.3868 66.6392 24.3707 66.5993C24.3545 66.5593 24.3303 66.5231 24.2995 66.4928C24.2687 66.4626 24.232 66.439 24.1916 66.4236C24.1513 66.4081 24.1082 66.4011 24.0651 66.403L24.0787 66.4084ZM28.3277 66.4084C28.2648 66.4079 28.2032 66.426 28.1506 66.4605C28.0981 66.495 28.057 66.5442 28.0325 66.6021C28.0081 66.6599 28.0014 66.7237 28.0133 66.7853C28.0253 66.8469 28.0553 66.9036 28.0996 66.9482C28.1439 66.9928 28.2004 67.0232 28.2621 67.0357C28.3237 67.0481 28.3877 67.042 28.4459 67.0181C28.504 66.9942 28.5538 66.9536 28.5888 66.9015C28.6238 66.8493 28.6425 66.788 28.6425 66.7252C28.6432 66.6822 28.6352 66.6395 28.6189 66.5997C28.6026 66.5599 28.5784 66.5239 28.5477 66.4937C28.517 66.4636 28.4804 66.44 28.4403 66.4244C28.4001 66.4088 28.3572 66.4015 28.3142 66.403L28.3277 66.4084Z" fill="white"/>
<path d="M22.7363 61.773C23.3848 61.7135 25.1594 61.681 26.535 62.4905C26.5513 62.4905 26.535 62.5203 26.535 62.5122C25.3303 61.9924 23.3794 61.7866 22.7363 61.7974C22.7255 61.7974 22.7201 61.7757 22.7363 61.773Z" fill="#263238"/>
<path d="M31.7363 65.9357L32.2085 65.6V65.6325C31.7363 65.3455 31.2534 65.0747 30.7785 64.7959C30.3037 64.517 29.818 64.2543 29.335 63.9836C28.3718 63.4421 27.395 62.9276 26.4019 62.4538L26.2988 62.4051L26.3585 62.3103C26.9934 61.3112 27.6474 60.3284 28.3447 59.3726C29.0311 58.4139 29.7655 57.4904 30.5452 56.6055C29.8216 57.5369 29.127 58.4899 28.4614 59.4647C27.7966 60.4367 27.14 61.4168 26.5213 62.4186L26.4806 62.2751C27.4791 62.7571 28.4505 63.2877 29.4083 63.8401C29.8859 64.1108 30.358 64.406 30.8301 64.6984C31.3022 64.9908 31.7608 65.2913 32.222 65.6L32.2465 65.6162L32.222 65.6325L31.7363 65.9357Z" fill="#263238"/>
<path d="M28.917 58.7117C29.0174 58.6034 29.1151 58.4951 29.2209 58.3922C29.3267 58.2893 29.4298 58.1919 29.5411 58.0944C29.76 57.899 29.9951 57.7224 30.2438 57.5664C30.0577 57.7936 29.8525 58.0047 29.6306 58.1973C29.5194 58.292 29.4054 58.3868 29.2887 58.468C29.1725 58.5604 29.0481 58.642 28.917 58.7117Z" fill="#263238"/>
<path d="M22.2231 69.2969C22.8252 69.6166 23.3803 70.0175 23.8729 70.4882C23.5726 70.3286 23.2842 70.1476 23.01 69.9467C22.732 69.7497 22.469 69.5326 22.2231 69.2969V69.2969Z" fill="#263238"/>
<path d="M32.6583 52.7046C32.6772 53.1649 33.4723 55.3472 34.8561 55.4826C35.567 55.553 35.9088 53.0837 35.9088 53.0837L35.9658 52.905L36.7798 50.4276L33.5916 47.9258C33.5916 47.9258 32.6501 52.572 32.6583 52.7046Z" fill="#DEDEFF"/>
<path d="M33.2588 49.6559C33.4595 50.3561 33.8045 51.0068 34.2717 51.5663C34.739 52.1258 35.3181 52.5817 35.9721 52.905L36.7861 50.4276L33.5925 47.9258C33.5925 47.9258 33.4324 48.7137 33.2588 49.6559Z" fill="#263238"/>
<path d="M40.7329 46.8798C40.6053 51.461 37.8404 51.8997 36.8501 51.8726C35.952 51.8455 32.894 51.6424 32.5494 47.0721C32.2049 42.5017 34.3782 41.1154 36.4377 41.064C38.4971 41.0125 40.855 42.2986 40.7329 46.8798Z" fill="#DEDEFF"/>
<path d="M40.0718 45.759C39.9689 45.7337 39.8675 45.7029 39.7679 45.6669C39.6566 45.6491 39.5545 45.5948 39.4775 45.5126C39.4575 45.4826 39.4483 45.4468 39.4512 45.411C39.4542 45.3751 39.4692 45.3412 39.4938 45.315C39.5505 45.2703 39.6179 45.2414 39.6893 45.2309C39.7608 45.2205 39.8337 45.2289 39.9008 45.2554C40.0437 45.2907 40.1689 45.3762 40.2536 45.4964C40.2719 45.5251 40.2813 45.5586 40.2806 45.5926C40.28 45.6267 40.2693 45.6598 40.2499 45.6878C40.2305 45.7158 40.2032 45.7375 40.1716 45.7502C40.1399 45.7628 40.1052 45.7659 40.0718 45.759V45.759Z" fill="#183C4F"/>
<path d="M37.1419 45.5248C37.2474 45.5177 37.3525 45.505 37.4566 45.4869C37.5698 45.4891 37.6804 45.4539 37.7714 45.3867C37.796 45.3604 37.811 45.3266 37.814 45.2907C37.8169 45.2549 37.8077 45.219 37.7877 45.1891C37.7403 45.1352 37.6794 45.0947 37.6112 45.0719C37.5431 45.0491 37.4701 45.0447 37.3997 45.0591C37.2518 45.0687 37.1127 45.1323 37.0089 45.2378C36.987 45.263 36.9728 45.294 36.968 45.3271C36.9633 45.3602 36.9683 45.3939 36.9823 45.4243C36.9964 45.4546 37.0189 45.4802 37.0472 45.4981C37.0755 45.5159 37.1084 45.5252 37.1419 45.5248V45.5248Z" fill="#183C4F"/>
<path d="M37.6517 46.7305C37.6517 46.7305 37.6273 46.7305 37.6273 46.7575C37.6273 47.0689 37.5513 47.4263 37.2637 47.5102V47.5292C37.6001 47.5021 37.6924 47.0283 37.6517 46.7305Z" fill="white"/>
<path d="M37.3931 46.3903C36.8938 46.3199 36.7907 47.3217 37.252 47.3866C37.7132 47.4516 37.8109 46.4471 37.3931 46.3903Z" fill="white"/>
<path d="M37.1903 46.4226C37.098 46.4686 37.0003 46.5607 36.8945 46.5607C36.7887 46.5607 36.6883 46.4469 36.6232 46.3359H36.6042C36.5825 46.5282 36.6341 46.7312 36.8376 46.7827C37.0411 46.8341 37.1767 46.6717 37.2446 46.4821C37.2554 46.4578 37.2283 46.4036 37.1903 46.4226Z" fill="white"/>
<path d="M39.368 46.8555C39.368 46.8555 39.3897 46.8717 39.3897 46.8853C39.3436 47.1939 39.3463 47.5567 39.6149 47.6975C39.6149 47.6975 39.6149 47.7165 39.6149 47.7138C39.273 47.6217 39.2757 47.1398 39.368 46.8555Z" fill="white"/>
<path d="M39.6833 46.5707C40.1853 46.5897 40.1147 47.5942 39.648 47.578C39.1813 47.5617 39.26 46.5464 39.6833 46.5707Z" fill="white"/>
<path d="M39.8867 46.6397C39.9626 46.6993 40.0359 46.8022 40.1282 46.8157C40.2204 46.8293 40.329 46.7264 40.3995 46.6289H40.4158C40.4158 46.8211 40.329 47.0161 40.1444 47.0405C39.9599 47.0648 39.8731 46.8888 39.8297 46.6939C39.8243 46.6695 39.8568 46.6181 39.8867 46.6397Z" fill="white"/>
<path d="M38.7968 48.1944C38.7968 48.1944 38.8186 48.6656 38.7968 48.8849C38.5869 48.9151 38.3728 48.8886 38.1766 48.8081C37.9805 48.7276 37.8096 48.5961 37.6817 48.4273C37.6654 48.4056 37.6979 48.384 37.7169 48.3975C37.9792 48.6143 38.3048 48.7406 38.6449 48.7576C38.6639 48.6981 38.5798 47.9454 38.6151 47.9454C38.7839 47.9779 38.948 48.0316 39.1034 48.1051C39.0845 47.125 38.9108 46.1529 38.9081 45.1782C38.9081 45.1703 38.9112 45.1627 38.9168 45.1572C38.9224 45.1516 38.93 45.1484 38.9379 45.1484C38.9459 45.1484 38.9534 45.1516 38.959 45.1572C38.9646 45.1627 38.9678 45.1703 38.9678 45.1782C39.1863 46.2121 39.3009 47.2651 39.3097 48.3217C39.3178 48.4463 38.881 48.2405 38.7968 48.1944Z" fill="#263238"/>
<path d="M38.5006 48.8368C38.3652 48.977 38.1962 49.0804 38.0095 49.1373C37.9066 49.1653 37.7976 49.1605 37.6975 49.1238C37.4804 49.0398 37.4967 48.834 37.5564 48.6635C37.5892 48.5728 37.6329 48.4864 37.6866 48.4062C37.9049 48.6329 38.1902 48.7838 38.5006 48.8368V48.8368Z" fill="#263238"/>
<path d="M38.0095 49.134C37.9066 49.162 37.7976 49.1572 37.6975 49.1204C37.4804 49.0365 37.4967 48.8307 37.5564 48.6602C37.6734 48.6789 37.7811 48.7354 37.8629 48.821C37.9447 48.9065 37.9962 49.0165 38.0095 49.134V49.134Z" fill="#FF9BBC"/>
<path d="M33.8629 41.34C34.278 41.2696 35.0676 39.174 33.8439 37.8771C32.6202 36.5801 30.5689 37.3924 30.9895 39.3121C31.2554 40.5251 32.9865 41.4862 33.8629 41.34Z" fill="#183C4F"/>
<path d="M31.8802 37.3672C31.3925 37.6375 31.0101 38.0638 30.7949 38.5775C30.6898 38.816 30.6495 39.078 30.6781 39.3371C30.7067 39.5961 30.8031 39.8431 30.9577 40.0531C31.2882 40.4841 31.73 40.8173 32.2357 41.017C32.4913 41.127 32.7565 41.2131 33.028 41.2742C33.3005 41.3503 33.585 41.3742 33.8664 41.3446C33.5893 41.4351 33.2955 41.4629 33.0063 41.4258C32.7145 41.4 32.4267 41.34 32.1489 41.2471C31.572 41.0684 31.0655 40.7144 30.7 40.2345C30.5153 39.9832 30.4053 39.685 30.3828 39.3742C30.3602 39.0634 30.4259 38.7525 30.5724 38.4773C30.7033 38.2132 30.8868 37.9786 31.1117 37.7877C31.3365 37.5968 31.5981 37.4538 31.8802 37.3672Z" fill="#183C4F"/>
<path d="M32.8186 46.9723C33.6543 47.1917 34.1318 45.2774 34.1318 45.2774C34.1318 45.2774 37.8355 45.1474 38.5356 42.2449C38.8313 43.5039 39.6032 44.6002 40.69 45.3045C40.69 45.3045 40.9939 42.0554 38.5193 41.0942C38.5193 41.0942 35.4939 39.5157 33.364 41.7982C31.234 44.0807 32.2596 46.8234 32.8186 46.9723Z" fill="#183C4F"/>
<path d="M38.5775 42.0312C38.5594 42.4907 38.4438 42.941 38.2383 43.3525C38.0346 43.7676 37.7474 44.1363 37.3944 44.4356C37.3087 44.5117 37.218 44.5823 37.1231 44.6468L36.982 44.7496C36.9332 44.7794 36.8816 44.8065 36.8301 44.8336C36.727 44.8877 36.6266 44.9473 36.5235 44.996L36.1979 45.1179L36.0351 45.1774L35.8668 45.2181L35.5331 45.2966C35.3052 45.3291 35.0773 45.348 34.8521 45.3643C35.0718 45.302 35.2943 45.2614 35.5087 45.1991L35.8289 45.0908L35.9889 45.0394L36.1409 44.9717C36.2413 44.9229 36.3417 44.8769 36.4448 44.8336C36.5479 44.7903 36.6347 44.7199 36.7297 44.6657L36.8735 44.5818L37.0064 44.4843C37.1005 44.4215 37.1911 44.3537 37.2778 44.2812C37.6147 43.9933 37.8984 43.6488 38.1162 43.2632C38.2288 43.0713 38.3251 42.8702 38.4038 42.6621C38.48 42.4573 38.5381 42.2462 38.5775 42.0312Z" fill="#263238"/>
<path d="M36.5636 48.2972C36.2928 48.2377 36.0441 48.1036 35.8459 47.9101C35.6476 47.7166 35.5078 47.4714 35.4423 47.2025C35.3768 46.9336 35.3883 46.6518 35.4754 46.389C35.5624 46.1263 35.7217 45.8933 35.935 45.7164C36.1482 45.5395 36.407 45.4259 36.6818 45.3885C36.9566 45.3512 37.2363 45.3915 37.4893 45.505C37.7422 45.6184 37.9582 45.8004 38.1125 46.0303C38.2669 46.2602 38.3536 46.5287 38.3626 46.8053V46.8053C38.3688 47.03 38.3238 47.2532 38.231 47.4581C38.1381 47.6629 37.9999 47.844 37.8266 47.9877C37.6533 48.1314 37.4496 48.2339 37.2308 48.2875C37.012 48.3411 36.7839 48.3444 36.5636 48.2972V48.2972ZM37.1578 45.5896C37.0536 45.5669 36.9469 45.5578 36.8404 45.5625C36.517 45.5755 36.2107 45.711 35.9838 45.9414C35.757 46.1718 35.6267 46.4798 35.6194 46.8028C35.6121 47.1257 35.7284 47.4392 35.9446 47.6796C36.1608 47.9199 36.4607 48.0691 36.7832 48.0966C37.1057 48.1241 37.4266 48.0279 37.6806 47.8276C37.9346 47.6274 38.1025 47.3381 38.1502 47.0186C38.198 46.6991 38.1219 46.3735 37.9376 46.108C37.7532 45.8426 37.4744 45.6572 37.1578 45.5896V45.5896Z" fill="#3D8AC3"/>
<path d="M39.9488 48.6194C39.4061 48.4975 39.0154 47.8206 39.0941 47.0544C39.1239 46.6866 39.2681 46.3373 39.5065 46.0553C39.6021 45.9286 39.7288 45.8287 39.8744 45.7651C40.02 45.7014 40.1795 45.6763 40.3376 45.6921C40.4958 45.7079 40.6472 45.764 40.7772 45.8551C40.9073 45.9463 41.0117 46.0693 41.0802 46.2124C41.2586 46.5359 41.3316 46.9069 41.2892 47.2737C41.2078 48.086 40.6488 48.6952 40.0437 48.6275L39.9488 48.6194ZM40.3938 45.9118C40.3685 45.909 40.343 45.909 40.3178 45.9118C40.1915 45.9045 40.0654 45.9278 39.9501 45.9796C39.8348 46.0315 39.7338 46.1104 39.6557 46.2096C39.4442 46.4595 39.3162 46.769 39.2894 47.095C39.2189 47.799 39.5608 48.4109 40.0627 48.4488C40.5647 48.4867 41.0205 47.9669 41.0911 47.2629C41.1301 46.9385 41.0665 46.61 40.9093 46.3234C40.8581 46.2206 40.7857 46.1299 40.6969 46.0571C40.608 45.9843 40.5047 45.9311 40.3938 45.901V45.9118Z" fill="#3D8AC3"/>
<path d="M38.2966 46.9696L38.1826 46.8044C38.4268 46.6393 38.9695 46.4389 39.2897 46.8613L39.1323 46.9804C38.8447 46.6041 38.3183 46.9533 38.2966 46.9696Z" fill="#3D8AC3"/>
<path d="M31.6904 46.6928L31.5249 46.5872C31.5737 46.5087 32.0296 45.8318 32.4773 45.802C32.925 45.7722 35.5108 46.3002 35.622 46.3002L35.5841 46.4951C34.8352 46.3462 32.811 45.9699 32.4881 45.9888C32.1652 46.0078 31.8125 46.506 31.6904 46.6928Z" fill="#3D8AC3"/>
<path d="M33.3803 46.8728C33.3803 46.8728 32.5473 45.3349 31.8608 45.6165C31.1743 45.8981 31.6844 48.0533 32.4035 48.4107C32.4934 48.4655 32.5935 48.5014 32.6978 48.5162C32.8021 48.5309 32.9083 48.5243 33.0099 48.4967C33.1116 48.469 33.2065 48.421 33.2888 48.3555C33.3712 48.2899 33.4392 48.2083 33.4888 48.1156L33.3803 46.8728Z" fill="#DEDEFF"/>
<path d="M32.0234 46.2305V46.2494C32.5308 46.5202 32.7533 47.0617 32.8917 47.5843C32.8673 47.5272 32.8307 47.4762 32.7844 47.4347C32.7382 47.3933 32.6834 47.3625 32.6239 47.3444C32.5645 47.3263 32.5017 47.3215 32.4402 47.3302C32.3786 47.3389 32.3198 47.3609 32.2676 47.3947C32.2514 47.3947 32.2676 47.4245 32.2676 47.4245C32.3647 47.4051 32.4654 47.4164 32.5559 47.4566C32.6463 47.4969 32.7219 47.5642 32.7723 47.6492C32.854 47.792 32.9213 47.9426 32.9731 48.0987C32.9921 48.1501 33.0816 48.1339 33.0681 48.077C33.1603 47.3839 32.7425 46.3821 32.0234 46.2305Z" fill="#263238"/>
<path d="M32.5184 48.2569C32.5263 48.3082 32.5543 48.3543 32.5963 48.3851C32.6383 48.4158 32.6908 48.4286 32.7422 48.4207C32.7937 48.4128 32.8399 48.3848 32.8707 48.3429C32.9015 48.3011 32.9143 48.2487 32.9064 48.1973C32.9025 48.1719 32.8936 48.1475 32.8802 48.1255C32.8668 48.1035 32.8493 48.0844 32.8285 48.0692C32.8077 48.054 32.7841 48.043 32.7591 48.0369C32.734 48.0308 32.708 48.0296 32.6826 48.0335C32.6571 48.0374 32.6326 48.0463 32.6106 48.0597C32.5885 48.073 32.5694 48.0905 32.5541 48.1113C32.5389 48.132 32.5279 48.1556 32.5217 48.1805C32.5156 48.2055 32.5145 48.2315 32.5184 48.2569V48.2569Z" fill="#455A64"/>
<path d="M32.6192 48.2398C32.6232 48.2646 32.6368 48.2868 32.6572 48.3015C32.6775 48.3163 32.7029 48.3224 32.7277 48.3184C32.7515 48.3138 32.7726 48.3003 32.7867 48.2806C32.8008 48.261 32.8069 48.2366 32.8037 48.2126C32.802 48.2005 32.7979 48.1887 32.7917 48.1782C32.7855 48.1676 32.7772 48.1584 32.7673 48.151C32.7574 48.1437 32.7462 48.1384 32.7343 48.1355C32.7224 48.1325 32.71 48.132 32.6978 48.1339C32.6739 48.1386 32.6525 48.152 32.6379 48.1716C32.6234 48.1912 32.6167 48.2155 32.6192 48.2398V48.2398Z" fill="#263238"/>
<path d="M32.2003 47.9754C32.2064 48.0119 32.2265 48.0445 32.2565 48.0663C32.2864 48.0881 32.3238 48.0973 32.3604 48.0918C32.3784 48.0891 32.3957 48.083 32.4113 48.0737C32.427 48.0643 32.4406 48.052 32.4514 48.0374C32.4622 48.0228 32.4701 48.0063 32.4745 47.9886C32.4789 47.971 32.4798 47.9527 32.4771 47.9348C32.4748 47.9166 32.4689 47.8992 32.4596 47.8834C32.4504 47.8676 32.438 47.8539 32.4233 47.843C32.4086 47.8322 32.3919 47.8244 32.3741 47.8201C32.3563 47.8159 32.3378 47.8153 32.3197 47.8183C32.2832 47.8237 32.2502 47.8432 32.2279 47.8725C32.2056 47.9019 32.1957 47.9388 32.2003 47.9754V47.9754Z" fill="#455A64"/>
<path d="M5.47432 72.7813L96.8594 72.7812V69.5376L5.47432 69.5376V72.7813Z" fill="#37474F"/>
<path d="M8.7432 76.0313L93.5864 76.0312V72.7903L8.7432 72.7903V76.0313Z" fill="#455A64"/>
<path d="M93.5813 121.532H94.8945L91.0715 76.0312H87.7178L93.5813 121.532Z" fill="#455A64"/>
<path d="M87.7178 76.0312L88.1112 79.0746H91.3265L91.0715 76.0312H87.7178Z" fill="#263238"/>
<path d="M8.75124 121.532H7.43799L11.2611 76.0312H14.6148L8.75124 121.532Z" fill="#455A64"/>
<path d="M14.6156 76.0312L14.2221 79.0746H11.0068L11.2619 76.0312H14.6156Z" fill="#263238"/>
<path d="M57.866 68.7422H40.0312V69.5409H57.866V68.7422Z" fill="#C7C7C7"/>
<path d="M57.8634 68.7422H48.8877V69.5409H57.8634V68.7422Z" fill="#A6A6A6"/>
<path d="M49.853 69.5423H67.2346L69.5057 57.7617H52.1268L49.853 69.5423Z" fill="#C7C7C7"/>
<path d="M58.6239 63.6522C58.6085 63.7861 58.6218 63.9216 58.6629 64.0499C58.704 64.1782 58.7719 64.2963 58.8622 64.3964C58.9526 64.4965 59.0632 64.5763 59.1867 64.6306C59.3103 64.6848 59.444 64.7122 59.579 64.7109C59.8666 64.7058 60.1423 64.5959 60.3543 64.4019C60.5662 64.2078 60.6996 63.9431 60.7294 63.6577C60.7441 63.5232 60.7299 63.3872 60.6878 63.2587C60.6457 63.1301 60.5767 63.012 60.4853 62.9121C60.394 62.8122 60.2823 62.7329 60.1579 62.6794C60.0334 62.6258 59.899 62.5994 59.7635 62.6017C59.4782 62.6093 59.2054 62.72 58.9958 62.9132C58.7862 63.1065 58.654 63.3691 58.6239 63.6522V63.6522Z" fill="#A6A6A6"/>
<path d="M70.2301 44.2667C70.2628 44.4601 70.2374 44.6588 70.1569 44.8377C70.0765 45.0166 69.9446 45.1677 69.7781 45.2718C69.6115 45.3759 69.4178 45.4283 69.2213 45.4225C69.0249 45.4167 68.8346 45.3528 68.6746 45.239C68.5145 45.1252 68.3919 44.9666 68.3223 44.7832C68.2526 44.5998 68.2391 44.4 68.2833 44.2089C68.3275 44.0178 68.4276 43.8442 68.5708 43.7099C68.714 43.5756 68.8939 43.4867 69.0878 43.4545C69.347 43.4121 69.6126 43.4737 69.8265 43.6258C70.0405 43.778 70.1856 44.0084 70.2301 44.2667V44.2667Z" fill="white"/>
<path d="M73.1714 42.3257C73.2043 42.5192 73.1789 42.718 73.0983 42.8971C73.0178 43.0761 72.8859 43.2273 72.7192 43.3314C72.5525 43.4355 72.3586 43.4879 72.162 43.4819C71.9655 43.4759 71.7751 43.4118 71.6151 43.2978C71.4551 43.1837 71.3326 43.0248 71.2632 42.8412C71.1937 42.6576 71.1805 42.4576 71.2251 42.2665C71.2698 42.0753 71.3703 41.9018 71.5139 41.7677C71.6575 41.6336 71.8377 41.5451 72.0318 41.5134C72.2909 41.4704 72.5565 41.5318 72.7702 41.6841C72.9839 41.8364 73.1282 42.0672 73.1714 42.3257Z" fill="white"/>
<path d="M79.5965 52.532L71.0576 48.514L76.2265 37.5781L82.5649 40.5619L83.7804 43.6783L79.5965 52.532Z" fill="#EBEBEB"/>
<path d="M82.565 40.5625L83.7806 43.6789L81.5801 42.6446L82.565 40.5625Z" fill="#DBDBDB"/>
<path d="M76.0517 40.0913L80.7983 42.3242L80.9314 42.0426L76.1848 39.8097L76.0517 40.0913Z" fill="#DBDBDB"/>
<path d="M75.7182 40.7984L80.4648 43.0312L80.5979 42.7496L75.8513 40.5167L75.7182 40.7984Z" fill="#DBDBDB"/>
<path d="M75.3823 41.5093L80.1289 43.7422L80.262 43.4605L75.5154 41.2277L75.3823 41.5093Z" fill="#DBDBDB"/>
<path d="M75.0475 42.2163L82.0029 45.4883L82.136 45.2066L75.1805 41.9347L75.0475 42.2163Z" fill="#DBDBDB"/>
<path d="M74.7125 42.9273L81.668 46.1992L81.801 45.9176L74.8456 42.6456L74.7125 42.9273Z" fill="#DBDBDB"/>
<path d="M74.379 43.6343L81.3345 46.9062L81.4675 46.6246L74.5121 43.3527L74.379 43.6343Z" fill="#DBDBDB"/>
<path d="M74.0416 44.3452L80.9971 47.6172L81.1301 47.3355L74.1747 44.0636L74.0416 44.3452Z" fill="#DBDBDB"/>
<path d="M73.7076 45.0523L80.6631 48.3242L80.7961 48.0426L73.8407 44.7706L73.7076 45.0523Z" fill="#DBDBDB"/>
<path d="M73.3736 45.7593L80.3291 49.0312L80.4622 48.7496L73.5067 45.4777L73.3736 45.7593Z" fill="#DBDBDB"/>
<path d="M73.0358 46.4702L79.9912 49.7422L80.1243 49.4605L73.1688 46.1886L73.0358 46.4702Z" fill="#DBDBDB"/>
<path d="M72.7018 47.1812L79.6572 50.4531L79.7903 50.1715L72.8348 46.8995L72.7018 47.1812Z" fill="#DBDBDB"/>
<path d="M72.3653 47.8882L79.3208 51.1602L79.4539 50.8785L72.4984 47.6066L72.3653 47.8882Z" fill="#DBDBDB"/>
<path d="M79.1956 55.8459L81.3945 45.4062L69.0633 42.8199L66.8643 53.2596L79.1956 55.8459Z" fill="#0101C8"/>
<path d="M72.8047 51.4451L79.8159 52.9153L77.2166 47.8711L72.8047 51.4451Z" fill="#0101C8"/>
<g opacity="0.3">
<path opacity="0.3" d="M72.8057 51.4412L79.8169 52.9114L77.2175 47.8672L72.8057 51.4412Z" fill="white"/>
</g>
<path d="M69.353 50.7294L75.5693 52.0318L73.0513 48.5742L69.353 50.7294Z" fill="#0101C8"/>
<g opacity="0.5">
<path opacity="0.5" d="M69.3535 50.7294L75.5698 52.0318L73.0518 48.5742L69.3535 50.7294Z" fill="white"/>
</g>
<path d="M79.8117 52.9184L67.4805 50.332L66.8626 53.2652L79.1939 55.8516L79.8117 52.9184Z" fill="#0101C8"/>
<g opacity="0.5">
<path opacity="0.5" d="M79.8108 52.9184L67.4795 50.332L66.8617 53.2652L79.1929 55.8516L79.8108 52.9184Z" fill="white"/>
</g>
<path opacity="0.9" d="M70.3379 47.5868C70.5296 47.6688 70.7426 47.687 70.9455 47.6388C71.1484 47.5906 71.3303 47.4785 71.4644 47.3191C71.5985 47.1597 71.6776 46.9615 71.6901 46.7537C71.7025 46.546 71.6476 46.3398 71.5335 46.1656C71.4194 45.9913 71.2521 45.8584 71.0565 45.7864C70.8608 45.7144 70.6471 45.7072 70.447 45.7658C70.2469 45.8243 70.0709 45.9456 69.9453 46.1117C69.8196 46.2778 69.7508 46.4798 69.7491 46.6879C69.7471 46.8791 69.8021 47.0665 69.9069 47.2265C70.0117 47.3865 70.1617 47.5119 70.3379 47.5868V47.5868Z" fill="white"/>
<path d="M56.9535 53.8945H56.6821V54.436H56.9535V53.8945Z" fill="#263238"/>
<path d="M56.9535 53.0067H56.6821V51.8289H56.9535V53.0067ZM56.9535 50.9435H56.6821V49.7631H56.9535V50.9435ZM56.9535 48.8804H56.6821V47.6999H56.9535V48.8804ZM56.9535 46.8145H56.6821V45.6367H56.9535V46.8145Z" fill="#263238"/>
<path d="M56.9505 44.7511H56.6792V44.0742H57.3575V44.345H56.9505V44.7511Z" fill="#263238"/>
<path d="M61.0372 44.345H59.9871V44.0742H61.0372V44.345ZM59.1975 44.345H58.1475V44.0742H59.1975V44.345Z" fill="#263238"/>
<path d="M62.3669 44.0742H61.8242V44.345H62.3669V44.0742Z" fill="#263238"/>
<path d="M57.3278 54.4231C57.3278 54.5238 57.2979 54.6222 57.2419 54.7059C57.1858 54.7896 57.1061 54.8548 57.0129 54.8934C56.9197 54.9319 56.8172 54.942 56.7182 54.9223C56.6193 54.9027 56.5284 54.8542 56.457 54.783C56.3857 54.7118 56.3371 54.6211 56.3174 54.5224C56.2977 54.4237 56.3078 54.3213 56.3464 54.2283C56.3851 54.1353 56.4504 54.0558 56.5343 53.9999C56.6182 53.9439 56.7168 53.9141 56.8177 53.9141C56.953 53.9141 57.0828 53.9677 57.1784 54.0632C57.2741 54.1586 57.3278 54.2881 57.3278 54.4231V54.4231Z" fill="#263238"/>
<path d="M62.3421 44.7212C62.443 44.7212 62.5417 44.6913 62.6255 44.6354C62.7094 44.5795 62.7748 44.5 62.8134 44.4069C62.852 44.3139 62.8621 44.2116 62.8424 44.1128C62.8228 44.0141 62.7742 43.9234 62.7028 43.8522C62.6315 43.781 62.5406 43.7325 62.4417 43.7129C62.3427 43.6933 62.2401 43.7033 62.1469 43.7419C62.0537 43.7804 61.974 43.8456 61.918 43.9294C61.8619 44.0131 61.832 44.1115 61.832 44.2121C61.832 44.3471 61.8858 44.4766 61.9814 44.5721C62.0771 44.6675 62.2069 44.7212 62.3421 44.7212V44.7212Z" fill="#263238"/>
<path d="M86.2219 43.8906H85.6792V44.1614H86.2219V43.8906Z" fill="#263238"/>
<path d="M90.5096 44.1614H89.2858V43.8906H90.5096V44.1614ZM88.3687 44.1614H87.145V43.8906H88.3687V44.1614Z" fill="#263238"/>
<path d="M92.0992 44.1613H91.4209V43.8905H91.8279V43.4844H92.0992V44.1613Z" fill="#263238"/>
<path d="M92.0995 42.6864H91.8281V41.6196H92.0995V42.6864ZM92.0995 40.8182H91.8281V39.7514H92.0995V40.8182ZM92.0995 38.9527H91.8281V37.8697H92.0995V38.9527ZM92.0995 37.0845H91.8281V36.0123H92.0995V37.0845ZM92.0995 35.2162H91.8281V34.1495H92.0995V35.2162ZM92.0995 33.348H91.8281V32.2812H92.0995V33.348Z" fill="#263238"/>
<path d="M92.0992 31.4816H91.8279V31.0754H91.4209V30.8047H92.0992V31.4816Z" fill="#263238"/>
<path d="M90.3846 30.8047H88.998V31.0754H90.3846V30.8047Z" fill="#263238"/>
<path d="M87.9587 30.8047H87.416V31.0754H87.9587V30.8047Z" fill="#263238"/>
<path d="M85.7064 44.5376C85.9881 44.5376 86.2165 44.3097 86.2165 44.0286C86.2165 43.7474 85.9881 43.5195 85.7064 43.5195C85.4247 43.5195 85.1963 43.7474 85.1963 44.0286C85.1963 44.3097 85.4247 44.5376 85.7064 44.5376Z" fill="#263238"/>
<path d="M87.4413 30.4297C87.3404 30.4297 87.2417 30.4595 87.1579 30.5155C87.074 30.5714 87.0086 30.6509 86.97 30.7439C86.9314 30.8369 86.9213 30.9393 86.941 31.038C86.9606 31.1368 87.0092 31.2275 87.0806 31.2986C87.1519 31.3698 87.2428 31.4183 87.3417 31.438C87.4407 31.4576 87.5433 31.4475 87.6365 31.409C87.7297 31.3705 87.8093 31.3052 87.8654 31.2215C87.9215 31.1378 87.9514 31.0394 87.9514 30.9387C87.9514 30.8037 87.8976 30.6742 87.802 30.5788C87.7063 30.4833 87.5765 30.4297 87.4413 30.4297V30.4297Z" fill="#263238"/>
</g>
</svg>
