<svg width="91" height="89" viewBox="0 0 91 89" fill="none" xmlns="http://www.w3.org/2000/svg">
<g clip-path="url(#clip0_444_969)">
<rect width="91" height="89" fill="white"/>
<path d="M52.6831 13.2409C52.6831 14.11 53.0121 14.9471 53.6044 15.5844C54.1967 16.2217 55.0084 16.6121 55.8769 16.6775H75.4295C76.4587 16.6566 77.4415 16.2461 78.1788 15.5291C78.916 14.8121 79.3526 13.8423 79.4 12.8161C79.4474 11.7899 79.1021 10.7842 78.434 10.0026C77.766 9.22094 76.8252 8.72195 75.8023 8.6067C75.7525 7.02366 75.1522 5.50725 74.1044 4.31765C73.0565 3.12806 71.6264 2.33944 70.0595 2.08712C68.4926 1.8348 66.8865 2.13451 65.5169 2.93482C64.1472 3.73513 63.0994 4.98614 62.5532 6.47321C61.9903 6.18923 61.3681 6.04204 60.7374 6.04363C59.7046 6.0435 58.7106 6.43644 57.958 7.14234C57.2055 7.84824 56.7511 8.81396 56.6874 9.84263C56.5023 9.81147 56.3148 9.79622 56.1271 9.79704C55.213 9.79894 54.337 10.1626 53.6914 10.8083C53.0457 11.4539 52.6831 12.3287 52.6831 13.2409Z" fill="#0101C8"/>
<path d="M68.1825 11.6719H63.9858V16.6852H68.1825V11.6719Z" fill="white"/>
<path d="M62.6729 12.4084H69.4958L66.0831 8.41016L62.6729 12.4084Z" fill="white"/>
<path d="M75.6629 18.2188H56.9834V19.5267H75.6629V18.2188Z" fill="#DBDBDB"/>
<path d="M70.9299 18.2188H56.9834V19.5267H70.9299V18.2188Z" fill="#0101C8"/>
<path d="M37.8701 68.5859L38.4906 72.3081L42.7041 95.0134H43.3848L40.3208 72.3081L39.8687 68.5859H37.8701Z" fill="#C7C7C7"/>
<path d="M39.8687 68.5859H37.8701L38.4906 72.3081H40.3208L39.8687 68.5859Z" fill="#A6A6A6"/>
<path d="M24.6377 95.0134H25.3183L29.5318 72.3081L30.1523 68.5859H28.1538L27.7017 72.3081L24.6377 95.0134Z" fill="#C7C7C7"/>
<path d="M28.1553 68.5859L27.7031 72.3081H29.5333L30.1538 68.5859H28.1553Z" fill="#A6A6A6"/>
<path d="M12.0024 95.0134H12.6806L16.8942 72.3081L17.5171 68.5859H15.5185L15.0664 72.3081L12.0024 95.0134Z" fill="#C7C7C7"/>
<path d="M15.0654 72.3081H16.8932L17.5161 68.5859H15.5176L15.0654 72.3081Z" fill="#A6A6A6"/>
<path d="M13.0776 70.339H43.9529V67.0919H32.3945L28.5104 48.7305H14.2561L13.0776 70.339Z" fill="#C7C7C7"/>
<path d="M14.8767 67.0859H43.953V70.333H14.7612L14.8767 67.0859Z" fill="#DBDBDB"/>
<path d="M13.0776 70.339H14.7611L15.8578 48.7305H14.2561L13.0776 70.339Z" fill="#DBDBDB"/>
<path d="M48.6762 99.264C48.0774 99.3215 31.8052 95.4362 31.293 94.9082C31.2304 94.8506 31.5503 93.3723 32.0145 91.3612V91.3204C32.3103 90.046 37.0649 79.7266 37.0649 79.7266L47.6132 82.6736L42.8032 92.2467C42.8032 92.2467 44.7874 93.6866 46.4901 95.0378C47.5411 95.8729 48.4477 96.6217 48.6401 96.8665C49.1572 97.5072 49.2727 99.2064 48.6762 99.264Z" fill="#EB9481"/>
<path d="M48.6756 99.2558C48.0792 99.3134 31.8047 95.416 31.29 94.9C31.2275 94.84 31.5497 93.3665 32.0115 91.353V91.3146C32.1197 90.8346 32.8532 89.1043 33.7238 87.1172C35.4602 87.5852 41.6819 89.2771 43.9426 89.9682L42.8243 92.2385C42.8243 92.2385 44.8084 93.6784 46.5088 95.0296C47.261 95.5963 47.9789 96.2069 48.6588 96.8583C49.1566 97.4991 49.2745 99.1982 48.6756 99.2558Z" fill="white"/>
<path d="M44.017 91.3696L32.7136 87.9882C32.7136 87.9882 42.0281 68.6188 41.7347 67.6324C41.5399 66.9748 27.5741 66.9292 23.4808 63.2622C19.2457 59.4656 22.5429 52.0092 22.5429 52.0092L34.2841 51.9492C34.2841 51.9492 34.082 54.3947 34.5246 54.7763C34.8204 55.0283 50.8785 56.4394 53.9472 62.3287C56.7467 67.6732 44.017 91.3696 44.017 91.3696Z" fill="#183C4F"/>
<path d="M41.7368 67.6324C41.7897 67.798 41.5612 68.494 41.1475 69.5355L49.5866 79.8814C52.5977 73.0369 55.426 65.1413 53.9565 62.3287C50.8805 56.4394 34.8296 55.0283 34.5314 54.7763C34.0865 54.3971 34.2909 51.9492 34.2909 51.9492L26.8354 51.9876L39.2211 67.1692C40.7122 67.3324 41.6863 67.462 41.7368 67.6324Z" fill="#263238"/>
<path d="M44.2971 88.9854C43.9984 88.8506 43.6906 88.7368 43.376 88.6447C43.0489 88.5319 42.7243 88.4215 42.3948 88.3159C41.7502 88.1095 41.1033 87.9103 40.4515 87.7279C39.1384 87.3559 37.8253 86.9935 36.5026 86.6576C35.8147 86.4848 34.3381 86.1032 34.2467 86.1176C34.2365 86.1196 34.2272 86.1247 34.2201 86.1322C34.2129 86.1396 34.2082 86.1491 34.2066 86.1593C34.2051 86.1696 34.2067 86.18 34.2113 86.1893C34.2158 86.1986 34.2232 86.2062 34.2322 86.2112C35.5093 86.6672 36.8056 87.0583 38.1019 87.4519C39.3982 87.8455 40.6944 88.2367 42.0076 88.5655C42.3707 88.6591 42.7291 88.7383 43.1018 88.827C43.4825 88.9359 43.8708 89.0161 44.2635 89.067C44.2971 89.079 44.3404 89.007 44.2971 88.9854Z" fill="#455A64"/>
<path d="M23.1755 54.2357C23.2116 53.8445 23.2573 53.4557 23.3006 53.0646C23.3006 53.019 23.3776 53.0214 23.3727 53.0646C23.2164 54.6485 23.0553 56.2708 23.3463 57.8499C23.6144 59.3075 24.3505 60.6384 25.4434 61.6417C27.7739 63.8016 31.0302 64.4472 34.0653 64.9631C35.8041 65.2583 37.5526 65.4839 39.3082 65.6567C40.1676 65.7399 41.0278 65.8087 41.8887 65.8631C42.7449 65.9159 43.6011 65.9231 44.4549 65.9711C44.7242 65.9855 44.9647 66.1103 44.9214 66.4175C44.8781 66.6051 44.8093 66.7859 44.717 66.955L44.4428 67.5766C44.0981 68.3494 43.7534 69.1221 43.4087 69.8949C42.6952 71.4852 41.9737 73.0715 41.2442 74.6538C39.7836 77.7945 38.2692 80.9095 36.7012 83.999C36.5088 84.3805 36.3116 84.7645 36.1168 85.1485C36.1168 85.1725 36.0687 85.1485 36.0807 85.1245C37.5766 81.9967 39.0557 78.86 40.5179 75.7146C41.2394 74.1547 41.9609 72.5947 42.6824 71.0276C43.0415 70.2453 43.3975 69.4621 43.7502 68.6781C43.9282 68.2878 44.1045 67.895 44.2793 67.4998C44.3683 67.3054 44.4549 67.1086 44.5439 66.9118C44.6328 66.715 44.883 66.3575 44.6978 66.1919C44.5751 66.0911 44.3226 66.1247 44.1759 66.1223L43.4929 66.0983C43.0624 66.0839 42.6319 66.0671 42.199 66.0455C41.3268 66.0023 40.4546 65.9431 39.5824 65.8679C37.8748 65.7191 36.1745 65.5031 34.4838 65.2319C31.4679 64.7519 28.1875 64.2024 25.7729 62.1817C24.6951 61.3061 23.892 60.1399 23.4593 58.8219C22.9903 57.3459 23.036 55.762 23.1755 54.2357Z" fill="#455A64"/>
<path d="M73.5043 84.4143C73.0786 84.8391 58.0595 92.2019 57.3283 92.1203C57.2442 92.1203 56.5467 90.774 55.6256 88.9237L55.5992 88.8829C55.0099 87.7118 49.6685 77.8651 49.6685 77.8651L59.0118 73.1445L64.5024 82.7272C64.5024 82.7272 66.9459 82.5688 69.1272 82.5328C70.4716 82.5088 71.6476 82.5088 71.9507 82.5736C72.7515 82.7536 73.93 83.9944 73.5043 84.4143Z" fill="#EB9481"/>
<path d="M73.5056 84.4137C73.0799 84.8361 58.0631 92.2013 57.3296 92.1197C57.2454 92.1197 56.548 90.7734 55.6269 88.9231L55.6004 88.8823C55.5595 88.8007 55.5186 88.7191 55.473 88.6423C55.4273 88.5655 55.4128 88.5223 55.3792 88.4623C55.3455 88.4023 55.2878 88.2871 55.2397 88.1983C54.8332 87.4303 54.1646 86.1824 53.4287 84.8193L62.9573 80.0195L64.5037 82.7218C64.5037 82.7218 66.9472 82.5634 69.1285 82.5274C70.4729 82.5034 71.6489 82.5034 71.9519 82.5682C72.7528 82.753 73.9312 83.9937 73.5056 84.4137Z" fill="white"/>
<path d="M73.5956 84.4433C73.1555 84.8753 58.1002 92.2093 57.3499 92.1229C57.0637 92.0941 55.7049 89.8862 54.6587 87.2248L64.37 82.5066C64.37 82.5066 71.2074 82.365 72.0203 82.5426C72.8332 82.7202 74.0357 84.0113 73.5956 84.4433Z" fill="#0190FF"/>
<path d="M73.0847 83.945C70.5306 85.1138 60.3383 90.0647 57.9045 91.4135C57.8852 91.4135 57.8924 91.4375 57.9045 91.4279C60.461 90.3263 70.6124 85.2914 73.0992 83.9882C73.1569 83.9594 73.1401 83.921 73.0847 83.945Z" fill="#263238"/>
<path d="M70.7869 82.4746C70.5038 82.6042 70.2508 82.7909 70.0439 83.0231C69.8369 83.2553 69.6804 83.5277 69.5844 83.8233C69.4052 84.3552 69.4388 84.9355 69.6782 85.4432C69.6782 85.4576 69.7142 85.4432 69.7094 85.4288C69.5502 84.8886 69.5713 84.3113 69.7696 83.7841C69.9678 83.2568 70.3324 82.8082 70.8085 82.5058C70.8205 82.4938 70.8061 82.465 70.7869 82.4746Z" fill="#263238"/>
<path d="M65.2821 82.3795C64.2647 82.8595 63.2691 83.7834 63.0454 84.9138C63.0454 84.957 63.0983 84.969 63.12 84.9402C63.7763 84.0466 64.5279 83.2266 65.3614 82.4947C65.369 82.4895 65.3755 82.4828 65.3805 82.4751C65.3855 82.4674 65.3889 82.4588 65.3906 82.4498C65.3923 82.4408 65.3922 82.4315 65.3902 82.4225C65.3883 82.4136 65.3847 82.405 65.3795 82.3975C65.3742 82.3899 65.3676 82.3835 65.3599 82.3785C65.3522 82.3735 65.3435 82.37 65.3345 82.3684C65.3254 82.3667 65.3162 82.3668 65.3072 82.3687C65.2982 82.3706 65.2896 82.3743 65.2821 82.3795V82.3795Z" fill="#263238"/>
<path d="M66.2103 82.3014C65.193 82.7813 64.1973 83.7053 63.9736 84.8356C63.9736 84.8788 64.0265 84.8908 64.0482 84.862C64.7052 83.9689 65.4567 83.1491 66.2896 82.4166C66.3049 82.4061 66.3154 82.3899 66.3188 82.3717C66.3222 82.3535 66.3182 82.3346 66.3077 82.3194C66.2971 82.3041 66.281 82.2936 66.2627 82.2902C66.2444 82.2869 66.2256 82.2909 66.2103 82.3014V82.3014Z" fill="#263238"/>
<path d="M67.1434 82.2271C66.1261 82.7071 65.1304 83.6311 64.9067 84.7614C64.9067 84.8046 64.9596 84.8166 64.9813 84.7878C65.6389 83.8952 66.3903 83.0754 67.2227 82.3423C67.238 82.3318 67.2485 82.3157 67.2519 82.2975C67.2553 82.2792 67.2513 82.2604 67.2408 82.2451C67.2303 82.2299 67.2141 82.2194 67.1958 82.216C67.1775 82.2126 67.1587 82.2166 67.1434 82.2271V82.2271Z" fill="#263238"/>
<path d="M68.0672 82.1451C67.0499 82.6251 66.0542 83.549 65.8306 84.6794C65.8306 84.7226 65.8835 84.7346 65.9051 84.7058C66.5628 83.8132 67.3142 82.9934 68.1466 82.2603C68.1542 82.2551 68.1606 82.2485 68.1656 82.2408C68.1706 82.2331 68.1741 82.2245 68.1758 82.2154C68.1774 82.2064 68.1773 82.1971 68.1754 82.1882C68.1735 82.1792 68.1698 82.1707 68.1646 82.1631C68.1594 82.1555 68.1527 82.1491 68.145 82.1441C68.1373 82.1391 68.1287 82.1357 68.1196 82.134C68.1106 82.1323 68.1013 82.1324 68.0923 82.1343C68.0833 82.1363 68.0748 82.1399 68.0672 82.1451V82.1451Z" fill="#263238"/>
<path d="M57.377 88.7053C56.2443 89.2621 57.1077 91.0188 58.2404 90.462C59.3732 89.9052 58.5098 88.1485 57.377 88.7053Z" fill="#263238"/>
<path d="M65.0585 79.1509C64.337 78.9781 63.8993 79.7053 63.7983 80.298C63.6437 81.3186 63.7624 82.3618 64.1422 83.3219C64.1422 83.3459 64.171 83.3459 64.1879 83.3363C64.2006 83.3536 64.2173 83.3677 64.2365 83.3775C64.2557 83.3872 64.277 83.3923 64.2985 83.3923C64.3201 83.3923 64.3413 83.3872 64.3605 83.3775C64.3798 83.3677 64.3964 83.3536 64.4091 83.3363C64.8901 82.4891 65.4986 81.642 65.7006 80.6748C65.8185 80.1036 65.7367 79.3165 65.0585 79.1509ZM64.8685 81.8987C64.6424 82.3211 64.3875 82.7291 64.1903 83.1587C64.1253 82.5683 64.0364 81.9851 64.0291 81.3876C64.0219 81.1007 64.034 80.8137 64.0652 80.5284C64.1229 80.0892 64.7025 78.7621 65.3399 79.8085C65.7006 80.3892 65.1354 81.3948 64.8685 81.8987V81.8987Z" fill="#263238"/>
<path d="M61.8146 84.9223C62.7598 84.6271 63.5462 83.9359 64.3447 83.3815C64.3613 83.3677 64.3744 83.3502 64.383 83.3304C64.3915 83.3106 64.3952 83.289 64.3938 83.2675C64.3924 83.246 64.3859 83.2251 64.3749 83.2065C64.3638 83.188 64.3485 83.1723 64.3303 83.1608C64.3326 83.1566 64.334 83.1519 64.3343 83.1472C64.3346 83.1424 64.3337 83.1376 64.3319 83.1332C64.33 83.1288 64.3272 83.1249 64.3236 83.1218C64.3199 83.1186 64.3156 83.1164 64.311 83.1152C63.3162 82.833 62.2647 82.8165 61.2615 83.0672C60.6795 83.2231 59.9965 83.7343 60.2394 84.4303C60.4703 85.0879 61.2639 85.0927 61.8146 84.9223ZM60.9248 84.6439C59.8185 84.1135 61.0835 83.4103 61.5164 83.3119C61.7986 83.2515 62.0847 83.2114 62.3726 83.192C62.9662 83.162 63.561 83.162 64.1547 83.192C63.7434 83.4319 63.361 83.7223 62.9522 83.9839C62.4856 84.2887 61.5357 84.9391 60.9248 84.6439Z" fill="#263238"/>
<path d="M64.465 81.1837L53.1952 86.8018C53.1952 86.8018 44.4025 68.966 43.4381 67.8116C42.1515 66.2781 25.4007 68.4428 21.4493 63.4918C17.3609 58.3729 20.8649 52.0156 20.8649 52.0156H33.6114C33.6114 52.0156 33.6498 53.4268 32.9139 55.4906C32.9139 55.4906 47.4954 54.6243 51.6223 58.6273C54.7945 61.6943 64.465 81.1837 64.465 81.1837Z" fill="#183C4F"/>
<path d="M30.5879 56.768C31.2404 56.3191 31.9172 55.9065 32.6153 55.5321C33.1057 55.2747 33.6205 55.0664 34.1521 54.9105C34.5249 54.8217 34.686 54.7953 34.3373 54.9585L33.3993 55.4025C33.4667 55.4025 33.534 55.4025 33.5989 55.4025C33.8394 55.4025 34.0992 55.3809 34.3493 55.3761C34.8303 55.3617 35.3305 55.3761 35.8211 55.3641C36.8168 55.3641 37.8005 55.4505 38.7937 55.5009C38.798 55.5024 38.8016 55.5051 38.8042 55.5088C38.8068 55.5124 38.8082 55.5168 38.8082 55.5213C38.8082 55.5258 38.8068 55.5301 38.8042 55.5338C38.8016 55.5374 38.798 55.5402 38.7937 55.5417C37.8029 55.5105 36.8072 55.5609 35.8163 55.5585C35.3353 55.5585 34.8351 55.5705 34.3445 55.5801L33.623 55.5921C33.4203 55.6029 33.2172 55.6029 33.0145 55.5921L32.7404 55.7217C32.0189 56.0601 31.2974 56.4152 30.6071 56.8064C30.5879 56.8088 30.5735 56.7824 30.5879 56.768Z" fill="#455A64"/>
<path d="M33.9175 51.5355C33.7876 52.1379 33.677 52.7355 33.5255 53.3379C33.4581 53.6114 33.3884 53.8874 33.285 54.1538C33.208 54.3794 33.0853 54.6338 32.828 54.6938C32.5346 54.761 32.4408 54.5114 32.4576 54.2666C32.4745 54.0218 32.537 53.717 32.5803 53.4482C32.6332 53.1363 32.6861 52.8243 32.7318 52.5123C32.7535 52.3563 32.7775 52.2003 32.7992 52.0323C32.7992 51.9939 32.8232 51.6963 32.8424 51.6099C32.8424 51.6099 32.8424 51.6243 32.8593 51.6219C32.8636 51.6214 32.8676 51.6195 32.8706 51.6165C32.8737 51.6134 32.8756 51.6094 32.8761 51.6051C32.8789 51.5971 32.8787 51.5884 32.8756 51.5805C32.8725 51.5726 32.8667 51.566 32.8593 51.5619C32.8593 51.5619 32.8424 51.5619 32.8328 51.5619C32.7775 51.5931 32.7751 51.6723 32.7607 51.7299C32.7174 51.8811 32.6717 52.0347 32.6332 52.1859C32.5611 52.4739 32.4889 52.7619 32.4264 53.0499C32.3639 53.3379 32.3037 53.6306 32.2436 53.9186C32.1765 54.1338 32.1641 54.3622 32.2075 54.5834C32.2379 54.6876 32.3011 54.7793 32.3877 54.845C32.4743 54.9107 32.5798 54.9468 32.6885 54.9482C32.6885 54.9674 32.6669 54.9866 32.6597 55.0058C32.6356 55.0658 32.6188 55.1282 32.5971 55.1906C32.5755 55.253 32.5587 55.3153 32.5418 55.3777C32.5395 55.4089 32.5395 55.4402 32.5418 55.4713C32.5418 55.5049 32.5418 55.5385 32.5418 55.5745C32.5392 55.5863 32.5411 55.5985 32.5471 55.6089C32.5531 55.6193 32.5628 55.6271 32.5743 55.6307C32.5858 55.6344 32.5982 55.6336 32.6091 55.6285C32.62 55.6234 32.6286 55.6144 32.6332 55.6033C32.65 55.5721 32.6717 55.5481 32.6885 55.5193C32.7053 55.4865 32.7182 55.4519 32.727 55.4161C32.7438 55.3561 32.7607 55.2961 32.7727 55.2362C32.7892 55.1754 32.8021 55.1137 32.8112 55.0514C32.8148 55.0155 32.8148 54.9793 32.8112 54.9434C32.9361 54.9277 33.0543 54.8779 33.1527 54.7994C33.3162 54.6509 33.4332 54.4584 33.4894 54.245C33.5712 53.993 33.6337 53.7338 33.6938 53.477C33.8547 52.8475 33.9601 52.205 34.0089 51.5571C34.0059 51.5483 34.0007 51.5403 33.9937 51.534C33.9868 51.5276 33.9783 51.5232 33.9692 51.521C33.96 51.5189 33.9505 51.5191 33.9414 51.5216C33.9324 51.5241 33.9241 51.5289 33.9175 51.5355Z" fill="#455A64"/>
<path d="M27.7695 53.2451C27.7238 53.5427 27.6997 53.8403 27.642 54.1355C27.5843 54.4307 27.517 54.7138 27.4328 54.997C27.3563 55.2714 27.2422 55.5339 27.0937 55.777C26.9373 56.0054 26.7486 56.2099 26.5333 56.3842C26.124 56.7326 25.6601 57.0115 25.1601 57.2097C24.9081 57.3099 24.6503 57.3949 24.3881 57.4641C24.251 57.4977 24.1139 57.5265 23.9744 57.5505C23.859 57.5579 23.7462 57.588 23.6425 57.6393C23.6326 57.6453 23.6243 57.6537 23.6186 57.6638C23.6129 57.6739 23.6099 57.6853 23.6099 57.6969C23.6099 57.7085 23.6129 57.7199 23.6186 57.73C23.6243 57.7401 23.6326 57.7485 23.6425 57.7545C23.8458 57.8087 24.0597 57.8087 24.263 57.7545C24.4858 57.7258 24.7061 57.68 24.922 57.6177C25.358 57.4871 25.7734 57.2956 26.1557 57.0489C26.5428 56.8126 26.8868 56.5123 27.173 56.161C27.4382 55.7914 27.6151 55.3662 27.6901 54.9178C27.8104 54.3705 27.8533 53.8091 27.8176 53.2499C27.8154 53.2457 27.8121 53.242 27.8082 53.2393C27.8042 53.2367 27.7996 53.235 27.7948 53.2345C27.7901 53.234 27.7852 53.2348 27.7808 53.2366C27.7764 53.2385 27.7725 53.2414 27.7695 53.2451V53.2451Z" fill="#455A64"/>
<path d="M62.1777 79.1306C61.8678 79.2369 61.5657 79.3644 61.2734 79.5122C60.9607 79.6562 60.6457 79.7978 60.3354 79.9466C59.7246 80.237 59.1161 80.537 58.5173 80.849C57.3148 81.4801 56.1123 82.1161 54.9098 82.7689C54.2893 83.112 52.9545 83.8464 52.8968 83.9208C52.8704 83.9544 52.9136 84.0144 52.9521 84C54.1931 83.4552 55.4052 82.8505 56.6197 82.2505C57.8342 81.6505 59.0439 81.0505 60.2272 80.3834C60.5543 80.201 60.8766 80.0114 61.1892 79.8242C61.5425 79.6442 61.8817 79.438 62.2041 79.2074C62.245 79.1954 62.2209 79.1163 62.1777 79.1306Z" fill="#455A64"/>
<path d="M20.8727 54.9768C20.8727 54.9653 20.8773 54.9544 20.8854 54.9462C20.8935 54.9381 20.9045 54.9336 20.916 54.9336C20.9275 54.9336 20.9385 54.9381 20.9466 54.9462C20.9547 54.9544 20.9593 54.9653 20.9593 54.9768C20.9352 57.739 21.3609 60.8277 23.4941 62.81C25.8294 64.9843 29.2012 65.2435 32.2339 65.2099C33.9775 65.1955 35.7139 65.1523 37.4551 65.2099C39.1963 65.2675 40.9712 65.3491 42.71 65.5722C43.3862 65.6354 44.0179 65.9366 44.4921 66.4218C44.9497 66.9408 45.3466 67.51 45.6753 68.1185C46.5507 69.5584 47.3989 71.0224 48.2198 72.5103C49.8536 75.4525 51.3639 78.4564 52.7508 81.5218C52.924 81.9026 53.0947 82.2842 53.2631 82.6666C53.2751 82.6906 53.2366 82.7122 53.2246 82.6882C51.8153 79.6115 50.2977 76.5885 48.672 73.619C47.8607 72.1327 47.0229 70.6624 46.1587 69.2081C45.7523 68.5241 45.3603 67.8233 44.9057 67.1682C44.5065 66.5898 44.0039 66.0474 43.3112 65.8362C42.8857 65.7306 42.4506 65.6679 42.0125 65.649C41.5684 65.609 41.1235 65.5722 40.6778 65.5386C39.8104 65.4762 38.9414 65.4291 38.0708 65.3971C36.3151 65.3323 34.5619 65.3539 32.8062 65.385C29.7591 65.4402 26.4282 65.3371 23.9078 63.4004C22.8277 62.5552 22.0124 61.4194 21.5581 60.1269C21.1111 58.8013 20.882 57.4122 20.8799 56.0135C20.8631 55.6728 20.8655 55.3248 20.8727 54.9768Z" fill="#455A64"/>
<path d="M39.122 67.0782C39.7425 67.0782 40.3653 67.1142 40.9858 67.1357C41.5039 67.1272 42.0214 67.1731 42.5298 67.2725C43.0108 67.3901 43.374 67.4453 43.7588 67.9709C44.2398 68.6261 46.8564 73.673 47.9555 75.9073C48.2601 76.5265 48.5607 77.148 48.8574 77.772C49.1628 78.4176 49.4322 79.0775 49.7376 79.7231C49.7376 79.7447 49.7135 79.7663 49.7015 79.7423C49.4322 79.2023 49.1315 78.6792 48.855 78.144C48.5784 77.6088 48.3042 77.0688 48.0348 76.5289C47.4881 75.4393 46.9422 74.3506 46.3971 73.2626C45.8511 72.1827 45.1946 71.1315 44.639 70.0588C44.1748 69.1564 43.5423 67.9229 43.0998 67.7405C42.4826 67.4989 41.8354 67.3423 41.1758 67.2749C40.4904 67.2269 39.805 67.1861 39.1196 67.1261C39.1164 67.126 39.1133 67.1252 39.1104 67.1239C39.1076 67.1225 39.105 67.1206 39.1029 67.1183C39.1008 67.1159 39.0991 67.1132 39.0981 67.1102C39.097 67.1073 39.0966 67.1041 39.0967 67.1009C39.0969 67.0978 39.0976 67.0947 39.099 67.0919C39.1004 67.089 39.1023 67.0864 39.1046 67.0843C39.107 67.0822 39.1097 67.0806 39.1127 67.0795C39.1156 67.0785 39.1188 67.078 39.122 67.0782V67.0782Z" fill="#455A64"/>
<path d="M29.2292 28.7541C28.8056 28.9161 28.4315 29.1854 28.1439 29.5355C27.8563 29.8856 27.6651 30.3045 27.589 30.7508C27.5128 31.3281 27.3608 31.8929 27.1368 32.4307C26.8517 32.961 26.4894 33.4462 26.0618 33.8706C25.4125 34.5738 24.9435 35.2865 24.7872 36.2705C24.5984 37.3101 24.6287 38.3775 24.8762 39.4047C24.8762 39.4047 24.8762 39.4047 24.8762 39.4047C24.6855 38.3239 24.7191 37.2155 24.9748 36.1481C25.2297 35.0705 25.8935 34.425 26.5789 33.6378C27.125 33.0272 27.4963 32.2811 27.6539 31.4779C27.7477 30.986 27.7742 30.4676 28.005 30.014C28.2816 29.4692 28.7795 29.1452 29.2725 28.8597C29.2822 28.8515 29.289 28.8404 29.292 28.8281C29.295 28.8158 29.294 28.8029 29.2892 28.7912C29.2844 28.7795 29.276 28.7696 29.2653 28.7629C29.2545 28.7562 29.2418 28.7531 29.2292 28.7541V28.7541Z" fill="#183C4F"/>
<path d="M37.6759 35.0638C37.1251 34.2454 36.5431 33.5423 36.2545 32.5511C35.9924 31.6488 35.8697 30.7056 35.6004 29.8033C35.6004 29.7889 35.5739 29.8033 35.5787 29.8033C35.9779 31.3992 35.9731 32.9855 36.9015 34.363C37.4041 35.1118 37.9115 35.803 38.2194 36.6909C38.5294 37.6129 38.6601 38.5855 38.6042 39.5564C38.6042 39.59 38.6475 39.5924 38.6547 39.5564C38.9022 37.9894 38.553 36.3868 37.6759 35.0638Z" fill="#183C4F"/>
<path d="M30.9534 40.7105C31.7254 45.3303 34.8182 51.1668 35.559 51.5244C36.8721 52.1579 45.6599 52.8395 46.0038 52.8083C46.8648 52.7267 47.9278 46.9814 47.2063 46.391C47.0428 46.259 38.6951 46.1966 38.3416 46.091C37.9063 45.9615 35.8476 42.9976 33.712 39.981C32.2257 37.8619 30.5446 38.2459 30.9534 40.7105Z" fill="#3D8BC5"/>
<path d="M44.9414 52.5166C45.7664 52.8619 46.6132 53.1529 47.4763 53.3877C48.1665 53.5437 50.1579 53.9397 50.4056 53.2029C50.5763 52.6989 49.4436 52.327 48.6283 52.0462C48.205 51.8998 47.6663 51.4966 47.7769 51.2254C47.9621 50.7454 49.054 51.1534 49.7755 51.5182C51.1752 52.2238 53.0583 53.5293 53.8447 52.7973C54.1405 52.519 53.7509 52.0774 53.1929 51.6382C54.0852 52.1182 55.0304 52.5142 55.3719 52.219C55.4598 52.1435 55.5155 52.0374 55.5276 51.9223C55.5397 51.8071 55.5072 51.6918 55.4368 51.5998C55.5484 51.6436 55.6705 51.6536 55.7877 51.6284C55.905 51.6032 56.0121 51.544 56.0958 51.4582C56.3579 51.1486 56.1968 50.7382 55.8553 50.3015C55.9068 50.2919 55.9554 50.2704 55.9972 50.2387C56.0389 50.207 56.0727 50.1661 56.0958 50.1191C56.6369 49.1831 53.5176 46.7593 52.4883 46.5865C49.4291 46.0465 46.2353 46.4953 46.2353 46.4953C45.1074 47.5104 44.939 52.5142 44.9414 52.5166Z" fill="#EB9481"/>
<path d="M49.2127 49.4494C49.9392 49.5122 50.6425 49.736 51.2713 50.1046C52.0049 50.5462 52.6013 51.1725 53.2843 51.6789C53.3036 51.6933 53.2843 51.7221 53.2627 51.7077C52.9404 51.4437 52.5893 51.2109 52.255 50.959C51.9207 50.707 51.6104 50.455 51.2689 50.239C50.6518 49.8278 49.9483 49.5634 49.2127 49.4662C49.2127 49.4662 49.2055 49.447 49.2127 49.4494Z" fill="#263238"/>
<path d="M49.7004 48.1409C50.5175 48.2824 51.3178 48.5076 52.0886 48.8129C52.9183 49.1752 53.5893 49.8064 54.253 50.4136C54.6475 50.776 55.0347 51.1503 55.4123 51.5319C55.4291 51.5463 55.4123 51.5751 55.3906 51.5583C54.722 50.9312 54.0358 50.3248 53.3319 49.7392C52.6817 49.1906 51.9288 48.7762 51.1169 48.5201C50.6528 48.3737 50.179 48.2633 49.7052 48.1529C49.6884 48.1529 49.6908 48.1385 49.7004 48.1409Z" fill="#263238"/>
<path d="M50.4819 46.9688C51.2611 47.0815 51.9417 47.1775 52.6464 47.5495C53.4423 48.0166 54.1767 48.5809 54.8325 49.2294C55.1917 49.5702 55.5412 49.9198 55.8811 50.2782C55.8931 50.2926 55.8691 50.3166 55.8546 50.3022C55.0733 49.522 54.2427 48.7925 53.3679 48.1183C52.9568 47.7897 52.4966 47.5274 52.0043 47.3407C51.5071 47.1792 50.997 47.0604 50.4795 46.9855C50.4795 46.9855 50.4795 46.9688 50.4819 46.9688Z" fill="#263238"/>
<path d="M45.1692 48.7269V53.0466C45.1692 53.0466 37.8676 52.7491 35.5228 51.7387C34.2625 51.1939 31.0519 43.1184 30.6142 40.5337C30.1837 37.9898 31.1914 36.4827 33.7984 39.4345C35.7969 41.6976 38.731 45.7798 38.9643 45.8926C39.1976 46.0054 45.1788 45.5662 45.1788 45.5662V48.7221" fill="#0190FF"/>
<path d="M31.1705 42.3028C31.1705 42.3636 31.1502 42.4227 31.1127 42.4708C31.067 42.3244 31.0214 42.1804 30.9805 42.0412C31.0359 42.059 31.0841 42.094 31.1183 42.141C31.1524 42.188 31.1707 42.2447 31.1705 42.3028ZM34.6577 42.0244C34.6025 42.0244 34.5486 42.0407 34.5027 42.0713C34.4568 42.1019 34.4211 42.1454 34.4 42.1962C34.3788 42.2471 34.3733 42.3031 34.3841 42.3571C34.3948 42.4111 34.4214 42.4607 34.4604 42.4996C34.4994 42.5385 34.5492 42.5651 34.6033 42.5758C34.6574 42.5865 34.7135 42.581 34.7645 42.56C34.8154 42.5389 34.859 42.5032 34.8897 42.4574C34.9203 42.4116 34.9367 42.3578 34.9367 42.3028C34.936 42.2291 34.9065 42.1587 34.8543 42.1066C34.8021 42.0545 34.7315 42.025 34.6577 42.0244ZM32.7746 39.1445C32.7194 39.1445 32.6655 39.1609 32.6196 39.1914C32.5737 39.222 32.538 39.2655 32.5168 39.3164C32.4957 39.3672 32.4902 39.4232 32.501 39.4772C32.5117 39.5312 32.5383 39.5808 32.5773 39.6198C32.6163 39.6587 32.666 39.6852 32.7202 39.696C32.7743 39.7067 32.8304 39.7012 32.8814 39.6801C32.9323 39.659 32.9759 39.6234 33.0066 39.5776C33.0372 39.5318 33.0536 39.478 33.0536 39.4229C33.0517 39.3503 33.0215 39.2814 32.9693 39.2307C32.9172 39.18 32.8473 39.1517 32.7746 39.1517V39.1445ZM34.6577 47.6065C34.6018 47.606 34.5471 47.6221 34.5005 47.6528C34.4538 47.6835 34.4174 47.7273 34.3958 47.7787C34.3742 47.8301 34.3684 47.8868 34.3792 47.9415C34.39 47.9961 34.4168 48.0464 34.4563 48.0858C34.4958 48.1252 34.5462 48.152 34.601 48.1628C34.6558 48.1735 34.7126 48.1678 34.7641 48.1462C34.8156 48.1247 34.8595 48.0883 34.8903 48.0418C34.921 47.9952 34.9371 47.9406 34.9367 47.8849C34.936 47.8112 34.9065 47.7408 34.8543 47.6887C34.8021 47.6366 34.7315 47.6071 34.6577 47.6065V47.6065ZM38.4215 47.6065C38.3657 47.6065 38.3113 47.623 38.2649 47.654C38.2186 47.6849 38.1825 47.7289 38.1613 47.7804C38.1401 47.8318 38.1347 47.8884 38.1457 47.9429C38.1568 47.9975 38.1838 48.0475 38.2234 48.0867C38.263 48.1258 38.3134 48.1524 38.3681 48.163C38.4228 48.1735 38.4795 48.1676 38.5309 48.146C38.5822 48.1244 38.626 48.088 38.6566 48.0415C38.6873 47.995 38.7034 47.9405 38.7029 47.8849C38.7029 47.8481 38.6956 47.8117 38.6814 47.7778C38.6673 47.7439 38.6465 47.7131 38.6203 47.6872C38.5942 47.6613 38.5631 47.6408 38.529 47.627C38.4949 47.6131 38.4583 47.6062 38.4215 47.6065V47.6065ZM42.1877 47.6065C42.1319 47.606 42.0771 47.6221 42.0305 47.6528C41.9838 47.6835 41.9474 47.7273 41.9258 47.7787C41.9042 47.8301 41.8984 47.8868 41.9092 47.9415C41.92 47.9961 41.9469 48.0464 41.9864 48.0858C42.0258 48.1252 42.0762 48.152 42.131 48.1628C42.1858 48.1735 42.2426 48.1678 42.2941 48.1462C42.3456 48.1247 42.3895 48.0883 42.4203 48.0418C42.451 47.9952 42.4672 47.9406 42.4667 47.8849C42.4667 47.811 42.4373 47.7402 42.385 47.688C42.3327 47.6358 42.2617 47.6065 42.1877 47.6065ZM32.7746 44.7266C32.7187 44.7262 32.664 44.7423 32.6174 44.773C32.5707 44.8036 32.5343 44.8475 32.5127 44.8989C32.4911 44.9503 32.4853 45.0069 32.4961 45.0616C32.5069 45.1163 32.5337 45.1665 32.5732 45.206C32.6127 45.2454 32.6631 45.2722 32.7179 45.2829C32.7727 45.2937 32.8295 45.2879 32.881 45.2664C32.9325 45.2448 32.9764 45.2085 33.0071 45.1619C33.0379 45.1154 33.054 45.0608 33.0536 45.005C33.0536 44.9312 33.0242 44.8604 32.9719 44.8082C32.9195 44.756 32.8486 44.7266 32.7746 44.7266V44.7266ZM36.5408 44.7266C36.4849 44.7262 36.4302 44.7423 36.3836 44.773C36.3369 44.8036 36.3005 44.8475 36.2789 44.8989C36.2573 44.9503 36.2515 45.0069 36.2623 45.0616C36.2731 45.1163 36.2999 45.1665 36.3394 45.206C36.3789 45.2454 36.4293 45.2722 36.4841 45.2829C36.5389 45.2937 36.5957 45.2879 36.6472 45.2664C36.6987 45.2448 36.7426 45.2085 36.7734 45.1619C36.8041 45.1154 36.8203 45.0608 36.8198 45.005C36.8198 44.9312 36.7904 44.8604 36.7381 44.8082C36.6858 44.756 36.6148 44.7266 36.5408 44.7266V44.7266ZM36.5408 50.304C36.485 50.3035 36.4304 50.3195 36.3838 50.3501C36.3372 50.3807 36.3008 50.4244 36.2791 50.4756C36.2575 50.5269 36.2515 50.5834 36.2621 50.638C36.2727 50.6927 36.2993 50.7429 36.3386 50.7824C36.3778 50.8219 36.428 50.8489 36.4826 50.8599C36.5373 50.871 36.594 50.8656 36.6455 50.8444C36.6971 50.8232 36.7412 50.7872 36.7722 50.741C36.8032 50.6948 36.8198 50.6404 36.8198 50.5847C36.8192 50.5111 36.7896 50.4407 36.7374 50.3886C36.6852 50.3365 36.6146 50.307 36.5408 50.3064V50.304ZM40.3046 50.304C40.249 50.304 40.1946 50.3204 40.1483 50.3513C40.102 50.3821 40.0659 50.426 40.0446 50.4773C40.0233 50.5286 40.0178 50.5851 40.0286 50.6395C40.0395 50.694 40.0663 50.744 40.1056 50.7833C40.145 50.8226 40.1951 50.8493 40.2497 50.8601C40.3043 50.871 40.3609 50.8654 40.4123 50.8441C40.4637 50.8229 40.5077 50.7869 40.5386 50.7407C40.5695 50.6946 40.586 50.6403 40.586 50.5847C40.586 50.548 40.5787 50.5116 40.5645 50.4776C40.5504 50.4437 40.5296 50.4129 40.5034 50.387C40.4773 50.3612 40.4462 50.3407 40.4121 50.3269C40.378 50.313 40.3414 50.306 40.3046 50.3064V50.304ZM44.0708 50.304C44.0151 50.3035 43.9604 50.3195 43.9138 50.3501C43.8673 50.3807 43.8308 50.4244 43.8091 50.4756C43.7875 50.5269 43.7816 50.5834 43.7921 50.638C43.8027 50.6927 43.8293 50.7429 43.8686 50.7824C43.9079 50.8219 43.958 50.8489 44.0126 50.8599C44.0673 50.871 44.124 50.8656 44.1755 50.8444C44.2271 50.8232 44.2712 50.7872 44.3022 50.741C44.3332 50.6948 44.3498 50.6404 44.3498 50.5847C44.3498 50.5109 44.3204 50.4401 44.2681 50.3879C44.2158 50.3357 44.1448 50.3064 44.0708 50.3064V50.304Z" fill="white"/>
<path d="M43.6082 49.1678C43.6082 48.6399 43.625 48.1143 43.6371 47.5863C43.6491 47.0583 43.6371 46.5304 43.6948 46.0072C43.6948 45.9832 43.7357 45.9808 43.7381 46.0072C43.7838 46.5136 43.7717 47.0295 43.7814 47.5383C43.791 48.0471 43.7814 48.6159 43.7958 49.1534C43.7958 50.219 43.7645 51.2821 43.7092 52.3453C43.7092 52.3717 43.6707 52.3669 43.6707 52.3453C43.625 51.2821 43.5962 50.2262 43.6082 49.1678Z" fill="#263238"/>
<path opacity="0.1" d="M41.1539 52.7725C39.0519 52.5709 36.6782 52.2469 35.519 51.7477C34.2564 51.203 31.0481 43.1274 30.6128 40.5403C30.3723 39.1148 30.5791 38.0132 31.2742 37.8477L41.1539 52.7725Z" fill="black"/>
<path d="M34.595 49.4702L34.8355 53.9315H19.4604C19.4604 53.9315 23.8423 41.3178 26.7981 38.6515C28.7966 36.8492 30.9178 37.1924 32.1516 38.6947C32.4642 39.0739 35.6773 43.5449 35.9202 45.6544C36.1366 47.5071 34.595 49.4702 34.595 49.4702Z" fill="#0190FF"/>
<path d="M34.7301 51.9216C34.6483 51.1056 34.581 50.2873 34.5232 49.4713V49.4449L34.5425 49.4185C34.9596 48.8644 35.2964 48.2545 35.543 47.6066C35.663 47.2835 35.7492 46.949 35.8003 46.6082C35.8584 46.271 35.8624 45.9268 35.8123 45.5883C35.7654 45.2461 35.6848 44.9092 35.5718 44.5827C35.4635 44.2518 35.3383 43.9266 35.1966 43.6084C34.9067 42.9697 34.5807 42.348 34.2202 41.7461C34.6357 42.3164 35.0018 42.9209 35.3145 43.5532C35.6465 44.1828 35.8801 44.8594 36.0071 45.5595C36.1051 46.2761 36.0105 47.0057 35.733 47.6738C35.4767 48.3396 35.1154 48.9602 34.6627 49.5121L34.6796 49.4617C34.6988 50.2825 34.7229 51.1008 34.7301 51.9216Z" fill="#263238"/>
<path d="M34.9517 42.3867C35.1003 42.6416 35.2205 42.912 35.31 43.1931C35.3553 43.334 35.3923 43.4774 35.4206 43.6227C35.4518 43.7685 35.464 43.9177 35.4567 44.0666C35.3677 43.7834 35.2691 43.5123 35.1801 43.2363C35.0876 42.9577 35.0114 42.6741 34.9517 42.3867V42.3867Z" fill="#263238"/>
<path d="M27.4064 42.3034C27.4069 42.359 27.3908 42.4135 27.3601 42.46C27.3295 42.5065 27.2857 42.5429 27.2344 42.5645C27.183 42.5861 27.1263 42.592 27.0716 42.5815C27.0168 42.5709 26.9665 42.5444 26.9269 42.5052C26.8873 42.466 26.8603 42.416 26.8492 42.3615C26.8382 42.3069 26.8436 42.2503 26.8648 42.1989C26.886 42.1475 26.9221 42.1035 26.9684 42.0725C27.0147 42.0415 27.0692 42.025 27.125 42.025C27.1618 42.0247 27.1984 42.0317 27.2325 42.0455C27.2666 42.0593 27.2977 42.0798 27.3238 42.1057C27.35 42.1316 27.3707 42.1624 27.3849 42.1963C27.3991 42.2302 27.4064 42.2666 27.4064 42.3034V42.3034ZM30.8912 42.025C30.836 42.025 30.7821 42.0413 30.7362 42.0719C30.6903 42.1025 30.6546 42.146 30.6335 42.1969C30.6123 42.2477 30.6068 42.3037 30.6176 42.3577C30.6284 42.4117 30.6549 42.4613 30.6939 42.5002C30.733 42.5392 30.7827 42.5657 30.8368 42.5764C30.8909 42.5872 30.947 42.5817 30.998 42.5606C31.0489 42.5395 31.0925 42.5038 31.1232 42.4581C31.1538 42.4123 31.1702 42.3584 31.1702 42.3034C31.1702 42.2668 31.163 42.2306 31.1489 42.1969C31.1349 42.1631 31.1144 42.1324 31.0885 42.1065C31.0626 42.0807 31.0318 42.0602 30.998 42.0462C30.9641 42.0322 30.9278 42.025 30.8912 42.025V42.025ZM34.4338 42.1354C34.3963 42.1834 34.376 42.2425 34.376 42.3034C34.3767 42.3774 34.4066 42.4482 34.4593 42.5004C34.512 42.5525 34.5832 42.5818 34.6574 42.5818H34.6767C34.6045 42.4306 34.5203 42.2818 34.4362 42.1354H34.4338ZM29.0081 39.1524C28.953 39.1528 28.8993 39.1696 28.8538 39.2004C28.8082 39.2313 28.7728 39.2749 28.7521 39.3259C28.7313 39.3768 28.7262 39.4327 28.7372 39.4865C28.7482 39.5403 28.775 39.5897 28.8141 39.6284C28.8532 39.6671 28.9029 39.6934 28.957 39.7039C29.011 39.7145 29.067 39.7088 29.1178 39.6877C29.1687 39.6666 29.2121 39.6309 29.2426 39.5851C29.2732 39.5394 29.2895 39.4857 29.2895 39.4307C29.2895 39.394 29.2822 39.3576 29.268 39.3236C29.2539 39.2897 29.2331 39.2589 29.2069 39.233C29.1808 39.2072 29.1497 39.1867 29.1156 39.1728C29.0815 39.159 29.0449 39.152 29.0081 39.1524V39.1524ZM32.5675 39.2459C32.5205 39.296 32.4947 39.3622 32.4953 39.4307C32.4953 39.5046 32.5247 39.5754 32.577 39.6276C32.6294 39.6798 32.7003 39.7091 32.7743 39.7091C32.8097 39.709 32.8447 39.7025 32.8777 39.6899C32.7647 39.5243 32.6613 39.3755 32.5675 39.2459V39.2459ZM23.3732 47.6071C23.3174 47.6066 23.2626 47.6228 23.216 47.6534C23.1693 47.6841 23.1329 47.7279 23.1113 47.7793C23.0897 47.8307 23.0839 47.8874 23.0947 47.9421C23.1055 47.9968 23.1324 48.047 23.1719 48.0864C23.2113 48.1258 23.2617 48.1526 23.3165 48.1634C23.3713 48.1742 23.4281 48.1684 23.4796 48.1468C23.5311 48.1253 23.575 48.0889 23.6058 48.0424C23.6365 47.9959 23.6527 47.9412 23.6522 47.8855C23.6522 47.8117 23.6228 47.7409 23.5705 47.6887C23.5182 47.6364 23.4472 47.6071 23.3732 47.6071ZM27.137 47.6071C27.0813 47.6071 27.0268 47.6236 26.9804 47.6546C26.9341 47.6856 26.8981 47.7296 26.8768 47.781C26.8556 47.8325 26.8502 47.889 26.8612 47.9436C26.8723 47.9981 26.8993 48.0481 26.9389 48.0873C26.9785 48.1265 27.0289 48.153 27.0836 48.1636C27.1384 48.1741 27.195 48.1682 27.2464 48.1466C27.2977 48.125 27.3415 48.0886 27.3722 48.0421C27.4028 47.9957 27.4189 47.9411 27.4184 47.8855C27.4185 47.8477 27.4108 47.8103 27.3959 47.7755C27.381 47.7408 27.3591 47.7094 27.3317 47.6834C27.3042 47.6573 27.2717 47.6371 27.2362 47.624C27.2007 47.6109 27.1628 47.6052 27.125 47.6071H27.137ZM30.9032 47.6071C30.8474 47.6066 30.7926 47.6228 30.746 47.6534C30.6994 47.6841 30.6629 47.7279 30.6413 47.7793C30.6197 47.8307 30.614 47.8874 30.6247 47.9421C30.6355 47.9968 30.6624 48.047 30.7019 48.0864C30.7414 48.1258 30.7917 48.1526 30.8465 48.1634C30.9013 48.1742 30.9581 48.1684 31.0096 48.1468C31.0611 48.1253 31.1051 48.0889 31.1358 48.0424C31.1665 47.9959 31.1827 47.9412 31.1822 47.8855C31.1822 47.8479 31.1747 47.8107 31.1599 47.7761C31.1451 47.7415 31.1235 47.7103 31.0963 47.6843C31.0691 47.6583 31.0369 47.638 31.0017 47.6248C30.9664 47.6115 30.9288 47.6055 30.8912 47.6071H30.9032ZM34.6694 47.6071C34.6136 47.6066 34.5589 47.6228 34.5122 47.6534C34.4656 47.6841 34.4291 47.7279 34.4075 47.7793C34.3859 47.8307 34.3802 47.8874 34.391 47.9421C34.4017 47.9968 34.4286 48.047 34.4681 48.0864C34.5076 48.1258 34.5579 48.1526 34.6127 48.1634C34.6675 48.1742 34.7243 48.1684 34.7758 48.1468C34.8274 48.1253 34.8713 48.0889 34.902 48.0424C34.9327 47.9959 34.9489 47.9412 34.9484 47.8855C34.9481 47.848 34.9403 47.811 34.9254 47.7765C34.9105 47.7421 34.8889 47.711 34.8618 47.685C34.8347 47.6591 34.8026 47.6388 34.7675 47.6255C34.7324 47.6121 34.695 47.6058 34.6574 47.6071H34.6694ZM25.2563 44.7273C25.2005 44.7268 25.1457 44.7429 25.0991 44.7736C25.0525 44.8043 25.016 44.8481 24.9944 44.8995C24.9728 44.9509 24.9671 45.0075 24.9778 45.0622C24.9886 45.1169 25.0155 45.1672 25.055 45.2066C25.0945 45.246 25.1448 45.2728 25.1996 45.2835C25.2544 45.2943 25.3112 45.2885 25.3627 45.267C25.4142 45.2454 25.4581 45.2091 25.4889 45.1625C25.5196 45.116 25.5358 45.0614 25.5353 45.0057C25.5353 44.9681 25.5277 44.9309 25.513 44.8963C25.4982 44.8617 25.4766 44.8304 25.4494 44.8044C25.4222 44.7784 25.39 44.7582 25.3548 44.7449C25.3195 44.7316 25.2819 44.7256 25.2443 44.7273H25.2563ZM29.0201 44.7273C28.9644 44.7273 28.9099 44.7438 28.8635 44.7748C28.8172 44.8057 28.7812 44.8497 28.7599 44.9012C28.7387 44.9526 28.7333 45.0092 28.7443 45.0637C28.7554 45.1182 28.7824 45.1683 28.822 45.2074C28.8616 45.2466 28.912 45.2732 28.9667 45.2837C29.0215 45.2943 29.0781 45.2884 29.1295 45.2668C29.1809 45.2451 29.2246 45.2088 29.2553 45.1623C29.2859 45.1158 29.302 45.0613 29.3015 45.0057C29.3016 44.9678 29.2939 44.9304 29.279 44.8957C29.2641 44.8609 29.2422 44.8296 29.2148 44.8035C29.1873 44.7775 29.1548 44.7573 29.1193 44.7442C29.0838 44.7311 29.0459 44.7253 29.0081 44.7273H29.0201ZM32.7863 44.7273C32.7305 44.7268 32.6758 44.7429 32.6291 44.7736C32.5825 44.8043 32.546 44.8481 32.5244 44.8995C32.5028 44.9509 32.4971 45.0075 32.5079 45.0622C32.5186 45.1169 32.5455 45.1672 32.585 45.2066C32.6245 45.246 32.6748 45.2728 32.7296 45.2835C32.7844 45.2943 32.8412 45.2885 32.8927 45.267C32.9442 45.2454 32.9882 45.2091 33.0189 45.1625C33.0496 45.116 33.0658 45.0614 33.0653 45.0057C33.0654 44.9681 33.0578 44.9309 33.043 44.8963C33.0282 44.8617 33.0066 44.8304 32.9794 44.8044C32.9522 44.7784 32.92 44.7582 32.8848 44.7449C32.8495 44.7316 32.8119 44.7256 32.7743 44.7273H32.7863ZM19.7321 53.2084L19.5469 53.7292C19.5668 53.7317 19.587 53.7317 19.607 53.7292C19.6701 53.7295 19.7314 53.7085 19.781 53.6696C19.8306 53.6307 19.8655 53.5761 19.88 53.5149C19.8945 53.4536 19.8878 53.3892 19.8609 53.3323C19.834 53.2753 19.7886 53.2291 19.7321 53.2012V53.2084ZM23.3732 53.1772C23.3174 53.1768 23.2626 53.1929 23.216 53.2235C23.1693 53.2542 23.1329 53.298 23.1113 53.3494C23.0897 53.4008 23.0839 53.4575 23.0947 53.5122C23.1055 53.5669 23.1324 53.6171 23.1719 53.6565C23.2113 53.696 23.2617 53.7227 23.3165 53.7335C23.3713 53.7443 23.4281 53.7385 23.4796 53.717C23.5311 53.6954 23.575 53.659 23.6058 53.6125C23.6365 53.566 23.6527 53.5113 23.6522 53.4556C23.6516 53.3822 23.6219 53.312 23.5696 53.2603C23.5174 53.2086 23.4468 53.1796 23.3732 53.1796V53.1772ZM27.137 53.1772C27.0813 53.1772 27.0268 53.1938 26.9804 53.2247C26.9341 53.2557 26.8981 53.2997 26.8768 53.3511C26.8556 53.4026 26.8502 53.4592 26.8612 53.5137C26.8723 53.5682 26.8993 53.6182 26.9389 53.6574C26.9785 53.6966 27.0289 53.7231 27.0836 53.7337C27.1384 53.7443 27.195 53.7383 27.2464 53.7167C27.2977 53.6951 27.3415 53.6587 27.3722 53.6123C27.4028 53.5658 27.4189 53.5112 27.4184 53.4556C27.4181 53.418 27.4102 53.3809 27.3952 53.3464C27.3801 53.3119 27.3582 53.2809 27.3308 53.2551C27.3034 53.2293 27.271 53.2093 27.2356 53.1963C27.2003 53.1834 27.1626 53.1777 27.125 53.1796L27.137 53.1772ZM30.9032 53.1772C30.8474 53.1768 30.7926 53.1929 30.746 53.2235C30.6994 53.2542 30.6629 53.298 30.6413 53.3494C30.6197 53.4008 30.614 53.4575 30.6247 53.5122C30.6355 53.5669 30.6624 53.6171 30.7019 53.6565C30.7414 53.696 30.7917 53.7227 30.8465 53.7335C30.9013 53.7443 30.9581 53.7385 31.0096 53.717C31.0611 53.6954 31.1051 53.659 31.1358 53.6125C31.1665 53.566 31.1827 53.5113 31.1822 53.4556C31.1819 53.4182 31.1741 53.3813 31.1592 53.347C31.1443 53.3127 31.1226 53.2817 31.0954 53.256C31.0683 53.2302 31.0362 53.2102 31.0011 53.1971C30.966 53.1839 30.9286 53.178 30.8912 53.1796L30.9032 53.1772ZM34.8161 53.2204C34.7726 53.1918 34.7216 53.1768 34.6694 53.1772C34.6305 53.1736 34.5912 53.1782 34.5541 53.1906C34.5169 53.203 34.4828 53.223 34.4539 53.2493C34.425 53.2756 34.4019 53.3077 34.3861 53.3434C34.3702 53.3791 34.3621 53.4178 34.3621 53.4568C34.3621 53.4959 34.3702 53.5345 34.3861 53.5702C34.4019 53.606 34.425 53.638 34.4539 53.6643C34.4828 53.6906 34.5169 53.7106 34.5541 53.723C34.5912 53.7355 34.6305 53.74 34.6694 53.7364C34.7317 53.7371 34.7921 53.7158 34.8402 53.6764L34.8161 53.2204ZM21.4901 50.3046C21.4344 50.3041 21.3797 50.3202 21.3331 50.3507C21.2865 50.3813 21.2501 50.425 21.2284 50.4762C21.2068 50.5275 21.2009 50.584 21.2114 50.6387C21.222 50.6933 21.2486 50.7435 21.2879 50.783C21.3271 50.8226 21.3773 50.8495 21.4319 50.8606C21.4866 50.8716 21.5433 50.8662 21.5948 50.845C21.6464 50.8238 21.6905 50.7878 21.7215 50.7416C21.7525 50.6954 21.7691 50.641 21.7691 50.5854C21.7691 50.5478 21.7615 50.5106 21.7468 50.476C21.732 50.4414 21.7104 50.4102 21.6832 50.3841C21.656 50.3581 21.6238 50.3379 21.5885 50.3246C21.5533 50.3114 21.5157 50.3054 21.4781 50.307L21.4901 50.3046ZM25.2563 50.3046C25.2006 50.3041 25.1459 50.3202 25.0993 50.3507C25.0528 50.3813 25.0163 50.425 24.9946 50.4762C24.973 50.5275 24.9671 50.584 24.9776 50.6387C24.9882 50.6933 25.0148 50.7435 25.0541 50.783C25.0933 50.8226 25.1435 50.8495 25.1981 50.8606C25.2528 50.8716 25.3095 50.8662 25.361 50.845C25.4126 50.8238 25.4567 50.7878 25.4877 50.7416C25.5187 50.6954 25.5353 50.641 25.5353 50.5854C25.535 50.5479 25.5272 50.5108 25.5123 50.4764C25.4974 50.442 25.4758 50.4109 25.4486 50.3849C25.4215 50.359 25.3895 50.3387 25.3544 50.3253C25.3193 50.3119 25.2818 50.3057 25.2443 50.307L25.2563 50.3046ZM29.0201 50.3046C28.9645 50.3046 28.9101 50.321 28.8638 50.3519C28.8175 50.3827 28.7815 50.4266 28.7602 50.4779C28.7389 50.5292 28.7333 50.5857 28.7441 50.6401C28.755 50.6946 28.7818 50.7446 28.8212 50.7839C28.8605 50.8232 28.9106 50.8499 28.9652 50.8608C29.0198 50.8716 29.0764 50.866 29.1278 50.8448C29.1792 50.8235 29.2232 50.7875 29.2541 50.7414C29.285 50.6952 29.3015 50.6409 29.3015 50.5854C29.3016 50.5476 29.2939 50.5101 29.279 50.4754C29.2641 50.4406 29.2422 50.4093 29.2148 50.3832C29.1873 50.3572 29.1548 50.337 29.1193 50.3239C29.0838 50.3108 29.0459 50.305 29.0081 50.307L29.0201 50.3046ZM32.7863 50.3046C32.7306 50.3041 32.6759 50.3202 32.6294 50.3507C32.5828 50.3813 32.5463 50.425 32.5247 50.4762C32.503 50.5275 32.4971 50.584 32.5077 50.6387C32.5183 50.6933 32.5449 50.7435 32.5841 50.783C32.6234 50.8226 32.6735 50.8495 32.7281 50.8606C32.7828 50.8716 32.8395 50.8662 32.8911 50.845C32.9426 50.8238 32.9867 50.7878 33.0177 50.7416C33.0487 50.6954 33.0653 50.641 33.0653 50.5854C33.0654 50.5478 33.0578 50.5106 33.043 50.476C33.0282 50.4414 33.0066 50.4102 32.9794 50.3841C32.9522 50.3581 32.92 50.3379 32.8848 50.3246C32.8495 50.3114 32.8119 50.3054 32.7743 50.307L32.7863 50.3046Z" fill="white"/>
<path d="M32.2091 48.5433C31.4798 48.6072 30.7563 48.7251 30.0446 48.896C29.6959 48.9848 29.3519 49.0904 29.008 49.2032C28.8373 49.2608 28.6641 49.3112 28.491 49.3592C28.3113 49.4158 28.1257 49.4512 27.9378 49.4648C27.9346 49.4648 27.9316 49.4661 27.9293 49.4683C27.927 49.4706 27.9258 49.4736 27.9258 49.4768C27.9258 49.48 27.927 49.483 27.9293 49.4853C27.9316 49.4875 27.9346 49.4888 27.9378 49.4888C28.1155 49.502 28.294 49.502 28.4717 49.4888C28.6431 49.47 28.8128 49.4379 28.9792 49.3928C29.3375 49.3064 29.6886 49.2032 30.0446 49.112C30.7661 48.9272 31.4876 48.7448 32.2091 48.6128C32.25 48.596 32.2427 48.5385 32.2091 48.5433Z" fill="#263238"/>
<path d="M33.9988 49.1846C33.4021 49.1222 32.8023 49.0934 32.2023 49.0982C31.9017 49.0982 31.6034 49.1222 31.3052 49.151L30.8771 49.199C30.7208 49.2182 30.5669 49.2614 30.4106 49.2782C30.3937 49.2782 30.3937 49.3046 30.4106 49.3046C30.5597 49.2926 30.7112 49.3046 30.8603 49.3046L31.31 49.2854C31.6083 49.2854 31.9089 49.2854 32.2071 49.2638C32.8059 49.2446 33.4096 49.2302 34.0036 49.2302C34.0325 49.2326 34.0301 49.187 33.9988 49.1846Z" fill="#263238"/>
<path d="M27.2973 37.9741C21.7273 40.3548 15.1377 46.1193 15.3661 48.1952C15.6211 50.5063 23.62 47.1488 23.5623 46.7984C23.5142 46.5033 25.3035 44.1586 27.86 40.7987C30.4598 37.3645 28.6753 37.3861 27.2973 37.9741Z" fill="#0190FF"/>
<path d="M23.6405 42.3057C23.6405 42.3608 23.6241 42.4146 23.5935 42.4604C23.5628 42.5062 23.5192 42.5419 23.4683 42.5629C23.4173 42.584 23.3612 42.5895 23.3071 42.5788C23.253 42.568 23.2032 42.5415 23.1642 42.5026C23.1252 42.4636 23.0986 42.414 23.0879 42.36C23.0771 42.306 23.0826 42.2501 23.1038 42.1992C23.1249 42.1483 23.1606 42.1048 23.2065 42.0743C23.2524 42.0437 23.3063 42.0273 23.3615 42.0273C23.4355 42.0273 23.5064 42.0567 23.5588 42.1089C23.6111 42.1611 23.6405 42.2319 23.6405 42.3057V42.3057Z" fill="white"/>
<path d="M25.5232 39.4307C25.5237 39.4865 25.5075 39.5411 25.4768 39.5876C25.4461 39.6342 25.4021 39.6705 25.3506 39.6921C25.2991 39.7136 25.2423 39.7194 25.1875 39.7086C25.1327 39.6979 25.0824 39.6711 25.0429 39.6317C25.0034 39.5923 24.9765 39.542 24.9657 39.4873C24.955 39.4326 24.9607 39.376 24.9823 39.3246C25.0039 39.2732 25.0404 39.2293 25.087 39.1987C25.1336 39.168 25.1884 39.1519 25.2442 39.1524C25.3182 39.1524 25.3892 39.1817 25.4415 39.2339C25.4938 39.2861 25.5232 39.3569 25.5232 39.4307Z" fill="white"/>
<path d="M28.905 39.1641C28.8545 39.2673 28.7968 39.3753 28.7294 39.4904C28.714 39.424 28.7233 39.3543 28.7556 39.2943C28.7879 39.2342 28.841 39.1879 28.905 39.1641V39.1641Z" fill="white"/>
<path d="M16.1101 47.876C16.1106 47.9317 16.0945 47.9862 16.0639 48.0327C16.0332 48.0792 15.9895 48.1155 15.9381 48.1372C15.8867 48.1588 15.8301 48.1647 15.7753 48.1541C15.7206 48.1436 15.6702 48.117 15.6306 48.0778C15.591 48.0387 15.564 47.9886 15.5529 47.9341C15.5419 47.8796 15.5473 47.823 15.5685 47.7716C15.5898 47.7201 15.6258 47.6761 15.6722 47.6452C15.7185 47.6142 15.773 47.5977 15.8287 47.5977C15.9029 47.5977 15.9742 47.6269 16.0269 47.679C16.0796 47.7312 16.1095 47.802 16.1101 47.876Z" fill="white"/>
<path d="M19.8734 47.876C19.8734 47.9311 19.857 47.9849 19.8264 48.0307C19.7957 48.0765 19.7521 48.1122 19.7012 48.1332C19.6502 48.1543 19.5941 48.1598 19.54 48.1491C19.4859 48.1383 19.4362 48.1118 19.3971 48.0729C19.3581 48.034 19.3316 47.9844 19.3208 47.9304C19.31 47.8764 19.3156 47.8204 19.3367 47.7695C19.3578 47.7186 19.3935 47.6752 19.4394 47.6446C19.4853 47.614 19.5392 47.5977 19.5944 47.5977C19.6682 47.5983 19.7388 47.6278 19.791 47.6799C19.8432 47.732 19.8728 47.8024 19.8734 47.876V47.876Z" fill="white"/>
<path d="M17.9934 45.0049C17.9939 45.0606 17.9778 45.1151 17.9472 45.1616C17.9165 45.2081 17.8728 45.2444 17.8214 45.2661C17.77 45.2877 17.7134 45.2936 17.6586 45.283C17.6039 45.2725 17.5535 45.2459 17.5139 45.2067C17.4743 45.1676 17.4473 45.1175 17.4362 45.063C17.4252 45.0085 17.4306 44.9519 17.4519 44.9005C17.4731 44.849 17.5091 44.805 17.5555 44.7741C17.6018 44.7431 17.6563 44.7266 17.712 44.7266C17.7863 44.7266 17.8575 44.7558 17.9102 44.808C17.9629 44.8601 17.9928 44.9309 17.9934 45.0049Z" fill="white"/>
<path d="M21.7572 45.0049C21.7572 45.06 21.7408 45.1138 21.7102 45.1596C21.6795 45.2054 21.6359 45.2411 21.585 45.2621C21.534 45.2832 21.4779 45.2887 21.4238 45.278C21.3697 45.2672 21.3199 45.2407 21.2809 45.2018C21.2419 45.1629 21.2153 45.1133 21.2046 45.0593C21.1938 45.0053 21.1993 44.9493 21.2205 44.8984C21.2416 44.8475 21.2773 44.8041 21.3232 44.7735C21.3691 44.7429 21.423 44.7266 21.4782 44.7266C21.5522 44.7266 21.6231 44.7559 21.6755 44.8081C21.7278 44.8603 21.7572 44.9311 21.7572 45.0049Z" fill="white"/>
<path d="M15.3668 48.1933C15.7347 49.818 18.0507 51.0443 23.5894 54.6729C24.3566 55.1745 29.3614 50.7299 28.5725 50.1516C27.5769 49.4316 23.5509 46.8133 23.2335 46.6573C20.5471 45.3614 15.1166 47.0893 15.3668 48.1933Z" fill="#EB9481"/>
<path d="M27.4811 49.3828C27.4811 49.3828 29.8741 50.8059 30.8986 51.9435C31.9348 53.1515 32.6611 54.5928 33.015 56.1433C33.4046 57.8232 33.1858 62.1262 31.9304 62.2798C30.7952 62.4189 31.2401 58.0248 31.2401 58.0248C31.2401 58.0248 31.5263 62.5845 30.1266 62.4957C28.7269 62.4069 29.5374 57.3408 29.5374 57.3408C29.5374 57.3408 29.7274 62.0278 28.2964 61.7134C27.2166 61.4734 27.6904 56.8416 27.6904 56.8416C27.6904 56.8416 27.825 60.871 26.7043 60.6814C25.4657 60.463 25.6341 56.1577 25.6341 56.1577C22.8684 55.1809 21.9521 53.5874 21.435 52.3755C21.3099 52.0779 27.4811 49.3828 27.4811 49.3828Z" fill="#BEBEFF"/>
<path d="M31.2438 56.4465C31.2943 56.9817 31.352 57.5216 31.3568 58.0592C31.3616 58.5968 31.3568 59.132 31.3039 59.6671C31.2583 60.3677 31.1332 61.0609 30.9312 61.7334C31.2053 60.5143 31.2149 58.592 31.2101 58.0544C31.2053 57.5168 31.227 56.9841 31.2101 56.4465C31.2222 56.4345 31.2414 56.4345 31.2438 56.4465Z" fill="#263238"/>
<path d="M29.3012 56.4273C29.3372 57.1113 29.4022 57.788 29.4094 58.4768C29.4166 59.1656 29.3637 59.8087 29.3252 60.4903C29.3252 60.5431 29.294 60.5239 29.294 60.4711C29.3084 59.7871 29.2651 59.156 29.2699 58.472C29.2747 57.788 29.3036 57.1065 29.2843 56.4249C29.2843 56.4153 29.2988 56.4153 29.3012 56.4273Z" fill="#263238"/>
<path d="M27.6357 56.1163C27.7203 57.1648 27.6953 58.2192 27.5611 59.2625C27.5611 59.3153 27.5251 59.2865 27.5275 59.2337C27.5707 58.1874 27.614 57.3666 27.5996 56.1139C27.5996 56.0995 27.6333 56.0947 27.6357 56.1163Z" fill="#263238"/>
<path d="M28.7038 49.6046C28.7038 49.6046 21.751 54.2075 21.6836 54.1643C21.6163 54.1211 15.3585 49.8997 15.3657 48.1814C15.3729 46.4631 20.8443 45.5296 23.2276 46.6335C25.611 47.7375 28.7038 49.6046 28.7038 49.6046Z" fill="#0190FF"/>
<path d="M26.5001 48.7328C26.2308 48.872 24.0302 50.4127 23.5588 50.7631C23.0875 51.1135 21.1538 52.5054 20.6945 52.9014C20.6913 52.9025 20.6884 52.9043 20.686 52.9067C20.6836 52.9091 20.6818 52.912 20.6808 52.9152C20.6797 52.9184 20.6794 52.9219 20.6799 52.9252C20.6805 52.9285 20.6818 52.9317 20.6837 52.9345C20.6857 52.9372 20.6883 52.9395 20.6913 52.941C20.6943 52.9426 20.6976 52.9434 20.701 52.9435C20.7044 52.9436 20.7077 52.9428 20.7108 52.9413C20.7138 52.9399 20.7165 52.9377 20.7185 52.935C21.238 52.6302 23.1981 51.2287 23.6863 50.8855C24.1745 50.5423 26.3149 48.9656 26.5266 48.7616C26.553 48.7448 26.529 48.7232 26.5001 48.7328Z" fill="#263238"/>
<path d="M16.1101 47.876C16.1106 47.9317 16.0945 47.9862 16.0639 48.0327C16.0332 48.0792 15.9895 48.1155 15.9381 48.1372C15.8867 48.1588 15.8301 48.1647 15.7753 48.1541C15.7206 48.1436 15.6702 48.117 15.6306 48.0778C15.591 48.0387 15.564 47.9886 15.5529 47.9341C15.5419 47.8796 15.5473 47.823 15.5685 47.7716C15.5898 47.7201 15.6258 47.6761 15.6722 47.6452C15.7185 47.6142 15.773 47.5977 15.8287 47.5977C15.9029 47.5977 15.9742 47.6269 16.0269 47.679C16.0796 47.7312 16.1095 47.802 16.1101 47.876ZM19.5949 47.6025C19.5391 47.602 19.4844 47.6181 19.4377 47.6488C19.3911 47.6794 19.3546 47.7233 19.3331 47.7747C19.3115 47.8261 19.3057 47.8827 19.3165 47.9374C19.3272 47.9921 19.3541 48.0424 19.3936 48.0818C19.4331 48.1212 19.4834 48.148 19.5382 48.1587C19.5931 48.1695 19.6498 48.1637 19.7013 48.1422C19.7529 48.1206 19.7968 48.0843 19.8275 48.0377C19.8582 47.9912 19.8744 47.9366 19.8739 47.8808C19.8739 47.807 19.8445 47.7362 19.7922 47.684C19.7399 47.6318 19.6689 47.6025 19.5949 47.6025ZM23.3732 47.6025C23.3173 47.602 23.2626 47.6181 23.216 47.6488C23.1693 47.6794 23.1329 47.7233 23.1113 47.7747C23.0897 47.8261 23.0839 47.8827 23.0947 47.9374C23.1055 47.9921 23.1323 48.0424 23.1718 48.0818C23.2113 48.1212 23.2617 48.148 23.3165 48.1587C23.3713 48.1695 23.4281 48.1637 23.4796 48.1422C23.5311 48.1206 23.575 48.0843 23.6057 48.0377C23.6365 47.9912 23.6526 47.9366 23.6522 47.8808C23.6522 47.807 23.6228 47.7362 23.5705 47.684C23.5181 47.6318 23.4472 47.6025 23.3732 47.6025ZM17.7239 50.3071C17.6682 50.3071 17.6138 50.3236 17.5675 50.3544C17.5213 50.3853 17.4852 50.4291 17.4639 50.4805C17.4426 50.5318 17.437 50.5882 17.4479 50.6427C17.4587 50.6971 17.4855 50.7472 17.5249 50.7864C17.5642 50.8257 17.6144 50.8525 17.669 50.8633C17.7236 50.8741 17.7801 50.8686 17.8315 50.8473C17.883 50.8261 17.9269 50.7901 17.9578 50.7439C17.9887 50.6977 18.0052 50.6434 18.0052 50.5879C18.0063 50.5495 17.9994 50.5113 17.9849 50.4757C17.9704 50.4401 17.9487 50.4079 17.9212 50.381C17.8936 50.3542 17.8608 50.3334 17.8248 50.3198C17.7887 50.3063 17.7503 50.3003 17.7118 50.3023L17.7239 50.3071ZM21.4901 50.3071C21.4343 50.3066 21.3797 50.3227 21.3331 50.3533C21.2865 50.3838 21.2501 50.4275 21.2284 50.4788C21.2067 50.53 21.2008 50.5866 21.2114 50.6412C21.222 50.6958 21.2486 50.7461 21.2879 50.7856C21.3271 50.8251 21.3772 50.8521 21.4319 50.8631C21.4865 50.8741 21.5432 50.8687 21.5948 50.8475C21.6463 50.8264 21.6904 50.7904 21.7215 50.7441C21.7525 50.6979 21.7691 50.6435 21.7691 50.5879C21.7701 50.5497 21.7632 50.5117 21.7489 50.4763C21.7346 50.4409 21.7131 50.4087 21.6858 50.382C21.6585 50.3552 21.626 50.3343 21.5902 50.3206C21.5545 50.3069 21.5163 50.3007 21.4781 50.3023L21.4901 50.3071ZM25.2563 50.3071C25.2005 50.3066 25.1459 50.3227 25.0993 50.3533C25.0527 50.3838 25.0163 50.4275 24.9946 50.4788C24.973 50.53 24.967 50.5866 24.9776 50.6412C24.9882 50.6958 25.0148 50.7461 25.0541 50.7856C25.0933 50.8251 25.1435 50.8521 25.1981 50.8631C25.2527 50.8741 25.3094 50.8687 25.361 50.8475C25.4126 50.8264 25.4566 50.7904 25.4877 50.7441C25.5187 50.6979 25.5353 50.6435 25.5353 50.5879C25.5359 50.5498 25.5288 50.512 25.5144 50.4767C25.4999 50.4414 25.4785 50.4095 25.4512 50.3827C25.424 50.356 25.3916 50.3351 25.356 50.3213C25.3205 50.3075 25.2824 50.301 25.2443 50.3023L25.2563 50.3071Z" fill="white"/>
<path d="M20.3001 46.1997C20.8749 46.1469 22.4478 46.1181 23.6671 46.8356C23.6815 46.8356 23.6671 46.862 23.6671 46.8548C22.5993 46.3941 20.8701 46.2117 20.3001 46.2213C20.2905 46.2213 20.2857 46.2021 20.3001 46.1997Z" fill="#263238"/>
<path d="M28.2771 49.8911L28.6956 49.5935V49.6223C28.2771 49.3679 27.849 49.1279 27.4282 48.8807C27.0073 48.6335 26.5768 48.4007 26.1487 48.1608C25.2949 47.6808 24.4291 47.2248 23.5489 46.8048L23.4575 46.7616L23.5104 46.6776C24.0732 45.7921 24.6528 44.9209 25.2709 44.0738C25.8793 43.224 26.5303 42.4054 27.2213 41.6211C26.58 42.4467 25.9643 43.2914 25.3743 44.1554C24.7851 45.0169 24.2031 45.8857 23.6547 46.7736L23.6187 46.6464C24.5037 47.0736 25.3647 47.544 26.2136 48.0336C26.6369 48.2736 27.0554 48.5351 27.4738 48.7943C27.8923 49.0535 28.2988 49.3199 28.7076 49.5935L28.7293 49.6079L28.7076 49.6223L28.2771 49.8911Z" fill="#263238"/>
<path d="M25.7783 43.4839C25.8673 43.3879 25.9539 43.2919 26.0477 43.2007C26.1415 43.1095 26.2329 43.0231 26.3315 42.9367C26.5256 42.7636 26.7339 42.607 26.9544 42.4688C26.7894 42.6701 26.6075 42.8572 26.4108 43.0279C26.3122 43.1119 26.2112 43.1959 26.1078 43.2679C26.0048 43.3498 25.8945 43.4221 25.7783 43.4839Z" fill="#263238"/>
<path d="M19.8452 52.8672C20.3788 53.1506 20.8709 53.5059 21.3074 53.9231C21.0413 53.7816 20.7857 53.6212 20.5427 53.4432C20.2963 53.2686 20.0631 53.0761 19.8452 52.8672V52.8672Z" fill="#263238"/>
<path d="M29.0943 38.1577C29.1111 38.5656 29.8158 40.4999 31.0423 40.6199C31.6724 40.6823 31.9755 38.4936 31.9755 38.4936L32.026 38.3352L32.7475 36.1394L29.9216 33.9219C29.9216 33.9219 29.0871 38.0401 29.0943 38.1577Z" fill="#DEDEFF"/>
<path d="M29.626 35.4554C29.8039 36.076 30.1097 36.6528 30.5238 37.1487C30.9379 37.6446 31.4513 38.0487 32.031 38.3352L32.7525 36.1394L29.9218 33.9219C29.9218 33.9219 29.7799 34.6202 29.626 35.4554Z" fill="#263238"/>
<path d="M36.2509 33C36.1379 37.0606 33.6872 37.4494 32.8094 37.4254C32.0133 37.4014 29.3029 37.2214 28.9975 33.1704C28.692 29.1194 30.6184 27.8907 32.4438 27.8451C34.2692 27.7995 36.3591 28.9394 36.2509 33Z" fill="#DEDEFF"/>
<path d="M35.6652 32.0032C35.5741 31.9807 35.4842 31.9535 35.3959 31.9216C35.2973 31.9058 35.2067 31.8576 35.1386 31.7848C35.1208 31.7582 35.1126 31.7265 35.1152 31.6947C35.1178 31.6629 35.1311 31.6329 35.153 31.6096C35.2032 31.5701 35.263 31.5444 35.3263 31.5351C35.3896 31.5258 35.4542 31.5333 35.5137 31.5568C35.6403 31.5881 35.7514 31.6639 35.8264 31.7704C35.8426 31.7959 35.8509 31.8255 35.8504 31.8557C35.8498 31.8859 35.8403 31.9152 35.8231 31.9401C35.8059 31.9649 35.7818 31.9841 35.7537 31.9954C35.7256 32.0066 35.6949 32.0093 35.6652 32.0032V32.0032Z" fill="#183C4F"/>
<path d="M33.0682 31.7991C33.1617 31.7928 33.2549 31.7815 33.3472 31.7655C33.4475 31.7674 33.5456 31.7362 33.6262 31.6767C33.648 31.6534 33.6613 31.6234 33.6639 31.5916C33.6666 31.5598 33.6583 31.528 33.6406 31.5015C33.5986 31.4537 33.5446 31.4179 33.4842 31.3976C33.4238 31.3774 33.3591 31.3735 33.2967 31.3863C33.1657 31.3948 33.0424 31.4512 32.9504 31.5447C32.9309 31.567 32.9183 31.5945 32.9141 31.6238C32.91 31.6532 32.9144 31.6831 32.9268 31.7099C32.9393 31.7368 32.9592 31.7595 32.9843 31.7754C33.0094 31.7912 33.0386 31.7994 33.0682 31.7991V31.7991Z" fill="#183C4F"/>
<path d="M33.5197 32.8672C33.5197 32.8672 33.4981 32.8672 33.4981 32.8912C33.4981 33.1672 33.4307 33.484 33.1758 33.5584V33.5752C33.474 33.5512 33.5558 33.1312 33.5197 32.8672Z" fill="white"/>
<path d="M33.2907 32.5656C32.8482 32.5032 32.7568 33.3912 33.1657 33.4488C33.5745 33.5064 33.6611 32.616 33.2907 32.5656Z" fill="white"/>
<path d="M33.111 32.5924C33.0292 32.6332 32.9426 32.7148 32.8488 32.7148C32.755 32.7148 32.666 32.614 32.6083 32.5156H32.5915C32.5722 32.686 32.6179 32.866 32.7983 32.9116C32.9787 32.9572 33.0989 32.8132 33.1591 32.6452C33.1687 32.6236 33.1446 32.5756 33.111 32.5924Z" fill="white"/>
<path d="M35.0416 32.9766C35.0416 32.9766 35.0609 32.991 35.0609 33.003C35.02 33.2765 35.0224 33.5981 35.2605 33.7229C35.2605 33.7229 35.2605 33.7397 35.2605 33.7373C34.9575 33.6557 34.9599 33.2285 35.0416 32.9766Z" fill="white"/>
<path d="M35.321 32.7269C35.7659 32.7437 35.7033 33.6341 35.2897 33.6197C34.876 33.6053 34.9458 32.7053 35.321 32.7269Z" fill="white"/>
<path d="M35.5017 32.783C35.5691 32.8358 35.634 32.927 35.7158 32.939C35.7975 32.951 35.8937 32.8598 35.9563 32.7734H35.9707C35.9707 32.9438 35.8937 33.1166 35.7302 33.1382C35.5667 33.1598 35.4897 33.0038 35.4512 32.831C35.4464 32.8094 35.4753 32.7638 35.5017 32.783Z" fill="white"/>
<path d="M34.5353 34.1647C34.5353 34.1647 34.5546 34.5823 34.5353 34.7767C34.3493 34.8035 34.1594 34.78 33.9856 34.7086C33.8117 34.6373 33.6602 34.5207 33.5469 34.3711C33.5325 34.3519 33.5613 34.3327 33.5781 34.3447C33.8107 34.5368 34.0992 34.6488 34.4007 34.6639C34.4175 34.6111 34.3429 33.9439 34.3742 33.9439C34.5239 33.9728 34.6693 34.0204 34.8071 34.0855C34.7903 33.2168 34.6363 32.3552 34.6339 31.4912C34.6339 31.4842 34.6367 31.4775 34.6417 31.4726C34.6466 31.4676 34.6534 31.4648 34.6604 31.4648C34.6674 31.4648 34.6741 31.4676 34.6791 31.4726C34.6841 31.4775 34.6868 31.4842 34.6868 31.4912C34.8806 32.4076 34.9821 33.341 34.9899 34.2775C34.9971 34.3879 34.6099 34.2055 34.5353 34.1647Z" fill="#263238"/>
<path d="M34.2722 34.7331C34.1522 34.8574 34.0024 34.9491 33.8369 34.9995C33.7457 35.0243 33.6491 35.0201 33.5604 34.9875C33.368 34.9131 33.3824 34.7307 33.4353 34.5795C33.4643 34.4992 33.5031 34.4226 33.5507 34.3516C33.7442 34.5524 33.997 34.6862 34.2722 34.7331V34.7331Z" fill="#263238"/>
<path d="M33.8369 35.002C33.7457 35.0268 33.6491 35.0226 33.5604 34.99C33.368 34.9156 33.3824 34.7332 33.4353 34.582C33.539 34.5987 33.6344 34.6487 33.707 34.7246C33.7795 34.8004 33.8251 34.8978 33.8369 35.002V35.002Z" fill="#FF9BBC"/>
<path d="M30.1614 28.0896C30.5293 28.0272 31.2292 26.1697 30.1445 25.0202C29.0599 23.8707 27.2417 24.5906 27.6145 26.2921C27.8502 27.3673 29.3846 28.2192 30.1614 28.0896Z" fill="#183C4F"/>
<path d="M28.4044 24.5664C27.9721 24.806 27.6332 25.1839 27.4424 25.6392C27.3492 25.8506 27.3135 26.0828 27.3388 26.3124C27.3642 26.542 27.4497 26.7609 27.5867 26.9471C27.8796 27.3291 28.2712 27.6244 28.7195 27.8014C28.946 27.8989 29.1811 27.9752 29.4217 28.0294C29.6632 28.0969 29.9154 28.1181 30.1649 28.0918C29.9192 28.1721 29.6588 28.1967 29.4025 28.1638C29.1438 28.1409 28.8887 28.0878 28.6425 28.0054C28.1312 27.847 27.6822 27.5332 27.3582 27.1079C27.1945 26.8851 27.0971 26.6208 27.0771 26.3453C27.0571 26.0698 27.1154 25.7943 27.2452 25.5504C27.3612 25.3163 27.5238 25.1083 27.7232 24.9391C27.9225 24.77 28.1543 24.6431 28.4044 24.5664Z" fill="#183C4F"/>
<path d="M29.237 33.0838C29.9778 33.2782 30.4011 31.5815 30.4011 31.5815C30.4011 31.5815 33.6839 31.4663 34.3044 28.8936C34.5664 30.0095 35.2506 30.9812 36.2139 31.6055C36.2139 31.6055 36.4833 28.7256 34.2899 27.8736C34.2899 27.8736 31.6084 26.4745 29.7204 28.4976C27.8325 30.5207 28.7416 32.9518 29.237 33.0838Z" fill="#183C4F"/>
<path d="M34.3406 28.7031C34.3246 29.1103 34.2221 29.5095 34.04 29.8743C33.8595 30.2422 33.6049 30.569 33.2921 30.8342C33.216 30.9017 33.1357 30.9643 33.0516 31.0214L32.9265 31.1126C32.8832 31.139 32.8375 31.163 32.7918 31.187C32.7004 31.235 32.6114 31.2878 32.52 31.331L32.2315 31.439L32.0871 31.4918L31.938 31.5278L31.6422 31.5974C31.4402 31.6262 31.2382 31.643 31.0386 31.6574C31.2334 31.6022 31.4306 31.5662 31.6206 31.511L31.9044 31.415L32.0463 31.3694L32.1809 31.3094C32.2699 31.2662 32.3589 31.2254 32.4503 31.187C32.5417 31.1486 32.6187 31.0862 32.7028 31.0382L32.8303 30.9638L32.9481 30.8774C33.0315 30.8218 33.1118 30.7617 33.1886 30.6974C33.4872 30.4422 33.7388 30.1368 33.9318 29.7951C34.0316 29.625 34.1169 29.4467 34.1867 29.2623C34.2542 29.0807 34.3057 28.8936 34.3406 28.7031Z" fill="#263238"/>
<path d="M32.5555 34.2541C32.3154 34.2014 32.095 34.0826 31.9193 33.9111C31.7436 33.7395 31.6196 33.5222 31.5616 33.2839C31.5035 33.0456 31.5137 32.7957 31.5909 32.5629C31.6681 32.33 31.8092 32.1234 31.9982 31.9667C32.1873 31.8099 32.4166 31.7092 32.6602 31.6761C32.9037 31.6429 33.1517 31.6787 33.3759 31.7793C33.6001 31.8798 33.7915 32.0412 33.9284 32.2449C34.0652 32.4487 34.142 32.6867 34.15 32.9318V32.9318C34.1555 33.131 34.1156 33.3288 34.0333 33.5104C33.9511 33.692 33.8285 33.8525 33.6749 33.9798C33.5213 34.1072 33.3408 34.1981 33.1468 34.2456C32.9529 34.2931 32.7507 34.296 32.5555 34.2541V34.2541ZM33.0822 31.8543C32.9898 31.8342 32.8952 31.8261 32.8008 31.8303C32.5141 31.8418 32.2426 31.9619 32.0415 32.1661C31.8405 32.3703 31.725 32.6433 31.7185 32.9296C31.7121 33.2158 31.8151 33.4937 32.0068 33.7068C32.1984 33.9198 32.4642 34.052 32.7501 34.0763C33.036 34.1007 33.3204 34.0155 33.5455 33.838C33.7706 33.6605 33.9195 33.404 33.9618 33.1209C34.0041 32.8377 33.9367 32.5491 33.7733 32.3138C33.6098 32.0785 33.3627 31.9142 33.0822 31.8543V31.8543Z" fill="#3D8AC3"/>
<path d="M35.5561 34.544C35.0751 34.436 34.7287 33.836 34.7985 33.1569C34.8249 32.8309 34.9527 32.5213 35.1641 32.2713C35.2488 32.159 35.3611 32.0704 35.4901 32.0141C35.6192 31.9577 35.7606 31.9354 35.9007 31.9494C36.0409 31.9634 36.1751 32.0131 36.2904 32.0939C36.4057 32.1747 36.4982 32.2837 36.5589 32.4105C36.717 32.6973 36.7818 33.0261 36.7441 33.3513C36.672 34.0712 36.1766 34.6112 35.6402 34.5512L35.5561 34.544ZM35.9505 32.1441C35.9281 32.1416 35.9055 32.1416 35.8831 32.1441C35.7712 32.1377 35.6594 32.1583 35.5573 32.2043C35.4551 32.2502 35.3656 32.3202 35.2963 32.4081C35.1088 32.6296 34.9953 32.9039 34.9717 33.1929C34.9091 33.8168 35.2122 34.3592 35.6571 34.3928C36.102 34.4264 36.506 33.9656 36.5686 33.3417C36.6031 33.0541 36.5468 32.763 36.4074 32.5089C36.3621 32.4179 36.2979 32.3374 36.2192 32.2729C36.1404 32.2083 36.0488 32.1612 35.9505 32.1345V32.1441Z" fill="#3D8AC3"/>
<path d="M34.0922 33.081L33.9912 32.9346C34.2077 32.7882 34.6887 32.6106 34.9724 32.985L34.833 33.0906C34.578 32.757 34.1115 33.0666 34.0922 33.081Z" fill="#3D8AC3"/>
<path d="M28.2365 32.8336L28.0898 32.74C28.1331 32.6704 28.5372 32.0704 28.934 32.044C29.3308 32.0176 31.6228 32.4856 31.7214 32.4856L31.6877 32.6584C31.0239 32.5264 29.2298 32.1928 28.9436 32.2096C28.6574 32.2264 28.3448 32.668 28.2365 32.8336Z" fill="#3D8AC3"/>
<path d="M29.7342 32.9917C29.7342 32.9917 28.9959 31.6286 28.3875 31.8782C27.779 32.1278 28.2311 34.0381 28.8684 34.3549C28.9481 34.4034 29.0369 34.4352 29.1293 34.4483C29.2218 34.4615 29.3159 34.4556 29.406 34.4311C29.4961 34.4066 29.5802 34.364 29.6532 34.3059C29.7261 34.2478 29.7865 34.1755 29.8304 34.0933L29.7342 32.9917Z" fill="#DEDEFF"/>
<path d="M28.5312 32.4219V32.4387C28.981 32.6787 29.1782 33.1586 29.3008 33.6218C29.2792 33.5712 29.2468 33.526 29.2058 33.4893C29.1648 33.4526 29.1162 33.4252 29.0635 33.4092C29.0108 33.3932 28.9552 33.3889 28.9006 33.3966C28.8461 33.4043 28.7939 33.4238 28.7477 33.4538C28.7333 33.4538 28.7477 33.4802 28.7477 33.4802C28.8338 33.463 28.923 33.473 29.0032 33.5087C29.0833 33.5444 29.1504 33.604 29.195 33.6794C29.2675 33.806 29.3271 33.9394 29.373 34.0778C29.3898 34.1234 29.4692 34.109 29.4572 34.0586C29.5389 33.4442 29.1686 32.5563 28.5312 32.4219Z" fill="#263238"/>
<path d="M28.9708 34.2234C28.9778 34.269 29.0026 34.3098 29.0398 34.337C29.0771 34.3643 29.1236 34.3756 29.1692 34.3686C29.2148 34.3616 29.2557 34.3368 29.283 34.2997C29.3103 34.2626 29.3217 34.2162 29.3147 34.1706C29.3112 34.1481 29.3033 34.1265 29.2915 34.107C29.2796 34.0875 29.264 34.0705 29.2456 34.057C29.2272 34.0436 29.2063 34.0338 29.1841 34.0284C29.1619 34.023 29.1389 34.022 29.1163 34.0255C29.0937 34.0289 29.072 34.0368 29.0525 34.0486C29.0329 34.0604 29.0159 34.076 29.0024 34.0944C28.9889 34.1128 28.9792 34.1336 28.9737 34.1558C28.9683 34.1779 28.9673 34.2009 28.9708 34.2234V34.2234Z" fill="#455A64"/>
<path d="M29.0595 34.2003C29.0631 34.2223 29.0752 34.2419 29.0932 34.255C29.1113 34.2681 29.1337 34.2735 29.1557 34.27C29.1768 34.2659 29.1955 34.2539 29.208 34.2365C29.2205 34.219 29.2259 34.1975 29.2231 34.1762C29.2216 34.1654 29.218 34.155 29.2125 34.1457C29.2069 34.1363 29.1996 34.1281 29.1908 34.1216C29.1821 34.1151 29.1722 34.1104 29.1616 34.1078C29.151 34.1052 29.14 34.1048 29.1293 34.1065C29.108 34.1106 29.0891 34.1225 29.0762 34.1398C29.0633 34.1572 29.0573 34.1787 29.0595 34.2003V34.2003Z" fill="#263238"/>
<path d="M28.6885 33.969C28.6938 34.0014 28.7117 34.0303 28.7382 34.0496C28.7648 34.069 28.7979 34.0771 28.8304 34.0722C28.8463 34.0699 28.8617 34.0644 28.8755 34.0561C28.8894 34.0479 28.9014 34.037 28.911 34.024C28.9206 34.0111 28.9276 33.9964 28.9315 33.9808C28.9354 33.9652 28.9362 33.9489 28.9338 33.933C28.9318 33.917 28.9265 33.9015 28.9183 33.8875C28.9101 33.8735 28.8992 33.8614 28.8861 33.8517C28.8731 33.8421 28.8582 33.8352 28.8425 33.8314C28.8267 33.8276 28.8103 33.8271 28.7943 33.8298C28.7619 33.8346 28.7327 33.8518 28.7129 33.8779C28.6931 33.9039 28.6844 33.9366 28.6885 33.969V33.969Z" fill="#455A64"/>
<path d="M5 55.9609L86 55.9609V53.0859L5 53.0859V55.9609Z" fill="#37474F"/>
<path d="M7.89754 58.8438L83.0991 58.8438V55.9711L7.89754 55.9711V58.8438Z" fill="#455A64"/>
<path d="M83.0946 99.1737H84.2587L80.87 58.8438H77.8975L83.0946 99.1737Z" fill="#455A64"/>
<path d="M77.8975 58.8438L78.2462 61.5412H81.0961L80.87 58.8438H77.8975Z" fill="#263238"/>
<path d="M7.90425 99.1737H6.74023L10.1289 58.8438H13.1014L7.90425 99.1737Z" fill="#455A64"/>
<path d="M13.1024 58.8438L12.7537 61.5412H9.90381L10.1299 58.8438H13.1024Z" fill="#263238"/>
<path d="M51.4379 52.3828H35.6299V53.0908H51.4379V52.3828Z" fill="#C7C7C7"/>
<path d="M51.4352 52.3828H43.4795V53.0908H51.4352V52.3828Z" fill="#A6A6A6"/>
<path d="M44.3354 53.0903H59.7418L61.7548 42.6484H46.3508L44.3354 53.0903Z" fill="#C7C7C7"/>
<path d="M52.1095 47.8688C52.0959 47.9874 52.1076 48.1075 52.1441 48.2213C52.1805 48.335 52.2407 48.4397 52.3208 48.5284C52.4008 48.6171 52.4989 48.6879 52.6084 48.7359C52.7179 48.784 52.8364 48.8082 52.9561 48.8071C53.211 48.8026 53.4554 48.7052 53.6432 48.5332C53.8311 48.3612 53.9494 48.1266 53.9758 47.8736C53.9888 47.7544 53.9762 47.6339 53.9389 47.5199C53.9016 47.406 53.8404 47.3013 53.7594 47.2127C53.6784 47.1242 53.5795 47.0539 53.4692 47.0065C53.3589 46.959 53.2397 46.9356 53.1196 46.9376C52.8668 46.9444 52.625 47.0425 52.4392 47.2137C52.2534 47.385 52.1362 47.6178 52.1095 47.8688V47.8688Z" fill="#A6A6A6"/>
<path d="M62.3961 30.6808C62.4251 30.8521 62.4026 31.0283 62.3312 31.1868C62.2599 31.3454 62.1431 31.4793 61.9954 31.5716C61.8478 31.6639 61.6761 31.7104 61.502 31.7052C61.3279 31.7 61.1592 31.6434 61.0174 31.5425C60.8755 31.4417 60.7668 31.3011 60.7051 31.1385C60.6434 30.976 60.6313 30.7989 60.6705 30.6295C60.7098 30.4601 60.7984 30.3062 60.9254 30.1872C61.0523 30.0681 61.2118 29.9894 61.3836 29.9608C61.6134 29.9232 61.8488 29.9778 62.0384 30.1127C62.2281 30.2476 62.3566 30.4517 62.3961 30.6808V30.6808Z" fill="white"/>
<path d="M65.0029 28.9623C65.0321 29.1338 65.0096 29.3101 64.9382 29.4688C64.8668 29.6275 64.7499 29.7614 64.6021 29.8537C64.4544 29.946 64.2825 29.9924 64.1083 29.9871C63.934 29.9818 63.7653 29.925 63.6235 29.8239C63.4816 29.7228 63.3731 29.582 63.3116 29.4193C63.25 29.2565 63.2383 29.0792 63.2779 28.9098C63.3174 28.7404 63.4065 28.5866 63.5338 28.4678C63.6611 28.3489 63.8208 28.2705 63.9928 28.2424C64.2225 28.2042 64.4579 28.2586 64.6473 28.3936C64.8367 28.5286 64.9647 28.7332 65.0029 28.9623Z" fill="white"/>
<path d="M70.6979 38.0045L63.1294 34.4431L67.7109 24.75L73.3289 27.3947L74.4064 30.1569L70.6979 38.0045Z" fill="#EBEBEB"/>
<path d="M73.33 27.3984L74.4075 30.1607L72.457 29.2439L73.33 27.3984Z" fill="#DBDBDB"/>
<path d="M67.556 26.9818L71.7632 28.9609L71.8811 28.7113L67.6739 26.7322L67.556 26.9818Z" fill="#DBDBDB"/>
<path d="M67.2606 27.6107L71.4678 29.5898L71.5857 29.3402L67.3785 27.3611L67.2606 27.6107Z" fill="#DBDBDB"/>
<path d="M66.9632 28.2396L71.1704 30.2188L71.2883 29.9691L67.0812 27.99L66.9632 28.2396Z" fill="#DBDBDB"/>
<path d="M66.666 28.8655L72.8311 31.7656L72.949 31.516L66.784 28.6159L66.666 28.8655Z" fill="#DBDBDB"/>
<path d="M66.3687 29.4983L72.5337 32.3984L72.6516 32.1488L66.4866 29.2487L66.3687 29.4983Z" fill="#DBDBDB"/>
<path d="M66.0732 30.1194L72.2383 33.0195L72.3562 32.7699L66.1912 29.8698L66.0732 30.1194Z" fill="#DBDBDB"/>
<path d="M65.7744 30.7522L71.9395 33.6523L72.0574 33.4027L65.8924 30.5026L65.7744 30.7522Z" fill="#DBDBDB"/>
<path d="M65.478 31.3811L71.6431 34.2812L71.761 34.0316L65.596 31.1315L65.478 31.3811Z" fill="#DBDBDB"/>
<path d="M65.1821 32.0061L71.3472 34.9062L71.4651 34.6566L65.3001 31.7565L65.1821 32.0061Z" fill="#DBDBDB"/>
<path d="M64.8828 32.6389L71.0479 35.5391L71.1658 35.2894L65.0008 32.3893L64.8828 32.6389Z" fill="#DBDBDB"/>
<path d="M64.5869 33.2678L70.752 36.168L70.8699 35.9183L64.7049 33.0182L64.5869 33.2678Z" fill="#DBDBDB"/>
<path d="M64.2886 33.8967L70.4536 36.7969L70.5715 36.5472L64.4065 33.6471L64.2886 33.8967Z" fill="#DBDBDB"/>
<path d="M70.3429 40.9486L72.292 31.6953L61.362 29.4029L59.413 38.6562L70.3429 40.9486Z" fill="#0101C8"/>
<path d="M64.6777 37.0467L70.8922 38.3499L68.5882 33.8789L64.6777 37.0467Z" fill="#0101C8"/>
<g opacity="0.3">
<path opacity="0.3" d="M64.6792 37.0428L70.8937 38.346L68.5897 33.875L64.6792 37.0428Z" fill="white"/>
</g>
<path d="M61.6182 36.4103L67.128 37.5646L64.8962 34.5L61.6182 36.4103Z" fill="#0101C8"/>
<g opacity="0.5">
<path opacity="0.5" d="M61.6191 36.4142L67.129 37.5685L64.8971 34.5039L61.6191 36.4142Z" fill="white"/>
</g>
<path d="M70.8889 38.351L59.959 36.0586L59.4114 38.6584L70.3413 40.9509L70.8889 38.351Z" fill="#0101C8"/>
<g opacity="0.5">
<path opacity="0.5" d="M70.888 38.3471L59.958 36.0547L59.4104 38.6545L70.3403 40.947L70.888 38.3471Z" fill="white"/>
</g>
<path opacity="0.9" d="M62.4917 33.6254C62.6616 33.6981 62.8504 33.7142 63.0302 33.6715C63.2101 33.6287 63.3713 33.5294 63.4902 33.3881C63.609 33.2468 63.6791 33.0711 63.6902 32.887C63.7012 32.7029 63.6526 32.5201 63.5514 32.3657C63.4503 32.2113 63.302 32.0934 63.1286 32.0296C62.9552 31.9658 62.7657 31.9594 62.5884 32.0113C62.411 32.0632 62.2551 32.1707 62.1437 32.318C62.0323 32.4652 61.9713 32.6442 61.9698 32.8287C61.9681 32.9981 62.0167 33.1642 62.1096 33.306C62.2025 33.4479 62.3355 33.559 62.4917 33.6254V33.6254Z" fill="white"/>
<path d="M50.6282 39.2188H50.3877V39.6987H50.6282V39.2188Z" fill="#263238"/>
<path d="M50.6282 38.427H50.3877V37.383H50.6282V38.427ZM50.6282 36.5983H50.3877V35.5519H50.6282V36.5983ZM50.6282 34.7696H50.3877V33.7232H50.6282V34.7696ZM50.6282 32.9385H50.3877V31.8945H50.6282V32.9385Z" fill="#263238"/>
<path d="M50.6258 31.1156H50.3853V30.5156H50.9865V30.7556H50.6258V31.1156Z" fill="#263238"/>
<path d="M54.2478 30.7556H53.3171V30.5156H54.2478V30.7556ZM52.6173 30.7556H51.6865V30.5156H52.6173V30.7556Z" fill="#263238"/>
<path d="M55.4263 30.5156H54.9453V30.7556H55.4263V30.5156Z" fill="#263238"/>
<path d="M50.9599 39.6816C50.9599 39.7709 50.9334 39.8581 50.8837 39.9323C50.8341 40.0065 50.7634 40.0643 50.6808 40.0985C50.5982 40.1326 50.5073 40.1416 50.4196 40.1242C50.3319 40.1067 50.2513 40.0638 50.1881 40.0007C50.1249 39.9376 50.0818 39.8572 50.0644 39.7697C50.0469 39.6821 50.0559 39.5914 50.0901 39.509C50.1243 39.4265 50.1823 39.3561 50.2566 39.3065C50.331 39.2569 50.4184 39.2305 50.5078 39.2305C50.6277 39.2305 50.7427 39.278 50.8275 39.3626C50.9123 39.4472 50.9599 39.562 50.9599 39.6816V39.6816Z" fill="#263238"/>
<path d="M55.4043 31.0859C55.4937 31.0859 55.5811 31.0595 55.6555 31.0099C55.7298 30.9603 55.7878 30.8899 55.822 30.8074C55.8562 30.725 55.8652 30.6343 55.8477 30.5468C55.8303 30.4592 55.7872 30.3788 55.724 30.3157C55.6608 30.2526 55.5802 30.2097 55.4925 30.1923C55.4048 30.1749 55.3139 30.1838 55.2313 30.2179C55.1486 30.2521 55.078 30.3099 55.0283 30.3841C54.9787 30.4583 54.9521 30.5455 54.9521 30.6348C54.9521 30.7544 54.9998 30.8692 55.0846 30.9538C55.1694 31.0384 55.2844 31.0859 55.4043 31.0859V31.0859Z" fill="#263238"/>
<path d="M76.5704 30.3477H76.0894V30.5876H76.5704V30.3477Z" fill="#263238"/>
<path d="M80.3713 30.5876H79.2867V30.3477H80.3713V30.5876ZM78.4738 30.5876H77.3892V30.3477H78.4738V30.5876Z" fill="#263238"/>
<path d="M81.7795 30.5883H81.1782V30.3483H81.539V29.9883H81.7795V30.5883Z" fill="#263238"/>
<path d="M81.7796 29.2813H81.5391V28.3358H81.7796V29.2813ZM81.7796 27.6254H81.5391V26.6799H81.7796V27.6254ZM81.7796 25.9719H81.5391V25.0119H81.7796V25.9719ZM81.7796 24.316H81.5391V23.3656H81.7796V24.316ZM81.7796 22.6601H81.5391V21.7145H81.7796V22.6601ZM81.7796 21.0041H81.5391V20.0586H81.7796V21.0041Z" fill="#263238"/>
<path d="M81.7795 19.3461H81.539V18.9861H81.1782V18.7461H81.7795V19.3461Z" fill="#263238"/>
<path d="M80.2602 18.7461H79.0312V18.9861H80.2602V18.7461Z" fill="#263238"/>
<path d="M78.1094 18.7461H77.6284V18.9861H78.1094V18.7461Z" fill="#263238"/>
<path d="M76.1138 30.9219C76.3635 30.9219 76.5659 30.7199 76.5659 30.4707C76.5659 30.2215 76.3635 30.0195 76.1138 30.0195C75.864 30.0195 75.6616 30.2215 75.6616 30.4707C75.6616 30.7199 75.864 30.9219 76.1138 30.9219Z" fill="#263238"/>
<path d="M77.6514 18.418C77.5619 18.418 77.4745 18.4444 77.4002 18.494C77.3258 18.5436 77.2679 18.614 77.2336 18.6965C77.1994 18.7789 77.1905 18.8696 77.2079 18.9572C77.2254 19.0447 77.2684 19.1251 77.3316 19.1882C77.3949 19.2513 77.4754 19.2942 77.5632 19.3117C77.6509 19.3291 77.7418 19.3201 77.8244 19.286C77.907 19.2518 77.9776 19.194 78.0273 19.1198C78.077 19.0456 78.1035 18.9584 78.1035 18.8691C78.1035 18.7495 78.0559 18.6347 77.9711 18.5501C77.8863 18.4655 77.7713 18.418 77.6514 18.418V18.418Z" fill="#263238"/>
</g>
<defs>
<clipPath id="clip0_444_969">
<rect width="91" height="89" fill="white"/>
</clipPath>
</defs>
</svg>
