<svg width="91" height="76" viewBox="0 0 91 76" fill="none" xmlns="http://www.w3.org/2000/svg">
<g clip-path="url(#clip0_444_969)">
<rect width="91" height="76" fill="white"/>
<mask id="mask0_444_969" style="mask-type:alpha" maskUnits="userSpaceOnUse" x="-2" y="0" width="93" height="79">
<path d="M1.27413 0.204633H87.7259C89.4211 0.204633 90.7954 1.57889 90.7954 3.27413V75.7259C90.7954 77.4211 89.4211 78.7954 87.7259 78.7954H1.27413C-0.421105 78.7954 -1.79537 77.4211 -1.79537 75.7259V3.27413C-1.79537 1.5789 -0.421105 0.204633 1.27413 0.204633Z" fill="white" stroke="#DBDBDB" stroke-width="0.409266"/>
</mask>
<g mask="url(#mask0_444_969)">
<path d="M51.2705 14.5844C51.2705 15.565 51.6417 16.5094 52.3099 17.2284C52.9781 17.9474 53.8939 18.3879 54.8738 18.4616H76.9332C78.0944 18.4381 79.2032 17.9749 80.035 17.166C80.8668 16.3571 81.3593 15.263 81.4128 14.1052C81.4662 12.9475 81.0767 11.8127 80.323 10.9309C79.5693 10.0491 78.5079 9.48612 77.3538 9.35609C77.2977 7.57009 76.6204 5.85926 75.4382 4.51714C74.256 3.17503 72.6426 2.2853 70.8748 2.00063C69.107 1.71597 67.295 2.0541 65.7497 2.95702C64.2045 3.85993 63.0223 5.27134 62.406 6.94906C61.771 6.62868 61.069 6.46261 60.3575 6.46441C59.1922 6.46427 58.0708 6.90758 57.2217 7.70399C56.3727 8.50039 55.86 9.58993 55.7882 10.7505C55.5793 10.7153 55.3678 10.6981 55.156 10.699C54.1248 10.7012 53.1365 11.1115 52.408 11.8399C51.6796 12.5683 51.2705 13.5553 51.2705 14.5844Z" fill="#0101C8"/>
<path d="M68.7577 12.8164H64.0229V18.4725H68.7577V12.8164Z" fill="white"/>
<path d="M62.5415 13.6475H70.2392L66.389 9.13672L62.5415 13.6475Z" fill="white"/>
<path d="M77.1965 20.1992H56.1221V21.6748H77.1965V20.1992Z" fill="#DBDBDB"/>
<path d="M71.8567 20.1992H56.1221V21.6748H71.8567V20.1992Z" fill="#0101C8"/>
<path d="M6.58789 79.0039H41.4217V75.3406H28.3814L23.9993 54.625H7.91742L6.58789 79.0039Z" fill="#C7C7C7"/>
<path d="M8.61754 75.3398H41.4217V79.0032H8.4873L8.61754 75.3398Z" fill="#DBDBDB"/>
<path d="M6.58789 79.0039H8.48722L9.7245 54.625H7.91742L6.58789 79.0039Z" fill="#DBDBDB"/>
<path d="M41.4944 102.732L28.7417 98.9173C28.7417 98.9173 39.2505 77.0646 38.9194 75.9518C38.6997 75.2099 22.9433 75.1584 18.3252 71.0213C13.5471 66.7379 17.267 58.3255 17.267 58.3255L30.5135 58.2578C30.5135 58.2578 30.2856 61.0168 30.7849 61.4473C31.1186 61.7316 49.2355 63.3237 52.6977 69.968C55.8561 75.9978 41.4944 102.732 41.4944 102.732Z" fill="#183C4F"/>
<path d="M38.9217 75.9518C38.9814 76.1386 38.7236 76.9238 38.2569 78.0989L47.778 89.7712C51.1751 82.0492 54.366 73.1413 52.7081 69.968C49.2378 63.3237 31.129 61.7316 30.7925 61.4473C30.2906 61.0195 30.5212 58.2578 30.5212 58.2578L22.1099 58.3011L36.0835 75.4292C37.7658 75.6133 38.8647 75.7595 38.9217 75.9518Z" fill="#263238"/>
<path d="M17.9802 60.8393C18.0209 60.398 18.0725 59.9594 18.1213 59.518C18.1213 59.4666 18.2082 59.4693 18.2027 59.518C18.0264 61.305 17.8446 63.1354 18.1729 64.9169C18.4754 66.5613 19.3059 68.0629 20.5389 69.1949C23.1681 71.6317 26.842 72.36 30.2662 72.9421C32.228 73.2752 34.2006 73.5297 36.1813 73.7246C37.1509 73.8185 38.1213 73.8961 39.0927 73.9575C40.0586 74.0171 41.0246 74.0252 41.9878 74.0793C42.2917 74.0956 42.5631 74.2364 42.5142 74.5829C42.4653 74.7946 42.3877 74.9987 42.2836 75.1894L41.9743 75.8907C41.5853 76.7625 41.1964 77.6344 40.8075 78.5062C40.0026 80.3004 39.1886 82.0901 38.3655 83.8753C36.7176 87.4186 35.0091 90.933 33.24 94.4186C33.023 94.8491 32.8005 95.2823 32.5807 95.7155C32.5807 95.7426 32.5264 95.7155 32.54 95.6884C34.2277 92.1595 35.8964 88.6208 37.5461 85.072C38.3601 83.3121 39.1741 81.5522 39.9881 79.7842C40.3933 78.9015 40.7949 78.0179 41.1928 77.1335C41.3936 76.693 41.5926 76.2499 41.7897 75.804C41.8901 75.5847 41.9878 75.3627 42.0882 75.1407C42.1886 74.9187 42.4708 74.5152 42.2619 74.3284C42.1235 74.2147 41.8386 74.2526 41.6731 74.2499L40.9025 74.2228C40.4168 74.2066 39.9311 74.1876 39.4427 74.1633C38.4587 74.1145 37.4746 74.0477 36.4906 73.9629C34.5641 73.795 32.6458 73.5513 30.7383 73.2454C27.3358 72.7039 23.6348 72.0838 20.9107 69.8041C19.6946 68.8162 18.7886 67.5005 18.3004 66.0135C17.7713 64.3483 17.8229 62.5613 17.9802 60.8393Z" fill="#455A64"/>
<path d="M64.5637 91.2398L51.849 97.5782C51.849 97.5782 41.9291 77.4556 40.8411 76.1532C39.3894 74.4231 20.4911 76.8653 16.0331 71.2796C11.4204 65.5044 15.3737 58.332 15.3737 58.332H29.7544C29.7544 58.332 29.7978 59.9241 28.9675 62.2526C28.9675 62.2526 45.4184 61.2752 50.0745 65.7914C53.6534 69.2516 64.5637 91.2398 64.5637 91.2398Z" fill="#183C4F"/>
<path d="M26.3435 63.6949C27.0797 63.1885 27.8433 62.723 28.6309 62.3005C29.1841 62.0101 29.7649 61.7752 30.3647 61.5993C30.7853 61.4991 30.967 61.4693 30.5736 61.6534L29.5154 62.1543C29.5914 62.1543 29.6674 62.1543 29.7406 62.1543C30.012 62.1543 30.305 62.1299 30.5872 62.1245C31.1298 62.1083 31.6942 62.1245 32.2477 62.111C33.3711 62.111 34.4808 62.2085 35.6014 62.2653C35.6062 62.267 35.6104 62.2701 35.6133 62.2742C35.6162 62.2783 35.6178 62.2833 35.6178 62.2883C35.6178 62.2934 35.6162 62.2983 35.6133 62.3025C35.6104 62.3066 35.6062 62.3097 35.6014 62.3114C34.4835 62.2762 33.3602 62.333 32.2423 62.3303C31.6996 62.3303 31.1353 62.3438 30.5818 62.3547L29.7678 62.3682C29.5391 62.3804 29.3099 62.3804 29.0813 62.3682L28.772 62.5144C27.958 62.8962 27.144 63.2969 26.3652 63.7382C26.3435 63.7409 26.3272 63.7112 26.3435 63.6949Z" fill="#455A64"/>
<path d="M30.0994 57.7876C29.9529 58.4672 29.8281 59.1414 29.6572 59.821C29.5812 60.1296 29.5025 60.441 29.3858 60.7415C29.299 60.9961 29.1606 61.2831 28.8703 61.3508C28.5393 61.4266 28.4335 61.145 28.4524 60.8688C28.4714 60.5926 28.542 60.2488 28.5908 59.9455C28.6505 59.5935 28.7102 59.2416 28.7618 58.8896C28.7862 58.7136 28.8133 58.5376 28.8377 58.3481C28.8377 58.3047 28.8649 57.969 28.8866 57.8715C28.8866 57.8715 28.8866 57.8878 28.9056 57.8851C28.9104 57.8845 28.9149 57.8823 28.9184 57.8789C28.9218 57.8754 28.924 57.8709 28.9246 57.8661C28.9277 57.8571 28.9274 57.8472 28.924 57.8383C28.9205 57.8294 28.914 57.822 28.9056 57.8174C28.9056 57.8174 28.8866 57.8174 28.8757 57.8174C28.8133 57.8526 28.8106 57.9419 28.7943 58.0069C28.7455 58.1775 28.6939 58.3508 28.6505 58.5213C28.5691 58.8463 28.4877 59.1712 28.4172 59.4961C28.3466 59.821 28.2788 60.1513 28.211 60.4762C28.1353 60.719 28.1213 60.9767 28.1703 61.2262C28.2046 61.3438 28.2758 61.4472 28.3735 61.5213C28.4712 61.5954 28.5902 61.6362 28.7129 61.6378C28.7129 61.6594 28.6885 61.6811 28.6804 61.7027C28.6532 61.7704 28.6342 61.8408 28.6098 61.9112C28.5854 61.9816 28.5664 62.052 28.5474 62.1224C28.5448 62.1576 28.5448 62.1929 28.5474 62.228C28.5474 62.2659 28.5474 62.3038 28.5474 62.3444C28.5445 62.3577 28.5466 62.3715 28.5534 62.3832C28.5601 62.395 28.5711 62.4038 28.584 62.4078C28.597 62.4119 28.611 62.411 28.6233 62.4053C28.6356 62.3996 28.6453 62.3894 28.6505 62.3769C28.6695 62.3417 28.6939 62.3146 28.7129 62.2822C28.7318 62.2451 28.7464 62.2061 28.7563 62.1657C28.7753 62.098 28.7943 62.0304 28.8079 61.9627C28.8265 61.8941 28.841 61.8245 28.8513 61.7542C28.8553 61.7137 28.8553 61.6729 28.8513 61.6323C28.9923 61.6147 29.1256 61.5584 29.2366 61.4699C29.4211 61.3024 29.553 61.0851 29.6165 60.8444C29.7087 60.5601 29.7793 60.2677 29.8471 59.978C30.0286 59.2677 30.1475 58.5429 30.2025 57.812C30.1992 57.8019 30.1933 57.7929 30.1854 57.7858C30.1776 57.7787 30.1681 57.7736 30.1578 57.7712C30.1475 57.7688 30.1367 57.769 30.1265 57.7719C30.1163 57.7747 30.107 57.7801 30.0994 57.7876Z" fill="#455A64"/>
<path d="M23.1636 59.7191C23.1121 60.0549 23.0849 60.3906 23.0198 60.7237C22.9547 61.0567 22.8787 61.3762 22.7838 61.6957C22.6975 62.0052 22.5688 62.3013 22.4012 62.5756C22.2248 62.8333 22.0118 63.064 21.769 63.2606C21.3072 63.6537 20.7838 63.9684 20.2197 64.1921C19.9354 64.3051 19.6445 64.401 19.3487 64.4791C19.194 64.517 19.0394 64.5494 18.882 64.5765C18.7518 64.5848 18.6245 64.6189 18.5075 64.6767C18.4963 64.6834 18.487 64.693 18.4806 64.7044C18.4741 64.7157 18.4707 64.7286 18.4707 64.7417C18.4707 64.7548 18.4741 64.7676 18.4806 64.779C18.487 64.7904 18.4963 64.7999 18.5075 64.8067C18.7369 64.8678 18.9783 64.8678 19.2076 64.8067C19.459 64.7743 19.7075 64.7227 19.951 64.6523C20.443 64.505 20.9116 64.289 21.343 64.0106C21.7797 63.744 22.1678 63.4053 22.4907 63.0088C22.7899 62.5919 22.9894 62.1121 23.0741 61.6063C23.2098 60.9888 23.2582 60.3554 23.2179 59.7246C23.2154 59.7198 23.2117 59.7157 23.2073 59.7126C23.2028 59.7096 23.1976 59.7077 23.1922 59.7072C23.1868 59.7067 23.1814 59.7075 23.1764 59.7096C23.1714 59.7116 23.167 59.7149 23.1636 59.7191Z" fill="#455A64"/>
<path d="M15.3827 61.6737C15.3827 61.6608 15.3878 61.6484 15.397 61.6393C15.4061 61.6301 15.4186 61.625 15.4315 61.625C15.4445 61.625 15.4569 61.6301 15.466 61.6393C15.4752 61.6484 15.4804 61.6608 15.4804 61.6737C15.4532 64.7901 15.9335 68.2748 18.3402 70.5112C20.9749 72.9643 24.7789 73.2567 28.2005 73.2188C30.1676 73.2026 32.1266 73.1538 34.0911 73.2188C36.0556 73.2838 38.058 73.3758 40.0197 73.6276C40.7827 73.6989 41.4953 74.0387 42.0303 74.5861C42.5466 75.1716 42.9944 75.8139 43.3653 76.5004C44.3529 78.1249 45.3098 79.7765 46.236 81.4552C48.0792 84.7747 49.7832 88.1637 51.3479 91.6221C51.5433 92.0517 51.7359 92.4822 51.9258 92.9136C51.9394 92.9407 51.896 92.9651 51.8824 92.938C50.2924 89.4669 48.5803 86.0563 46.7461 82.7061C45.8308 81.0292 44.8856 79.3704 43.9107 77.7296C43.4521 76.9579 43.0098 76.1673 42.497 75.4282C42.0466 74.7756 41.4795 74.1637 40.6981 73.9255C40.218 73.8064 39.7271 73.7356 39.2329 73.7143C38.7318 73.6692 38.2298 73.6276 37.727 73.5897C36.7484 73.5193 35.7679 73.4661 34.7857 73.43C32.805 73.3569 30.827 73.3812 28.8462 73.4164C25.4084 73.4787 21.6505 73.3623 18.8069 71.1773C17.5884 70.2237 16.6686 68.9423 16.156 67.4842C15.6516 65.9886 15.3932 64.4214 15.3908 62.8434C15.3718 62.4589 15.3745 62.0663 15.3827 61.6737Z" fill="#455A64"/>
<path d="M35.9724 75.3282C36.6724 75.3282 37.3752 75.3688 38.0752 75.3931C38.6597 75.3835 39.2435 75.4353 39.8172 75.5475C40.3598 75.6801 40.7695 75.7424 41.2037 76.3354C41.7463 77.0745 44.6985 82.7685 45.9384 85.2893C46.2821 85.9878 46.6213 86.6891 46.9559 87.3931C47.3005 88.1214 47.6044 88.866 47.949 89.5943C47.949 89.6187 47.9219 89.6431 47.9083 89.616C47.6044 89.0068 47.2653 88.4165 46.9532 87.8127C46.6412 87.209 46.3319 86.5997 46.028 85.9905C45.4112 84.7613 44.7952 83.533 44.1802 82.3056C43.5643 81.0871 42.8235 79.9012 42.1968 78.691C41.6731 77.6729 40.9595 76.2812 40.4602 76.0754C39.7639 75.8029 39.0337 75.6261 38.2896 75.5502C37.5163 75.496 36.743 75.45 35.9697 75.3823C35.9661 75.3821 35.9626 75.3813 35.9594 75.3797C35.9562 75.3782 35.9533 75.3761 35.9509 75.3734C35.9485 75.3708 35.9466 75.3677 35.9454 75.3643C35.9442 75.361 35.9437 75.3574 35.9439 75.3539C35.9441 75.3503 35.9449 75.3468 35.9465 75.3436C35.948 75.3404 35.9501 75.3375 35.9528 75.3351C35.9554 75.3327 35.9585 75.3309 35.9619 75.3297C35.9652 75.3285 35.9688 75.328 35.9724 75.3282Z" fill="#455A64"/>
<path d="M24.8105 32.09C24.3325 32.2728 23.9105 32.5767 23.586 32.9717C23.2616 33.3667 23.0458 33.8392 22.96 34.3427C22.874 34.9941 22.7025 35.6313 22.4499 36.238C22.1281 36.8363 21.7194 37.3837 21.237 37.8626C20.5044 38.6559 19.9753 39.46 19.7989 40.5701C19.586 41.743 19.6202 42.9473 19.8993 44.1062C19.6843 42.8868 19.7221 41.6363 20.0106 40.432C20.2982 39.2163 21.0471 38.488 21.8204 37.5999C22.4365 36.911 22.8554 36.0693 23.0332 35.1631C23.139 34.6081 23.1689 34.0232 23.4294 33.5115C23.7414 32.8969 24.3031 32.5314 24.8593 32.2092C24.8702 32.1999 24.8779 32.1875 24.8813 32.1736C24.8847 32.1597 24.8836 32.1451 24.8782 32.1319C24.8728 32.1187 24.8633 32.1075 24.8511 32.1C24.839 32.0925 24.8247 32.089 24.8105 32.09Z" fill="#183C4F"/>
<path d="M34.3398 39.2078C33.7185 38.2845 33.0619 37.4912 32.7363 36.373C32.4405 35.355 32.3021 34.2909 31.9982 33.2728C31.9982 33.2566 31.9684 33.2728 31.9738 33.2728C32.4242 35.0734 32.4188 36.8631 33.4661 38.4172C34.0332 39.262 34.6057 40.0418 34.953 41.0436C35.3029 42.0837 35.4502 43.181 35.3872 44.2764C35.3872 44.3143 35.436 44.317 35.4442 44.2764C35.7234 42.5085 35.3295 40.7004 34.3398 39.2078Z" fill="#183C4F"/>
<path d="M26.7559 45.5786C27.6268 50.7906 31.1162 57.3754 31.9519 57.7789C33.4334 58.4937 43.3479 59.2626 43.7359 59.2274C44.7073 59.1353 45.9066 52.6534 45.0926 51.9874C44.9081 51.8385 35.4901 51.7681 35.0912 51.6489C34.6001 51.5027 32.2775 48.1589 29.868 44.7555C28.1912 42.3647 26.2946 42.7979 26.7559 45.5786Z" fill="#3D8BC5"/>
<path d="M42.5371 58.8969C43.4679 59.2865 44.4232 59.6148 45.397 59.8798C46.1757 60.0557 48.4224 60.5025 48.7018 59.6713C48.8945 59.1027 47.6165 58.683 46.6967 58.3662C46.2191 58.2011 45.6113 57.7462 45.7362 57.4402C45.9451 56.8987 47.1769 57.359 47.9909 57.7706C49.5701 58.5666 51.6946 60.0395 52.5819 59.2137C52.9156 58.8996 52.4761 58.4014 51.8466 57.9059C52.8532 58.4475 53.9196 58.8942 54.3049 58.5612C54.4041 58.476 54.4669 58.3563 54.4806 58.2264C54.4942 58.0966 54.4575 57.9664 54.3781 57.8626C54.504 57.9121 54.6418 57.9233 54.774 57.8949C54.9063 57.8664 55.0272 57.7997 55.1216 57.7029C55.4173 57.3536 55.2355 56.8906 54.8502 56.3978C54.9084 56.387 54.9632 56.3627 55.0103 56.327C55.0574 56.2913 55.0955 56.2451 55.1216 56.1921C55.7321 55.1361 52.2129 52.4015 51.0516 52.2065C47.6002 51.5973 43.9969 52.1036 43.9969 52.1036C42.7244 53.2489 42.5344 58.8942 42.5371 58.8969Z" fill="#EB9481"/>
<path d="M47.3562 55.4377C48.1758 55.5085 48.9693 55.7611 49.6788 56.1769C50.5063 56.6751 51.1792 57.3818 51.9498 57.9531C51.9715 57.9693 51.9498 58.0018 51.9254 57.9856C51.5618 57.6877 51.1657 57.4251 50.7885 57.1408C50.4114 56.8565 50.0613 56.5722 49.6761 56.3285C48.9798 55.8646 48.1861 55.5663 47.3562 55.4567C47.3562 55.4567 47.348 55.435 47.3562 55.4377Z" fill="#263238"/>
<path d="M47.906 53.9573C48.8278 54.117 49.7307 54.3711 50.6003 54.7155C51.5364 55.1243 52.2934 55.8364 53.0423 56.5214C53.4873 56.9302 53.9241 57.3526 54.3501 57.7831C54.3691 57.7994 54.3501 57.8319 54.3257 57.8129C53.5714 57.1053 52.7972 56.4212 52.0031 55.7606C51.2695 55.1416 50.4201 54.6741 49.5041 54.3851C48.9804 54.22 48.4459 54.0954 47.9114 53.9709C47.8924 53.9709 47.8951 53.9546 47.906 53.9573Z" fill="#263238"/>
<path d="M48.7879 52.6406C49.667 52.7679 50.4349 52.8762 51.2299 53.2959C52.1278 53.8228 52.9563 54.4595 53.6963 55.1912C54.1015 55.5756 54.4958 55.97 54.8793 56.3744C54.8929 56.3906 54.8657 56.4177 54.8495 56.4014C53.9679 55.5212 53.0308 54.6982 52.0439 53.9375C51.58 53.5669 51.0609 53.2709 50.5054 53.0603C49.9445 52.8781 49.369 52.744 48.7852 52.6596C48.7852 52.6596 48.7852 52.6406 48.7879 52.6406Z" fill="#263238"/>
<path d="M42.7942 54.6262V59.4998C42.7942 59.4998 34.5565 59.1641 31.911 58.0242C30.4892 57.4096 26.8669 48.2986 26.3731 45.3826C25.8874 42.5126 27.0243 40.8122 29.9655 44.1425C32.2203 46.6957 35.5306 51.3013 35.7938 51.4286C36.057 51.5558 42.805 51.0603 42.805 51.0603V54.6208" fill="#0190FF"/>
<path d="M27 47.3717C27 47.4404 26.9771 47.5071 26.9349 47.5613C26.8833 47.3961 26.8318 47.2337 26.7856 47.0766C26.8481 47.0967 26.9026 47.1362 26.9411 47.1892C26.9797 47.2423 27.0003 47.3062 27 47.3717ZM30.9343 47.0577C30.8721 47.0577 30.8112 47.0761 30.7595 47.1106C30.7077 47.1451 30.6674 47.1942 30.6435 47.2516C30.6197 47.3089 30.6135 47.3721 30.6256 47.433C30.6378 47.4939 30.6678 47.5499 30.7118 47.5938C30.7558 47.6378 30.8119 47.6677 30.8729 47.6798C30.934 47.6919 30.9973 47.6857 31.0548 47.6619C31.1123 47.6381 31.1614 47.5979 31.196 47.5462C31.2306 47.4946 31.2491 47.4339 31.2491 47.3717C31.2484 47.2887 31.215 47.2092 31.1561 47.1504C31.0972 47.0917 31.0176 47.0584 30.9343 47.0577ZM28.8098 43.8086C28.7475 43.8086 28.6867 43.827 28.6349 43.8615C28.5832 43.896 28.5428 43.9451 28.519 44.0025C28.4952 44.0599 28.4889 44.123 28.5011 44.1839C28.5132 44.2449 28.5432 44.3008 28.5872 44.3448C28.6312 44.3887 28.6873 44.4186 28.7484 44.4307C28.8094 44.4428 28.8727 44.4366 28.9302 44.4128C28.9878 44.3891 29.0369 44.3488 29.0715 44.2972C29.1061 44.2455 29.1245 44.1848 29.1245 44.1227C29.1224 44.0408 29.0883 43.963 29.0295 43.9058C28.9707 43.8487 28.8919 43.8167 28.8098 43.8167V43.8086ZM30.9343 53.3555C30.8713 53.3549 30.8096 53.3731 30.7569 53.4077C30.7043 53.4423 30.6632 53.4918 30.6389 53.5498C30.6145 53.6078 30.608 53.6717 30.6201 53.7334C30.6323 53.7951 30.6626 53.8518 30.7072 53.8962C30.7517 53.9407 30.8085 53.9709 30.8704 53.9831C30.9322 53.9952 30.9962 53.9887 31.0544 53.9644C31.1125 53.9401 31.162 53.8991 31.1967 53.8466C31.2314 53.794 31.2496 53.7324 31.2491 53.6695C31.2484 53.5865 31.215 53.507 31.1561 53.4482C31.0972 53.3895 31.0176 53.3562 30.9343 53.3555ZM35.1807 53.3555C35.1178 53.3555 35.0563 53.3741 35.004 53.409C34.9518 53.444 34.9111 53.4936 34.8872 53.5517C34.8632 53.6097 34.8571 53.6735 34.8695 53.7351C34.882 53.7966 34.9125 53.853 34.9572 53.8972C35.0019 53.9414 35.0587 53.9714 35.1204 53.9833C35.1822 53.9952 35.2461 53.9885 35.3041 53.9641C35.362 53.9397 35.4114 53.8987 35.446 53.8463C35.4805 53.7938 35.4987 53.7323 35.4982 53.6695C35.4982 53.6281 35.4899 53.587 35.4739 53.5487C35.458 53.5104 35.4345 53.4757 35.405 53.4465C35.3755 53.4173 35.3405 53.3942 35.302 53.3786C35.2635 53.363 35.2223 53.3551 35.1807 53.3555ZM39.4298 53.3555C39.3668 53.3549 39.305 53.3731 39.2524 53.4077C39.1998 53.4423 39.1587 53.4918 39.1343 53.5498C39.1099 53.6078 39.1034 53.6717 39.1156 53.7334C39.1277 53.7951 39.158 53.8518 39.2026 53.8962C39.2472 53.9407 39.304 53.9709 39.3658 53.9831C39.4276 53.9952 39.4917 53.9887 39.5498 53.9644C39.6079 53.9401 39.6575 53.8991 39.6922 53.8466C39.7268 53.794 39.7451 53.7324 39.7445 53.6695C39.7445 53.5862 39.7114 53.5064 39.6523 53.4475C39.5933 53.3886 39.5133 53.3555 39.4298 53.3555ZM28.8098 50.1064C28.7468 50.1059 28.685 50.124 28.6324 50.1586C28.5798 50.1932 28.5387 50.2427 28.5143 50.3007C28.49 50.3587 28.4834 50.4226 28.4956 50.4843C28.5078 50.546 28.5381 50.6027 28.5826 50.6472C28.6272 50.6916 28.684 50.7219 28.7458 50.734C28.8077 50.7461 28.8717 50.7396 28.9298 50.7153C28.9879 50.691 29.0375 50.65 29.0722 50.5975C29.1068 50.545 29.1251 50.4833 29.1245 50.4205C29.1245 50.3372 29.0914 50.2573 29.0324 50.1984C28.9733 50.1395 28.8933 50.1064 28.8098 50.1064ZM33.0589 50.1064C32.9959 50.1059 32.9341 50.124 32.8815 50.1586C32.8289 50.1932 32.7878 50.2427 32.7634 50.3007C32.739 50.3587 32.7325 50.4226 32.7447 50.4843C32.7568 50.546 32.7871 50.6027 32.8317 50.6472C32.8763 50.6916 32.9331 50.7219 32.9949 50.734C33.0567 50.7461 33.1208 50.7396 33.1789 50.7153C33.237 50.691 33.2866 50.65 33.3212 50.5975C33.3559 50.545 33.3742 50.4833 33.3736 50.4205C33.3736 50.3372 33.3405 50.2573 33.2814 50.1984C33.2224 50.1395 33.1423 50.1064 33.0589 50.1064ZM33.0589 56.3988C32.996 56.3982 32.9343 56.4164 32.8818 56.4508C32.8292 56.4853 32.7881 56.5346 32.7636 56.5924C32.7392 56.6503 32.7325 56.7141 32.7445 56.7757C32.7564 56.8373 32.7864 56.894 32.8307 56.9386C32.875 56.9832 32.9316 57.0136 32.9932 57.026C33.0549 57.0385 33.1188 57.0324 33.177 57.0085C33.2352 56.9846 33.2849 56.944 33.3199 56.8918C33.3549 56.8397 33.3736 56.7783 33.3736 56.7156C33.3729 56.6325 33.3395 56.553 33.2806 56.4943C33.2218 56.4355 33.1421 56.4022 33.0589 56.4015V56.3988ZM37.3052 56.3988C37.2424 56.3988 37.1811 56.4174 37.1289 56.4522C37.0767 56.487 37.036 56.5364 37.0119 56.5943C36.9879 56.6522 36.9816 56.7159 36.9939 56.7774C37.0061 56.8388 37.0364 56.8953 37.0808 56.9396C37.1252 56.9839 37.1817 57.014 37.2433 57.0263C37.3049 57.0385 37.3687 57.0322 37.4267 57.0082C37.4847 56.9843 37.5343 56.9436 37.5692 56.8916C37.6041 56.8395 37.6227 56.7782 37.6227 56.7156C37.6227 56.6741 37.6145 56.633 37.5985 56.5947C37.5825 56.5565 37.5591 56.5217 37.5296 56.4925C37.5 56.4633 37.465 56.4402 37.4265 56.4246C37.388 56.409 37.3468 56.4011 37.3052 56.4015V56.3988ZM41.5543 56.3988C41.4914 56.3982 41.4298 56.4164 41.3772 56.4508C41.3247 56.4853 41.2835 56.5346 41.2591 56.5924C41.2346 56.6503 41.228 56.7141 41.2399 56.7757C41.2519 56.8373 41.2819 56.894 41.3262 56.9386C41.3705 56.9832 41.427 57.0136 41.4887 57.026C41.5503 57.0385 41.6143 57.0324 41.6725 57.0085C41.7306 56.9846 41.7804 56.944 41.8154 56.8918C41.8504 56.8397 41.8691 56.7783 41.8691 56.7156C41.8691 56.6323 41.8359 56.5524 41.7769 56.4935C41.7179 56.4346 41.6378 56.4015 41.5543 56.4015V56.3988Z" fill="white"/>
<path d="M41.0334 55.1263C41.0334 54.5306 41.0524 53.9376 41.0659 53.342C41.0795 52.7463 41.0659 52.1506 41.131 51.5604C41.131 51.5333 41.1772 51.5306 41.1799 51.5604C41.2314 52.1317 41.2179 52.7138 41.2287 53.2878C41.2396 53.8618 41.2287 54.5035 41.245 55.11C41.245 56.3122 41.2097 57.5116 41.1473 58.7111C41.1473 58.7409 41.1039 58.7354 41.1039 58.7111C41.0524 57.5116 41.0198 56.3203 41.0334 55.1263Z" fill="#263238"/>
<path opacity="0.1" d="M38.2638 59.186C35.8923 58.9586 33.2142 58.5931 31.9064 58.0299C30.4819 57.4153 26.8623 48.3043 26.3712 45.3855C26.0999 43.7773 26.3332 42.5345 27.1174 42.3477L38.2638 59.186Z" fill="black"/>
<path d="M30.8641 55.4631L31.1354 60.4965H13.7891C13.7891 60.4965 18.7328 46.2655 22.0674 43.2574C24.3222 41.224 26.7154 41.6112 28.1073 43.3061C28.4601 43.7339 32.0851 48.7781 32.3591 51.1581C32.6033 53.2483 30.8641 55.4631 30.8641 55.4631Z" fill="#0190FF"/>
<path d="M31.0166 58.2301C30.9244 57.3095 30.8484 56.3862 30.7833 55.4656V55.4359L30.805 55.4061C31.2756 54.781 31.6556 54.0928 31.9337 53.3619C32.0691 52.9974 32.1664 52.6199 32.2241 52.2355C32.2896 51.8551 32.2942 51.4667 32.2376 51.0848C32.1847 50.6987 32.0938 50.3187 31.9663 49.9503C31.8441 49.5769 31.7028 49.21 31.543 48.8511C31.2159 48.1305 30.8481 47.429 30.4414 46.75C30.9101 47.3934 31.3231 48.0755 31.676 48.7888C32.0506 49.4991 32.3141 50.2625 32.4574 51.0523C32.568 51.8607 32.4612 52.684 32.1481 53.4377C31.859 54.1889 31.4514 54.889 30.9407 55.5117L30.9596 55.4548C30.9814 56.3808 31.0085 57.3041 31.0166 58.2301Z" fill="#263238"/>
<path d="M31.2661 47.4688C31.4338 47.7563 31.5694 48.0614 31.6704 48.3785C31.7215 48.5375 31.7632 48.6993 31.7952 48.8631C31.8304 49.0277 31.8441 49.196 31.8359 49.364C31.7355 49.0446 31.6243 48.7386 31.5239 48.4272C31.4195 48.113 31.3335 47.7929 31.2661 47.4688Z" fill="#263238"/>
<path d="M22.7539 47.3754C22.7544 47.4381 22.7363 47.4996 22.7017 47.5521C22.6672 47.6045 22.6178 47.6456 22.5598 47.6699C22.5019 47.6943 22.4379 47.701 22.3762 47.6891C22.3144 47.6772 22.2576 47.6472 22.2129 47.603C22.1683 47.5588 22.1378 47.5024 22.1253 47.4409C22.1128 47.3793 22.1189 47.3155 22.1429 47.2575C22.1668 47.1994 22.2075 47.1498 22.2598 47.1149C22.312 47.0799 22.3735 47.0613 22.4364 47.0613C22.478 47.0609 22.5192 47.0688 22.5577 47.0844C22.5962 47.1 22.6312 47.1231 22.6607 47.1523C22.6903 47.1815 22.7137 47.2163 22.7297 47.2545C22.7457 47.2928 22.7539 47.3339 22.7539 47.3754ZM26.6855 47.0613C26.6233 47.0613 26.5624 47.0797 26.5106 47.1142C26.4589 47.1487 26.4185 47.1978 26.3947 47.2552C26.3709 47.3126 26.3647 47.3757 26.3768 47.4366C26.389 47.4976 26.4189 47.5535 26.463 47.5974C26.507 47.6414 26.5631 47.6713 26.6241 47.6834C26.6852 47.6955 26.7485 47.6893 26.806 47.6655C26.8635 47.6418 26.9126 47.6015 26.9472 47.5498C26.9818 47.4982 27.0003 47.4375 27.0003 47.3754C27.0003 47.3341 26.9921 47.2933 26.9763 47.2552C26.9605 47.2171 26.9373 47.1824 26.9081 47.1533C26.8788 47.1241 26.8441 47.101 26.806 47.0852C26.7678 47.0694 26.7268 47.0613 26.6855 47.0613ZM30.6823 47.1858C30.64 47.24 30.6171 47.3067 30.6171 47.3754C30.6178 47.4589 30.6516 47.5388 30.7111 47.5976C30.7705 47.6564 30.8509 47.6894 30.9346 47.6894H30.9563C30.8749 47.5189 30.7799 47.351 30.685 47.1858H30.6823ZM24.561 43.8203C24.4988 43.8209 24.4383 43.8397 24.3869 43.8746C24.3355 43.9094 24.2955 43.9586 24.2721 44.0161C24.2487 44.0735 24.2429 44.1366 24.2553 44.1973C24.2678 44.2581 24.298 44.3138 24.3421 44.3574C24.3862 44.4011 24.4423 44.4307 24.5033 44.4426C24.5643 44.4545 24.6274 44.4482 24.6848 44.4243C24.7421 44.4005 24.7911 44.3602 24.8256 44.3086C24.86 44.257 24.8784 44.1964 24.8784 44.1344C24.8784 44.0929 24.8702 44.0519 24.8542 44.0136C24.8382 43.9753 24.8148 43.9406 24.7853 43.9114C24.7558 43.8822 24.7208 43.8591 24.6823 43.8434C24.6438 43.8278 24.6025 43.82 24.561 43.8203ZM28.5767 43.9259C28.5237 43.9824 28.4945 44.057 28.4953 44.1344C28.4953 44.2177 28.5285 44.2976 28.5875 44.3565C28.6465 44.4154 28.7266 44.4485 28.8101 44.4485C28.8499 44.4483 28.8895 44.441 28.9267 44.4268C28.7992 44.24 28.6825 44.0721 28.5767 43.9259ZM18.2036 53.3591C18.1406 53.3585 18.0789 53.3767 18.0262 53.4113C17.9736 53.4459 17.9325 53.4954 17.9082 53.5534C17.8838 53.6114 17.8773 53.6753 17.8894 53.737C17.9016 53.7987 17.9319 53.8554 17.9765 53.8998C18.021 53.9443 18.0778 53.9745 18.1397 53.9867C18.2015 53.9988 18.2655 53.9923 18.3237 53.968C18.3818 53.9437 18.4313 53.9027 18.466 53.8502C18.5007 53.7977 18.5189 53.736 18.5184 53.6732C18.5184 53.5899 18.4852 53.51 18.4262 53.4511C18.3672 53.3922 18.2871 53.3591 18.2036 53.3591ZM22.45 53.3591C22.3871 53.3591 22.3256 53.3777 22.2734 53.4127C22.2211 53.4476 22.1804 53.4972 22.1565 53.5553C22.1325 53.6133 22.1264 53.6771 22.1389 53.7387C22.1513 53.8002 22.1818 53.8566 22.2265 53.9008C22.2712 53.945 22.328 53.975 22.3897 53.9869C22.4515 53.9988 22.5154 53.9921 22.5734 53.9677C22.6313 53.9434 22.6807 53.9023 22.7153 53.8499C22.7498 53.7974 22.768 53.7359 22.7675 53.6732C22.7675 53.6305 22.7589 53.5883 22.742 53.5491C22.7252 53.5099 22.7006 53.4745 22.6696 53.4451C22.6386 53.4157 22.602 53.3929 22.5619 53.3782C22.5218 53.3634 22.4791 53.3569 22.4364 53.3591H22.45ZM26.6991 53.3591C26.6361 53.3585 26.5743 53.3767 26.5217 53.4113C26.4691 53.4459 26.428 53.4954 26.4036 53.5534C26.3792 53.6114 26.3727 53.6753 26.3849 53.737C26.397 53.7987 26.4273 53.8554 26.4719 53.8998C26.5165 53.9443 26.5733 53.9745 26.6351 53.9867C26.6969 53.9988 26.761 53.9923 26.8191 53.968C26.8772 53.9437 26.9268 53.9027 26.9615 53.8502C26.9961 53.7977 27.0144 53.736 27.0138 53.6732C27.0139 53.6307 27.0053 53.5888 26.9886 53.5497C26.972 53.5107 26.9476 53.4755 26.9169 53.4461C26.8862 53.4168 26.8499 53.3939 26.8101 53.379C26.7704 53.364 26.728 53.3572 26.6855 53.3591H26.6991ZM30.9482 53.3591C30.8851 53.3585 30.8234 53.3767 30.7708 53.4113C30.7182 53.4459 30.677 53.4954 30.6527 53.5534C30.6283 53.6114 30.6218 53.6753 30.634 53.737C30.6461 53.7987 30.6764 53.8554 30.721 53.8998C30.7655 53.9443 30.8224 53.9745 30.8842 53.9867C30.946 53.9988 31.0101 53.9923 31.0682 53.968C31.1263 53.9437 31.1759 53.9027 31.2105 53.8502C31.2452 53.7977 31.2634 53.736 31.2629 53.6732C31.2626 53.6309 31.2537 53.589 31.237 53.5502C31.2202 53.5114 31.1957 53.4763 31.1651 53.447C31.1345 53.4177 31.0984 53.3949 31.0588 53.3798C31.0192 53.3647 30.977 53.3576 30.9346 53.3591H30.9482ZM20.3282 50.11C20.2652 50.1095 20.2034 50.1277 20.1508 50.1623C20.0982 50.1969 20.0571 50.2463 20.0327 50.3043C20.0083 50.3623 20.0018 50.4262 20.014 50.4879C20.0261 50.5496 20.0564 50.6063 20.101 50.6508C20.1456 50.6952 20.2024 50.7255 20.2642 50.7376C20.326 50.7497 20.3901 50.7432 20.4482 50.7189C20.5063 50.6946 20.5559 50.6536 20.5906 50.6011C20.6252 50.5486 20.6435 50.487 20.6429 50.4241C20.643 50.3817 20.6344 50.3397 20.6177 50.3007C20.6011 50.2617 20.5767 50.2264 20.546 50.1971C20.5153 50.1677 20.479 50.1449 20.4392 50.1299C20.3995 50.1149 20.3571 50.1082 20.3146 50.11H20.3282ZM24.5745 50.11C24.5116 50.11 24.4502 50.1286 24.3979 50.1636C24.3456 50.1985 24.3049 50.2481 24.281 50.3062C24.257 50.3642 24.2509 50.4281 24.2634 50.4896C24.2759 50.5511 24.3064 50.6075 24.351 50.6517C24.3957 50.6959 24.4525 50.7259 24.5143 50.7378C24.576 50.7497 24.64 50.7431 24.6979 50.7187C24.7559 50.6943 24.8053 50.6533 24.8398 50.6008C24.8744 50.5484 24.8925 50.4868 24.892 50.4241C24.8921 50.3814 24.8834 50.3392 24.8666 50.3C24.8498 50.2608 24.8251 50.2254 24.7941 50.196C24.7632 50.1667 24.7265 50.1439 24.6864 50.1291C24.6463 50.1143 24.6037 50.1078 24.561 50.11H24.5745ZM28.8236 50.11C28.7606 50.1095 28.6989 50.1277 28.6462 50.1623C28.5936 50.1969 28.5525 50.2463 28.5281 50.3043C28.5038 50.3623 28.4973 50.4262 28.5094 50.4879C28.5216 50.5496 28.5519 50.6063 28.5964 50.6508C28.641 50.6952 28.6978 50.7255 28.7596 50.7376C28.8215 50.7497 28.8855 50.7432 28.9437 50.7189C29.0018 50.6946 29.0513 50.6536 29.086 50.6011C29.1207 50.5486 29.1389 50.487 29.1384 50.4241C29.1384 50.3817 29.1298 50.3397 29.1132 50.3007C29.0965 50.2617 29.0721 50.2264 29.0414 50.1971C29.0108 50.1677 28.9744 50.1449 28.9347 50.1299C28.8949 50.1149 28.8525 50.1082 28.8101 50.11H28.8236ZM14.0956 59.6785L13.8867 60.2661C13.9092 60.2689 13.932 60.2689 13.9546 60.2661C14.0257 60.2665 14.0949 60.2428 14.1509 60.1988C14.2068 60.1549 14.2462 60.0934 14.2625 60.0242C14.2789 59.9551 14.2713 59.8825 14.241 59.8182C14.2107 59.754 14.1595 59.7019 14.0956 59.6704V59.6785ZM18.2036 59.6433C18.1406 59.6428 18.0789 59.661 18.0262 59.6956C17.9736 59.7302 17.9325 59.7796 17.9082 59.8376C17.8838 59.8956 17.8773 59.9595 17.8894 60.0212C17.9016 60.083 17.9319 60.1396 17.9765 60.1841C18.021 60.2286 18.0778 60.2588 18.1397 60.2709C18.2015 60.2831 18.2655 60.2766 18.3237 60.2523C18.3818 60.2279 18.4313 60.1869 18.466 60.1344C18.5007 60.0819 18.5189 60.0203 18.5184 59.9574C18.5177 59.8746 18.4842 59.7954 18.4252 59.7371C18.3663 59.6788 18.2866 59.646 18.2036 59.646V59.6433ZM22.45 59.6433C22.3871 59.6433 22.3256 59.662 22.2734 59.6969C22.2211 59.7318 22.1804 59.7815 22.1565 59.8395C22.1325 59.8976 22.1264 59.9614 22.1389 60.0229C22.1513 60.0844 22.1818 60.1409 22.2265 60.1851C22.2712 60.2293 22.328 60.2592 22.3897 60.2711C22.4515 60.2831 22.5154 60.2764 22.5734 60.252C22.6313 60.2276 22.6807 60.1866 22.7153 60.1341C22.7498 60.0817 22.768 60.0202 22.7675 59.9574C22.7672 59.915 22.7582 59.8731 22.7412 59.8342C22.7243 59.7953 22.6995 59.7602 22.6686 59.7311C22.6377 59.7021 22.6012 59.6795 22.5613 59.6649C22.5213 59.6503 22.4789 59.6438 22.4364 59.646L22.45 59.6433ZM26.6991 59.6433C26.6361 59.6428 26.5743 59.661 26.5217 59.6956C26.4691 59.7302 26.428 59.7796 26.4036 59.8376C26.3792 59.8956 26.3727 59.9595 26.3849 60.0212C26.397 60.083 26.4273 60.1396 26.4719 60.1841C26.5165 60.2286 26.5733 60.2588 26.6351 60.2709C26.6969 60.2831 26.761 60.2766 26.8191 60.2523C26.8772 60.2279 26.9268 60.1869 26.9615 60.1344C26.9961 60.0819 27.0144 60.0203 27.0138 59.9574C27.0135 59.9152 27.0047 59.8735 26.9878 59.8348C26.971 59.7961 26.9466 59.7612 26.9159 59.7322C26.8853 59.7031 26.8491 59.6805 26.8095 59.6657C26.7699 59.6509 26.7277 59.6442 26.6855 59.646L26.6991 59.6433ZM31.1137 59.6921C31.0646 59.6598 31.007 59.6428 30.9482 59.6433C30.9042 59.6393 30.8598 59.6444 30.818 59.6584C30.7761 59.6724 30.7376 59.695 30.705 59.7246C30.6723 59.7543 30.6463 59.7905 30.6284 59.8308C30.6106 59.8711 30.6014 59.9147 30.6014 59.9588C30.6014 60.0028 30.6106 60.0464 30.6284 60.0867C30.6463 60.127 30.6723 60.1632 30.705 60.1929C30.7376 60.2226 30.7761 60.2451 30.818 60.2591C30.8598 60.2731 30.9042 60.2783 30.9482 60.2742C31.0184 60.2749 31.0866 60.251 31.1408 60.2065L31.1137 59.6921ZM16.0791 56.4024C16.0162 56.4018 15.9546 56.42 15.902 56.4544C15.8494 56.4889 15.8083 56.5382 15.7839 56.596C15.7594 56.6539 15.7528 56.7177 15.7647 56.7793C15.7766 56.8409 15.8067 56.8976 15.8509 56.9422C15.8952 56.9868 15.9518 57.0172 16.0134 57.0296C16.0751 57.0421 16.1391 57.036 16.1972 57.0121C16.2554 56.9882 16.3051 56.9476 16.3401 56.8954C16.3752 56.8433 16.3938 56.7819 16.3938 56.7192C16.3939 56.6768 16.3853 56.6348 16.3687 56.5958C16.352 56.5567 16.3276 56.5215 16.2969 56.4922C16.2662 56.4628 16.2299 56.44 16.1901 56.425C16.1504 56.41 16.108 56.4033 16.0655 56.4051L16.0791 56.4024ZM20.3282 56.4024C20.2653 56.4018 20.2036 56.42 20.1511 56.4544C20.0985 56.4889 20.0574 56.5382 20.033 56.596C20.0085 56.6539 20.0018 56.7177 20.0138 56.7793C20.0257 56.8409 20.0557 56.8976 20.1 56.9422C20.1443 56.9868 20.2009 57.0172 20.2625 57.0296C20.3242 57.0421 20.3881 57.036 20.4463 57.0121C20.5045 56.9882 20.5542 56.9476 20.5892 56.8954C20.6242 56.8433 20.6429 56.7819 20.6429 56.7192C20.6426 56.6769 20.6338 56.6351 20.617 56.5962C20.6002 56.5574 20.5758 56.5223 20.5452 56.493C20.5146 56.4637 20.4784 56.4409 20.4388 56.4258C20.3992 56.4107 20.357 56.4036 20.3146 56.4051L20.3282 56.4024ZM24.5745 56.4024C24.5118 56.4024 24.4504 56.421 24.3982 56.4558C24.346 56.4906 24.3053 56.5401 24.2812 56.5979C24.2572 56.6558 24.2509 56.7195 24.2632 56.781C24.2754 56.8424 24.3057 56.8989 24.3501 56.9432C24.3945 56.9875 24.451 57.0176 24.5126 57.0299C24.5742 57.0421 24.638 57.0358 24.696 57.0118C24.754 56.9879 24.8036 56.9473 24.8385 56.8952C24.8734 56.8431 24.892 56.7818 24.892 56.7192C24.8921 56.6765 24.8834 56.6343 24.8666 56.5951C24.8498 56.5559 24.8251 56.5205 24.7941 56.4911C24.7632 56.4617 24.7265 56.439 24.6864 56.4242C24.6463 56.4094 24.6037 56.4029 24.561 56.4051L24.5745 56.4024ZM28.8236 56.4024C28.7607 56.4018 28.6991 56.42 28.6465 56.4544C28.594 56.4889 28.5528 56.5382 28.5284 56.596C28.504 56.6539 28.4973 56.7177 28.5092 56.7793C28.5212 56.8409 28.5512 56.8976 28.5955 56.9422C28.6398 56.9868 28.6963 57.0172 28.758 57.0296C28.8196 57.0421 28.8836 57.036 28.9418 57.0121C28.9999 56.9882 29.0497 56.9476 29.0847 56.8954C29.1197 56.8433 29.1384 56.7819 29.1384 56.7192C29.1384 56.6768 29.1298 56.6348 29.1132 56.5958C29.0965 56.5567 29.0721 56.5215 29.0414 56.4922C29.0108 56.4628 28.9744 56.44 28.9347 56.425C28.8949 56.41 28.8525 56.4033 28.8101 56.4051L28.8236 56.4024Z" fill="white"/>
<path d="M28.1728 54.4144C27.35 54.4865 26.5338 54.6195 25.7308 54.8124C25.3373 54.9126 24.9493 55.0317 24.5613 55.159C24.3687 55.2239 24.1733 55.2808 23.978 55.335C23.7753 55.3988 23.5659 55.4388 23.3539 55.4541C23.3503 55.4541 23.3469 55.4555 23.3443 55.4581C23.3418 55.4606 23.3403 55.464 23.3403 55.4676C23.3403 55.4712 23.3418 55.4747 23.3443 55.4772C23.3469 55.4797 23.3503 55.4812 23.3539 55.4812C23.5544 55.496 23.7557 55.496 23.9563 55.4812C24.1496 55.46 24.3411 55.4238 24.5288 55.3729C24.9331 55.2754 25.3292 55.159 25.7308 55.0561C26.5448 54.8476 27.3588 54.6418 28.1728 54.4929C28.2189 54.4739 28.2108 54.409 28.1728 54.4144Z" fill="#263238"/>
<path d="M30.1914 55.141C29.5182 55.0707 28.8415 55.0381 28.1646 55.0435C27.8254 55.0435 27.489 55.0706 27.1525 55.1031L26.6695 55.1573C26.4932 55.1789 26.3195 55.2277 26.1432 55.2466C26.1242 55.2466 26.1242 55.2764 26.1432 55.2764C26.3114 55.2629 26.4823 55.2764 26.6505 55.2764L27.1579 55.2547C27.4944 55.2547 27.8336 55.2547 28.17 55.2304C28.8456 55.2087 29.5267 55.1925 30.1969 55.1925C30.2294 55.1952 30.2267 55.1437 30.1914 55.141Z" fill="#263238"/>
<path d="M22.6309 42.4928C16.3469 45.1787 8.91233 51.6823 9.17009 54.0243C9.45771 56.6317 18.4823 52.8438 18.4171 52.4485C18.3629 52.1155 20.3816 49.4702 23.2659 45.6796C26.199 41.8051 24.1857 41.8295 22.6309 42.4928Z" fill="#0190FF"/>
<path d="M18.505 47.3727C18.505 47.4348 18.4865 47.4955 18.4519 47.5472C18.4174 47.5988 18.3682 47.6391 18.3107 47.6628C18.2532 47.6866 18.1899 47.6928 18.1288 47.6807C18.0678 47.6686 18.0117 47.6387 17.9677 47.5948C17.9237 47.5508 17.8937 47.4949 17.8815 47.4339C17.8694 47.373 17.8756 47.3099 17.8994 47.2525C17.9233 47.1951 17.9636 47.146 18.0154 47.1115C18.0671 47.077 18.128 47.0586 18.1902 47.0586C18.2737 47.0586 18.3538 47.0917 18.4128 47.1506C18.4718 47.2095 18.505 47.2894 18.505 47.3727Z" fill="white"/>
<path d="M20.629 44.1344C20.6296 44.1973 20.6114 44.2589 20.5767 44.3114C20.542 44.3639 20.4925 44.4049 20.4343 44.4292C20.3762 44.4536 20.3122 44.4601 20.2503 44.4479C20.1885 44.4358 20.1317 44.4056 20.0871 44.3611C20.0426 44.3166 20.0123 44.2599 20.0001 44.1982C19.9879 44.1365 19.9945 44.0726 20.0188 44.0146C20.0432 43.9566 20.0843 43.9072 20.1369 43.8726C20.1895 43.838 20.2513 43.8198 20.3143 43.8203C20.3978 43.8203 20.4778 43.8534 20.5369 43.9123C20.5959 43.9712 20.629 44.0511 20.629 44.1344Z" fill="white"/>
<path d="M24.4445 43.8398C24.3876 43.9563 24.3224 44.0781 24.2465 44.2081C24.2291 44.1332 24.2396 44.0545 24.276 43.9867C24.3125 43.919 24.3724 43.8668 24.4445 43.8398Z" fill="white"/>
<path d="M10.0089 53.6656C10.0095 53.7284 9.99131 53.7899 9.95675 53.8424C9.9222 53.8948 9.87281 53.9358 9.81485 53.9602C9.75689 53.9846 9.69298 53.9913 9.63122 53.9794C9.56946 53.9675 9.51264 53.9375 9.46797 53.8933C9.4233 53.8491 9.3928 53.7927 9.38033 53.7312C9.36785 53.6696 9.37398 53.6058 9.39793 53.5478C9.42187 53.4897 9.46256 53.4401 9.51482 53.4051C9.56709 53.3702 9.62857 53.3516 9.69147 53.3516C9.7752 53.3516 9.85554 53.3846 9.915 53.4434C9.97445 53.5022 10.0082 53.5821 10.0089 53.6656Z" fill="white"/>
<path d="M14.2555 53.6656C14.2555 53.7278 14.237 53.7885 14.2024 53.8401C14.1678 53.8918 14.1187 53.932 14.0612 53.9558C14.0037 53.9796 13.9404 53.9858 13.8793 53.9737C13.8183 53.9616 13.7622 53.9317 13.7182 53.8877C13.6741 53.8438 13.6442 53.7878 13.632 53.7269C13.6199 53.666 13.6261 53.6028 13.6499 53.5454C13.6738 53.4881 13.7141 53.439 13.7659 53.4045C13.8176 53.37 13.8785 53.3516 13.9407 53.3516C14.024 53.3523 14.1036 53.3856 14.1625 53.4443C14.2214 53.5031 14.2548 53.5826 14.2555 53.6656Z" fill="white"/>
<path d="M12.1339 50.4274C12.1345 50.4901 12.1163 50.5516 12.0818 50.6041C12.0472 50.6565 11.9978 50.6976 11.9399 50.722C11.8819 50.7463 11.818 50.753 11.7562 50.7411C11.6945 50.7292 11.6376 50.6992 11.593 50.655C11.5483 50.6108 11.5178 50.5544 11.5053 50.4929C11.4929 50.4313 11.499 50.3675 11.5229 50.3095C11.5469 50.2514 11.5876 50.2018 11.6398 50.1669C11.6921 50.1319 11.7536 50.1133 11.8165 50.1133C11.9002 50.1133 11.9805 50.1463 12.04 50.2051C12.0995 50.2639 12.1332 50.3438 12.1339 50.4274Z" fill="white"/>
<path d="M16.38 50.4274C16.38 50.4895 16.3615 50.5502 16.3269 50.6019C16.2924 50.6535 16.2432 50.6938 16.1857 50.7175C16.1282 50.7413 16.0649 50.7475 16.0038 50.7354C15.9428 50.7233 15.8867 50.6934 15.8427 50.6494C15.7987 50.6055 15.7687 50.5496 15.7565 50.4886C15.7444 50.4277 15.7506 50.3646 15.7744 50.3072C15.7983 50.2498 15.8386 50.2007 15.8904 50.1662C15.9421 50.1317 16.003 50.1133 16.0652 50.1133C16.1487 50.1133 16.2288 50.1464 16.2878 50.2053C16.3468 50.2642 16.38 50.3441 16.38 50.4274Z" fill="white"/>
<path d="M9.17056 54.0236C9.5857 55.8567 12.1986 57.2402 18.4474 61.3341C19.313 61.8999 24.9594 56.8855 24.0695 56.233C22.9461 55.4207 18.404 52.4668 18.0459 52.2908C15.0151 50.8287 8.88837 52.7782 9.17056 54.0236Z" fill="#EB9481"/>
<path d="M22.8381 55.3672C22.8381 55.3672 25.5378 56.9728 26.6937 58.2562C27.8628 59.6191 28.6822 61.2452 29.0815 62.9944C29.521 64.8897 29.2741 69.7444 27.8578 69.9176C26.5771 70.0747 27.079 65.1171 27.079 65.1171C27.079 65.1171 27.4019 70.2615 25.8228 70.1613C24.2436 70.0611 25.158 64.3455 25.158 64.3455C25.158 64.3455 25.3723 69.6333 23.7579 69.2787C22.5396 69.0079 23.0741 63.7823 23.0741 63.7823C23.0741 63.7823 23.2261 68.3283 21.9617 68.1144C20.5643 67.868 20.7542 63.0106 20.7542 63.0106C17.6339 61.9087 16.6001 60.1108 16.0168 58.7435C15.8757 58.4078 22.8381 55.3672 22.8381 55.3672Z" fill="#BEBEFF"/>
<path d="M27.0837 63.3344C27.1407 63.9382 27.2058 64.5474 27.2112 65.1539C27.2166 65.7604 27.2112 66.3641 27.1515 66.9679C27.1 67.7584 26.9589 68.5404 26.731 69.2991C27.0403 67.9237 27.0511 65.7549 27.0457 65.1484C27.0403 64.5419 27.0647 63.9409 27.0457 63.3344C27.0593 63.3208 27.081 63.3208 27.0837 63.3344Z" fill="#263238"/>
<path d="M24.8921 63.3152C24.9328 64.0869 25.0061 64.8504 25.0142 65.6275C25.0224 66.4045 24.9627 67.1302 24.9193 67.8991C24.9193 67.9587 24.884 67.937 24.884 67.8775C24.9003 67.1058 24.8514 66.3937 24.8569 65.6221C24.8623 64.8504 24.8949 64.0814 24.8731 63.3125C24.8731 63.3017 24.8894 63.3017 24.8921 63.3152Z" fill="#263238"/>
<path d="M23.0119 62.9619C23.1074 64.1448 23.0792 65.3344 22.9278 66.5115C22.9278 66.5711 22.8871 66.5386 22.8898 66.479C22.9386 65.2985 22.9875 64.3726 22.9712 62.9592C22.9712 62.943 23.0092 62.9375 23.0119 62.9619Z" fill="#263238"/>
<path d="M24.2186 55.617C24.2186 55.617 16.3743 60.8101 16.2983 60.7614C16.2224 60.7126 9.16228 55.95 9.17042 54.0114C9.17856 52.0728 15.3514 51.0195 18.0403 52.265C20.7292 53.5105 24.2186 55.617 24.2186 55.617Z" fill="#0190FF"/>
<path d="M21.7307 54.6277C21.4269 54.7847 18.9442 56.523 18.4123 56.9183C17.8805 57.3136 15.699 58.884 15.1808 59.3307C15.1771 59.3319 15.1738 59.334 15.1711 59.3367C15.1685 59.3394 15.1664 59.3427 15.1653 59.3463C15.1641 59.3499 15.1638 59.3538 15.1643 59.3575C15.1649 59.3613 15.1664 59.3649 15.1686 59.368C15.1708 59.3711 15.1738 59.3736 15.1771 59.3754C15.1805 59.3772 15.1843 59.3781 15.1881 59.3782C15.1919 59.3783 15.1957 59.3774 15.1991 59.3758C15.2026 59.3741 15.2056 59.3717 15.2079 59.3686C15.794 59.0248 18.0053 57.4435 18.5561 57.0564C19.107 56.6692 21.5218 54.8903 21.7606 54.6602C21.7904 54.6412 21.7633 54.6168 21.7307 54.6277Z" fill="#263238"/>
<path d="M10.0089 53.6656C10.0095 53.7284 9.99131 53.7899 9.95675 53.8424C9.9222 53.8948 9.87281 53.9358 9.81485 53.9602C9.75689 53.9846 9.69298 53.9913 9.63122 53.9794C9.56946 53.9675 9.51264 53.9375 9.46797 53.8933C9.4233 53.8491 9.3928 53.7927 9.38033 53.7312C9.36785 53.6696 9.37398 53.6058 9.39793 53.5478C9.42187 53.4897 9.46256 53.4401 9.51482 53.4051C9.56709 53.3702 9.62857 53.3516 9.69147 53.3516C9.7752 53.3516 9.85554 53.3846 9.915 53.4434C9.97445 53.5022 10.0082 53.5821 10.0089 53.6656ZM13.9405 53.357C13.8775 53.3564 13.8158 53.3746 13.7632 53.4092C13.7105 53.4438 13.6694 53.4933 13.6451 53.5513C13.6207 53.6093 13.6142 53.6732 13.6264 53.7349C13.6385 53.7966 13.6688 53.8533 13.7134 53.8978C13.7579 53.9422 13.8147 53.9724 13.8766 53.9846C13.9384 53.9967 14.0025 53.9902 14.0606 53.9659C14.1187 53.9416 14.1683 53.9006 14.2029 53.8481C14.2376 53.7956 14.2558 53.7339 14.2553 53.6711C14.2553 53.5878 14.2221 53.5079 14.1631 53.449C14.1041 53.3901 14.024 53.357 13.9405 53.357ZM18.2032 53.357C18.1402 53.3564 18.0784 53.3746 18.0258 53.4092C17.9732 53.4438 17.9321 53.4933 17.9077 53.5513C17.8834 53.6093 17.8768 53.6732 17.889 53.7349C17.9012 53.7966 17.9315 53.8533 17.976 53.8978C18.0206 53.9422 18.0774 53.9724 18.1392 53.9846C18.2011 53.9967 18.2651 53.9902 18.3232 53.9659C18.3813 53.9416 18.4309 53.9006 18.4656 53.8481C18.5003 53.7956 18.5185 53.7339 18.5179 53.6711C18.5179 53.5878 18.4848 53.5079 18.4258 53.449C18.3667 53.3901 18.2867 53.357 18.2032 53.357ZM11.8296 56.4084C11.7668 56.4084 11.7054 56.427 11.6532 56.4618C11.601 56.4966 11.5603 56.5461 11.5363 56.604C11.5123 56.6618 11.506 56.7255 11.5182 56.787C11.5305 56.8484 11.5607 56.9049 11.6051 56.9492C11.6495 56.9935 11.7061 57.0237 11.7676 57.0359C11.8292 57.0481 11.8931 57.0418 11.9511 57.0179C12.0091 56.9939 12.0587 56.9533 12.0935 56.9012C12.1284 56.8491 12.147 56.7878 12.147 56.7252C12.1482 56.6819 12.1404 56.6388 12.1241 56.5986C12.1078 56.5584 12.0833 56.5221 12.0522 56.4918C12.0211 56.4615 11.9841 56.438 11.9434 56.4227C11.9028 56.4075 11.8594 56.4007 11.816 56.403L11.8296 56.4084ZM16.0787 56.4084C16.0158 56.4079 15.9541 56.426 15.9016 56.4605C15.849 56.495 15.8079 56.5442 15.7834 56.6021C15.759 56.6599 15.7523 56.7237 15.7643 56.7853C15.7762 56.8469 15.8062 56.9036 15.8505 56.9482C15.8948 56.9928 15.9514 57.0232 16.013 57.0357C16.0747 57.0481 16.1386 57.042 16.1968 57.0181C16.255 56.9942 16.3047 56.9536 16.3397 56.9015C16.3747 56.8493 16.3934 56.788 16.3934 56.7252C16.3946 56.6821 16.3868 56.6392 16.3707 56.5993C16.3545 56.5593 16.3303 56.5231 16.2995 56.4928C16.2687 56.4626 16.232 56.439 16.1916 56.4236C16.1513 56.4081 16.1082 56.4011 16.0651 56.403L16.0787 56.4084ZM20.3277 56.4084C20.2648 56.4079 20.2032 56.426 20.1506 56.4605C20.0981 56.495 20.057 56.5442 20.0325 56.6021C20.0081 56.6599 20.0014 56.7237 20.0133 56.7853C20.0253 56.8469 20.0553 56.9036 20.0996 56.9482C20.1439 56.9928 20.2004 57.0232 20.2621 57.0357C20.3237 57.0481 20.3877 57.042 20.4459 57.0181C20.504 56.9942 20.5538 56.9536 20.5888 56.9015C20.6238 56.8493 20.6425 56.788 20.6425 56.7252C20.6432 56.6822 20.6352 56.6395 20.6189 56.5997C20.6026 56.5599 20.5784 56.5239 20.5477 56.4937C20.517 56.4636 20.4804 56.44 20.4403 56.4244C20.4001 56.4088 20.3572 56.4015 20.3142 56.403L20.3277 56.4084Z" fill="white"/>
<path d="M14.7363 51.773C15.3848 51.7135 17.1594 51.681 18.535 52.4905C18.5513 52.4905 18.535 52.5203 18.535 52.5122C17.3303 51.9924 15.3794 51.7866 14.7363 51.7974C14.7255 51.7974 14.7201 51.7757 14.7363 51.773Z" fill="#263238"/>
<path d="M23.7363 55.9357L24.2085 55.6V55.6325C23.7363 55.3455 23.2534 55.0747 22.7785 54.7959C22.3037 54.517 21.818 54.2543 21.335 53.9836C20.3718 53.4421 19.395 52.9276 18.4019 52.4538L18.2988 52.4051L18.3585 52.3103C18.9934 51.3112 19.6474 50.3284 20.3447 49.3726C21.0311 48.4139 21.7655 47.4904 22.5452 46.6055C21.8216 47.5369 21.127 48.4899 20.4614 49.4647C19.7966 50.4367 19.14 51.4168 18.5213 52.4186L18.4806 52.2751C19.4791 52.7571 20.4505 53.2877 21.4083 53.8401C21.8859 54.1108 22.358 54.406 22.8301 54.6984C23.3022 54.9908 23.7608 55.2913 24.222 55.6L24.2465 55.6162L24.222 55.6325L23.7363 55.9357Z" fill="#263238"/>
<path d="M20.917 48.7117C21.0174 48.6034 21.1151 48.4951 21.2209 48.3922C21.3267 48.2893 21.4298 48.1919 21.5411 48.0944C21.76 47.899 21.9951 47.7224 22.2438 47.5664C22.0577 47.7936 21.8525 48.0047 21.6306 48.1973C21.5194 48.292 21.4054 48.3868 21.2887 48.468C21.1725 48.5604 21.0481 48.642 20.917 48.7117Z" fill="#263238"/>
<path d="M14.2231 59.2969C14.8252 59.6166 15.3803 60.0175 15.8729 60.4882C15.5726 60.3286 15.2842 60.1476 15.01 59.9467C14.732 59.7497 14.469 59.5326 14.2231 59.2969Z" fill="#263238"/>
<path d="M24.6583 42.7046C24.6772 43.1649 25.4723 45.3472 26.8561 45.4826C27.567 45.553 27.9088 43.0837 27.9088 43.0837L27.9658 42.905L28.7798 40.4276L25.5916 37.9258C25.5916 37.9258 24.6501 42.572 24.6583 42.7046Z" fill="#DEDEFF"/>
<path d="M25.2588 39.6559C25.4595 40.3561 25.8045 41.0068 26.2717 41.5663C26.739 42.1258 27.3181 42.5817 27.9721 42.905L28.7861 40.4276L25.5925 37.9258C25.5925 37.9258 25.4324 38.7137 25.2588 39.6559Z" fill="#263238"/>
<path d="M32.7329 36.8798C32.6053 41.461 29.8404 41.8997 28.8501 41.8726C27.952 41.8455 24.894 41.6424 24.5494 37.0721C24.2049 32.5017 26.3782 31.1154 28.4377 31.064C30.4971 31.0125 32.855 32.2986 32.7329 36.8798Z" fill="#DEDEFF"/>
<path d="M32.0718 35.759C31.9689 35.7337 31.8675 35.7029 31.7679 35.6669C31.6566 35.6491 31.5545 35.5948 31.4775 35.5126C31.4575 35.4826 31.4483 35.4468 31.4512 35.411C31.4542 35.3751 31.4692 35.3412 31.4938 35.315C31.5505 35.2703 31.6179 35.2414 31.6893 35.2309C31.7608 35.2205 31.8337 35.2289 31.9008 35.2554C32.0437 35.2907 32.1689 35.3762 32.2536 35.4964C32.2719 35.5251 32.2813 35.5586 32.2806 35.5926C32.28 35.6267 32.2693 35.6598 32.2499 35.6878C32.2305 35.7158 32.2032 35.7375 32.1716 35.7502C32.1399 35.7628 32.1052 35.7659 32.0718 35.759Z" fill="#183C4F"/>
<path d="M29.1419 35.5248C29.2474 35.5177 29.3525 35.505 29.4566 35.4869C29.5698 35.4891 29.6804 35.4539 29.7714 35.3867C29.796 35.3604 29.811 35.3266 29.814 35.2907C29.8169 35.2549 29.8077 35.219 29.7877 35.1891C29.7403 35.1352 29.6794 35.0947 29.6112 35.0719C29.5431 35.0491 29.4701 35.0447 29.3997 35.0591C29.2518 35.0687 29.1127 35.1323 29.0089 35.2378C28.987 35.263 28.9728 35.294 28.968 35.3271C28.9633 35.3602 28.9683 35.3939 28.9823 35.4243C28.9964 35.4546 29.0189 35.4802 29.0472 35.4981C29.0755 35.5159 29.1084 35.5252 29.1419 35.5248Z" fill="#183C4F"/>
<path d="M29.6517 36.7305C29.6517 36.7305 29.6273 36.7305 29.6273 36.7575C29.6273 37.0689 29.5513 37.4263 29.2637 37.5102V37.5292C29.6001 37.5021 29.6924 37.0283 29.6517 36.7305Z" fill="white"/>
<path d="M29.3931 36.3903C28.8938 36.3199 28.7907 37.3217 29.252 37.3866C29.7132 37.4516 29.8109 36.4471 29.3931 36.3903Z" fill="white"/>
<path d="M29.1903 36.4226C29.098 36.4686 29.0003 36.5607 28.8945 36.5607C28.7887 36.5607 28.6883 36.4469 28.6232 36.3359H28.6042C28.5825 36.5282 28.6341 36.7312 28.8376 36.7827C29.0411 36.8341 29.1767 36.6717 29.2446 36.4821C29.2554 36.4578 29.2283 36.4036 29.1903 36.4226Z" fill="white"/>
<path d="M31.368 36.8555C31.368 36.8555 31.3897 36.8717 31.3897 36.8853C31.3436 37.1939 31.3463 37.5567 31.6149 37.6975C31.6149 37.6975 31.6149 37.7165 31.6149 37.7138C31.273 37.6217 31.2757 37.1398 31.368 36.8555Z" fill="white"/>
<path d="M31.6833 36.5707C32.1853 36.5897 32.1147 37.5942 31.648 37.578C31.1813 37.5617 31.26 36.5464 31.6833 36.5707Z" fill="white"/>
<path d="M31.8867 36.6397C31.9626 36.6993 32.0359 36.8022 32.1282 36.8157C32.2204 36.8293 32.329 36.7264 32.3995 36.6289H32.4158C32.4158 36.8211 32.329 37.0161 32.1444 37.0405C31.9599 37.0648 31.8731 36.8888 31.8297 36.6939C31.8243 36.6695 31.8568 36.6181 31.8867 36.6397Z" fill="white"/>
<path d="M30.7968 38.1944C30.7968 38.1944 30.8186 38.6656 30.7968 38.8849C30.5869 38.9151 30.3728 38.8886 30.1766 38.8081C29.9805 38.7276 29.8096 38.5961 29.6817 38.4273C29.6654 38.4056 29.6979 38.384 29.7169 38.3975C29.9792 38.6143 30.3048 38.7406 30.6449 38.7576C30.6639 38.6981 30.5798 37.9454 30.6151 37.9454C30.7839 37.9779 30.948 38.0316 31.1034 38.1051C31.0845 37.125 30.9108 36.1529 30.9081 35.1782C30.9081 35.1703 30.9112 35.1627 30.9168 35.1572C30.9224 35.1516 30.93 35.1484 30.9379 35.1484C30.9459 35.1484 30.9534 35.1516 30.959 35.1572C30.9646 35.1627 30.9678 35.1703 30.9678 35.1782C31.1863 36.2121 31.3009 37.2651 31.3097 38.3217C31.3178 38.4463 30.881 38.2405 30.7968 38.1944Z" fill="#263238"/>
<path d="M30.5006 38.8368C30.3652 38.977 30.1962 39.0804 30.0095 39.1373C29.9066 39.1653 29.7976 39.1605 29.6975 39.1238C29.4804 39.0398 29.4967 38.834 29.5564 38.6635C29.5892 38.5728 29.6329 38.4864 29.6866 38.4062C29.9049 38.6329 30.1902 38.7838 30.5006 38.8368Z" fill="#263238"/>
<path d="M30.0095 39.134C29.9066 39.162 29.7976 39.1572 29.6975 39.1204C29.4804 39.0365 29.4967 38.8307 29.5564 38.6602C29.6734 38.6789 29.7811 38.7354 29.8629 38.821C29.9447 38.9065 29.9962 39.0165 30.0095 39.134Z" fill="#FF9BBC"/>
<path d="M25.8629 31.34C26.278 31.2696 27.0676 29.174 25.8439 27.8771C24.6202 26.5801 22.5689 27.3924 22.9895 29.3121C23.2554 30.5251 24.9865 31.4862 25.8629 31.34Z" fill="#183C4F"/>
<path d="M23.8802 27.3672C23.3925 27.6375 23.0101 28.0638 22.7949 28.5775C22.6898 28.816 22.6495 29.078 22.6781 29.3371C22.7067 29.5961 22.8031 29.8431 22.9577 30.0531C23.2882 30.4841 23.73 30.8173 24.2357 31.017C24.4913 31.127 24.7565 31.2131 25.028 31.2742C25.3005 31.3503 25.585 31.3742 25.8664 31.3446C25.5893 31.4351 25.2955 31.4629 25.0063 31.4258C24.7145 31.4 24.4267 31.34 24.1489 31.2471C23.572 31.0684 23.0655 30.7144 22.7 30.2345C22.5153 29.9832 22.4053 29.685 22.3828 29.3742C22.3602 29.0634 22.4259 28.7525 22.5724 28.4773C22.7033 28.2132 22.8868 27.9786 23.1117 27.7877C23.3365 27.5968 23.5981 27.4538 23.8802 27.3672Z" fill="#183C4F"/>
<path d="M24.8186 36.9723C25.6543 37.1917 26.1318 35.2774 26.1318 35.2774C26.1318 35.2774 29.8355 35.1474 30.5356 32.2449C30.8313 33.5039 31.6032 34.6002 32.69 35.3045C32.69 35.3045 32.9939 32.0554 30.5193 31.0942C30.5193 31.0942 27.4939 29.5157 25.364 31.7982C23.234 34.0807 24.2596 36.8234 24.8186 36.9723Z" fill="#183C4F"/>
<path d="M30.5775 32.0312C30.5594 32.4907 30.4438 32.941 30.2383 33.3525C30.0346 33.7676 29.7474 34.1363 29.3944 34.4356C29.3087 34.5117 29.218 34.5823 29.1231 34.6468L28.982 34.7496C28.9332 34.7794 28.8816 34.8065 28.8301 34.8336C28.727 34.8877 28.6266 34.9473 28.5235 34.996L28.1979 35.1179L28.0351 35.1774L27.8668 35.2181L27.5331 35.2966C27.3052 35.3291 27.0773 35.348 26.8521 35.3643C27.0718 35.302 27.2943 35.2614 27.5087 35.1991L27.8289 35.0908L27.9889 35.0394L28.1409 34.9717C28.2413 34.9229 28.3417 34.8769 28.4448 34.8336C28.5479 34.7903 28.6347 34.7199 28.7297 34.6657L28.8735 34.5818L29.0064 34.4843C29.1005 34.4215 29.1911 34.3537 29.2778 34.2812C29.6147 33.9933 29.8984 33.6488 30.1162 33.2632C30.2288 33.0713 30.3251 32.8702 30.4038 32.6621C30.48 32.4573 30.5381 32.2462 30.5775 32.0312Z" fill="#263238"/>
<path d="M28.5636 38.2972C28.2928 38.2377 28.0441 38.1036 27.8459 37.9101C27.6476 37.7166 27.5078 37.4714 27.4423 37.2025C27.3768 36.9336 27.3883 36.6518 27.4754 36.389C27.5624 36.1263 27.7217 35.8933 27.935 35.7164C28.1482 35.5395 28.407 35.4259 28.6818 35.3885C28.9566 35.3512 29.2363 35.3915 29.4893 35.505C29.7422 35.6184 29.9582 35.8004 30.1125 36.0303C30.2669 36.2602 30.3536 36.5287 30.3626 36.8053C30.3688 37.03 30.3238 37.2532 30.231 37.4581C30.1381 37.6629 29.9999 37.844 29.8266 37.9877C29.6533 38.1314 29.4496 38.2339 29.2308 38.2875C29.012 38.3411 28.7839 38.3444 28.5636 38.2972ZM29.1578 35.5896C29.0536 35.5669 28.9469 35.5578 28.8404 35.5625C28.517 35.5755 28.2107 35.711 27.9838 35.9414C27.757 36.1718 27.6267 36.4798 27.6194 36.8028C27.6121 37.1257 27.7284 37.4392 27.9446 37.6796C28.1608 37.9199 28.4607 38.0691 28.7832 38.0966C29.1057 38.1241 29.4266 38.0279 29.6806 37.8276C29.9346 37.6274 30.1025 37.3381 30.1502 37.0186C30.198 36.6991 30.1219 36.3735 29.9376 36.108C29.7532 35.8426 29.4744 35.6572 29.1578 35.5896Z" fill="#3D8AC3"/>
<path d="M31.9488 38.6194C31.4061 38.4975 31.0154 37.8206 31.0941 37.0544C31.1239 36.6866 31.2681 36.3373 31.5065 36.0553C31.6021 35.9286 31.7288 35.8287 31.8744 35.7651C32.02 35.7014 32.1795 35.6763 32.3376 35.6921C32.4958 35.7079 32.6472 35.764 32.7772 35.8551C32.9073 35.9463 33.0117 36.0693 33.0802 36.2124C33.2586 36.5359 33.3316 36.9069 33.2892 37.2737C33.2078 38.086 32.6488 38.6952 32.0437 38.6275L31.9488 38.6194ZM32.3938 35.9118C32.3685 35.909 32.343 35.909 32.3178 35.9118C32.1915 35.9045 32.0654 35.9278 31.9501 35.9796C31.8348 36.0315 31.7338 36.1104 31.6557 36.2096C31.4442 36.4595 31.3162 36.769 31.2894 37.095C31.2189 37.799 31.5608 38.4109 32.0627 38.4488C32.5647 38.4867 33.0205 37.9669 33.0911 37.2629C33.1301 36.9385 33.0665 36.61 32.9093 36.3234C32.8581 36.2206 32.7857 36.1299 32.6969 36.0571C32.608 35.9843 32.5047 35.9311 32.3938 35.901V35.9118Z" fill="#3D8AC3"/>
<path d="M30.2966 36.9696L30.1826 36.8044C30.4268 36.6393 30.9695 36.4389 31.2897 36.8613L31.1323 36.9804C30.8447 36.6041 30.3183 36.9533 30.2966 36.9696Z" fill="#3D8AC3"/>
<path d="M23.6904 36.6928L23.5249 36.5872C23.5737 36.5087 24.0296 35.8318 24.4773 35.802C24.925 35.7722 27.5108 36.3002 27.622 36.3002L27.5841 36.4951C26.8352 36.3462 24.811 35.9699 24.4881 35.9888C24.1652 36.0078 23.8125 36.506 23.6904 36.6928Z" fill="#3D8AC3"/>
<path d="M25.3803 36.8728C25.3803 36.8728 24.5473 35.3349 23.8608 35.6165C23.1743 35.8981 23.6844 38.0533 24.4035 38.4107C24.4934 38.4655 24.5935 38.5014 24.6978 38.5162C24.8021 38.5309 24.9083 38.5243 25.0099 38.4967C25.1116 38.469 25.2065 38.421 25.2888 38.3555C25.3712 38.2899 25.4392 38.2083 25.4888 38.1156L25.3803 36.8728Z" fill="#DEDEFF"/>
<path d="M24.0234 36.2305V36.2494C24.5308 36.5202 24.7533 37.0617 24.8917 37.5843C24.8673 37.5272 24.8307 37.4762 24.7844 37.4347C24.7382 37.3933 24.6834 37.3625 24.6239 37.3444C24.5645 37.3263 24.5017 37.3215 24.4402 37.3302C24.3786 37.3389 24.3198 37.3609 24.2676 37.3947C24.2514 37.3947 24.2676 37.4245 24.2676 37.4245C24.3647 37.4051 24.4654 37.4164 24.5559 37.4566C24.6463 37.4969 24.7219 37.5642 24.7723 37.6492C24.854 37.792 24.9213 37.9426 24.9731 38.0987C24.9921 38.1501 25.0816 38.1339 25.0681 38.077C25.1603 37.3839 24.7425 36.3821 24.0234 36.2305Z" fill="#263238"/>
<path d="M24.5184 38.2569C24.5263 38.3082 24.5543 38.3543 24.5963 38.3851C24.6383 38.4158 24.6908 38.4286 24.7422 38.4207C24.7937 38.4128 24.8399 38.3848 24.8707 38.3429C24.9015 38.3011 24.9143 38.2487 24.9064 38.1973C24.9025 38.1719 24.8936 38.1475 24.8802 38.1255C24.8668 38.1035 24.8493 38.0844 24.8285 38.0692C24.8077 38.054 24.7841 38.043 24.7591 38.0369C24.734 38.0308 24.708 38.0296 24.6826 38.0335C24.6571 38.0374 24.6326 38.0463 24.6106 38.0597C24.5885 38.073 24.5694 38.0905 24.5541 38.1113C24.5389 38.132 24.5279 38.1556 24.5217 38.1805C24.5156 38.2055 24.5145 38.2315 24.5184 38.2569Z" fill="#455A64"/>
<path d="M24.6192 38.2398C24.6232 38.2646 24.6368 38.2868 24.6572 38.3015C24.6775 38.3163 24.7029 38.3224 24.7277 38.3184C24.7515 38.3138 24.7726 38.3003 24.7867 38.2806C24.8008 38.261 24.8069 38.2366 24.8037 38.2126C24.802 38.2005 24.7979 38.1887 24.7917 38.1782C24.7855 38.1676 24.7772 38.1584 24.7673 38.151C24.7574 38.1437 24.7462 38.1384 24.7343 38.1355C24.7224 38.1325 24.71 38.132 24.6978 38.1339C24.6739 38.1386 24.6525 38.152 24.6379 38.1716C24.6234 38.1912 24.6167 38.2155 24.6192 38.2398Z" fill="#263238"/>
<path d="M24.2003 37.9754C24.2064 38.0119 24.2265 38.0445 24.2565 38.0663C24.2864 38.0881 24.3238 38.0973 24.3604 38.0918C24.3784 38.0891 24.3957 38.083 24.4113 38.0737C24.427 38.0643 24.4406 38.052 24.4514 38.0374C24.4622 38.0228 24.4701 38.0063 24.4745 37.9886C24.4789 37.971 24.4798 37.9527 24.4771 37.9348C24.4748 37.9166 24.4689 37.8992 24.4596 37.8834C24.4504 37.8676 24.438 37.8539 24.4233 37.843C24.4086 37.8322 24.3919 37.8244 24.3741 37.8201C24.3563 37.8159 24.3378 37.8153 24.3197 37.8183C24.2832 37.8237 24.2502 37.8432 24.2279 37.8725C24.2056 37.9019 24.1957 37.9388 24.2003 37.9754Z" fill="#455A64"/>
<path d="M-2.52568 62.7813L88.8594 62.7812V59.5376L-2.52568 59.5376V62.7813Z" fill="#37474F"/>
<path d="M0.743202 66.0313L85.5864 66.0312V62.7903L0.743202 62.7903V66.0313Z" fill="#455A64"/>
<path d="M85.5813 111.532H86.8945L83.0715 66.0312H79.7178L85.5813 111.532Z" fill="#455A64"/>
<path d="M79.7178 66.0312L80.1112 69.0746H83.3265L83.0715 66.0312H79.7178Z" fill="#263238"/>
<path d="M0.751242 111.532H-0.562012L3.26108 66.0312H6.61475L0.751242 111.532Z" fill="#455A64"/>
<path d="M6.61557 66.0312L6.22214 69.0746H3.00684L3.26189 66.0312H6.61557Z" fill="#263238"/>
<path d="M49.866 58.7422H32.0312V59.5409H49.866V58.7422Z" fill="#C7C7C7"/>
<path d="M49.8634 58.7422H40.8877V59.5409H49.8634V58.7422Z" fill="#A6A6A6"/>
<path d="M41.853 59.5423H59.2346L61.5057 47.7617H44.1268L41.853 59.5423Z" fill="#C7C7C7"/>
<path d="M50.6239 53.6522C50.6085 53.7861 50.6218 53.9216 50.6629 54.0499C50.704 54.1782 50.7719 54.2963 50.8622 54.3964C50.9526 54.4965 51.0632 54.5763 51.1867 54.6306C51.3103 54.6848 51.444 54.7122 51.579 54.7109C51.8666 54.7058 52.1423 54.5959 52.3543 54.4019C52.5662 54.2078 52.6996 53.9431 52.7294 53.6577C52.7441 53.5232 52.7299 53.3872 52.6878 53.2587C52.6457 53.1301 52.5767 53.012 52.4853 52.9121C52.394 52.8122 52.2823 52.7329 52.1579 52.6794C52.0334 52.6258 51.899 52.5994 51.7635 52.6017C51.4782 52.6093 51.2054 52.72 50.9958 52.9132C50.7862 53.1065 50.654 53.3691 50.6239 53.6522Z" fill="#A6A6A6"/>
<path d="M62.2301 34.2667C62.2628 34.4601 62.2374 34.6588 62.1569 34.8377C62.0765 35.0166 61.9446 35.1677 61.7781 35.2718C61.6115 35.3759 61.4178 35.4283 61.2213 35.4225C61.0249 35.4167 60.8346 35.3528 60.6746 35.239C60.5145 35.1252 60.3919 34.9666 60.3223 34.7832C60.2526 34.5998 60.2391 34.4 60.2833 34.2089C60.3275 34.0178 60.4276 33.8442 60.5708 33.7099C60.714 33.5756 60.8939 33.4867 61.0878 33.4545C61.347 33.4121 61.6126 33.4737 61.8265 33.6258C62.0405 33.778 62.1856 34.0084 62.2301 34.2667Z" fill="white"/>
<path d="M65.1714 32.3257C65.2043 32.5192 65.1789 32.718 65.0983 32.8971C65.0178 33.0761 64.8859 33.2273 64.7192 33.3314C64.5525 33.4355 64.3586 33.4879 64.162 33.4819C63.9655 33.4759 63.7751 33.4118 63.6151 33.2978C63.4551 33.1837 63.3326 33.0248 63.2632 32.8412C63.1937 32.6576 63.1805 32.4576 63.2251 32.2665C63.2698 32.0753 63.3703 31.9018 63.5139 31.7677C63.6575 31.6336 63.8377 31.5451 64.0318 31.5134C64.2909 31.4704 64.5565 31.5318 64.7702 31.6841C64.9839 31.8364 65.1282 32.0672 65.1714 32.3257Z" fill="white"/>
<path d="M71.5965 42.532L63.0576 38.514L68.2265 27.5781L74.5649 30.5619L75.7804 33.6783L71.5965 42.532Z" fill="#EBEBEB"/>
<path d="M74.565 30.5625L75.7806 33.6789L73.5801 32.6446L74.565 30.5625Z" fill="#DBDBDB"/>
<path d="M68.0517 30.0913L72.7983 32.3242L72.9314 32.0426L68.1848 29.8097L68.0517 30.0913Z" fill="#DBDBDB"/>
<path d="M67.7182 30.7984L72.4648 33.0312L72.5979 32.7496L67.8513 30.5167L67.7182 30.7984Z" fill="#DBDBDB"/>
<path d="M67.3823 31.5093L72.1289 33.7422L72.262 33.4605L67.5154 31.2277L67.3823 31.5093Z" fill="#DBDBDB"/>
<path d="M67.0475 32.2163L74.0029 35.4883L74.136 35.2066L67.1805 31.9347L67.0475 32.2163Z" fill="#DBDBDB"/>
<path d="M66.7125 32.9273L73.668 36.1992L73.801 35.9176L66.8456 32.6456L66.7125 32.9273Z" fill="#DBDBDB"/>
<path d="M66.379 33.6343L73.3345 36.9062L73.4675 36.6246L66.5121 33.3527L66.379 33.6343Z" fill="#DBDBDB"/>
<path d="M66.0416 34.3452L72.9971 37.6172L73.1301 37.3355L66.1747 34.0636L66.0416 34.3452Z" fill="#DBDBDB"/>
<path d="M65.7076 35.0523L72.6631 38.3242L72.7961 38.0426L65.8407 34.7706L65.7076 35.0523Z" fill="#DBDBDB"/>
<path d="M65.3736 35.7593L72.3291 39.0312L72.4622 38.7496L65.5067 35.4777L65.3736 35.7593Z" fill="#DBDBDB"/>
<path d="M65.0358 36.4702L71.9912 39.7422L72.1243 39.4605L65.1688 36.1886L65.0358 36.4702Z" fill="#DBDBDB"/>
<path d="M64.7018 37.1812L71.6572 40.4531L71.7903 40.1715L64.8348 36.8995L64.7018 37.1812Z" fill="#DBDBDB"/>
<path d="M64.3653 37.8882L71.3208 41.1602L71.4539 40.8785L64.4984 37.6066L64.3653 37.8882Z" fill="#DBDBDB"/>
<path d="M71.1956 45.8459L73.3945 35.4062L61.0633 32.8199L58.8643 43.2596L71.1956 45.8459Z" fill="#0101C8"/>
<path d="M64.8047 41.4451L71.8159 42.9153L69.2166 37.8711L64.8047 41.4451Z" fill="#0101C8"/>
<g opacity="0.3">
<path opacity="0.3" d="M64.8057 41.4412L71.8169 42.9114L69.2175 37.8672L64.8057 41.4412Z" fill="white"/>
</g>
<path d="M61.353 40.7294L67.5693 42.0318L65.0513 38.5742L61.353 40.7294Z" fill="#0101C8"/>
<g opacity="0.5">
<path opacity="0.5" d="M61.3535 40.7294L67.5698 42.0318L65.0518 38.5742L61.3535 40.7294Z" fill="white"/>
</g>
<path d="M71.8117 42.9184L59.4805 40.332L58.8626 43.2652L71.1939 45.8516L71.8117 42.9184Z" fill="#0101C8"/>
<g opacity="0.5">
<path opacity="0.5" d="M71.8108 42.9184L59.4795 40.332L58.8617 43.2652L71.1929 45.8516L71.8108 42.9184Z" fill="white"/>
</g>
<path opacity="0.9" d="M62.3379 37.5868C62.5296 37.6688 62.7426 37.687 62.9455 37.6388C63.1484 37.5906 63.3303 37.4785 63.4644 37.3191C63.5985 37.1597 63.6776 36.9615 63.6901 36.7537C63.7025 36.546 63.6476 36.3398 63.5335 36.1656C63.4194 35.9913 63.2521 35.8584 63.0565 35.7864C62.8608 35.7144 62.6471 35.7072 62.447 35.7658C62.2469 35.8243 62.0709 35.9456 61.9453 36.1117C61.8196 36.2778 61.7508 36.4798 61.7491 36.6879C61.7471 36.8791 61.8021 37.0665 61.9069 37.2265C62.0117 37.3865 62.1617 37.5119 62.3379 37.5868Z" fill="white"/>
<path d="M48.9535 43.8945H48.6821V44.436H48.9535V43.8945Z" fill="#263238"/>
<path d="M48.9535 43.0067H48.6821V41.8289H48.9535V43.0067ZM48.9535 40.9435H48.6821V39.7631H48.9535V40.9435ZM48.9535 38.8804H48.6821V37.6999H48.9535V38.8804ZM48.9535 36.8145H48.6821V35.6367H48.9535V36.8145Z" fill="#263238"/>
<path d="M48.9505 34.7511H48.6792V34.0742H49.3575V34.345H48.9505V34.7511Z" fill="#263238"/>
<path d="M53.0372 34.345H51.9871V34.0742H53.0372V34.345ZM51.1975 34.345H50.1475V34.0742H51.1975V34.345Z" fill="#263238"/>
<path d="M54.3669 34.0742H53.8242V34.345H54.3669V34.0742Z" fill="#263238"/>
<path d="M49.3278 44.4231C49.3278 44.5238 49.2979 44.6222 49.2419 44.7059C49.1858 44.7896 49.1061 44.8548 49.0129 44.8934C48.9197 44.9319 48.8172 44.942 48.7182 44.9223C48.6193 44.9027 48.5284 44.8542 48.457 44.783C48.3857 44.7118 48.3371 44.6211 48.3174 44.5224C48.2977 44.4237 48.3078 44.3213 48.3464 44.2283C48.3851 44.1353 48.4504 44.0558 48.5343 43.9999C48.6182 43.9439 48.7168 43.9141 48.8177 43.9141C48.953 43.9141 49.0828 43.9677 49.1784 44.0632C49.2741 44.1586 49.3278 44.2881 49.3278 44.4231Z" fill="#263238"/>
<path d="M54.3421 34.7212C54.443 34.7212 54.5417 34.6913 54.6255 34.6354C54.7094 34.5795 54.7748 34.5 54.8134 34.4069C54.852 34.3139 54.8621 34.2116 54.8424 34.1128C54.8228 34.0141 54.7742 33.9234 54.7028 33.8522C54.6315 33.781 54.5406 33.7325 54.4417 33.7129C54.3427 33.6933 54.2401 33.7033 54.1469 33.7419C54.0537 33.7804 53.974 33.8456 53.918 33.9294C53.8619 34.0131 53.832 34.1115 53.832 34.2121C53.832 34.3471 53.8858 34.4766 53.9814 34.5721C54.0771 34.6675 54.2069 34.7212 54.3421 34.7212Z" fill="#263238"/>
<path d="M78.2219 33.8906H77.6792V34.1614H78.2219V33.8906Z" fill="#263238"/>
<path d="M82.5096 34.1614H81.2858V33.8906H82.5096V34.1614ZM80.3687 34.1614H79.145V33.8906H80.3687V34.1614Z" fill="#263238"/>
<path d="M84.0992 34.1613H83.4209V33.8905H83.8279V33.4844H84.0992V34.1613Z" fill="#263238"/>
<path d="M84.0995 32.6864H83.8281V31.6196H84.0995V32.6864ZM84.0995 30.8182H83.8281V29.7514H84.0995V30.8182ZM84.0995 28.9527H83.8281V27.8697H84.0995V28.9527ZM84.0995 27.0845H83.8281V26.0123H84.0995V27.0845ZM84.0995 25.2162H83.8281V24.1495H84.0995V25.2162ZM84.0995 23.348H83.8281V22.2812H84.0995V23.348Z" fill="#263238"/>
<path d="M84.0992 21.4816H83.8279V21.0754H83.4209V20.8047H84.0992V21.4816Z" fill="#263238"/>
<path d="M82.3846 20.8047H80.998V21.0754H82.3846V20.8047Z" fill="#263238"/>
<path d="M79.9587 20.8047H79.416V21.0754H79.9587V20.8047Z" fill="#263238"/>
<path d="M77.7064 34.5376C77.9881 34.5376 78.2165 34.3097 78.2165 34.0286C78.2165 33.7474 77.9881 33.5195 77.7064 33.5195C77.4247 33.5195 77.1963 33.7474 77.1963 34.0286C77.1963 34.3097 77.4247 34.5376 77.7064 34.5376Z" fill="#263238"/>
<path d="M79.4413 20.4297C79.3404 20.4297 79.2417 20.4595 79.1579 20.5155C79.074 20.5714 79.0086 20.6509 78.97 20.7439C78.9314 20.8369 78.9213 20.9393 78.941 21.038C78.9606 21.1368 79.0092 21.2275 79.0806 21.2986C79.1519 21.3698 79.2428 21.4183 79.3417 21.438C79.4407 21.4576 79.5433 21.4475 79.6365 21.409C79.7297 21.3705 79.8093 21.3052 79.8654 21.2215C79.9215 21.1378 79.9514 21.0394 79.9514 20.9387C79.9514 20.8037 79.8976 20.6742 79.802 20.5788C79.7063 20.4833 79.5765 20.4297 79.4413 20.4297Z" fill="#263238"/>
</g>
</g>
<defs>
<clipPath id="clip0_444_969">
<rect width="91" height="76" fill="white"/>
</clipPath>
</defs>
</svg>
