<svg width="16" height="16" viewBox="0 0 16 16" fill="none" xmlns="http://www.w3.org/2000/svg">
<path d="M3.01194 15H12.9962C14.6947 15 15.4965 13.593 14.6757 12.1113L9.63698 3.12561C8.79719 1.6248 7.19187 1.6248 6.35208 3.12561L1.33235 12.1113C0.492552 13.6121 1.31412 15 3.01194 15V15ZM2.54538 12.8053L7.56512 3.81954C7.80787 3.38791 8.10602 3.2758 8.40491 3.81954L13.4444 12.8053C13.7433 13.349 13.4444 13.593 12.9779 13.593H3.01194C2.37772 13.593 2.30263 13.2743 2.54538 12.8053V12.8053Z" fill="#AB3436"/>
<path d="M7.78733 9.77895H8.22585C8.43143 9.77895 8.68579 9.45721 8.68579 9.25056V6.5628C8.68579 6.24403 8.44303 6 8.12593 6H7.846C7.52889 6 7.28613 6.24403 7.28613 6.5628V9.25056C7.28613 9.45649 7.58175 9.77895 7.78733 9.77895Z" fill="#AB3436"/>
<path d="M8.70402 11.1855C8.70402 12.136 7.28613 12.136 7.28613 11.1855C7.28613 10.235 8.70402 10.235 8.70402 11.1855Z" fill="#AB3436"/>
</svg>
