<svg xmlns="http://www.w3.org/2000/svg" width="253" height="166" fill="none" xmlns:v="https://vecta.io/nano"><path d="M46.593 38.431c.52 0 .832.26.936.78l.858 3.9c1.092-1.716 2.496-3.068 4.212-4.056 1.716-1.04 3.796-1.56 6.24-1.56 2.496 0 4.706.598 6.63 1.794 1.976 1.196 3.484 2.964 4.524 5.304 1.196-2.184 2.756-3.9 4.68-5.148 1.976-1.3 4.368-1.95 7.176-1.95 1.924 0 3.692.364 5.304 1.092s2.99 1.794 4.134 3.198 2.028 3.12 2.652 5.148.936 4.342.936 6.942v20.28c0 .572-.234.858-.702.858h-7.332c-.572 0-.858-.286-.858-.858v-18.72c0-3.12-.572-5.408-1.716-6.864-1.092-1.456-2.678-2.184-4.758-2.184-2.184.052-4.004 1.014-5.46 2.886-1.404 1.872-2.132 4.758-2.184 8.658l.078 16.224c0 .572-.26.858-.78.858h-7.41c-.52 0-.78-.286-.78-.858v-18.72c0-3.12-.572-5.408-1.716-6.864-1.092-1.456-2.704-2.184-4.836-2.184-2.08.052-3.822.988-5.226 2.808s-2.158 4.446-2.262 7.878v17.16c0 .52-.26.78-.78.78h-7.332c-.52 0-.78-.26-.78-.78V39.211c0-.52.26-.78.78-.78h5.772zm62.591 21.84c.572 2.184 1.742 3.926 3.51 5.226 1.82 1.3 4.134 1.95 6.942 1.95 1.872 0 3.51-.26 4.914-.78s2.548-1.196 3.432-2.028c.468-.364.91-.39 1.326-.078l4.602 4.758c.364.364.39.754.078 1.17-1.716 1.82-3.848 3.172-6.396 4.056-2.496.832-5.304 1.274-8.424 1.326-2.912 0-5.564-.468-7.956-1.404s-4.446-2.236-6.162-3.9c-1.664-1.664-2.964-3.666-3.9-6.006s-1.404-4.94-1.404-7.8c0-2.808.442-5.382 1.326-7.722.936-2.34 2.236-4.342 3.9-6.006 1.664-1.716 3.666-3.016 6.006-3.9 2.34-.936 4.914-1.404 7.722-1.404 2.86 0 5.46.442 7.8 1.326 2.34.832 4.342 2.158 6.006 3.978 1.664 1.768 2.938 4.03 3.822 6.786.884 2.704 1.326 5.928 1.326 9.672 0 .52-.26.78-.78.78h-27.69zm19.188-6.63c-.468-2.288-1.534-4.108-3.198-5.46-1.612-1.404-3.77-2.106-6.474-2.106s-4.888.702-6.552 2.106c-1.612 1.352-2.652 3.172-3.12 5.46h19.344zm30.957 22.23c-2.756 0-5.278-.468-7.566-1.404-2.236-.936-4.16-2.236-5.772-3.9s-2.86-3.666-3.744-6.006c-.884-2.392-1.326-4.992-1.326-7.8s.442-5.382 1.326-7.722 2.132-4.342 3.744-6.006c1.612-1.716 3.536-3.016 5.772-3.9 2.288-.936 4.81-1.404 7.566-1.404 2.392 0 4.498.442 6.318 1.326 1.872.832 3.432 2.028 4.68 3.588V19.399c0-.52.26-.78.78-.78h7.254c.572 0 .858.26.858.78v54.834c0 .52-.286.78-.858.78h-5.226c-.468 0-.78-.26-.936-.78l-1.092-4.212c-1.3 1.82-2.938 3.25-4.914 4.29s-4.264 1.56-6.864 1.56zm10.92-19.11c0-3.12-.962-5.616-2.886-7.488-1.872-1.872-4.368-2.808-7.488-2.808-3.068 0-5.538.962-7.41 2.886-1.82 1.872-2.73 4.342-2.73 7.41s.936 5.538 2.808 7.41 4.316 2.808 7.332 2.808c3.068 0 5.564-.91 7.488-2.73 1.924-1.872 2.886-4.368 2.886-7.488zm15.37-30.81c0-1.768.52-3.146 1.56-4.134 1.092-1.04 2.496-1.56 4.212-1.56 1.768 0 3.146.52 4.134 1.56 1.04.988 1.56 2.366 1.56 4.134 0 1.716-.52 3.12-1.56 4.212-.988 1.04-2.366 1.56-4.134 1.56-1.716 0-3.12-.52-4.212-1.56-1.04-1.092-1.56-2.496-1.56-4.212zm10.218 48.282c0 .52-.26.78-.78.78h-7.332c-.52 0-.78-.26-.78-.78V39.211c0-.52.286-.78.858-.78h7.332c.468 0 .702.234.702.702v35.1z" fill="#82b68d"/><path d="M51.962 124.473c-2.756 0-5.278-.468-7.566-1.404-2.236-.936-4.16-2.236-5.772-3.9s-2.86-3.666-3.744-6.006c-.884-2.392-1.326-4.992-1.326-7.8s.442-5.382 1.326-7.722 2.132-4.342 3.744-6.006c1.612-1.716 3.536-3.016 5.772-3.9 2.288-.936 4.81-1.404 7.566-1.404 2.392 0 4.498.442 6.318 1.326 1.872.832 3.432 2.028 4.68 3.588V68.001c0-.52.26-.78.78-.78h7.254c.572 0 .858.26.858.78v54.834c0 .52-.286.78-.858.78h-5.226c-.468 0-.78-.26-.936-.78l-1.092-4.212c-1.3 1.82-2.938 3.25-4.914 4.29s-4.264 1.56-6.864 1.56zm10.92-19.11c0-3.12-.962-5.616-2.886-7.488-1.872-1.872-4.368-2.808-7.488-2.808-3.068 0-5.538.962-7.41 2.886-1.82 1.872-2.73 4.342-2.73 7.41s.936 5.538 2.808 7.41 4.316 2.808 7.332 2.808c3.068 0 5.564-.91 7.488-2.73 1.924-1.872 2.886-4.368 2.886-7.488zm23.014 3.51c.572 2.184 1.742 3.926 3.51 5.226 1.82 1.3 4.134 1.95 6.942 1.95 1.872 0 3.51-.26 4.914-.78s2.548-1.196 3.432-2.028c.468-.364.91-.39 1.326-.078l4.602 4.758c.364.364.39.754.078 1.17-1.716 1.82-3.848 3.172-6.396 4.056-2.496.832-5.304 1.274-8.424 1.326-2.912 0-5.564-.468-7.956-1.404s-4.446-2.236-6.162-3.9c-1.664-1.664-2.964-3.666-3.9-6.006s-1.404-4.94-1.404-7.8c0-2.808.442-5.382 1.326-7.722.936-2.34 2.236-4.342 3.9-6.006 1.664-1.716 3.666-3.016 6.006-3.9 2.34-.936 4.914-1.404 7.722-1.404 2.86 0 5.46.442 7.8 1.326 2.34.832 4.342 2.158 6.006 3.978 1.664 1.768 2.938 4.03 3.822 6.786.884 2.704 1.326 5.928 1.326 9.672 0 .52-.26.78-.78.78h-27.69zm19.188-6.63c-.468-2.288-1.534-4.108-3.198-5.46-1.612-1.404-3.77-2.106-6.474-2.106s-4.888.702-6.552 2.106c-1.612 1.352-2.652 3.172-3.12 5.46h19.344zm46.244 14.586a15.72 15.72 0 0 1-6.396 5.694c-2.6 1.3-5.668 1.95-9.204 1.95-2.808 0-5.382-.468-7.722-1.404s-4.342-2.236-6.006-3.9-2.964-3.666-3.9-6.006c-.884-2.392-1.326-4.992-1.326-7.8 0-3.172.52-5.928 1.56-8.268 1.092-2.392 2.522-4.368 4.29-5.928 1.768-1.612 3.77-2.808 6.006-3.588 2.236-.832 4.524-1.274 6.864-1.326 3.536-.104 6.682.572 9.438 2.028 2.808 1.404 5.122 3.458 6.942 6.162.26.416.208.806-.156 1.17l-5.46 4.524c-.468.364-.884.286-1.248-.234a10.76 10.76 0 0 0-3.978-3.51c-1.56-.884-3.328-1.326-5.304-1.326-3.016 0-5.46.936-7.332 2.808s-2.808 4.368-2.808 7.488.936 5.616 2.808 7.488 4.316 2.808 7.332 2.808c2.444 0 4.368-.468 5.772-1.404 1.456-.988 2.574-2.002 3.354-3.042.468-.572.91-.65 1.326-.234l5.07 4.758c.312.312.338.676.078 1.092zm15.352-9.672l.156 3.978c.104 1.04.26 1.872.468 2.496.26.624.572 1.066.936 1.326.416.26.936.39 1.56.39s1.248-.156 1.872-.468 1.066-.572 1.326-.78c.208-.156.416-.208.624-.156s.364.182.468.39l2.34 6.24c.26.52.182.91-.234 1.17-.572.416-1.56.962-2.964 1.638s-3.068.988-4.992.936c-3.276-.052-5.824-1.17-7.644-3.354s-2.704-5.278-2.652-9.282V95.223h-4.914c-.52 0-.78-.234-.78-.702v-6.708c0-.52.26-.78.78-.78h4.914l.078-11.388c0-.52.234-.78.702-.78h7.254c.52 0 .78.26.78.78v11.388h7.488c.52 0 .78.26.78.78v6.708c0 .468-.26.702-.78.702h-7.488l-.078 11.934zm-46.675 28.536c.17 0 .195.065.075.195l-2.715 3.03 3.195 3.48c.12.13.095.195-.075.195h-1.575c-.08 0-.145-.025-.195-.075l-2.895-3.18v3.12c0 .09-.05.135-.15.135h-1.17c-.1 0-.15-.045-.15-.135v-10.56c0-.09.05-.135.15-.135h1.17c.09 0 .135.045.135.135l.015 6.66 2.415-2.79c.05-.05.105-.075.165-.075h1.605zm.82.135a.13.13 0 0 1 .15-.15h.9c.09 0 .15.05.18.15l.165.93c.23-.38.53-.68.9-.9s.825-.33 1.365-.33c.4 0 .765.065 1.095.195a2.29 2.29 0 0 1 .855.585 2.65 2.65 0 0 1 .555.975c.13.38.195.825.195 1.335v3.825a.13.13 0 0 1-.15.15h-1.17a.13.13 0 0 1-.15-.15v-3.63c0-.66-.15-1.13-.45-1.41-.29-.29-.665-.43-1.125-.42-.25 0-.485.055-.705.165-.22.1-.415.25-.585.45-.16.2-.29.44-.39.72a3.2 3.2 0 0 0-.18.93l.015 3.21c0 .09-.05.135-.15.135h-1.155c-.11 0-.165-.045-.165-.135v-6.63zm7.168 3.3c0-.54.085-1.03.255-1.47.17-.45.41-.83.72-1.14.32-.32.7-.565 1.14-.735s.93-.255 1.47-.255 1.03.085 1.47.255c.45.17.83.415 1.14.735.32.31.565.69.735 1.14.17.44.255.93.255 1.47s-.085 1.03-.255 1.47-.415.82-.735 1.14c-.31.32-.69.57-1.14.75-.44.17-.93.255-1.47.255s-1.03-.085-1.47-.255c-.44-.18-.82-.43-1.14-.75-.31-.32-.55-.7-.72-1.14s-.255-.93-.255-1.47zm1.44 0c0 .65.195 1.175.585 1.575.39.39.91.585 1.56.585s1.17-.195 1.56-.585c.39-.4.585-.925.585-1.575s-.195-1.17-.585-1.56c-.39-.4-.91-.6-1.56-.6s-1.17.2-1.56.6c-.39.39-.585.91-.585 1.56zm9.838-3.315c.04-.09.095-.135.165-.135h1.065c.1 0 .16.045.18.135l1.365 4.95 1.14-4.95c.02-.09.07-.135.15-.135h1.35c.11 0 .145.05.105.15l-1.89 6.645c-.02.08-.08.12-.18.12h-1.29c-.08 0-.135-.04-.165-.12l-1.29-4.785-1.305 4.785c-.03.08-.09.12-.18.12h-1.26c-.09 0-.145-.04-.165-.12l-1.935-6.645c-.02-.1.015-.15.105-.15h1.35c.09 0 .145.045.165.135l1.155 4.815 1.365-4.815zm8.885-2.58c0-.29.09-.525.27-.705.19-.18.435-.27.735-.27.29 0 .525.09.705.27s.27.415.27.705c0 .3-.09.54-.27.72s-.415.27-.705.27c-.3 0-.545-.09-.735-.27-.18-.18-.27-.42-.27-.72zm1.71 9.225c0 .09-.045.135-.135.135h-1.155c-.1 0-.15-.045-.15-.135v-6.63c0-.1.045-.15.135-.15h1.17c.09 0 .135.045.135.135v6.645zm3.113-2.775c.01.61.06 1.025.15 1.245a.52.52 0 0 0 .51.33.8.8 0 0 0 .36-.09 2.07 2.07 0 0 0 .27-.18c.04-.02.08-.03.12-.03s.07.02.09.06l.45.99c.05.09.035.165-.045.225-.11.08-.295.185-.555.315-.26.12-.565.18-.915.18-.61 0-1.08-.21-1.41-.63s-.49-1.02-.48-1.8v-3.285h-1.005c-.1 0-.15-.045-.15-.135v-1.05a.13.13 0 0 1 .15-.15h1.02v-2.22c0-.1.045-.15.135-.15h1.17c.09 0 .135.045.135.135v2.235h1.53a.13.13 0 0 1 .15.15v1.05c0 .09-.05.135-.15.135h-1.53v2.67zm5.555-3.855a.13.13 0 0 1 .15-.15h.9c.09 0 .15.05.18.15l.165.93c.23-.38.53-.68.9-.9s.825-.33 1.365-.33c.4 0 .765.065 1.095.195a2.29 2.29 0 0 1 .855.585 2.65 2.65 0 0 1 .555.975c.13.38.195.825.195 1.335v3.825a.13.13 0 0 1-.15.15h-1.17a.13.13 0 0 1-.15-.15v-3.63c0-.66-.15-1.13-.45-1.41-.29-.29-.665-.43-1.125-.42-.25 0-.485.055-.705.165-.22.1-.415.25-.585.45-.16.2-.29.44-.39.72a3.2 3.2 0 0 0-.18.93l.015 3.21c0 .09-.05.135-.15.135h-1.155c-.11 0-.165-.045-.165-.135v-6.63zm7.168 3.3c0-.54.085-1.03.255-1.47.17-.45.41-.83.72-1.14.32-.32.7-.565 1.14-.735s.93-.255 1.47-.255 1.03.085 1.47.255c.45.17.83.415 1.14.735.32.31.565.69.735 1.14.17.44.255.93.255 1.47s-.085 1.03-.255 1.47-.415.82-.735 1.14c-.31.32-.69.57-1.14.75-.44.17-.93.255-1.47.255s-1.03-.085-1.47-.255c-.44-.18-.82-.43-1.14-.75-.31-.32-.55-.7-.72-1.14s-.255-.93-.255-1.47zm1.44 0c0 .65.195 1.175.585 1.575.39.39.91.585 1.56.585s1.17-.195 1.56-.585c.39-.4.585-.925.585-1.575s-.195-1.17-.585-1.56c-.39-.4-.91-.6-1.56-.6s-1.17.2-1.56.6c-.39.39-.585.91-.585 1.56zm9.839-3.315c.04-.09.095-.135.165-.135h1.065c.1 0 .16.045.18.135l1.365 4.95 1.14-4.95c.02-.09.07-.135.15-.135h1.35c.11 0 .145.05.105.15l-1.89 6.645c-.02.08-.08.12-.18.12h-1.29c-.08 0-.135-.04-.165-.12l-1.29-4.785-1.305 4.785c-.03.08-.09.12-.18.12h-1.26c-.09 0-.145-.04-.165-.12l-1.935-6.645c-.02-.1.015-.15.105-.15h1.35c.09 0 .145.045.165.135l1.155 4.815 1.365-4.815z" fill="#18b1b1"/><path d="M206.436 84.639c2.923 2.364 4.703 6.039 5.117 9.666.165 2.012.045 3.992-.522 5.941l-.066.233c-.673 2.258-2.041 4.411-3.182 6.475l-1.334 2.48-1.747 3.254-1.23 2.284-.4.746-.1.187-1.395 2.595-.743 1.383-.19.353-.373.695-.811 1.471c-1.571 2.733-2.457 5.598-1.764 8.701.096.483.146.975.071 1.464-.599.577-2.402.333-3.233.345l-.285.004-1.489.021-1.536.024-1.184.016-.566.009-.791.011-.235.005c-.466.002-.752-.062-1.125-.334-.817-.804-.56-2.745-.555-3.801l.001-.256c.005-1.22.034-2.406.345-3.595l.063-.248c.669-2.57 1.774-4.95 3.127-7.247l.492-.848 2.027-3.419a106.1 106.1 0 0 0 1.568-2.685c.378-.663.775-1.31 1.19-1.953.302-.471.592-.95.88-1.429l.187-.309 1.538-2.583 2.375-3.948 2.637-4.431.167-.287c2.057-3.535 3.157-6.914 3.071-10.99z" fill="#19b1b1"/><path d="M185.965 84.136l-.005.262c-.028 1.712-.049 3.39.318 5.074l.053.241c.944 4.141 3.489 8.037 5.524 11.757l.792 1.465.097.182.379.713.288.54.187.352a12.32 12.32 0 0 0 .442.739l.12.19.338.521c.136.317.136.317.071.629a9.35 9.35 0 0 1-.426.78l-.172.281-.186.301-.399.652-.211.344-1.048 1.76-1.996 3.328-.719 1.203c-.395-.127-.432-.243-.639-.583l-.19-.309-.203-.335-.318-.52-.323-.531-.565-.918c-5.424-8.77-5.424-8.77-6.431-12.511l-.069-.252c-.97-3.729-.305-7.795 1.636-11.126l.198-.341c.495-.809 2.386-3.888 3.457-3.888zm17.546 34.133c.4.152.574.366.823.699l.25.331.137.185.475.615c1.303 1.672 2.55 3.402 3.626 5.219l.435.708.325.538.158.25c.281.476.434.841.328 1.389-.168.487-.454.903-.741 1.331l-.2.308-.603.913-.317.484-.447.682-1.324 2.056-1.667 2.579-1.258 1.952c-.397-.146-.51-.312-.685-.68l-.146-.301-.155-.328-.336-.691-.174-.361c-.921-1.885-1.878-3.797-3.062-5.544-.147-.26-.183-.404-.187-.695l-.004-.255.004-.27.002-.282c.078-3.207 1.924-6.041 3.536-8.745l.77-1.325.135-.235.302-.527z" fill="#82b68d"/><path d="M196.104 79.995c2.177-.066 4.517.626 6.154 2.026l.284.242c1.21 1.093 2.05 2.467 2.134 4.098l-.016 2.205c-.414 0-.625-.189-.946-.415l-.371-.252-.184-.125c-2.556-1.722-5.848-2.34-8.91-1.824-2.093.425-4.192 1.307-5.927 2.515-.164.1-.164.1-.373.1-.074-2.218.075-4.135 1.691-5.865 1.759-1.791 3.948-2.564 6.464-2.706zm-1.508 56.322c.775.558 1.193 1.254 1.474 2.134.112 1.11-.042 2.044-.726 2.966-.76.859-1.7 1.252-2.851 1.351-1.053-.019-2.035-.419-2.768-1.139-.708-.78-.988-1.707-.934-2.737.123-.965.584-1.832 1.352-2.471 1.37-.958 3.044-.975 4.453-.104z" fill="#18b1b1"/><path d="M208.878 19.056a.11.11 0 0 1-.126-.126V17.6c0-.093.046-.14.14-.14h6.93c.084 0 .126.047.126.14v1.316c0 .093-.042.14-.126.14h-2.632v7.994c0 .084-.047.126-.14.126h-1.414a.11.11 0 0 1-.126-.126v-7.994h-2.632zm10.557-1.596c.084 0 .14.037.168.112l3.22 6.454 3.136-6.468c.028-.065.084-.098.168-.098h1.54c.093 0 .14.047.14.14v9.436c0 .093-.047.14-.14.14h-1.4c-.093 0-.14-.047-.14-.14V20.68l-2.506 4.928c-.028.075-.084.112-.168.112h-1.288a.18.18 0 0 1-.168-.098l-2.478-4.886v6.3c0 .093-.047.14-.14.14h-1.372c-.112 0-.168-.056-.168-.168V17.67c0-.14.07-.21.21-.21h1.386z" fill="#000"/><path stroke="#18b1b1" stroke-width="3" d="M251.5 17v121.505"/></svg>