<svg xmlns="http://www.w3.org/2000/svg" width="240" height="163" fill="none" xmlns:v="https://vecta.io/nano"><path d="M46.154 38.418c.52 0 .832.26.936.78l.858 3.9c1.092-1.716 2.496-3.068 4.212-4.056 1.716-1.04 3.796-1.56 6.24-1.56 2.496 0 4.706.598 6.63 1.794 1.976 1.196 3.484 2.964 4.524 5.304 1.196-2.184 2.756-3.9 4.68-5.148 1.976-1.3 4.368-1.95 7.176-1.95 1.924 0 3.692.364 5.304 1.092s2.99 1.794 4.134 3.198 2.028 3.12 2.652 5.148.936 4.342.936 6.942v20.28c0 .572-.234.858-.702.858h-7.332c-.572 0-.858-.286-.858-.858v-18.72c0-3.12-.572-5.408-1.716-6.864-1.092-1.456-2.678-2.184-4.758-2.184-2.184.052-4.004 1.014-5.46 2.886-1.404 1.872-2.132 4.758-2.184 8.658l.078 16.224c0 .572-.26.858-.78.858h-7.41c-.52 0-.78-.286-.78-.858v-18.72c0-3.12-.572-5.408-1.716-6.864-1.092-1.456-2.704-2.184-4.836-2.184-2.08.052-3.822.988-5.226 2.808s-2.158 4.446-2.262 7.878v17.16c0 .52-.26.78-.78.78h-7.332c-.52 0-.78-.26-.78-.78V39.198c0-.52.26-.78.78-.78h5.772zm62.591 21.84c.572 2.184 1.742 3.926 3.51 5.226 1.82 1.3 4.134 1.95 6.942 1.95 1.872 0 3.51-.26 4.914-.78s2.548-1.196 3.432-2.028c.468-.364.91-.39 1.326-.078l4.602 4.758c.364.364.39.754.078 1.17-1.716 1.82-3.848 3.172-6.396 4.056-2.496.832-5.304 1.274-8.424 1.326-2.912 0-5.564-.468-7.956-1.404s-4.446-2.236-6.162-3.9c-1.664-1.664-2.964-3.666-3.9-6.006s-1.404-4.94-1.404-7.8c0-2.808.442-5.382 1.326-7.722.936-2.34 2.236-4.342 3.9-6.006 1.664-1.716 3.666-3.016 6.006-3.9 2.34-.936 4.914-1.404 7.722-1.404 2.86 0 5.46.442 7.8 1.326 2.34.832 4.342 2.158 6.006 3.978 1.664 1.768 2.938 4.03 3.822 6.786.884 2.704 1.326 5.928 1.326 9.672 0 .52-.26.78-.78.78h-27.69zm19.188-6.63c-.468-2.288-1.534-4.108-3.198-5.46-1.612-1.404-3.77-2.106-6.474-2.106s-4.888.702-6.552 2.106c-1.612 1.352-2.652 3.172-3.12 5.46h19.344zm30.957 22.23c-2.756 0-5.278-.468-7.566-1.404-2.236-.936-4.16-2.236-5.772-3.9s-2.86-3.666-3.744-6.006c-.884-2.392-1.326-4.992-1.326-7.8s.442-5.382 1.326-7.722 2.132-4.342 3.744-6.006c1.612-1.716 3.536-3.016 5.772-3.9 2.288-.936 4.81-1.404 7.566-1.404 2.392 0 4.498.442 6.318 1.326 1.872.832 3.432 2.028 4.68 3.588V19.386c0-.52.26-.78.78-.78h7.254c.572 0 .858.26.858.78V74.22c0 .52-.286.78-.858.78h-5.226c-.468 0-.78-.26-.936-.78l-1.092-4.212c-1.3 1.82-2.938 3.25-4.914 4.29s-4.264 1.56-6.864 1.56zm10.92-19.11c0-3.12-.962-5.616-2.886-7.488-1.872-1.872-4.368-2.808-7.488-2.808-3.068 0-5.538.962-7.41 2.886-1.82 1.872-2.73 4.342-2.73 7.41s.936 5.538 2.808 7.41 4.316 2.808 7.332 2.808c3.068 0 5.564-.91 7.488-2.73 1.924-1.872 2.886-4.368 2.886-7.488zm15.37-30.81c0-1.768.52-3.146 1.56-4.134 1.092-1.04 2.496-1.56 4.212-1.56 1.768 0 3.146.52 4.134 1.56 1.04.988 1.56 2.366 1.56 4.134 0 1.716-.52 3.12-1.56 4.212-.988 1.04-2.366 1.56-4.134 1.56-1.716 0-3.12-.52-4.212-1.56-1.04-1.092-1.56-2.496-1.56-4.212zm10.218 48.282c0 .52-.26.78-.78.78h-7.332c-.52 0-.78-.26-.78-.78V39.198c0-.52.286-.78.858-.78h7.332c.468 0 .702.234.702.702v35.1z" fill="#82b68d"/><path d="M51.576 123.858c-2.756 0-5.278-.468-7.566-1.404-2.236-.936-4.16-2.236-5.772-3.9s-2.86-3.666-3.744-6.006c-.884-2.392-1.326-4.992-1.326-7.8s.442-5.382 1.326-7.722 2.132-4.342 3.744-6.006c1.612-1.716 3.536-3.016 5.772-3.9 2.288-.936 4.81-1.404 7.566-1.404 2.392 0 4.498.442 6.318 1.326 1.872.832 3.432 2.028 4.68 3.588V67.386c0-.52.26-.78.78-.78h7.254c.572 0 .858.26.858.78v54.834c0 .52-.286.78-.858.78h-5.226c-.468 0-.78-.26-.936-.78l-1.092-4.212c-1.3 1.82-2.938 3.25-4.914 4.29s-4.264 1.56-6.864 1.56zm10.92-19.11c0-3.12-.962-5.616-2.886-7.488-1.872-1.872-4.368-2.808-7.488-2.808-3.068 0-5.538.962-7.41 2.886-1.82 1.872-2.73 4.342-2.73 7.41s.936 5.538 2.808 7.41 4.316 2.808 7.332 2.808c3.068 0 5.564-.91 7.488-2.73 1.924-1.872 2.886-4.368 2.886-7.488zm23.014 3.51c.572 2.184 1.742 3.926 3.51 5.226 1.82 1.3 4.134 1.95 6.942 1.95 1.872 0 3.51-.26 4.914-.78s2.548-1.196 3.432-2.028c.468-.364.91-.39 1.326-.078l4.602 4.758c.364.364.39.754.078 1.17-1.716 1.82-3.848 3.172-6.396 4.056-2.496.832-5.304 1.274-8.424 1.326-2.912 0-5.564-.468-7.956-1.404s-4.446-2.236-6.162-3.9c-1.664-1.664-2.964-3.666-3.9-6.006s-1.404-4.94-1.404-7.8c0-2.808.442-5.382 1.326-7.722.936-2.34 2.236-4.342 3.9-6.006 1.664-1.716 3.666-3.016 6.006-3.9 2.34-.936 4.914-1.404 7.722-1.404 2.86 0 5.46.442 7.8 1.326 2.34.832 4.342 2.158 6.006 3.978 1.664 1.768 2.938 4.03 3.822 6.786.884 2.704 1.326 5.928 1.326 9.672 0 .52-.26.78-.78.78H85.51zm19.188-6.63c-.468-2.288-1.534-4.108-3.198-5.46-1.612-1.404-3.77-2.106-6.474-2.106s-4.888.702-6.552 2.106c-1.612 1.352-2.652 3.172-3.12 5.46h19.344zm46.245 14.586a15.72 15.72 0 0 1-6.396 5.694c-2.6 1.3-5.668 1.95-9.204 1.95-2.808 0-5.382-.468-7.722-1.404s-4.342-2.236-6.006-3.9-2.964-3.666-3.9-6.006c-.884-2.392-1.326-4.992-1.326-7.8 0-3.172.52-5.928 1.56-8.268 1.092-2.392 2.522-4.368 4.29-5.928 1.768-1.612 3.77-2.808 6.006-3.588 2.236-.832 4.524-1.274 6.864-1.326 3.536-.104 6.682.572 9.438 2.028 2.808 1.404 5.122 3.458 6.942 6.162.26.416.208.806-.156 1.17l-5.46 4.524c-.468.364-.884.286-1.248-.234a10.76 10.76 0 0 0-3.978-3.51c-1.56-.884-3.328-1.326-5.304-1.326-3.016 0-5.46.936-7.332 2.808s-2.808 4.368-2.808 7.488.936 5.616 2.808 7.488 4.316 2.808 7.332 2.808c2.444 0 4.368-.468 5.772-1.404 1.456-.988 2.574-2.002 3.354-3.042.468-.572.91-.65 1.326-.234l5.07 4.758c.312.312.338.676.078 1.092zm15.351-9.672l.156 3.978c.104 1.04.26 1.872.468 2.496.26.624.572 1.066.936 1.326.416.26.936.39 1.56.39s1.248-.156 1.872-.468 1.066-.572 1.326-.78c.208-.156.416-.208.624-.156s.364.182.468.39l2.34 6.24c.26.52.182.91-.234 1.17-.572.416-1.56.962-2.964 1.638s-3.068.988-4.992.936c-3.276-.052-5.824-1.17-7.644-3.354s-2.704-5.278-2.652-9.282V94.608h-4.914c-.52 0-.78-.234-.78-.702v-6.708c0-.52.26-.78.78-.78h4.914l.078-11.388c0-.52.234-.78.702-.78h7.254c.52 0 .78.26.78.78v11.388h7.488c.52 0 .78.26.78.78v6.708c0 .468-.26.702-.78.702h-7.488l-.078 11.934zM118.6 134.1c.17 0 .195.065.075.195l-2.715 3.03 3.195 3.48c.12.13.095.195-.075.195h-1.575c-.08 0-.145-.025-.195-.075l-2.895-3.18v3.12c0 .09-.05.135-.15.135h-1.17c-.1 0-.15-.045-.15-.135v-10.56c0-.09.05-.135.15-.135h1.17c.09 0 .135.045.135.135l.015 6.66 2.415-2.79c.05-.05.105-.075.165-.075h1.605zm.82.135a.13.13 0 0 1 .15-.15h.9c.09 0 .15.05.18.15l.165.93c.23-.38.53-.68.9-.9s.825-.33 1.365-.33c.4 0 .765.065 1.095.195a2.29 2.29 0 0 1 .855.585 2.65 2.65 0 0 1 .555.975c.13.38.195.825.195 1.335v3.825a.13.13 0 0 1-.15.15h-1.17a.13.13 0 0 1-.15-.15v-3.63c0-.66-.15-1.13-.45-1.41-.29-.29-.665-.43-1.125-.42-.25 0-.485.055-.705.165-.22.1-.415.25-.585.45-.16.2-.29.44-.39.72a3.2 3.2 0 0 0-.18.93l.015 3.21c0 .09-.05.135-.15.135h-1.155c-.11 0-.165-.045-.165-.135v-6.63zm7.168 3.3c0-.54.085-1.03.255-1.47.17-.45.41-.83.72-1.14.32-.32.7-.565 1.14-.735s.93-.255 1.47-.255 1.03.085 1.47.255c.45.17.83.415 1.14.735.32.31.565.69.735 1.14.17.44.255.93.255 1.47s-.085 1.03-.255 1.47-.415.82-.735 1.14c-.31.32-.69.57-1.14.75-.44.17-.93.255-1.47.255s-1.03-.085-1.47-.255c-.44-.18-.82-.43-1.14-.75-.31-.32-.55-.7-.72-1.14s-.255-.93-.255-1.47zm1.44 0c0 .65.195 1.175.585 1.575.39.39.91.585 1.56.585s1.17-.195 1.56-.585c.39-.4.585-.925.585-1.575s-.195-1.17-.585-1.56c-.39-.4-.91-.6-1.56-.6s-1.17.2-1.56.6c-.39.39-.585.91-.585 1.56zm9.839-3.315c.04-.09.095-.135.165-.135h1.065c.1 0 .16.045.18.135l1.365 4.95 1.14-4.95c.02-.09.07-.135.15-.135h1.35c.11 0 .145.05.105.15l-1.89 6.645c-.02.08-.08.12-.18.12h-1.29c-.08 0-.135-.04-.165-.12l-1.29-4.785-1.305 4.785c-.03.08-.09.12-.18.12h-1.26c-.09 0-.145-.04-.165-.12l-1.935-6.645c-.02-.1.015-.15.105-.15h1.35c.09 0 .145.045.165.135l1.155 4.815 1.365-4.815zm8.884-2.58c0-.29.09-.525.27-.705.19-.18.435-.27.735-.27.29 0 .525.09.705.27s.27.415.27.705c0 .3-.09.54-.27.72s-.415.27-.705.27c-.3 0-.545-.09-.735-.27-.18-.18-.27-.42-.27-.72zm1.71 9.225c0 .09-.045.135-.135.135h-1.155c-.1 0-.15-.045-.15-.135v-6.63c0-.1.045-.15.135-.15h1.17c.09 0 .135.045.135.135v6.645zm3.113-2.775c.01.61.06 1.025.15 1.245a.52.52 0 0 0 .51.33.8.8 0 0 0 .36-.09 2.07 2.07 0 0 0 .27-.18c.04-.02.08-.03.12-.03s.07.02.09.06l.45.99c.05.09.035.165-.045.225-.11.08-.295.185-.555.315-.26.12-.565.18-.915.18-.61 0-1.08-.21-1.41-.63s-.49-1.02-.48-1.8v-3.285h-1.005c-.1 0-.15-.045-.15-.135v-1.05a.13.13 0 0 1 .15-.15h1.02v-2.22c0-.1.045-.15.135-.15h1.17c.09 0 .135.045.135.135v2.235h1.53a.13.13 0 0 1 .15.15v1.05c0 .09-.05.135-.15.135h-1.53v2.67zm5.555-3.855a.13.13 0 0 1 .15-.15h.9c.09 0 .15.05.18.15l.165.93c.23-.38.53-.68.9-.9s.825-.33 1.365-.33c.4 0 .765.065 1.095.195a2.29 2.29 0 0 1 .855.585 2.65 2.65 0 0 1 .555.975c.13.38.195.825.195 1.335v3.825a.13.13 0 0 1-.15.15h-1.17a.13.13 0 0 1-.15-.15v-3.63c0-.66-.15-1.13-.45-1.41-.29-.29-.665-.43-1.125-.42-.25 0-.485.055-.705.165-.22.1-.415.25-.585.45-.16.2-.29.44-.39.72a3.2 3.2 0 0 0-.18.93l.015 3.21c0 .09-.05.135-.15.135h-1.155c-.11 0-.165-.045-.165-.135v-6.63zm7.168 3.3c0-.54.085-1.03.255-1.47.17-.45.41-.83.72-1.14.32-.32.7-.565 1.14-.735s.93-.255 1.47-.255 1.03.085 1.47.255c.45.17.83.415 1.14.735.32.31.565.69.735 1.14.17.44.255.93.255 1.47s-.085 1.03-.255 1.47-.415.82-.735 1.14c-.31.32-.69.57-1.14.75-.44.17-.93.255-1.47.255s-1.03-.085-1.47-.255c-.44-.18-.82-.43-1.14-.75-.31-.32-.55-.7-.72-1.14s-.255-.93-.255-1.47zm1.44 0c0 .65.195 1.175.585 1.575.39.39.91.585 1.56.585s1.17-.195 1.56-.585c.39-.4.585-.925.585-1.575s-.195-1.17-.585-1.56c-.39-.4-.91-.6-1.56-.6s-1.17.2-1.56.6c-.39.39-.585.91-.585 1.56zm9.839-3.315c.04-.09.095-.135.165-.135h1.065c.1 0 .16.045.18.135l1.365 4.95 1.14-4.95c.02-.09.07-.135.15-.135h1.35c.11 0 .145.05.105.15l-1.89 6.645c-.02.08-.08.12-.18.12h-1.29c-.08 0-.135-.04-.165-.12l-1.29-4.785-1.305 4.785c-.03.08-.09.12-.18.12h-1.26c-.09 0-.145-.04-.165-.12l-1.935-6.645c-.02-.1.015-.15.105-.15h1.35c.09 0 .145.045.165.135l1.155 4.815 1.365-4.815z" fill="#18b1b1"/><path d="M203.878 83.591c2.888 2.334 4.646 5.964 5.055 9.547.163 1.987.044 3.943-.516 5.867l-.065.231c-.665 2.23-2.016 4.355-3.143 6.394l-1.318 2.449-1.725 3.214-1.214 2.256-.396.737-.098.184-1.378 2.563-.734 1.366-.187.348-.368.687-.801 1.452c-1.552 2.7-2.427 5.529-1.742 8.594.094.477.143.963.069 1.446-.591.57-2.372.329-3.193.341l-.281.004-1.471.02-1.516.024-1.17.016-.559.009-.781.01-.232.006c-.461.002-.743-.061-1.112-.33-.806-.794-.553-2.711-.548-3.754l.001-.253c.005-1.205.034-2.376.341-3.551l.062-.244c.662-2.539 1.753-4.889 3.089-7.157l.486-.838 2.002-3.377a103.48 103.48 0 0 0 1.548-2.652c.373-.654.766-1.294 1.175-1.928.298-.466.585-.938.87-1.411l.184-.306 1.519-2.55 2.346-3.9 2.604-4.376.165-.284c2.031-3.492 3.118-6.829 3.032-10.854z" fill="#19b1b1"/><path d="M183.662 83.093l-.005.259c-.028 1.691-.049 3.348.314 5.011l.052.238c.932 4.09 3.446 7.938 5.456 11.611l.782 1.447.095.18.375.704.284.533.185.348a11.69 11.69 0 0 0 .436.729l.119.188.334.514c.134.314.134.314.07.622-.131.265-.265.519-.421.771l-.169.277-.184.297-.394.644-.208.34-1.036 1.738-1.971 3.287-.711 1.188c-.389-.125-.426-.24-.631-.576l-.187-.305-.2-.331-.314-.513-.32-.525-.557-.907c-5.358-8.661-5.358-8.661-6.352-12.356l-.068-.248c-.958-3.683-.301-7.698 1.615-10.989l.196-.336c.49-.799 2.356-3.84 3.415-3.84zm17.328 33.711c.395.15.567.362.813.69l.247.328.136.182.469.608c1.286 1.651 2.518 3.359 3.58 5.154l.431.699.32.531.156.247c.277.47.429.831.324 1.372-.166.48-.448.892-.732 1.315l-.198.304-.595.901-.313.478-.441.674-1.309 2.03-1.646 2.547-1.242 1.928c-.392-.144-.504-.308-.676-.671l-.144-.297-.153-.324-.332-.683-.173-.356c-.908-1.862-1.854-3.751-3.023-5.476a1.19 1.19 0 0 1-.185-.686l-.004-.252.004-.267.002-.279c.077-3.166 1.9-5.966 3.492-8.636l.76-1.309.134-.232.298-.52z" fill="#82b68d"/><path d="M193.675 79.004c2.15-.065 4.461.618 6.078 2.001l.28.239c1.195 1.079 2.025 2.436 2.108 4.048l-.016 2.178c-.409 0-.617-.187-.935-.41l-.366-.249-.182-.123c-2.524-1.701-5.775-2.311-8.799-1.801-2.067.42-4.14 1.291-5.854 2.484-.161.099-.161.099-.368.099-.073-2.19.074-4.084 1.67-5.793 1.737-1.769 3.899-2.532 6.384-2.672zm-1.489 55.624c.765.551 1.178 1.239 1.455 2.108.111 1.096-.041 2.019-.717 2.93-.751.847-1.679 1.236-2.816 1.334-1.039-.019-2.009-.414-2.733-1.125-.7-.771-.976-1.686-.922-2.704.121-.953.576-1.809 1.334-2.44 1.353-.945 3.007-.963 4.399-.103z" fill="#18b1b1"/></svg>