<svg width="20" height="20" viewBox="0 0 20 20" fill="none" xmlns="http://www.w3.org/2000/svg">
<g clip-path="url(#clip0_367_6848)">
<path d="M9.99997 -0.0151367C4.46151 -0.0151367 -0.0149536 4.46132 -0.0149536 9.99979C-0.0149536 15.5382 4.46151 20.0147 9.99997 20.0147C15.5384 20.0147 20.0149 15.5382 20.0149 9.99979C20.0149 4.46132 15.5384 -0.0151367 9.99997 -0.0151367ZM14.8461 7.92286L8.91558 13.831C8.73079 14.0158 8.50001 14.1078 8.26925 14.1078C8.03848 14.1078 7.78426 14.0158 7.62291 13.831L4.69237 10.9229C4.32277 10.5533 4.32277 9.97634 4.69237 9.60766C5.06197 9.23806 5.63889 9.23806 6.00757 9.60766L8.26929 11.8694L13.5311 6.60762C13.9007 6.23802 14.4776 6.23802 14.8463 6.60762C15.1924 6.97632 15.1924 7.57666 14.8463 7.92282L14.8461 7.92286Z" fill="#1EA41D"/>
</g>
<defs>
<clipPath id="clip0_367_6848">
<rect width="20" height="20" fill="white"/>
</clipPath>
</defs>
</svg>
