<svg width="26" height="26" viewBox="0 0 26 26" fill="none" xmlns="http://www.w3.org/2000/svg">
<path d="M7.58317 2.16797H6.49984C3.24984 2.16797 2.1665 4.10714 2.1665 6.5013V7.58464V22.7513C2.1665 23.6505 3.18484 24.1596 3.89984 23.618L5.75234 22.2313C6.18567 21.9063 6.79234 21.9496 7.18234 22.3396L8.98067 24.1488C9.40317 24.5713 10.0965 24.5713 10.519 24.1488L12.339 22.3288C12.7182 21.9496 13.3248 21.9063 13.7473 22.2313L15.5998 23.618C16.3148 24.1488 17.3332 23.6396 17.3332 22.7513V4.33464C17.3332 3.14297 18.3082 2.16797 19.4998 2.16797H7.58317ZM12.1873 14.8971H7.31234C6.86817 14.8971 6.49984 14.5288 6.49984 14.0846C6.49984 13.6405 6.86817 13.2721 7.31234 13.2721H12.1873C12.6315 13.2721 12.9998 13.6405 12.9998 14.0846C12.9998 14.5288 12.6315 14.8971 12.1873 14.8971ZM12.9998 10.5638H6.49984C6.05567 10.5638 5.68734 10.1955 5.68734 9.7513C5.68734 9.30714 6.05567 8.9388 6.49984 8.9388H12.9998C13.444 8.9388 13.8123 9.30714 13.8123 9.7513C13.8123 10.1955 13.444 10.5638 12.9998 10.5638Z" fill="#0101C8"/>
<path d="M19.511 2.16797V3.79297C20.226 3.79297 20.9085 4.08547 21.4068 4.57297C21.9268 5.1038 22.2085 5.7863 22.2085 6.5013V9.12297C22.2085 9.92464 21.851 10.293 21.0385 10.293H18.9585V4.34547C18.9585 4.04214 19.2077 3.79297 19.511 3.79297V2.16797ZM19.511 2.16797C18.3085 2.16797 17.3335 3.14297 17.3335 4.34547V11.918H21.0385C22.7502 11.918 23.8335 10.8346 23.8335 9.12297V6.5013C23.8335 5.30964 23.346 4.2263 22.566 3.43547C21.7752 2.65547 20.7027 2.1788 19.511 2.16797C19.511 2.16797 19.5218 2.16797 19.511 2.16797Z" fill="#0101C8"/>
</svg>
