<svg width="140" height="140" viewBox="0 0 140 140" fill="none" xmlns="http://www.w3.org/2000/svg">
<circle cx="70" cy="70" r="70" fill="#0101C8"/>
<mask id="mask0_473_1504" style="mask-type:alpha" maskUnits="userSpaceOnUse" x="0" y="0" width="140" height="140">
<circle cx="70" cy="70" r="70" fill="#D9D9D9"/>
</mask>
<g mask="url(#mask0_473_1504)">
<path d="M38 47.4896C38 27.8892 53.8893 12 73.4896 12V12C93.09 12 108.979 27.8892 108.979 47.4896V86.6089C108.979 92.8454 103.924 97.901 97.6871 97.901H49.2922C43.0557 97.901 38 92.8454 38 86.6089V47.4896Z" fill="#323232"/>
<path d="M55.4805 61.9656C55.4805 66.6796 51.2257 70.6364 45.8015 70.6364C40.3773 70.6364 36.1225 66.6796 36.1225 61.9656C36.1225 57.2517 40.3773 53.2949 45.8015 53.2949C51.2257 53.2949 55.4805 57.2517 55.4805 61.9656Z" fill="white" stroke="#323232" stroke-width="1.61317"/>
<path d="M90.5669 61.9656C90.5669 66.6796 94.8217 70.6364 100.246 70.6364C105.67 70.6364 109.925 66.6796 109.925 61.9656C109.925 57.2517 105.67 53.2949 100.246 53.2949C94.8217 53.2949 90.5669 57.2517 90.5669 61.9656Z" fill="white" stroke="#323232" stroke-width="1.61317"/>
<rect x="60.1977" y="63.6347" width="27.5101" height="51.6743" rx="5.5561" fill="white" stroke="#323232" stroke-width="1.61317" stroke-linecap="round"/>
<path d="M60.9624 96.9626V80.4453H88.6297C86.5458 88.9154 74.1207 97.4199 60.9624 96.9626Z" fill="#7E7E7E" fill-opacity="0.45"/>
<path d="M56.1651 62.2234C56.1651 66.9374 51.9103 70.8942 46.4861 70.8942C41.0619 70.8942 36.8071 66.9374 36.8071 62.2234C36.8071 57.5095 41.0619 53.5527 46.4861 53.5527C51.9103 53.5527 56.1651 57.5095 56.1651 62.2234Z" fill="white" stroke="#323232" stroke-width="1.61317"/>
<path d="M91.2515 62.2234C91.2515 66.9374 95.5062 70.8942 100.93 70.8942C106.355 70.8942 110.609 66.9374 110.609 62.2234C110.609 57.5095 106.355 53.5527 100.93 53.5527C95.5062 53.5527 91.2515 57.5095 91.2515 62.2234Z" fill="white" stroke="#323232" stroke-width="1.61317"/>
<path d="M100.527 58.0978C100.527 67.1522 98.1241 74.0569 93.6651 78.6961C89.2109 83.3303 82.5935 85.8195 73.9218 85.8195C65.2495 85.8195 58.5209 83.3298 53.9583 78.6895C49.3938 74.0474 46.8891 67.1432 46.8891 58.0978C46.8891 49.0407 49.4023 39.5938 54.0592 32.4354C58.71 25.2865 65.4442 20.4863 73.9218 20.4863C82.3959 20.4863 89.0219 25.2828 93.566 32.4284C98.1173 39.5854 100.527 49.0341 100.527 58.0978Z" fill="white" stroke="#323232" stroke-width="1.61317" stroke-linecap="round"/>
<path d="M73.9096 57.5898C73.1148 60.3369 72.6997 61.7723 72.6997 64.6303C73.7642 65.1395 74.782 65.2668 76.531 65.2524" stroke="#323232" stroke-width="1.61317" stroke-linecap="round" stroke-linejoin="round"/>
<path d="M59.701 62.1205C60.5324 62.1205 61.2697 61.6707 61.7923 60.974C62.3148 60.2773 62.632 59.3241 62.632 58.2798C62.632 57.2354 62.3148 56.2822 61.7923 55.5855C61.2697 54.8888 60.5324 54.439 59.701 54.439C58.8696 54.439 58.1323 54.8888 57.6098 55.5855C57.0873 56.2822 56.77 57.2354 56.77 58.2798C56.77 59.3241 57.0873 60.2773 57.6098 60.974C58.1323 61.6707 58.8696 62.1205 59.701 62.1205Z" fill="#323232" stroke="#323232" stroke-width="0.403291" stroke-linecap="round"/>
<circle cx="60.8496" cy="57.3847" r="1.00823" fill="white" stroke="#323232" stroke-width="0.403291"/>
<path d="M88.7376 62.1205C89.569 62.1205 90.3063 61.6707 90.8289 60.974C91.3514 60.2773 91.6686 59.3241 91.6686 58.2798C91.6686 57.2354 91.3514 56.2822 90.8289 55.5855C90.3063 54.8888 89.569 54.439 88.7376 54.439C87.9063 54.439 87.169 54.8888 86.6464 55.5855C86.1239 56.2822 85.8067 57.2354 85.8067 58.2798C85.8067 59.3241 86.1239 60.2773 86.6464 60.974C87.169 61.6707 87.9063 62.1205 88.7376 62.1205Z" fill="#323232" stroke="#323232" stroke-width="0.403291" stroke-linecap="round"/>
<circle cx="89.8862" cy="57.3847" r="0.806583" fill="white"/>
<path d="M70.6836 71.5C71.8935 72.9787 75.0391 75.049 77.9428 71.5" stroke="#323232" stroke-width="1.61317" stroke-linecap="round" stroke-linejoin="round"/>
<g filter="url(#filter0_f_473_1504)">
<ellipse cx="57.9797" cy="69.4837" rx="3.83127" ry="2.2181" fill="#FC9D80"/>
</g>
<g filter="url(#filter1_f_473_1504)">
<ellipse cx="89.8401" cy="69.4837" rx="3.83127" ry="2.2181" fill="#FC9D80"/>
</g>
<path d="M98.8146 38.5792C100.516 36.7994 100.6 34.7888 100.6 32.6856C100.6 25.138 88.3363 19.0195 73.2089 19.0195C58.0815 19.0195 45.8182 25.138 45.8182 32.6856C45.8182 35.0147 46.986 37.2076 49.0453 39.1267C46.413 40.2841 44.5918 42.7775 44.5918 45.6668C44.5918 49.6594 48.0694 52.896 52.3593 52.896C54.5178 52.896 56.4706 52.0766 57.8783 50.7538C59.286 52.0766 61.2388 52.896 63.3973 52.896C65.5558 52.896 67.5086 52.0766 68.9163 50.7538C70.324 52.0766 72.2769 52.896 74.4354 52.896C76.5938 52.896 78.5467 52.0766 79.9544 50.7538C81.3621 52.0766 83.3149 52.896 85.4734 52.896C87.6319 52.896 89.5847 52.0766 90.9924 50.7538C92.4001 52.0766 94.3529 52.896 96.5114 52.896C100.801 52.896 104.279 49.6594 104.279 45.6668C104.279 42.1305 102.419 39.2057 98.8146 38.5792Z" fill="#323232"/>
<path d="M60.5365 97.4381C67.0474 108.72 82.8132 107.837 87.7296 97.5411C87.8634 97.2609 88.1651 97.1784 88.3583 97.2659C99.2304 102.193 106.37 107.434 111.245 114.277C116.126 121.128 118.798 129.667 120.577 141.312C120.614 141.555 120.423 141.774 120.184 141.774H27.3999C27.1607 141.774 26.9701 141.554 27.0083 141.311C28.9293 129.084 32.0888 120.444 37.2643 113.685C42.4402 106.926 49.6921 101.97 59.9492 97.2228C60.1336 97.1375 60.402 97.2051 60.5365 97.4381Z" fill="white" stroke="#323232" stroke-width="1.61317" stroke-linecap="round" stroke-linejoin="round"/>
</g>
<defs>
<filter id="filter0_f_473_1504" x="49.3089" y="62.4261" width="17.3416" height="14.1165" filterUnits="userSpaceOnUse" color-interpolation-filters="sRGB">
<feFlood flood-opacity="0" result="BackgroundImageFix"/>
<feBlend mode="normal" in="SourceGraphic" in2="BackgroundImageFix" result="shape"/>
<feGaussianBlur stdDeviation="2.41975" result="effect1_foregroundBlur_473_1504"/>
</filter>
<filter id="filter1_f_473_1504" x="81.1693" y="62.4261" width="17.3416" height="14.1165" filterUnits="userSpaceOnUse" color-interpolation-filters="sRGB">
<feFlood flood-opacity="0" result="BackgroundImageFix"/>
<feBlend mode="normal" in="SourceGraphic" in2="BackgroundImageFix" result="shape"/>
<feGaussianBlur stdDeviation="2.41975" result="effect1_foregroundBlur_473_1504"/>
</filter>
</defs>
</svg>
