<svg width="140" height="140" viewBox="0 0 140 140" fill="none" xmlns="http://www.w3.org/2000/svg">
<circle cx="70" cy="70" r="70" fill="#0101C8"/>
<mask id="mask0_472_1436" style="mask-type:alpha" maskUnits="userSpaceOnUse" x="0" y="0" width="140" height="140">
<circle cx="70" cy="70" r="70" fill="#D9D9D9"/>
</mask>
<g mask="url(#mask0_472_1436)">
<path d="M57.5405 98.2239C57.693 98.1955 57.8415 98.1454 57.9812 98.0781L68.7027 92.9109C69.2626 92.6411 69.9207 92.6716 70.4532 92.9921L77.1114 96.9999C77.352 97.1446 77.6259 97.2334 77.9058 97.2555C84.7442 97.796 87.7429 96.6742 90.7381 93.1293C91.3182 92.4428 92.2916 92.2042 93.1444 92.488C94.9711 93.0959 98.1792 93.733 100.645 91.9084C102.25 90.7208 102.798 88.9276 102.907 87.2894C103.012 85.7237 104.823 84.0164 106.381 83.8267C107.971 83.633 109.794 82.9029 111.333 80.9541C113.433 78.2963 113.368 75.7103 112.936 73.9977C112.655 72.8806 113.069 71.4501 113.817 70.5744C114.798 69.4266 115.852 67.43 115.936 64.1137C116.023 60.669 114.873 58.3946 113.811 57.0394C113.071 56.0953 112.902 54.5543 113.432 53.4781C114.15 52.0188 114.682 49.8577 113.545 47.4141C112.985 46.2119 112.173 45.4927 111.285 45.0838C109.674 44.343 107.278 41.646 107.41 39.8784C107.596 37.387 107.118 34.2518 104.812 31.0074C101.522 26.3791 97.1835 25.0526 94.4178 24.7053C93.1242 24.5428 91.8648 23.1787 91.3627 21.9755C90.908 20.8857 89.9777 19.5952 88.1247 18.3726C85.1558 16.4136 82.4435 16.8115 80.967 17.2933C80.2388 17.531 79.4002 17.4865 78.7361 17.1048C77.0938 16.1607 73.7006 14.6567 69.5999 15.3339C65.8742 15.9491 63.1985 18.896 61.7577 20.9319C61.068 21.9067 59.5974 22.2378 58.4971 21.7738C56.5508 20.9531 53.2845 20.2132 49.0301 21.5713C44.2021 23.1124 42.8696 27.095 42.5131 29.5151C42.3576 30.5702 41.4897 31.5044 40.4423 31.7051C38.2749 32.1205 34.6898 33.2933 31.7076 36.605C28.4181 40.2582 28.3355 45.0691 28.5608 47.5372C28.6455 48.4655 28.1343 49.4172 27.4044 49.9969C26.1138 51.022 24.2908 53.1459 23.6026 57.2365C23.0837 60.3214 23.8085 62.4904 24.7297 63.9268C25.5136 65.1491 25.5871 67.4511 24.8659 68.7115C24.1804 69.9093 23.6026 71.5939 23.6026 73.8696C23.6026 76.2658 24.5553 77.827 25.6444 78.8288C26.7511 79.8467 27.582 82.3516 27.781 83.842C27.9308 84.964 28.5176 86.3441 29.9595 87.9438C32.2418 90.4758 34.7217 90.5777 36.5051 90.1469C37.7753 89.84 39.4508 90.4257 40.1983 91.4975C40.8597 92.4457 41.8516 93.5031 43.3089 94.3411C44.8241 95.2124 46.399 95.3286 47.6972 95.1804C49.0756 95.0231 50.6152 96.1492 51.5427 97.1808C52.7236 98.4941 54.931 98.7083 57.5405 98.2239Z" fill="#323232"/>
<rect x="56.9686" y="78.1864" width="25.1417" height="47.2256" rx="5.07777" fill="white" stroke="#323232" stroke-width="1.47429" stroke-linecap="round"/>
<path d="M57.6675 108.642V93.5469H82.9529C81.0484 101.288 69.693 109.06 57.6675 108.642Z" fill="#7E7E7E" fill-opacity="0.45"/>
<path d="M53.2826 76.0833C53.2826 80.3914 49.3941 84.0076 44.4369 84.0076C39.4796 84.0076 35.5911 80.3914 35.5911 76.0833C35.5911 71.7752 39.4796 68.159 44.4369 68.159C49.3941 68.159 53.2826 71.7752 53.2826 76.0833Z" fill="white" stroke="#323232" stroke-width="1.47429"/>
<path d="M83.8737 76.0833C83.8737 80.3914 87.7622 84.0076 92.7194 84.0076C97.6766 84.0076 101.565 80.3914 101.565 76.0833C101.565 71.7752 97.6766 68.159 92.7194 68.159C87.7622 68.159 83.8737 71.7752 83.8737 76.0833Z" fill="white" stroke="#323232" stroke-width="1.47429"/>
<g clip-path="url(#clip0_472_1436)">
<path d="M93.0882 74.5473C93.0882 82.0442 90.9035 87.7567 86.842 91.6006C82.7741 95.4504 76.7174 97.5265 68.7736 97.5265C60.8296 97.5265 54.6711 95.4502 50.5037 91.5948C46.3451 87.7476 44.0682 82.0352 44.0682 74.5473C44.0682 67.0436 46.3573 59.2129 50.6027 53.2767C54.8391 47.3533 60.9939 43.3465 68.7736 43.3465C76.5506 43.3465 82.606 47.3504 86.7445 53.2703C90.8932 59.2046 93.0882 67.0369 93.0882 74.5473Z" fill="white" stroke="#323232" stroke-width="1.47429" stroke-linecap="round"/>
<path d="M68.7047 73.9375C68.0166 77.029 67.6572 78.6444 67.6572 81.8608C68.5789 82.4338 69.4601 82.5771 70.9744 82.5609" stroke="#323232" stroke-width="1.47429" stroke-linecap="round" stroke-linejoin="round"/>
<path d="M55.7766 76.5469C56.5364 76.5469 57.2102 76.1358 57.6878 75.4991C58.1654 74.8624 58.4553 73.9912 58.4553 73.0368C58.4553 72.0823 58.1654 71.2112 57.6878 70.5745C57.2102 69.9377 56.5364 69.5267 55.7766 69.5267C55.0168 69.5267 54.343 69.9377 53.8654 70.5745C53.3879 71.2112 53.0979 72.0823 53.0979 73.0368C53.0979 73.9912 53.3879 74.8624 53.8654 75.4991C54.343 76.1358 55.0168 76.5469 55.7766 76.5469Z" fill="#323232" stroke="#323232" stroke-width="0.368571" stroke-linecap="round"/>
<circle cx="56.827" cy="72.2215" r="0.921429" fill="white" stroke="#323232" stroke-width="0.368571"/>
<path d="M82.3142 76.5469C83.074 76.5469 83.7478 76.1358 84.2254 75.4991C84.7029 74.8624 84.9929 73.9912 84.9929 73.0368C84.9929 72.0823 84.7029 71.2112 84.2254 70.5745C83.7478 69.9377 83.074 69.5267 82.3142 69.5267C81.5544 69.5267 80.8806 69.9377 80.403 70.5745C79.9254 71.2112 79.6355 72.0823 79.6355 73.0368C79.6355 73.9912 79.9254 74.8624 80.403 75.4991C80.8806 76.1358 81.5544 76.5469 82.3142 76.5469Z" fill="#323232" stroke="#323232" stroke-width="0.368571" stroke-linecap="round"/>
<circle cx="83.3641" cy="72.2215" r="0.737143" fill="white"/>
<path d="M65.4458 86.8398C66.5515 88.1913 69.4264 90.0833 72.0801 86.8398" stroke="#323232" stroke-width="1.47429" stroke-linecap="round" stroke-linejoin="round"/>
<g filter="url(#filter0_f_472_1436)">
<ellipse cx="54.9409" cy="84.6326" rx="3.50143" ry="2.02714" fill="#FC9D80"/>
</g>
<g filter="url(#filter1_f_472_1436)">
<ellipse cx="84.0581" cy="84.6326" rx="3.50143" ry="2.02714" fill="#FC9D80"/>
</g>
<path d="M49.8263 64.7248C48.7321 66.7063 47.2021 67.7992 44.8062 69.3382L47.5704 46.1182C47.5704 46.1182 52.3619 39.2996 66.5519 39.1154C80.7419 38.9311 94.0104 51.0939 94.0104 51.0939V69.7068C88.7782 68.7735 84.7025 67.8345 82.4851 64.174C81.0291 61.7704 77.8562 60.1889 75.581 61.8384C74.2724 62.7871 72.4936 62.7538 71.2214 61.7567L69.3179 60.2648C67.6984 58.9954 65.4174 59.0106 63.815 60.3015L62.2368 61.5728C60.8348 62.7022 58.8881 62.8691 57.3143 61.9948L57.0314 61.8377C54.3803 60.3648 51.2924 62.0699 49.8263 64.7248Z" fill="#323232"/>
</g>
<path d="M56.6661 104.735C56.8346 104.657 57.0799 104.719 57.2028 104.931C63.1533 115.242 77.5617 114.435 82.0549 105.026C82.1771 104.77 82.4529 104.694 82.6294 104.774C92.5656 109.277 99.0901 114.067 103.546 120.321C108.007 126.582 110.449 134.386 112.074 145.028C112.108 145.25 111.934 145.45 111.715 145.45H26.919C26.7005 145.45 26.5262 145.25 26.5611 145.028C28.3168 133.853 31.2043 125.957 35.9342 119.78C40.6644 113.602 47.2921 109.073 56.6661 104.735Z" fill="white" stroke="#323232" stroke-width="1.47429" stroke-linecap="round" stroke-linejoin="round"/>
<path d="M87.3755 107.369C81.6626 120.822 57.8898 121.006 52.1769 106.447" stroke="#323232" stroke-width="1.47429"/>
</g>
<defs>
<filter id="filter0_f_472_1436" x="47.0166" y="78.1826" width="15.8486" height="12.9004" filterUnits="userSpaceOnUse" color-interpolation-filters="sRGB">
<feFlood flood-opacity="0" result="BackgroundImageFix"/>
<feBlend mode="normal" in="SourceGraphic" in2="BackgroundImageFix" result="shape"/>
<feGaussianBlur stdDeviation="2.21143" result="effect1_foregroundBlur_472_1436"/>
</filter>
<filter id="filter1_f_472_1436" x="76.1338" y="78.1826" width="15.8486" height="12.9004" filterUnits="userSpaceOnUse" color-interpolation-filters="sRGB">
<feFlood flood-opacity="0" result="BackgroundImageFix"/>
<feBlend mode="normal" in="SourceGraphic" in2="BackgroundImageFix" result="shape"/>
<feGaussianBlur stdDeviation="2.21143" result="effect1_foregroundBlur_472_1436"/>
</filter>
<clipPath id="clip0_472_1436">
<rect width="50.4943" height="70.0286" fill="white" transform="translate(43.3311 28.3516)"/>
</clipPath>
</defs>
</svg>
