<svg width="52" height="52" viewBox="0 0 52 52" fill="none" xmlns="http://www.w3.org/2000/svg">
<path d="M9.75009 35.7501V36.1564C9.75009 37.7265 11.0237 39.0002 12.5939 39.0002H23.1561C24.7262 39.0002 25.9999 37.7266 25.9999 36.1564V35.7501C26.0669 32.8658 24.1758 30.3021 21.4011 29.5143C23.0302 28.0538 23.5887 25.7382 22.8067 23.695C22.0247 21.6515 20.0625 20.3008 17.8748 20.3008C15.6871 20.3008 13.725 21.6516 12.9429 23.695C12.1609 25.7384 12.7195 28.054 14.3486 29.5143C11.5739 30.3024 9.68275 32.8659 9.74977 35.7501H9.75009ZM17.8751 21.9379C19.3539 21.9379 20.6863 22.8296 21.2531 24.1946C21.8198 25.5616 21.507 27.1338 20.4609 28.1799C19.4148 29.226 17.8426 29.5388 16.4756 28.9721C15.1106 28.4054 14.2189 27.0729 14.2189 25.5941C14.2189 23.5751 15.856 21.9379 17.8751 21.9379ZM16.2501 30.8757H19.5001C20.8021 30.8472 22.0595 31.351 22.9796 32.2711C23.8998 33.1913 24.4035 34.4486 24.3751 35.7507V36.1569C24.3751 36.8293 23.8287 37.3757 23.1563 37.3757H12.5941C11.9217 37.3757 11.3753 36.8293 11.3753 36.1569V35.7507C11.3469 34.4486 11.8506 33.1913 12.7708 32.2711C13.6909 31.351 14.9483 30.8472 16.2503 30.8757H16.2501Z" fill="white"/>
<path d="M43.0623 30.0624C42.6134 30.0624 42.2498 30.426 42.2498 30.8749V41.031C42.2498 41.7034 41.7034 42.2498 41.031 42.2498H7.71878C7.04642 42.2498 6.5 41.7034 6.5 41.031V17.4688C6.5 16.7964 7.04642 16.25 7.71878 16.25H25.5938C26.0427 16.25 26.4063 15.8864 26.4063 15.4375C26.4063 14.9886 26.0427 14.625 25.5938 14.625H7.71878C6.14864 14.625 4.875 15.8986 4.875 17.4688V41.031C4.875 42.6012 6.14858 43.8748 7.71878 43.8748H41.031C42.6012 43.8748 43.8748 42.6012 43.8748 41.031V30.8749C43.8748 30.6596 43.7895 30.4524 43.6371 30.3C43.4848 30.1477 43.2776 30.0624 43.0623 30.0624L43.0623 30.0624Z" fill="white"/>
<path d="M48.0513 10.3453C48.0107 9.9573 47.6999 9.65466 47.3119 9.62216C45.7621 9.42106 44.2488 9.0006 42.8188 8.37093C41.3421 7.75546 39.9649 6.92263 38.736 5.89688C38.4252 5.6125 37.9499 5.6125 37.6391 5.89688C36.4102 6.92268 35.033 7.75546 33.5563 8.37093C32.1344 8.99857 30.6292 9.41905 29.0875 9.62216C28.6975 9.65263 28.3867 9.95731 28.344 10.3453C28.3075 10.6906 27.495 18.8036 29.5019 22.8091C31.9028 27.5948 37.6269 30.28 37.8666 30.3939C38.0839 30.4934 38.3317 30.4934 38.5491 30.3939C38.7888 30.2801 44.513 27.5948 46.9138 22.8091C48.9004 18.8035 48.0879 10.6905 48.0513 10.3453ZM45.4391 22.0817C43.6151 25.7257 39.4061 28.1105 38.1877 28.7481C36.969 28.1102 32.76 25.7256 30.9363 22.0817C29.4413 19.0917 29.742 13.1075 29.8882 11.1497C31.369 10.8917 32.8132 10.4611 34.1945 9.86593C35.6163 9.26471 36.959 8.48674 38.1879 7.55032C39.4168 8.48674 40.7594 9.26471 42.1813 9.86593C43.5626 10.4611 45.0068 10.8917 46.4876 11.1497C46.6379 13.1078 46.9385 19.0917 45.4394 22.0817H45.4391Z" fill="white"/>
<path d="M38.8761 20.4124C38.7267 20.5617 38.5401 20.6364 38.3161 20.6364C38.0921 20.6364 37.9001 20.5617 37.7401 20.4124C37.5907 20.2524 37.5107 20.0604 37.5001 19.8364L37.3081 13.2284C37.2974 12.9831 37.3774 12.7697 37.5481 12.5884C37.7294 12.4071 37.9427 12.3164 38.1881 12.3164H38.4441C38.6894 12.3164 38.8974 12.4071 39.0681 12.5884C39.2494 12.7697 39.3347 12.9831 39.3241 13.2284L39.1321 19.8364C39.1214 20.0604 39.0361 20.2524 38.8761 20.4124ZM38.3641 21.9164C38.6094 21.9164 38.8227 22.0071 39.0041 22.1884C39.1854 22.3697 39.2761 22.5831 39.2761 22.8284V23.0844C39.2761 23.3297 39.1854 23.5431 39.0041 23.7244C38.8227 23.9057 38.6094 23.9964 38.3641 23.9964H38.2681C38.0227 23.9964 37.8094 23.9057 37.6281 23.7244C37.4467 23.5431 37.3561 23.3297 37.3561 23.0844V22.8284C37.3561 22.5831 37.4467 22.3697 37.6281 22.1884C37.8094 22.0071 38.0227 21.9164 38.2681 21.9164H38.3641Z" fill="white"/>
<path d="M30.0625 39H38.1875C38.6364 39 39 38.6364 39 38.1875C39 37.7386 38.6364 37.375 38.1875 37.375H30.0625C29.6136 37.375 29.25 37.7386 29.25 38.1875C29.25 38.6364 29.6136 39 30.0625 39Z" fill="white"/>
<path d="M30.0625 34.125H34.9375C35.3864 34.125 35.75 33.7614 35.75 33.3125C35.75 32.8636 35.3864 32.5 34.9375 32.5H30.0625C29.6136 32.5 29.25 32.8636 29.25 33.3125C29.25 33.7614 29.6136 34.125 30.0625 34.125Z" fill="white"/>
</svg>
