<svg width="856" height="612" viewBox="0 0 856 612" fill="none" xmlns="http://www.w3.org/2000/svg">
<g clip-path="url(#clip0_455_862)">
<rect width="856" height="612" fill="white"/>
<mask id="mask0_455_862" style="mask-type:alpha" maskUnits="userSpaceOnUse" x="21" y="12" width="815" height="600">
<path d="M46.1623 13.5726H809.964C822.992 13.5726 833.554 24.1341 833.554 37.1623V586.838C833.554 599.866 822.992 610.427 809.964 610.427H46.1623C33.1341 610.427 22.5726 599.866 22.5726 586.838V37.1623C22.5726 24.1341 33.1341 13.5726 46.1623 13.5726Z" fill="white" stroke="#DBDBDB" stroke-width="3.14529"/>
</mask>
<g mask="url(#mask0_455_862)">
<path d="M476.509 118.409C476.509 125.945 479.362 133.203 484.497 138.729C489.633 144.254 496.671 147.64 504.201 148.207H673.732C682.656 148.026 691.178 144.466 697.57 138.25C703.962 132.033 707.747 123.624 708.158 114.727C708.569 105.829 705.575 97.1085 699.783 90.3315C693.991 83.5545 685.834 79.2281 676.964 78.2288C676.533 64.503 671.328 51.355 662.243 41.0406C653.157 30.7261 640.758 23.8884 627.172 21.7007C613.586 19.513 599.66 22.1116 587.785 29.0507C575.909 35.9898 566.824 46.8367 562.088 59.7303C557.207 57.2681 551.813 55.9919 546.344 56.0057C537.389 56.0046 528.771 59.4115 522.246 65.532C515.721 71.6526 511.781 80.0258 511.229 88.945C509.623 88.6748 507.998 88.5425 506.37 88.5496C498.445 88.5661 490.85 91.7194 485.251 97.3174C479.653 102.915 476.509 110.501 476.509 118.409Z" fill="#0101C8"/>
<path d="M610.903 104.824H574.516V148.292H610.903V104.824Z" fill="white"/>
<path d="M563.131 111.194H622.289L592.7 76.5273L563.131 111.194Z" fill="white"/>
<path d="M675.757 161.562H513.795V172.903H675.757V161.562Z" fill="#DBDBDB"/>
<path d="M634.719 161.562H513.795V172.903H634.719V161.562Z" fill="#0101C8"/>
<path d="M348.081 598.324L353.461 630.598L389.995 827.464H395.896L369.33 630.598L365.409 598.324H348.081Z" fill="#C7C7C7"/>
<path d="M365.409 598.324H348.081L353.461 630.598H369.33L365.409 598.324Z" fill="#A6A6A6"/>
<path d="M233.35 827.464H239.251L275.784 630.598L281.164 598.324H263.836L259.916 630.598L233.35 827.464Z" fill="#C7C7C7"/>
<path d="M263.836 598.324L259.916 630.598H275.784L281.164 598.324H263.836Z" fill="#A6A6A6"/>
<path d="M123.792 827.464H129.672L166.205 630.598L171.606 598.324H154.278L150.358 630.598L123.792 827.464Z" fill="#C7C7C7"/>
<path d="M150.355 630.598H166.203L171.604 598.324H154.276L150.355 630.598Z" fill="#A6A6A6"/>
<path d="M133.111 613.482H400.815V585.328H300.598L266.922 426.125H143.329L133.111 613.482Z" fill="#C7C7C7"/>
<path d="M148.71 585.328H400.816V613.482H147.709L148.71 585.328Z" fill="#DBDBDB"/>
<path d="M133.111 613.482H147.708L157.217 426.125H143.329L133.111 613.482Z" fill="#DBDBDB"/>
<path d="M401.38 795.822L303.373 766.503C303.373 766.503 384.135 598.561 381.591 590.009C379.902 584.307 258.811 583.912 223.32 552.117C186.599 519.199 215.188 454.548 215.188 454.548L316.99 454.027C316.99 454.027 315.238 475.231 319.075 478.539C321.64 480.724 460.872 492.959 487.48 544.023C511.752 590.362 401.38 795.822 401.38 795.822Z" fill="#183C4F"/>
<path d="M381.611 590.009C382.069 591.444 380.088 597.479 376.502 606.509L449.673 696.213C475.78 636.869 500.303 568.41 487.562 544.023C460.892 492.959 321.722 480.724 319.137 478.539C315.279 475.252 317.051 454.027 317.051 454.027L252.409 454.36L359.799 585.993C372.728 587.408 381.173 588.531 381.611 590.009Z" fill="#263238"/>
<path d="M220.671 473.892C220.984 470.501 221.38 467.13 221.756 463.738C221.756 463.343 222.423 463.363 222.381 463.738C221.026 477.471 219.629 491.538 222.152 505.229C224.477 517.867 230.859 529.407 240.335 538.106C260.541 556.834 288.776 562.431 315.091 566.905C330.168 569.464 345.327 571.42 360.55 572.918C368.001 573.64 375.459 574.236 382.925 574.708C390.348 575.166 397.771 575.228 405.174 575.644C407.51 575.769 409.595 576.851 409.22 579.515C408.844 581.141 408.247 582.709 407.447 584.176L405.07 589.565C402.081 596.265 399.092 602.965 396.103 609.666C389.917 623.454 383.661 637.209 377.336 650.928C364.672 678.159 351.542 705.168 337.946 731.955C336.278 735.264 334.568 738.593 332.879 741.922C332.879 742.13 332.462 741.922 332.566 741.714C345.536 714.594 358.36 687.398 371.039 660.125C377.294 646.6 383.55 633.075 389.806 619.487C392.92 612.703 396.006 605.913 399.064 599.116C400.607 595.731 402.137 592.325 403.652 588.899C404.423 587.214 405.174 585.507 405.946 583.801C406.717 582.095 408.886 578.994 407.28 577.559C406.217 576.685 404.027 576.976 402.755 576.955L396.833 576.747C393.101 576.622 389.368 576.477 385.614 576.289C378.052 575.915 370.489 575.401 362.927 574.749C348.122 573.459 333.379 571.587 318.72 569.235C292.571 565.074 264.128 560.309 243.192 542.788C233.846 535.196 226.884 525.084 223.132 513.657C219.066 500.86 219.462 487.126 220.671 473.892Z" fill="#455A64"/>
<path d="M578.668 707.512L480.954 756.224C480.954 756.224 404.717 601.577 396.355 591.569C385.199 578.272 239.962 597.041 205.701 554.114C170.252 509.73 200.634 454.609 200.634 454.609H311.152C311.152 454.609 311.486 466.845 305.105 484.74C305.105 484.74 431.533 477.228 467.316 511.936C494.821 538.529 578.668 707.512 578.668 707.512Z" fill="#183C4F"/>
<path d="M284.939 495.835C290.596 491.943 296.464 488.366 302.517 485.119C306.769 482.887 311.233 481.082 315.842 479.73C319.074 478.96 320.471 478.731 317.448 480.146L309.315 483.996C309.899 483.996 310.483 483.996 311.046 483.996C313.131 483.996 315.383 483.808 317.552 483.767C321.722 483.642 326.06 483.767 330.314 483.663C338.946 483.663 347.475 484.412 356.087 484.849C356.124 484.861 356.156 484.885 356.178 484.917C356.201 484.949 356.213 484.987 356.213 485.026C356.213 485.064 356.201 485.102 356.178 485.134C356.156 485.166 356.124 485.19 356.087 485.202C347.496 484.932 338.863 485.369 330.272 485.348C326.101 485.348 321.764 485.452 317.51 485.535L311.254 485.639C309.497 485.733 307.736 485.733 305.979 485.639L303.601 486.763C297.346 489.697 291.09 492.777 285.105 496.168C284.939 496.189 284.813 495.96 284.939 495.835Z" fill="#455A64"/>
<path d="M313.799 450.436C312.673 455.659 311.714 460.84 310.4 466.063C309.816 468.435 309.211 470.828 308.315 473.137C307.647 475.093 306.584 477.299 304.353 477.819C301.809 478.402 300.995 476.238 301.141 474.115C301.287 471.993 301.829 469.35 302.205 467.02C302.664 464.315 303.122 461.61 303.519 458.905C303.706 457.552 303.915 456.2 304.102 454.743C304.102 454.41 304.311 451.83 304.478 451.081C304.478 451.081 304.478 451.206 304.624 451.185C304.661 451.18 304.695 451.164 304.722 451.137C304.748 451.111 304.765 451.076 304.77 451.039C304.793 450.97 304.792 450.894 304.765 450.825C304.738 450.757 304.688 450.7 304.624 450.665C304.624 450.665 304.478 450.665 304.394 450.665C303.915 450.935 303.894 451.622 303.769 452.121C303.393 453.432 302.997 454.764 302.664 456.075C302.038 458.572 301.412 461.069 300.87 463.566C300.328 466.063 299.807 468.601 299.285 471.098C298.704 472.964 298.596 474.945 298.973 476.862C299.236 477.766 299.784 478.561 300.535 479.13C301.286 479.7 302.2 480.013 303.143 480.025C303.143 480.191 302.955 480.358 302.893 480.524C302.684 481.045 302.538 481.586 302.351 482.127C302.163 482.668 302.017 483.209 301.871 483.75C301.851 484.02 301.851 484.291 301.871 484.561C301.871 484.852 301.871 485.144 301.871 485.456C301.848 485.557 301.865 485.664 301.917 485.754C301.969 485.844 302.053 485.912 302.153 485.943C302.252 485.975 302.36 485.968 302.454 485.924C302.549 485.88 302.624 485.802 302.664 485.706C302.81 485.435 302.997 485.227 303.143 484.977C303.288 484.693 303.4 484.393 303.477 484.082C303.623 483.562 303.769 483.042 303.873 482.522C304.016 481.995 304.128 481.46 304.207 480.92C304.238 480.608 304.238 480.295 304.207 479.983C305.29 479.848 306.315 479.415 307.168 478.735C308.586 477.447 309.599 475.778 310.087 473.928C310.796 471.743 311.338 469.496 311.86 467.27C313.254 461.811 314.168 456.241 314.591 450.623C314.565 450.546 314.52 450.477 314.46 450.422C314.4 450.367 314.326 450.329 314.247 450.31C314.168 450.291 314.085 450.293 314.007 450.315C313.928 450.337 313.857 450.378 313.799 450.436Z" fill="#455A64"/>
<path d="M260.5 465.265C260.104 467.845 259.895 470.425 259.395 472.985C258.894 475.544 258.311 478 257.581 480.455C256.918 482.834 255.929 485.11 254.641 487.218C253.285 489.198 251.648 490.971 249.782 492.482C246.233 495.503 242.21 497.921 237.875 499.64C235.69 500.509 233.455 501.246 231.181 501.846C229.993 502.137 228.804 502.387 227.595 502.595C226.594 502.659 225.616 502.92 224.717 503.365C224.631 503.417 224.559 503.49 224.51 503.577C224.46 503.665 224.434 503.764 224.434 503.864C224.434 503.965 224.46 504.064 224.51 504.151C224.559 504.239 224.631 504.312 224.717 504.364C226.48 504.833 228.335 504.833 230.097 504.364C232.029 504.115 233.939 503.718 235.811 503.177C239.592 502.045 243.193 500.385 246.508 498.246C249.864 496.197 252.847 493.593 255.329 490.547C257.628 487.343 259.161 483.655 259.812 479.768C260.855 475.023 261.227 470.155 260.917 465.307C260.898 465.27 260.87 465.238 260.835 465.215C260.801 465.192 260.761 465.177 260.72 465.173C260.678 465.169 260.637 465.175 260.598 465.191C260.56 465.207 260.526 465.233 260.5 465.265V465.265Z" fill="#455A64"/>
<path d="M200.695 480.289C200.695 480.189 200.735 480.094 200.805 480.024C200.876 479.954 200.971 479.914 201.071 479.914C201.17 479.914 201.266 479.954 201.336 480.024C201.406 480.094 201.446 480.189 201.446 480.289C201.237 504.239 204.928 531.019 223.424 548.206C243.672 567.059 272.907 569.306 299.202 569.015C314.32 568.89 329.376 568.515 344.473 569.015C359.57 569.514 374.959 570.221 390.036 572.157C395.899 572.705 401.376 575.316 405.487 579.523C409.455 584.023 412.897 588.958 415.747 594.234C423.337 606.719 430.691 619.412 437.809 632.313C451.974 657.824 465.07 683.869 477.095 710.448C478.596 713.749 480.077 717.058 481.536 720.373C481.641 720.581 481.307 720.768 481.203 720.56C468.983 693.884 455.825 667.673 441.729 641.926C434.695 629.039 427.431 616.291 419.938 603.681C416.414 597.751 413.015 591.675 409.074 585.994C405.612 580.979 401.254 576.277 395.249 574.445C391.559 573.53 387.787 572.986 383.988 572.822C380.138 572.476 376.28 572.157 372.415 571.865C364.895 571.324 357.36 570.915 349.811 570.638C334.589 570.076 319.387 570.263 304.165 570.534C277.745 571.012 248.864 570.117 227.011 553.325C217.646 545.997 210.577 536.149 206.638 524.943C202.762 513.449 200.776 501.405 200.758 489.278C200.612 486.323 200.633 483.306 200.695 480.289Z" fill="#455A64"/>
<path d="M358.944 585.215C364.324 585.215 369.725 585.527 375.105 585.714C379.596 585.641 384.083 586.038 388.492 586.901C392.662 587.92 395.811 588.399 399.147 592.956C403.318 598.636 426.005 642.396 435.535 661.768C438.176 667.137 440.783 672.526 443.355 677.936C446.003 683.534 448.338 689.256 450.987 694.853C450.987 695.04 450.778 695.228 450.674 695.02C448.338 690.338 445.732 685.802 443.334 681.161C440.936 676.521 438.559 671.839 436.223 667.158C431.483 657.711 426.749 648.271 422.023 638.838C417.289 629.474 411.596 620.36 406.779 611.059C402.755 603.235 397.271 592.54 393.434 590.958C388.083 588.863 382.47 587.505 376.752 586.921C370.809 586.505 364.866 586.151 358.923 585.631C358.896 585.63 358.869 585.623 358.844 585.611C358.819 585.6 358.797 585.583 358.779 585.563C358.76 585.543 358.746 585.519 358.737 585.493C358.728 585.467 358.723 585.44 358.725 585.413C358.726 585.385 358.733 585.359 358.745 585.334C358.756 585.309 358.773 585.287 358.793 585.269C358.814 585.25 358.837 585.236 358.863 585.227C358.889 585.218 358.916 585.214 358.944 585.215V585.215Z" fill="#455A64"/>
<path d="M273.156 252.943C269.482 254.347 266.239 256.683 263.746 259.718C261.252 262.754 259.594 266.386 258.934 270.255C258.274 275.261 256.955 280.158 255.014 284.821C252.541 289.419 249.4 293.626 245.693 297.306C240.063 303.403 235.996 309.583 234.641 318.114C233.004 327.128 233.267 336.383 235.413 345.289C235.413 345.289 235.413 345.289 235.413 345.289C233.76 335.918 234.051 326.308 236.268 317.053C238.478 307.71 244.233 302.112 250.176 295.287C254.911 289.993 258.131 283.524 259.497 276.56C260.31 272.294 260.54 267.8 262.542 263.867C264.94 259.144 269.256 256.335 273.531 253.858C273.615 253.787 273.674 253.692 273.7 253.585C273.726 253.478 273.718 253.366 273.676 253.265C273.635 253.163 273.562 253.077 273.468 253.019C273.375 252.962 273.265 252.935 273.156 252.943V252.943Z" fill="#183C4F"/>
<path d="M346.393 307.64C341.618 300.544 336.571 294.447 334.069 285.853C331.796 278.03 330.733 269.852 328.397 262.028C328.397 261.903 328.168 262.028 328.21 262.028C331.671 275.866 331.629 289.62 339.679 301.564C344.037 308.056 348.437 314.049 351.106 321.748C353.794 329.741 354.926 338.174 354.442 346.592C354.442 346.884 354.817 346.905 354.88 346.592C357.026 333.006 353.998 319.11 346.393 307.64Z" fill="#183C4F"/>
<path d="M288.109 356.602C294.802 396.658 321.619 447.263 328.041 450.364C339.427 455.857 415.622 461.767 418.604 461.496C426.069 460.789 435.285 410.974 429.03 405.855C427.612 404.711 355.233 404.17 352.167 403.254C348.393 402.13 330.543 376.432 312.026 350.276C299.14 331.903 284.564 335.232 288.109 356.602Z" fill="#3D8BC5"/>
<path d="M409.386 458.939C416.539 461.933 423.881 464.457 431.365 466.493C437.35 467.845 454.615 471.279 456.763 464.891C458.244 460.521 448.422 457.296 441.353 454.861C437.683 453.592 433.012 450.096 433.972 447.745C435.577 443.583 445.044 447.12 451.3 450.283C463.436 456.401 479.764 467.72 486.582 461.374C489.147 458.96 485.769 455.132 480.931 451.324C488.668 455.485 496.863 458.919 499.824 456.359C500.586 455.705 501.069 454.785 501.174 453.787C501.279 452.789 500.997 451.788 500.387 450.991C501.354 451.371 502.413 451.457 503.429 451.239C504.446 451.02 505.375 450.507 506.1 449.763C508.373 447.079 506.976 443.521 504.015 439.733C504.462 439.65 504.883 439.464 505.245 439.189C505.607 438.915 505.9 438.56 506.1 438.152C510.792 430.037 483.746 409.021 474.822 407.522C448.297 402.841 420.605 406.732 420.605 406.732C410.825 415.534 409.366 458.919 409.386 458.939Z" fill="#EB9481"/>
<path d="M446.422 432.369C452.722 432.913 458.82 434.854 464.272 438.05C470.632 441.878 475.803 447.309 481.726 451.7C481.892 451.825 481.726 452.074 481.538 451.949C478.744 449.661 475.699 447.642 472.801 445.457C469.902 443.272 467.212 441.088 464.251 439.215C458.9 435.649 452.801 433.357 446.422 432.515C446.422 432.515 446.36 432.348 446.422 432.369Z" fill="#263238"/>
<path d="M450.655 421.002C457.739 422.229 464.678 424.182 471.361 426.829C478.555 429.971 484.373 435.443 490.128 440.708C493.548 443.85 496.906 447.096 500.179 450.404C500.325 450.529 500.179 450.779 499.992 450.633C494.195 445.195 488.245 439.938 482.142 434.861C476.504 430.104 469.976 426.511 462.937 424.29C458.912 423.021 454.804 422.064 450.696 421.106C450.55 421.106 450.571 420.982 450.655 421.002Z" fill="#263238"/>
<path d="M457.429 410.863C464.185 411.841 470.087 412.674 476.196 415.899C483.097 419.949 489.465 424.842 495.151 430.465C498.265 433.419 501.296 436.45 504.243 439.558C504.347 439.683 504.139 439.891 504.014 439.766C497.239 433.001 490.037 426.676 482.452 420.83C478.887 417.982 474.898 415.707 470.629 414.089C466.318 412.688 461.895 411.658 457.408 411.009C457.408 411.009 457.408 410.863 457.429 410.863Z" fill="#263238"/>
<path d="M411.367 426.133V463.588C411.367 463.588 348.059 461.008 327.728 452.247C316.801 447.524 288.963 377.504 285.168 355.094C281.435 333.037 290.172 319.97 312.776 345.564C330.105 365.186 355.545 400.581 357.568 401.559C359.59 402.537 411.45 398.729 411.45 398.729V426.092" fill="#0190FF"/>
<path d="M289.984 370.395C289.984 370.923 289.808 371.435 289.484 371.852C289.088 370.583 288.691 369.334 288.337 368.127C288.817 368.282 289.236 368.585 289.532 368.993C289.828 369.4 289.986 369.892 289.984 370.395ZM320.22 367.981C319.742 367.981 319.274 368.123 318.876 368.388C318.479 368.654 318.169 369.03 317.986 369.472C317.803 369.913 317.755 370.398 317.848 370.866C317.941 371.334 318.172 371.764 318.51 372.102C318.848 372.44 319.279 372.669 319.748 372.763C320.218 372.856 320.704 372.808 321.146 372.625C321.588 372.443 321.966 372.133 322.232 371.736C322.497 371.339 322.639 370.873 322.639 370.395C322.634 369.757 322.377 369.146 321.925 368.694C321.472 368.243 320.86 367.987 320.22 367.981ZM303.893 343.012C303.414 343.012 302.947 343.153 302.549 343.419C302.151 343.684 301.841 344.061 301.658 344.502C301.475 344.943 301.427 345.428 301.52 345.896C301.614 346.365 301.844 346.795 302.182 347.132C302.521 347.47 302.952 347.7 303.421 347.793C303.89 347.886 304.377 347.838 304.819 347.655C305.261 347.473 305.638 347.163 305.904 346.766C306.17 346.37 306.312 345.903 306.312 345.425C306.295 344.796 306.033 344.198 305.582 343.759C305.13 343.32 304.524 343.074 303.893 343.074V343.012ZM320.22 416.381C319.736 416.377 319.262 416.517 318.857 416.783C318.453 417.049 318.137 417.429 317.95 417.874C317.762 418.32 317.712 418.811 317.806 419.286C317.899 419.76 318.132 420.195 318.474 420.537C318.817 420.879 319.254 421.111 319.729 421.204C320.204 421.298 320.696 421.248 321.143 421.061C321.589 420.874 321.97 420.559 322.237 420.155C322.503 419.752 322.643 419.278 322.639 418.795C322.634 418.157 322.377 417.546 321.925 417.094C321.472 416.643 320.86 416.387 320.22 416.381V416.381ZM352.854 416.381C352.371 416.381 351.899 416.525 351.497 416.793C351.095 417.061 350.783 417.443 350.599 417.889C350.415 418.335 350.367 418.826 350.463 419.298C350.559 419.771 350.794 420.205 351.137 420.545C351.48 420.884 351.917 421.115 352.391 421.206C352.866 421.298 353.357 421.246 353.803 421.059C354.248 420.872 354.628 420.556 354.893 420.153C355.159 419.75 355.298 419.277 355.294 418.795C355.294 418.476 355.231 418.161 355.108 417.866C354.985 417.572 354.805 417.305 354.578 417.081C354.352 416.856 354.082 416.679 353.787 416.559C353.491 416.439 353.174 416.378 352.854 416.381V416.381ZM385.509 416.381C385.025 416.377 384.551 416.517 384.146 416.783C383.742 417.049 383.426 417.429 383.239 417.874C383.051 418.32 383.001 418.811 383.095 419.286C383.188 419.76 383.421 420.195 383.764 420.537C384.106 420.879 384.543 421.111 385.018 421.204C385.493 421.298 385.985 421.248 386.432 421.061C386.879 420.874 387.259 420.559 387.526 420.155C387.792 419.752 387.932 419.278 387.928 418.795C387.928 418.155 387.674 417.541 387.22 417.088C386.766 416.636 386.151 416.381 385.509 416.381ZM303.893 391.411C303.409 391.407 302.934 391.547 302.53 391.813C302.125 392.079 301.809 392.459 301.622 392.905C301.435 393.35 301.385 393.842 301.478 394.316C301.572 394.79 301.804 395.226 302.147 395.567C302.489 395.909 302.926 396.141 303.401 396.235C303.876 396.328 304.369 396.278 304.815 396.091C305.262 395.904 305.643 395.589 305.909 395.186C306.176 394.782 306.316 394.308 306.312 393.825C306.312 393.185 306.057 392.571 305.603 392.118C305.15 391.666 304.534 391.411 303.893 391.411V391.411ZM336.548 391.411C336.064 391.407 335.589 391.547 335.185 391.813C334.78 392.079 334.464 392.459 334.277 392.905C334.09 393.35 334.04 393.842 334.133 394.316C334.227 394.79 334.459 395.226 334.802 395.567C335.144 395.909 335.581 396.141 336.056 396.235C336.531 396.328 337.024 396.278 337.47 396.091C337.917 395.904 338.298 395.589 338.564 395.186C338.831 394.782 338.971 394.308 338.967 393.825C338.967 393.185 338.712 392.571 338.258 392.118C337.805 391.666 337.189 391.411 336.548 391.411V391.411ZM336.548 439.77C336.064 439.765 335.591 439.905 335.187 440.17C334.783 440.435 334.467 440.814 334.279 441.258C334.091 441.702 334.04 442.193 334.132 442.666C334.223 443.14 334.454 443.576 334.794 443.918C335.135 444.261 335.569 444.495 336.043 444.59C336.517 444.686 337.009 444.639 337.456 444.455C337.903 444.272 338.285 443.96 338.554 443.559C338.823 443.158 338.967 442.687 338.967 442.204C338.961 441.566 338.705 440.955 338.252 440.503C337.8 440.052 337.188 439.796 336.548 439.79V439.77ZM369.182 439.77C368.699 439.77 368.228 439.912 367.827 440.18C367.425 440.447 367.113 440.828 366.928 441.273C366.743 441.717 366.695 442.207 366.789 442.679C366.883 443.151 367.116 443.585 367.457 443.926C367.798 444.266 368.233 444.498 368.706 444.592C369.179 444.686 369.67 444.638 370.116 444.453C370.561 444.269 370.942 443.957 371.211 443.557C371.479 443.156 371.622 442.686 371.622 442.204C371.622 441.885 371.558 441.57 371.436 441.276C371.313 440.981 371.133 440.714 370.906 440.49C370.679 440.266 370.41 440.088 370.114 439.968C369.818 439.848 369.501 439.788 369.182 439.79V439.77ZM401.837 439.77C401.354 439.765 400.88 439.905 400.476 440.17C400.072 440.435 399.756 440.814 399.568 441.258C399.38 441.702 399.329 442.193 399.421 442.666C399.513 443.14 399.743 443.576 400.084 443.918C400.424 444.261 400.859 444.495 401.332 444.59C401.806 444.686 402.298 444.639 402.745 444.455C403.192 444.272 403.574 443.96 403.843 443.559C404.112 443.158 404.256 442.687 404.256 442.204C404.256 441.564 404.001 440.95 403.547 440.497C403.094 440.045 402.478 439.79 401.837 439.79V439.77Z" fill="white"/>
<path d="M397.834 429.967C397.834 425.389 397.98 420.832 398.084 416.254C398.189 411.676 398.084 407.099 398.585 402.562C398.585 402.354 398.939 402.334 398.96 402.562C399.356 406.953 399.252 411.427 399.336 415.838C399.419 420.249 399.336 425.181 399.461 429.842C399.461 439.081 399.19 448.299 398.71 457.517C398.71 457.746 398.376 457.704 398.376 457.517C397.98 448.299 397.73 439.143 397.834 429.967Z" fill="#263238"/>
<path opacity="0.1" d="M376.544 461.164C358.319 459.416 337.738 456.607 327.687 452.279C316.74 447.555 288.922 377.536 285.148 355.105C283.063 342.745 284.856 333.194 290.882 331.758L376.544 461.164Z" fill="black"/>
<path d="M319.68 432.553L321.766 471.236H188.456C188.456 471.236 226.449 361.868 252.077 338.75C269.405 323.123 287.797 326.099 298.494 339.125C301.205 342.413 329.064 381.178 331.17 399.468C333.047 415.532 319.68 432.553 319.68 432.553Z" fill="#0190FF"/>
<path d="M320.847 453.84C320.138 446.765 319.555 439.669 319.054 432.595V432.366L319.221 432.137C322.838 427.333 325.758 422.044 327.896 416.427C328.936 413.626 329.684 410.725 330.127 407.771C330.63 404.847 330.666 401.862 330.231 398.927C329.824 395.96 329.126 393.039 328.146 390.209C327.207 387.339 326.121 384.519 324.893 381.76C322.379 376.223 319.552 370.832 316.427 365.613C320.029 370.558 323.203 375.8 325.915 381.282C328.794 386.741 330.819 392.607 331.92 398.677C332.77 404.89 331.95 411.217 329.543 417.009C327.322 422.782 324.189 428.163 320.264 432.948L320.41 432.511C320.576 439.628 320.785 446.723 320.847 453.84Z" fill="#263238"/>
<path d="M322.766 371.129C324.055 373.339 325.097 375.683 325.873 378.12C326.266 379.342 326.586 380.586 326.832 381.845C327.102 383.109 327.208 384.403 327.145 385.695C326.373 383.239 325.518 380.888 324.747 378.495C323.945 376.08 323.283 373.62 322.766 371.129V371.129Z" fill="#263238"/>
<path d="M257.351 370.403C257.355 370.886 257.216 371.358 256.95 371.761C256.684 372.164 256.305 372.48 255.859 372.667C255.414 372.855 254.923 372.906 254.448 372.814C253.974 372.723 253.537 372.493 253.194 372.153C252.85 371.813 252.616 371.379 252.52 370.907C252.424 370.434 252.471 369.943 252.655 369.497C252.839 369.051 253.152 368.67 253.554 368.401C253.955 368.133 254.428 367.989 254.911 367.989C255.231 367.987 255.547 368.047 255.843 368.167C256.139 368.287 256.408 368.465 256.635 368.689C256.862 368.913 257.042 369.18 257.165 369.475C257.288 369.769 257.351 370.084 257.351 370.403V370.403ZM287.566 367.989C287.088 367.989 286.62 368.131 286.222 368.396C285.825 368.661 285.515 369.038 285.331 369.48C285.148 369.921 285.1 370.406 285.194 370.874C285.287 371.342 285.518 371.772 285.856 372.11C286.194 372.448 286.625 372.677 287.094 372.771C287.564 372.864 288.05 372.816 288.492 372.633C288.934 372.451 289.312 372.141 289.577 371.744C289.843 371.347 289.985 370.881 289.985 370.403C289.985 370.086 289.923 369.772 289.801 369.48C289.679 369.187 289.501 368.921 289.277 368.696C289.052 368.472 288.785 368.294 288.492 368.173C288.198 368.052 287.884 367.989 287.566 367.989V367.989ZM318.282 368.947C317.957 369.363 317.781 369.876 317.781 370.403C317.787 371.045 318.046 371.659 318.503 372.111C318.96 372.563 319.578 372.817 320.221 372.817H320.388C319.762 371.506 319.033 370.216 318.303 368.947H318.282ZM271.239 343.082C270.761 343.086 270.296 343.231 269.901 343.499C269.506 343.767 269.199 344.145 269.019 344.586C268.839 345.028 268.794 345.513 268.89 345.979C268.985 346.446 269.217 346.874 269.557 347.21C269.896 347.545 270.327 347.773 270.795 347.865C271.264 347.956 271.749 347.907 272.19 347.724C272.631 347.541 273.007 347.231 273.272 346.835C273.537 346.438 273.678 345.972 273.678 345.496C273.679 345.177 273.615 344.862 273.492 344.567C273.37 344.273 273.189 344.006 272.963 343.782C272.736 343.557 272.467 343.38 272.171 343.26C271.875 343.14 271.558 343.079 271.239 343.082V343.082ZM302.1 343.894C301.693 344.327 301.469 344.901 301.475 345.496C301.475 346.136 301.73 346.75 302.183 347.203C302.637 347.655 303.252 347.91 303.894 347.91C304.2 347.908 304.504 347.852 304.79 347.743C303.81 346.307 302.914 345.017 302.1 343.894V343.894ZM222.381 416.389C221.897 416.385 221.423 416.525 221.018 416.791C220.614 417.057 220.298 417.437 220.111 417.882C219.923 418.328 219.873 418.819 219.967 419.294C220.06 419.768 220.293 420.203 220.635 420.545C220.978 420.887 221.415 421.119 221.89 421.212C222.365 421.306 222.857 421.256 223.304 421.069C223.751 420.882 224.131 420.567 224.398 420.163C224.664 419.76 224.804 419.286 224.8 418.803C224.8 418.163 224.545 417.549 224.092 417.096C223.638 416.644 223.023 416.389 222.381 416.389ZM255.015 416.389C254.532 416.389 254.06 416.533 253.658 416.801C253.256 417.069 252.944 417.451 252.76 417.897C252.576 418.343 252.528 418.834 252.624 419.306C252.72 419.779 252.955 420.213 253.298 420.553C253.641 420.892 254.078 421.122 254.552 421.214C255.027 421.306 255.518 421.254 255.964 421.067C256.409 420.88 256.789 420.564 257.054 420.161C257.32 419.758 257.459 419.285 257.455 418.803C257.456 418.475 257.389 418.151 257.26 417.85C257.131 417.548 256.941 417.276 256.703 417.05C256.465 416.825 256.183 416.65 255.875 416.536C255.567 416.422 255.239 416.372 254.911 416.389H255.015ZM287.67 416.389C287.186 416.385 286.712 416.525 286.307 416.791C285.903 417.057 285.587 417.437 285.4 417.882C285.212 418.328 285.162 418.819 285.256 419.294C285.349 419.768 285.582 420.203 285.925 420.545C286.267 420.887 286.704 421.119 287.179 421.212C287.654 421.306 288.146 421.256 288.593 421.069C289.04 420.882 289.42 420.567 289.687 420.163C289.953 419.76 290.094 419.286 290.089 418.803C290.09 418.477 290.024 418.154 289.896 417.855C289.768 417.555 289.58 417.284 289.344 417.058C289.109 416.833 288.83 416.657 288.524 416.542C288.218 416.427 287.893 416.375 287.566 416.389H287.67ZM320.325 416.389C319.841 416.385 319.367 416.525 318.962 416.791C318.558 417.057 318.242 417.437 318.055 417.882C317.867 418.328 317.817 418.819 317.911 419.294C318.004 419.768 318.237 420.203 318.58 420.545C318.922 420.887 319.359 421.119 319.834 421.212C320.309 421.306 320.801 421.256 321.248 421.069C321.695 420.882 322.075 420.567 322.342 420.163C322.608 419.76 322.748 419.286 322.744 418.803C322.742 418.478 322.674 418.157 322.545 417.858C322.416 417.56 322.228 417.29 321.993 417.065C321.758 416.84 321.48 416.664 321.176 416.548C320.871 416.432 320.547 416.378 320.221 416.389H320.325ZM238.709 391.419C238.225 391.415 237.75 391.555 237.346 391.821C236.941 392.087 236.625 392.467 236.438 392.913C236.251 393.358 236.201 393.85 236.294 394.324C236.388 394.798 236.62 395.234 236.963 395.575C237.305 395.917 237.742 396.149 238.217 396.243C238.692 396.336 239.185 396.286 239.631 396.099C240.078 395.912 240.459 395.597 240.725 395.194C240.992 394.79 241.132 394.316 241.128 393.833C241.128 393.507 241.062 393.185 240.934 392.885C240.806 392.585 240.619 392.314 240.383 392.089C240.147 391.863 239.868 391.687 239.562 391.572C239.257 391.457 238.931 391.405 238.605 391.419H238.709ZM271.343 391.419C270.86 391.419 270.387 391.563 269.985 391.831C269.584 392.1 269.271 392.481 269.087 392.927C268.903 393.373 268.856 393.864 268.952 394.337C269.048 394.809 269.282 395.243 269.625 395.583C269.969 395.922 270.405 396.153 270.88 396.244C271.355 396.336 271.846 396.285 272.291 396.097C272.737 395.91 273.116 395.594 273.382 395.191C273.647 394.788 273.787 394.316 273.783 393.833C273.783 393.505 273.717 393.181 273.587 392.88C273.458 392.578 273.269 392.307 273.031 392.081C272.793 391.855 272.511 391.68 272.203 391.566C271.895 391.452 271.567 391.402 271.239 391.419H271.343ZM303.998 391.419C303.514 391.415 303.039 391.555 302.635 391.821C302.23 392.087 301.914 392.467 301.727 392.913C301.54 393.358 301.49 393.85 301.583 394.324C301.677 394.798 301.91 395.234 302.252 395.575C302.595 395.917 303.031 396.149 303.506 396.243C303.982 396.336 304.474 396.286 304.92 396.099C305.367 395.912 305.748 395.597 306.014 395.194C306.281 394.79 306.421 394.316 306.417 393.833C306.417 393.507 306.351 393.185 306.223 392.885C306.095 392.585 305.908 392.314 305.672 392.089C305.436 391.863 305.157 391.687 304.851 391.572C304.546 391.457 304.22 391.405 303.894 391.419H303.998ZM190.811 464.955L189.205 469.471C189.378 469.493 189.553 469.493 189.726 469.471C190.273 469.474 190.805 469.292 191.235 468.954C191.665 468.617 191.968 468.144 192.093 467.612C192.219 467.081 192.161 466.523 191.928 466.029C191.695 465.535 191.301 465.135 190.811 464.893V464.955ZM222.381 464.685C221.897 464.681 221.423 464.821 221.018 465.087C220.614 465.352 220.298 465.732 220.111 466.178C219.923 466.624 219.873 467.115 219.967 467.589C220.06 468.063 220.293 468.499 220.635 468.841C220.978 469.183 221.415 469.415 221.89 469.508C222.365 469.601 222.857 469.552 223.304 469.365C223.751 469.178 224.131 468.863 224.398 468.459C224.664 468.055 224.804 467.582 224.8 467.099C224.795 466.462 224.537 465.854 224.084 465.405C223.631 464.957 223.019 464.706 222.381 464.706V464.685ZM255.015 464.685C254.532 464.685 254.06 464.828 253.658 465.097C253.256 465.365 252.944 465.747 252.76 466.193C252.576 466.639 252.528 467.129 252.624 467.602C252.72 468.075 252.955 468.509 253.298 468.848C253.641 469.188 254.078 469.418 254.552 469.51C255.027 469.601 255.518 469.55 255.964 469.363C256.409 469.175 256.789 468.86 257.054 468.457C257.32 468.054 257.459 467.581 257.455 467.099C257.453 466.773 257.384 466.451 257.254 466.152C257.123 465.853 256.933 465.583 256.696 465.36C256.458 465.136 256.177 464.963 255.871 464.851C255.564 464.738 255.238 464.689 254.911 464.706L255.015 464.685ZM287.67 464.685C287.186 464.681 286.712 464.821 286.307 465.087C285.903 465.352 285.587 465.732 285.4 466.178C285.212 466.624 285.162 467.115 285.256 467.589C285.349 468.063 285.582 468.499 285.925 468.841C286.267 469.183 286.704 469.415 287.179 469.508C287.654 469.601 288.146 469.552 288.593 469.365C289.04 469.178 289.42 468.863 289.687 468.459C289.953 468.055 290.094 467.582 290.089 467.099C290.087 466.775 290.019 466.454 289.89 466.157C289.76 465.859 289.572 465.591 289.337 465.368C289.101 465.144 288.823 464.971 288.519 464.857C288.215 464.743 287.891 464.692 287.566 464.706L287.67 464.685ZM321.597 465.06C321.22 464.811 320.777 464.681 320.325 464.685C319.988 464.654 319.647 464.693 319.325 464.801C319.003 464.908 318.707 465.082 318.457 465.31C318.206 465.538 318.005 465.816 317.868 466.126C317.731 466.436 317.66 466.77 317.66 467.109C317.66 467.448 317.731 467.783 317.868 468.092C318.005 468.402 318.206 468.68 318.457 468.908C318.707 469.136 319.003 469.31 319.325 469.417C319.647 469.525 319.988 469.565 320.325 469.533C320.865 469.539 321.389 469.355 321.806 469.013L321.597 465.06ZM206.054 439.778C205.57 439.773 205.097 439.913 204.693 440.178C204.289 440.443 203.973 440.821 203.785 441.266C203.597 441.71 203.546 442.201 203.638 442.674C203.729 443.148 203.96 443.584 204.301 443.926C204.641 444.269 205.076 444.503 205.549 444.598C206.023 444.694 206.515 444.647 206.962 444.463C207.409 444.28 207.791 443.968 208.06 443.567C208.329 443.166 208.473 442.695 208.473 442.212C208.473 441.886 208.407 441.564 208.279 441.264C208.151 440.964 207.964 440.693 207.728 440.468C207.492 440.242 207.213 440.066 206.907 439.951C206.602 439.836 206.276 439.784 205.95 439.798L206.054 439.778ZM238.709 439.778C238.225 439.773 237.752 439.913 237.348 440.178C236.944 440.443 236.628 440.821 236.44 441.266C236.252 441.71 236.201 442.201 236.293 442.674C236.384 443.148 236.615 443.584 236.955 443.926C237.296 444.269 237.731 444.503 238.204 444.598C238.678 444.694 239.17 444.647 239.617 444.463C240.064 444.28 240.446 443.968 240.715 443.567C240.984 443.166 241.128 442.695 241.128 442.212C241.125 441.887 241.057 441.566 240.928 441.267C240.799 440.969 240.612 440.699 240.376 440.474C240.141 440.249 239.863 440.073 239.559 439.957C239.255 439.841 238.93 439.787 238.605 439.798L238.709 439.778ZM271.343 439.778C270.86 439.778 270.389 439.92 269.988 440.188C269.586 440.455 269.274 440.836 269.089 441.28C268.904 441.725 268.856 442.215 268.95 442.687C269.044 443.159 269.277 443.593 269.618 443.934C269.959 444.274 270.394 444.506 270.867 444.6C271.34 444.694 271.831 444.646 272.277 444.461C272.722 444.277 273.103 443.965 273.372 443.565C273.64 443.164 273.783 442.694 273.783 442.212C273.783 441.884 273.717 441.56 273.587 441.259C273.458 440.957 273.269 440.686 273.031 440.46C272.793 440.234 272.511 440.059 272.203 439.945C271.895 439.831 271.567 439.781 271.239 439.798L271.343 439.778ZM303.998 439.778C303.515 439.773 303.041 439.913 302.637 440.178C302.233 440.443 301.917 440.821 301.729 441.266C301.541 441.71 301.49 442.201 301.582 442.674C301.674 443.148 301.904 443.584 302.245 443.926C302.585 444.269 303.02 444.503 303.493 444.598C303.967 444.694 304.459 444.647 304.906 444.463C305.353 444.28 305.735 443.968 306.004 443.567C306.273 443.166 306.417 442.695 306.417 442.212C306.417 441.886 306.351 441.564 306.223 441.264C306.095 440.964 305.908 440.693 305.672 440.468C305.436 440.242 305.157 440.066 304.851 439.951C304.546 439.836 304.22 439.784 303.894 439.798L303.998 439.778Z" fill="white"/>
<path d="M298.992 424.518C292.669 425.072 286.396 426.095 280.225 427.577C277.201 428.347 274.22 429.262 271.238 430.24C269.757 430.74 268.256 431.177 266.754 431.593C265.197 432.083 263.587 432.391 261.958 432.508C261.931 432.508 261.904 432.519 261.885 432.539C261.865 432.558 261.854 432.585 261.854 432.612C261.854 432.64 261.865 432.667 261.885 432.686C261.904 432.706 261.931 432.716 261.958 432.716C263.499 432.831 265.047 432.831 266.588 432.716C268.074 432.554 269.545 432.275 270.987 431.884C274.094 431.135 277.139 430.24 280.225 429.45C286.481 427.847 292.737 426.266 298.992 425.122C299.347 424.976 299.284 424.476 298.992 424.518Z" fill="#263238"/>
<path d="M314.508 430.074C309.333 429.533 304.133 429.283 298.931 429.325C296.324 429.325 293.738 429.533 291.153 429.783L287.441 430.199C286.086 430.365 284.751 430.74 283.396 430.885C283.25 430.885 283.25 431.114 283.396 431.114C284.688 431.01 286.002 431.114 287.295 431.114L291.194 430.948C293.78 430.948 296.387 430.948 298.972 430.761C304.165 430.594 309.399 430.469 314.549 430.469C314.799 430.49 314.779 430.095 314.508 430.074Z" fill="#263238"/>
<path d="M256.412 332.879C208.118 353.521 150.982 403.502 152.963 421.501C155.174 441.54 224.529 412.429 224.028 409.391C223.611 406.832 239.126 386.502 261.292 357.371C283.833 327.594 268.361 327.781 256.412 332.879Z" fill="#0190FF"/>
<path d="M224.696 370.398C224.696 370.875 224.554 371.342 224.289 371.739C224.023 372.136 223.645 372.445 223.203 372.628C222.761 372.811 222.275 372.859 221.805 372.765C221.336 372.672 220.905 372.442 220.567 372.105C220.229 371.767 219.998 371.337 219.905 370.869C219.812 370.401 219.859 369.915 220.043 369.474C220.226 369.033 220.536 368.656 220.933 368.391C221.331 368.126 221.799 367.984 222.277 367.984C222.919 367.984 223.534 368.239 223.988 368.691C224.441 369.144 224.696 369.758 224.696 370.398V370.398Z" fill="white"/>
<path d="M241.023 345.496C241.028 345.979 240.887 346.453 240.621 346.856C240.354 347.26 239.974 347.575 239.527 347.762C239.08 347.949 238.588 347.999 238.113 347.905C237.638 347.812 237.201 347.58 236.859 347.238C236.516 346.896 236.283 346.461 236.19 345.986C236.096 345.512 236.147 345.021 236.334 344.575C236.521 344.13 236.837 343.75 237.241 343.484C237.646 343.218 238.12 343.078 238.605 343.082C239.246 343.082 239.861 343.336 240.315 343.789C240.769 344.242 241.023 344.856 241.023 345.496Z" fill="white"/>
<path d="M270.342 343.234C269.904 344.129 269.403 345.065 268.819 346.064C268.686 345.489 268.766 344.884 269.046 344.363C269.327 343.843 269.787 343.441 270.342 343.234V343.234Z" fill="white"/>
<path d="M159.406 418.758C159.41 419.24 159.27 419.713 159.005 420.116C158.739 420.519 158.36 420.834 157.914 421.022C157.469 421.209 156.978 421.26 156.503 421.169C156.028 421.077 155.592 420.847 155.248 420.507C154.905 420.168 154.671 419.734 154.575 419.261C154.479 418.788 154.526 418.298 154.71 417.852C154.894 417.405 155.207 417.024 155.608 416.756C156.01 416.487 156.483 416.344 156.966 416.344C157.609 416.344 158.227 416.597 158.684 417.049C159.141 417.502 159.4 418.115 159.406 418.758Z" fill="white"/>
<path d="M192.042 418.758C192.042 419.235 191.9 419.702 191.634 420.098C191.368 420.495 190.991 420.805 190.549 420.988C190.107 421.17 189.62 421.218 189.151 421.125C188.682 421.032 188.251 420.802 187.913 420.464C187.574 420.127 187.344 419.697 187.251 419.228C187.157 418.76 187.205 418.275 187.388 417.834C187.571 417.393 187.881 417.016 188.279 416.751C188.677 416.485 189.145 416.344 189.623 416.344C190.263 416.349 190.875 416.605 191.327 417.057C191.78 417.508 192.036 418.119 192.042 418.758V418.758Z" fill="white"/>
<path d="M175.735 393.855C175.739 394.338 175.599 394.81 175.334 395.213C175.068 395.616 174.689 395.932 174.243 396.119C173.798 396.307 173.307 396.358 172.832 396.266C172.357 396.175 171.921 395.944 171.577 395.605C171.234 395.265 171 394.831 170.904 394.359C170.808 393.886 170.855 393.395 171.039 392.949C171.223 392.503 171.536 392.122 171.938 391.853C172.339 391.585 172.812 391.441 173.295 391.441C173.939 391.441 174.556 391.695 175.013 392.147C175.47 392.599 175.729 393.213 175.735 393.855Z" fill="white"/>
<path d="M208.368 393.855C208.368 394.333 208.226 394.799 207.96 395.196C207.695 395.593 207.317 395.902 206.875 396.085C206.433 396.268 205.946 396.316 205.477 396.223C205.008 396.129 204.577 395.9 204.239 395.562C203.9 395.224 203.67 394.794 203.577 394.326C203.483 393.858 203.531 393.373 203.714 392.931C203.897 392.49 204.208 392.113 204.605 391.848C205.003 391.583 205.471 391.441 205.949 391.441C206.591 391.441 207.206 391.696 207.66 392.148C208.113 392.601 208.368 393.215 208.368 393.855Z" fill="white"/>
<path d="M152.964 421.511C156.154 435.598 176.235 446.231 224.258 477.693C230.91 482.042 274.304 443.505 267.464 438.49C258.832 432.248 223.925 409.546 221.172 408.194C197.88 396.957 150.795 411.939 152.964 421.511Z" fill="#EB9481"/>
<path d="M257.997 431.84C257.997 431.84 278.745 444.179 287.628 454.042C296.613 464.516 302.91 477.013 305.979 490.456C309.357 505.022 307.459 542.331 296.574 543.663C286.732 544.87 290.589 506.77 290.589 506.77C290.589 506.77 293.071 546.306 280.935 545.536C268.799 544.766 275.826 500.84 275.826 500.84C275.826 500.84 277.473 541.478 265.066 538.752C255.703 536.671 259.811 496.512 259.811 496.512C259.811 496.512 260.979 531.448 251.262 529.805C240.523 527.911 241.982 490.581 241.982 490.581C218.002 482.112 210.057 468.296 205.574 457.788C204.49 455.207 257.997 431.84 257.997 431.84Z" fill="#BEBEFF"/>
<path d="M290.633 493.047C291.071 497.687 291.571 502.369 291.613 507.03C291.654 511.691 291.613 516.331 291.154 520.971C290.758 527.046 289.674 533.056 287.922 538.887C290.299 528.317 290.382 511.649 290.341 506.988C290.299 502.327 290.487 497.708 290.341 493.047C290.445 492.943 290.612 492.943 290.633 493.047Z" fill="#263238"/>
<path d="M273.785 492.921C274.097 498.851 274.66 504.719 274.723 510.691C274.786 516.663 274.327 522.239 273.993 528.149C273.993 528.607 273.722 528.44 273.722 527.982C273.847 522.052 273.472 516.58 273.514 510.649C273.555 504.719 273.805 498.809 273.639 492.9C273.639 492.817 273.764 492.817 273.785 492.921Z" fill="#263238"/>
<path d="M259.331 490.19C260.065 499.281 259.848 508.423 258.685 517.47C258.685 517.927 258.372 517.678 258.393 517.22C258.768 508.148 259.143 501.031 259.018 490.169C259.018 490.044 259.31 490.003 259.331 490.19Z" fill="#263238"/>
<path d="M268.611 433.738C268.611 433.738 208.327 473.648 207.743 473.274C207.159 472.899 152.901 436.298 152.963 421.399C153.026 406.501 200.465 398.406 221.13 407.978C241.795 417.55 268.611 433.738 268.611 433.738Z" fill="#0190FF"/>
<path d="M249.491 426.146C247.155 427.352 228.075 440.711 223.988 443.749C219.901 446.787 203.136 458.856 199.153 462.289C199.125 462.299 199.1 462.314 199.079 462.335C199.058 462.356 199.043 462.381 199.034 462.409C199.025 462.437 199.022 462.467 199.027 462.495C199.031 462.524 199.042 462.552 199.059 462.576C199.076 462.6 199.099 462.619 199.125 462.633C199.151 462.646 199.18 462.654 199.209 462.654C199.238 462.655 199.268 462.648 199.294 462.635C199.32 462.623 199.343 462.604 199.361 462.581C203.865 459.938 220.86 447.786 225.093 444.81C229.326 441.835 247.885 428.164 249.72 426.395C249.949 426.25 249.741 426.062 249.491 426.146Z" fill="#263238"/>
<path d="M159.406 418.758C159.41 419.24 159.27 419.713 159.005 420.116C158.739 420.519 158.36 420.834 157.914 421.022C157.469 421.209 156.978 421.26 156.503 421.169C156.028 421.077 155.592 420.847 155.248 420.507C154.905 420.168 154.671 419.734 154.575 419.261C154.479 418.788 154.526 418.298 154.71 417.852C154.894 417.405 155.207 417.024 155.608 416.756C156.01 416.487 156.483 416.344 156.966 416.344C157.609 416.344 158.227 416.597 158.684 417.049C159.141 417.502 159.4 418.115 159.406 418.758ZM189.621 416.385C189.137 416.381 188.662 416.521 188.258 416.787C187.853 417.053 187.537 417.433 187.35 417.879C187.163 418.324 187.113 418.816 187.206 419.29C187.3 419.764 187.533 420.2 187.875 420.541C188.218 420.883 188.654 421.115 189.129 421.209C189.605 421.302 190.097 421.252 190.543 421.065C190.99 420.878 191.371 420.563 191.637 420.159C191.904 419.756 192.044 419.282 192.04 418.799C192.04 418.159 191.785 417.545 191.331 417.092C190.878 416.64 190.263 416.385 189.621 416.385ZM222.38 416.385C221.896 416.381 221.421 416.521 221.017 416.787C220.613 417.053 220.297 417.433 220.109 417.879C219.922 418.324 219.872 418.816 219.966 419.29C220.059 419.764 220.292 420.2 220.634 420.541C220.977 420.883 221.413 421.115 221.889 421.209C222.364 421.302 222.856 421.252 223.303 421.065C223.749 420.878 224.13 420.563 224.397 420.159C224.663 419.756 224.803 419.282 224.799 418.799C224.799 418.159 224.544 417.545 224.091 417.092C223.637 416.64 223.022 416.385 222.38 416.385ZM173.398 439.836C172.915 439.836 172.444 439.979 172.042 440.246C171.641 440.514 171.328 440.894 171.144 441.339C170.959 441.784 170.911 442.273 171.005 442.746C171.099 443.218 171.331 443.652 171.673 443.992C172.014 444.333 172.449 444.565 172.922 444.659C173.395 444.752 173.886 444.704 174.331 444.52C174.777 444.336 175.158 444.024 175.426 443.623C175.694 443.223 175.837 442.752 175.837 442.271C175.847 441.938 175.787 441.606 175.661 441.298C175.536 440.989 175.347 440.71 175.109 440.477C174.87 440.245 174.585 440.064 174.273 439.946C173.96 439.829 173.627 439.777 173.294 439.795L173.398 439.836ZM206.053 439.836C205.569 439.832 205.096 439.971 204.692 440.236C204.288 440.501 203.972 440.88 203.784 441.325C203.596 441.769 203.545 442.259 203.637 442.733C203.728 443.206 203.959 443.642 204.299 443.985C204.64 444.327 205.074 444.561 205.548 444.657C206.022 444.752 206.514 444.706 206.961 444.522C207.408 444.338 207.79 444.026 208.059 443.625C208.328 443.225 208.472 442.753 208.472 442.271C208.481 441.94 208.421 441.61 208.297 441.303C208.173 440.996 207.986 440.717 207.75 440.485C207.513 440.253 207.231 440.072 206.921 439.953C206.611 439.834 206.28 439.78 205.948 439.795L206.053 439.836ZM238.708 439.836C238.224 439.832 237.751 439.971 237.347 440.236C236.943 440.501 236.627 440.88 236.439 441.325C236.251 441.769 236.2 442.259 236.292 442.733C236.383 443.206 236.614 443.642 236.954 443.985C237.295 444.327 237.729 444.561 238.203 444.657C238.677 444.752 239.169 444.706 239.616 444.522C240.063 444.338 240.445 444.026 240.714 443.625C240.983 443.225 241.127 442.753 241.127 442.271C241.133 441.94 241.071 441.612 240.946 441.307C240.82 441.001 240.634 440.724 240.398 440.492C240.162 440.26 239.881 440.079 239.573 439.959C239.264 439.839 238.934 439.783 238.603 439.795L238.708 439.836Z" fill="white"/>
<path d="M195.73 404.223C200.714 403.765 214.352 403.515 224.924 409.737C225.049 409.737 224.924 409.966 224.924 409.903C215.665 405.908 200.672 404.327 195.73 404.41C195.647 404.41 195.605 404.243 195.73 404.223Z" fill="#263238"/>
<path d="M264.899 436.193L268.527 433.613V433.863C264.899 431.657 261.187 429.576 257.538 427.433C253.889 425.29 250.156 423.271 246.444 421.19C239.042 417.029 231.535 413.075 223.903 409.434L223.11 409.059L223.569 408.331C228.449 400.653 233.474 393.099 238.833 385.754C244.108 378.386 249.753 371.289 255.744 364.488C250.184 371.646 244.846 378.971 239.73 386.462C234.621 393.932 229.575 401.464 224.82 409.163L224.507 408.061C232.181 411.764 239.646 415.843 247.007 420.088C250.677 422.168 254.306 424.437 257.934 426.684C261.562 428.931 265.086 431.241 268.631 433.613L268.819 433.738L268.631 433.863L264.899 436.193Z" fill="#263238"/>
<path d="M243.234 380.681C244.005 379.848 244.756 379.016 245.569 378.225C246.383 377.435 247.175 376.686 248.03 375.936C249.713 374.435 251.52 373.078 253.431 371.879C252 373.625 250.424 375.247 248.718 376.727C247.863 377.455 246.987 378.184 246.091 378.808C245.198 379.518 244.242 380.145 243.234 380.681Z" fill="#263238"/>
<path d="M191.792 462.035C196.418 464.493 200.684 467.573 204.47 471.191C202.162 469.964 199.946 468.573 197.839 467.029C195.702 465.516 193.681 463.846 191.792 462.035V462.035Z" fill="#263238"/>
<path d="M271.989 334.512C272.135 338.049 278.244 354.82 288.879 355.861C294.343 356.402 296.97 337.425 296.97 337.425L297.408 336.051L303.664 317.012L279.162 297.785C279.162 297.785 271.926 333.492 271.989 334.512Z" fill="#DEDEFF"/>
<path d="M276.599 311.082C278.141 316.463 280.792 321.463 284.383 325.763C287.974 330.063 292.425 333.567 297.451 336.051L303.707 317.012L279.163 297.785C279.163 297.785 277.933 303.84 276.599 311.082Z" fill="#263238"/>
<path d="M334.047 289.735C333.067 324.942 311.818 328.313 304.207 328.105C297.305 327.897 273.804 326.336 271.156 291.212C268.508 256.088 285.211 245.434 301.038 245.039C316.865 244.643 334.986 254.527 334.047 289.735Z" fill="#DEDEFF"/>
<path d="M328.96 281.135C328.169 280.94 327.39 280.704 326.624 280.427C325.769 280.29 324.984 279.873 324.393 279.241C324.239 279.011 324.168 278.736 324.191 278.46C324.213 278.184 324.329 277.924 324.518 277.722C324.954 277.379 325.472 277.157 326.021 277.076C326.57 276.996 327.13 277.061 327.646 277.264C328.744 277.536 329.706 278.193 330.357 279.116C330.497 279.337 330.57 279.595 330.565 279.856C330.56 280.118 330.478 280.372 330.329 280.588C330.179 280.803 329.97 280.97 329.727 281.067C329.483 281.164 329.216 281.188 328.96 281.135V281.135Z" fill="#183C4F"/>
<path d="M306.439 279.346C307.25 279.291 308.058 279.194 308.858 279.055C309.727 279.072 310.578 278.801 311.277 278.285C311.466 278.083 311.582 277.823 311.604 277.547C311.627 277.272 311.556 276.996 311.402 276.766C311.038 276.352 310.57 276.041 310.046 275.865C309.522 275.69 308.961 275.656 308.42 275.767C307.284 275.841 306.215 276.33 305.418 277.141C305.249 277.334 305.139 277.573 305.103 277.827C305.067 278.081 305.105 278.34 305.213 278.573C305.321 278.806 305.494 279.003 305.712 279.141C305.929 279.278 306.182 279.349 306.439 279.346V279.346Z" fill="#183C4F"/>
<path d="M310.359 288.605C310.359 288.605 310.171 288.605 310.171 288.814C310.171 291.207 309.587 293.953 307.377 294.598V294.744C309.963 294.536 310.672 290.894 310.359 288.605Z" fill="white"/>
<path d="M308.377 285.98C304.54 285.439 303.748 293.138 307.293 293.638C310.838 294.137 311.588 286.417 308.377 285.98Z" fill="white"/>
<path d="M306.813 286.236C306.104 286.59 305.354 287.297 304.54 287.297C303.727 287.297 302.956 286.423 302.455 285.57H302.309C302.142 287.048 302.539 288.608 304.103 289.004C305.666 289.399 306.709 288.151 307.23 286.694C307.314 286.507 307.105 286.09 306.813 286.236Z" fill="white"/>
<path d="M323.558 289.566C323.558 289.566 323.725 289.691 323.725 289.795C323.37 292.167 323.391 294.956 325.456 296.038C325.456 296.038 325.456 296.183 325.456 296.163C322.828 295.455 322.849 291.751 323.558 289.566Z" fill="white"/>
<path d="M325.978 287.382C329.836 287.528 329.294 295.248 325.707 295.123C322.12 294.998 322.725 287.195 325.978 287.382Z" fill="white"/>
<path d="M327.541 287.919C328.124 288.377 328.688 289.168 329.397 289.272C330.106 289.376 330.94 288.585 331.482 287.836H331.607C331.607 289.313 330.94 290.812 329.522 290.999C328.104 291.186 327.436 289.834 327.103 288.335C327.061 288.148 327.311 287.753 327.541 287.919Z" fill="white"/>
<path d="M319.159 299.862C319.159 299.862 319.326 303.483 319.159 305.168C317.546 305.401 315.9 305.197 314.392 304.578C312.885 303.96 311.571 302.949 310.589 301.652C310.464 301.485 310.714 301.319 310.86 301.423C312.876 303.089 315.377 304.059 317.991 304.19C318.137 303.733 317.491 297.948 317.762 297.948C319.06 298.198 320.321 298.611 321.515 299.176C321.369 291.643 320.035 284.173 320.014 276.682C320.014 276.621 320.038 276.563 320.081 276.52C320.124 276.477 320.182 276.453 320.243 276.453C320.304 276.453 320.363 276.477 320.406 276.52C320.449 276.563 320.473 276.621 320.473 276.682C322.152 284.627 323.032 292.72 323.1 300.84C323.163 301.797 319.805 300.216 319.159 299.862Z" fill="#263238"/>
<path d="M316.885 304.777C315.844 305.855 314.545 306.65 313.11 307.087C312.32 307.302 311.481 307.266 310.712 306.983C309.044 306.338 309.169 304.756 309.628 303.446C309.88 302.748 310.216 302.085 310.629 301.469C312.306 303.211 314.499 304.37 316.885 304.777V304.777Z" fill="#263238"/>
<path d="M313.11 307.075C312.32 307.29 311.481 307.254 310.712 306.971C309.044 306.326 309.169 304.745 309.628 303.434C310.527 303.578 311.355 304.012 311.983 304.669C312.612 305.327 313.008 306.172 313.11 307.075V307.075Z" fill="#FF9BBC"/>
<path d="M281.247 247.174C284.438 246.633 290.506 230.527 281.101 220.56C271.697 210.593 255.932 216.835 259.164 231.588C261.208 240.91 274.512 248.297 281.247 247.174Z" fill="#183C4F"/>
<path d="M266.007 216.633C262.258 218.71 259.32 221.986 257.666 225.934C256.858 227.767 256.549 229.781 256.768 231.772C256.988 233.762 257.729 235.66 258.917 237.274C261.457 240.587 264.852 243.148 268.739 244.682C270.703 245.527 272.741 246.189 274.828 246.659C276.922 247.244 279.108 247.428 281.271 247.2C279.142 247.896 276.883 248.109 274.661 247.824C272.418 247.626 270.207 247.165 268.072 246.451C263.638 245.077 259.746 242.356 256.936 238.669C255.517 236.737 254.672 234.446 254.499 232.057C254.325 229.668 254.831 227.279 255.956 225.164C256.962 223.135 258.372 221.332 260.1 219.865C261.829 218.398 263.839 217.298 266.007 216.633Z" fill="#183C4F"/>
<path d="M273.218 290.452C279.641 292.138 283.311 277.426 283.311 277.426C283.311 277.426 311.774 276.428 317.154 254.121C319.427 263.797 325.359 272.222 333.711 277.634C333.711 277.634 336.047 252.665 317.029 245.278C317.029 245.278 293.779 233.147 277.409 250.688C261.04 268.229 268.922 289.308 273.218 290.452Z" fill="#183C4F"/>
<path d="M317.468 252.488C317.329 256.019 316.44 259.48 314.861 262.643C313.296 265.833 311.089 268.666 308.376 270.966C307.717 271.551 307.02 272.093 306.291 272.589L305.207 273.38C304.831 273.609 304.435 273.817 304.039 274.025C303.246 274.441 302.475 274.899 301.683 275.273L299.18 276.21L297.929 276.667L296.636 276.979L294.071 277.583C292.32 277.833 290.568 277.978 288.837 278.103C290.526 277.625 292.236 277.312 293.884 276.834L296.344 276.002L297.575 275.606L298.742 275.086C299.514 274.711 300.285 274.358 301.078 274.025C301.87 273.692 302.537 273.151 303.267 272.735L304.373 272.09L305.394 271.34C306.117 270.858 306.813 270.337 307.48 269.78C310.069 267.567 312.249 264.919 313.923 261.956C314.789 260.481 315.528 258.936 316.133 257.337C316.719 255.762 317.165 254.14 317.468 252.488Z" fill="#263238"/>
<path d="M301.998 300.641C299.917 300.184 298.006 299.153 296.482 297.666C294.959 296.179 293.884 294.295 293.381 292.228C292.877 290.162 292.965 287.996 293.635 285.977C294.304 283.958 295.528 282.166 297.167 280.807C298.806 279.448 300.795 278.575 302.906 278.288C305.018 278 307.168 278.31 309.112 279.182C311.056 280.054 312.715 281.453 313.902 283.22C315.088 284.986 315.754 287.05 315.823 289.176V289.176C315.872 290.903 315.526 292.618 314.812 294.192C314.099 295.766 313.036 297.158 311.704 298.263C310.373 299.367 308.807 300.155 307.126 300.567C305.444 300.979 303.691 301.004 301.998 300.641V300.641ZM306.565 279.833C305.764 279.658 304.944 279.589 304.125 279.625C301.64 279.725 299.286 280.766 297.542 282.537C295.799 284.307 294.797 286.674 294.741 289.156C294.686 291.638 295.579 294.048 297.241 295.895C298.903 297.742 301.207 298.888 303.686 299.099C306.165 299.311 308.631 298.572 310.582 297.033C312.534 295.494 313.825 293.27 314.192 290.815C314.559 288.36 313.974 285.857 312.557 283.817C311.14 281.777 308.997 280.352 306.565 279.833V279.833Z" fill="#3D8AC3"/>
<path d="M328.021 303.106C323.85 302.17 320.847 296.968 321.452 291.079C321.681 288.253 322.789 285.568 324.622 283.401C325.356 282.427 326.33 281.659 327.449 281.17C328.568 280.681 329.794 280.488 331.009 280.609C332.224 280.731 333.388 281.162 334.387 281.863C335.387 282.563 336.189 283.508 336.716 284.608C338.087 287.095 338.648 289.945 338.322 292.765C337.696 299.007 333.401 303.689 328.75 303.169L328.021 303.106ZM331.44 282.298C331.246 282.276 331.051 282.276 330.857 282.298C329.886 282.242 328.917 282.421 328.031 282.819C327.145 283.218 326.369 283.824 325.769 284.587C324.143 286.507 323.159 288.886 322.953 291.391C322.411 296.801 325.039 301.504 328.896 301.795C332.754 302.087 336.257 298.092 336.799 292.681C337.099 290.188 336.611 287.664 335.402 285.461C335.009 284.671 334.453 283.974 333.77 283.414C333.087 282.855 332.293 282.446 331.44 282.215V282.298Z" fill="#3D8AC3"/>
<path d="M315.321 290.448L314.445 289.179C316.322 287.909 320.493 286.37 322.953 289.616L321.744 290.531C319.533 287.639 315.488 290.323 315.321 290.448Z" fill="#3D8AC3"/>
<path d="M264.544 288.308L263.272 287.497C263.648 286.893 267.151 281.691 270.592 281.462C274.032 281.234 293.905 285.291 294.76 285.291L294.468 286.789C288.712 285.645 273.157 282.753 270.675 282.898C268.194 283.044 265.483 286.873 264.544 288.308Z" fill="#3D8AC3"/>
<path d="M277.537 289.697C277.537 289.697 271.135 277.878 265.86 280.042C260.584 282.206 264.504 298.769 270.03 301.516C270.721 301.937 271.491 302.213 272.292 302.327C273.094 302.44 273.91 302.389 274.691 302.177C275.472 301.965 276.201 301.595 276.834 301.092C277.467 300.588 277.99 299.961 278.371 299.248L277.537 289.697Z" fill="#DEDEFF"/>
<path d="M267.11 284.75V284.896C271.01 286.976 272.72 291.138 273.783 295.154C273.596 294.716 273.314 294.323 272.959 294.005C272.603 293.687 272.182 293.45 271.725 293.311C271.268 293.172 270.786 293.135 270.313 293.202C269.84 293.268 269.388 293.438 268.987 293.697C268.862 293.697 268.987 293.926 268.987 293.926C269.733 293.778 270.507 293.864 271.202 294.173C271.897 294.483 272.478 295 272.866 295.653C273.494 296.751 274.011 297.908 274.409 299.108C274.555 299.503 275.243 299.378 275.139 298.941C275.848 293.614 272.636 285.915 267.11 284.75Z" fill="#263238"/>
<path d="M270.905 300.316C270.966 300.711 271.181 301.065 271.504 301.301C271.827 301.537 272.23 301.636 272.626 301.575C273.021 301.514 273.376 301.299 273.613 300.977C273.849 300.656 273.948 300.253 273.887 299.858C273.857 299.663 273.789 299.476 273.686 299.306C273.583 299.137 273.448 298.99 273.288 298.873C273.128 298.757 272.947 298.672 272.755 298.625C272.562 298.578 272.363 298.569 272.167 298.6C271.971 298.63 271.783 298.698 271.614 298.8C271.444 298.903 271.297 299.038 271.18 299.197C271.063 299.357 270.978 299.537 270.931 299.729C270.884 299.921 270.875 300.121 270.905 300.316V300.316Z" fill="#455A64"/>
<path d="M271.678 300.189C271.708 300.38 271.813 300.55 271.97 300.664C272.126 300.777 272.321 300.824 272.512 300.794C272.694 300.758 272.857 300.654 272.965 300.503C273.074 300.352 273.12 300.165 273.096 299.981C273.083 299.887 273.052 299.797 273.004 299.716C272.956 299.634 272.892 299.564 272.816 299.507C272.74 299.451 272.654 299.41 272.563 299.388C272.471 299.365 272.376 299.361 272.282 299.376C272.098 299.411 271.934 299.515 271.822 299.665C271.71 299.816 271.659 300.003 271.678 300.189V300.189Z" fill="#263238"/>
<path d="M268.464 298.167C268.51 298.447 268.665 298.699 268.896 298.866C269.126 299.033 269.413 299.104 269.695 299.062C269.833 299.041 269.966 298.994 270.086 298.922C270.206 298.851 270.31 298.756 270.394 298.644C270.477 298.532 270.537 298.404 270.571 298.269C270.605 298.134 270.612 297.993 270.591 297.855C270.573 297.716 270.528 297.581 270.457 297.46C270.386 297.339 270.291 297.234 270.178 297.15C270.065 297.066 269.936 297.006 269.799 296.974C269.662 296.941 269.52 296.937 269.382 296.96C269.101 297.001 268.848 297.151 268.676 297.377C268.504 297.602 268.428 297.886 268.464 298.167V298.167Z" fill="#455A64"/>
<path d="M63.0693 488.848L765.381 488.848V463.919L63.0693 463.919V488.848Z" fill="#37474F"/>
<path d="M88.1948 513.777L740.231 513.777V488.87L88.1948 488.87V513.777Z" fill="#455A64"/>
<path d="M740.191 863.458H750.283L720.902 513.777H695.128L740.191 863.458Z" fill="#455A64"/>
<path d="M695.128 513.777L698.152 537.166H722.862L720.902 513.777H695.128Z" fill="#263238"/>
<path d="M88.2586 863.458H78.166L107.547 513.777H133.321L88.2586 863.458Z" fill="#455A64"/>
<path d="M133.321 513.777L130.298 537.166H105.587L107.548 513.777H133.321Z" fill="#263238"/>
<path d="M465.71 457.77H328.646V463.908H465.71V457.77Z" fill="#C7C7C7"/>
<path d="M465.69 457.77H396.71V463.908H465.69V457.77Z" fill="#A6A6A6"/>
<path d="M404.132 463.915H537.713L555.166 373.379H421.606L404.132 463.915Z" fill="#C7C7C7"/>
<path d="M471.528 418.653C471.409 419.681 471.512 420.723 471.827 421.709C472.143 422.695 472.665 423.603 473.36 424.372C474.054 425.141 474.904 425.755 475.853 426.171C476.803 426.588 477.83 426.798 478.868 426.789C481.078 426.75 483.197 425.905 484.826 424.414C486.455 422.923 487.48 420.888 487.709 418.694C487.822 417.661 487.713 416.616 487.389 415.628C487.066 414.64 486.535 413.732 485.833 412.965C485.131 412.197 484.273 411.587 483.317 411.176C482.36 410.765 481.327 410.561 480.286 410.579C478.093 410.638 475.997 411.488 474.386 412.973C472.775 414.458 471.759 416.477 471.528 418.653V418.653Z" fill="#A6A6A6"/>
<path d="M560.733 269.694C560.985 271.18 560.789 272.707 560.171 274.082C559.553 275.457 558.54 276.618 557.26 277.418C555.98 278.218 554.491 278.622 552.981 278.577C551.471 278.532 550.009 278.041 548.779 277.166C547.549 276.292 546.607 275.073 546.072 273.664C545.536 272.254 545.432 270.718 545.772 269.25C546.112 267.782 546.881 266.447 547.981 265.415C549.082 264.383 550.465 263.7 551.954 263.452C553.947 263.126 555.988 263.6 557.632 264.769C559.277 265.938 560.391 267.709 560.733 269.694V269.694Z" fill="white"/>
<path d="M583.338 254.764C583.59 256.251 583.395 257.779 582.776 259.155C582.158 260.531 581.143 261.692 579.862 262.492C578.581 263.293 577.091 263.695 575.58 263.649C574.07 263.603 572.607 263.111 571.377 262.234C570.147 261.358 569.206 260.136 568.672 258.725C568.139 257.314 568.037 255.777 568.38 254.308C568.723 252.84 569.496 251.506 570.599 250.475C571.703 249.445 573.088 248.765 574.58 248.521C576.571 248.19 578.612 248.662 580.254 249.833C581.897 251.003 583.006 252.777 583.338 254.764Z" fill="white"/>
<path d="M632.715 333.193L567.092 302.314L606.816 218.27L655.527 241.2L664.869 265.15L632.715 333.193Z" fill="#EBEBEB"/>
<path d="M655.531 241.191L664.873 265.142L647.961 257.193L655.531 241.191Z" fill="#DBDBDB"/>
<path d="M605.485 237.586L641.964 254.746L642.986 252.582L606.508 235.422L605.485 237.586Z" fill="#DBDBDB"/>
<path d="M602.915 243.031L639.394 260.191L640.417 258.027L603.938 240.867L602.915 243.031Z" fill="#DBDBDB"/>
<path d="M600.332 248.473L636.81 265.633L637.833 263.468L601.354 246.308L600.332 248.473Z" fill="#DBDBDB"/>
<path d="M597.757 253.913L651.211 279.059L652.233 276.894L598.779 251.749L597.757 253.913Z" fill="#DBDBDB"/>
<path d="M595.182 259.378L648.636 284.523L649.658 282.359L596.204 257.213L595.182 259.378Z" fill="#DBDBDB"/>
<path d="M592.615 264.823L646.069 289.969L647.091 287.804L593.637 262.659L592.615 264.823Z" fill="#DBDBDB"/>
<path d="M590.028 270.268L643.482 295.414L644.505 293.25L591.051 268.104L590.028 270.268Z" fill="#DBDBDB"/>
<path d="M587.462 275.722L640.917 300.867L641.939 298.703L588.485 273.557L587.462 275.722Z" fill="#DBDBDB"/>
<path d="M584.897 281.155L638.351 306.301L639.374 304.136L585.92 278.991L584.897 281.155Z" fill="#DBDBDB"/>
<path d="M582.3 286.616L635.754 311.762L636.777 309.597L583.323 284.452L582.3 286.616Z" fill="#DBDBDB"/>
<path d="M579.734 292.061L633.188 317.207L634.211 315.043L580.757 289.897L579.734 292.061Z" fill="#DBDBDB"/>
<path d="M577.148 297.507L630.602 322.652L631.625 320.488L578.171 295.342L577.148 297.507Z" fill="#DBDBDB"/>
<path d="M629.64 358.676L646.539 278.445L551.771 258.569L534.871 338.8L629.64 358.676Z" fill="#0101C8"/>
<path d="M580.523 324.846L634.406 336.145L614.43 297.379L580.523 324.846Z" fill="#0101C8"/>
<g opacity="0.3">
<path opacity="0.3" d="M580.523 324.85L634.406 336.148L614.43 297.383L580.523 324.85Z" fill="white"/>
</g>
<path d="M553.997 319.333L601.77 329.342L582.419 302.77L553.997 319.333Z" fill="#0101C8"/>
<g opacity="0.5">
<path opacity="0.5" d="M553.997 319.337L601.77 329.345L582.419 302.773L553.997 319.337Z" fill="white"/>
</g>
<path d="M634.375 336.174L539.606 316.297L534.858 338.839L629.627 358.716L634.375 336.174Z" fill="#0101C8"/>
<g opacity="0.5">
<path opacity="0.5" d="M634.373 336.174L539.604 316.297L534.856 338.839L629.625 358.716L634.373 336.174Z" fill="white"/>
</g>
<path opacity="0.9" d="M561.566 295.199C563.04 295.829 564.677 295.969 566.236 295.598C567.795 295.228 569.194 294.366 570.224 293.141C571.255 291.916 571.863 290.393 571.958 288.796C572.054 287.2 571.632 285.615 570.755 284.276C569.878 282.937 568.593 281.916 567.089 281.362C565.585 280.809 563.943 280.753 562.405 281.204C560.867 281.654 559.515 282.586 558.549 283.862C557.583 285.139 557.055 286.691 557.041 288.291C557.027 289.76 557.449 291.2 558.254 292.43C559.059 293.659 560.212 294.623 561.566 295.199V295.199Z" fill="white"/>
<path d="M458.701 343.66H456.616V347.822H458.701V343.66Z" fill="#263238"/>
<path d="M458.701 336.851H456.616V327.799H458.701V336.851ZM458.701 320.995H456.616V311.923H458.701V320.995ZM458.701 305.139H456.616V296.067H458.701V305.139ZM458.701 289.262H456.616V280.211H458.701V289.262Z" fill="#263238"/>
<path d="M458.68 273.413H456.595V268.211H461.808V270.292H458.68V273.413Z" fill="#263238"/>
<path d="M490.084 270.292H482.014V268.211H490.084V270.292ZM475.946 270.292H467.876V268.211H475.946V270.292Z" fill="#263238"/>
<path d="M500.303 268.211H496.133V270.292H500.303V268.211Z" fill="#263238"/>
<path d="M461.58 347.724C461.58 348.498 461.35 349.254 460.919 349.898C460.488 350.541 459.876 351.043 459.16 351.339C458.443 351.635 457.655 351.712 456.895 351.561C456.134 351.41 455.436 351.038 454.887 350.491C454.339 349.944 453.966 349.246 453.815 348.488C453.663 347.729 453.741 346.942 454.038 346.227C454.334 345.513 454.837 344.902 455.482 344.472C456.126 344.042 456.884 343.812 457.66 343.812C458.699 343.812 459.696 344.225 460.432 344.958C461.167 345.692 461.58 346.687 461.58 347.724V347.724Z" fill="#263238"/>
<path d="M500.116 273.16C500.891 273.16 501.649 272.93 502.294 272.501C502.938 272.071 503.441 271.46 503.737 270.745C504.034 270.03 504.112 269.244 503.961 268.485C503.809 267.726 503.436 267.029 502.888 266.482C502.339 265.935 501.641 265.562 500.88 265.411C500.12 265.26 499.332 265.338 498.615 265.634C497.899 265.93 497.287 266.431 496.856 267.075C496.425 267.718 496.195 268.474 496.195 269.248C496.195 270.285 496.608 271.28 497.344 272.014C498.079 272.748 499.076 273.16 500.116 273.16V273.16Z" fill="#263238"/>
<path d="M683.637 266.801H679.466V268.882H683.637V266.801Z" fill="#263238"/>
<path d="M716.583 268.882H707.179V266.801H716.583V268.882ZM700.13 268.882H690.726V266.801H700.13V268.882Z" fill="#263238"/>
<path d="M728.804 268.858H723.591V266.777H726.719V263.656H728.804V268.858Z" fill="#263238"/>
<path d="M728.804 257.52H726.719V249.322H728.804V257.52ZM728.804 243.163H726.719V234.964H728.804V243.163ZM728.804 228.826H726.719V220.503H728.804V228.826ZM728.804 214.468H726.719V206.228H728.804V214.468ZM728.804 200.111H726.719V191.912H728.804V200.111ZM728.804 185.753H726.719V177.555H728.804V185.753Z" fill="#263238"/>
<path d="M728.804 171.413H726.719V168.292H723.591V166.211H728.804V171.413Z" fill="#263238"/>
<path d="M715.625 166.211H704.969V168.292H715.625V166.211Z" fill="#263238"/>
<path d="M696.984 166.211H692.814V168.292H696.984V166.211Z" fill="#263238"/>
<path d="M679.678 271.746C681.843 271.746 683.598 269.994 683.598 267.834C683.598 265.673 681.843 263.922 679.678 263.922C677.512 263.922 675.757 265.673 675.757 267.834C675.757 269.994 677.512 271.746 679.678 271.746Z" fill="#263238"/>
<path d="M693.001 163.336C692.225 163.336 691.468 163.565 690.823 163.995C690.178 164.425 689.676 165.036 689.379 165.751C689.082 166.466 689.005 167.252 689.156 168.011C689.307 168.77 689.68 169.467 690.229 170.014C690.777 170.561 691.476 170.934 692.236 171.085C692.997 171.236 693.785 171.158 694.501 170.862C695.217 170.566 695.83 170.065 696.26 169.421C696.691 168.778 696.921 168.022 696.921 167.248C696.921 166.21 696.508 165.215 695.773 164.482C695.038 163.748 694.041 163.336 693.001 163.336V163.336Z" fill="#263238"/>
</g>
</g>
<defs>
<clipPath id="clip0_455_862">
<rect width="856" height="612" fill="white"/>
</clipPath>
</defs>
</svg>
