<svg width="48" height="49" viewBox="0 0 48 49" fill="none" xmlns="http://www.w3.org/2000/svg">
<g clip-path="url(#clip0_155_6853)">
<path d="M29.6478 39.3242C29.6478 36.2061 32.1753 33.6765 35.2916 33.6765H42.3548C45.4711 33.6765 48.0006 36.2078 48.0006 39.3242C48.0006 42.4424 45.4731 44.9719 42.3548 44.9719H35.2916C32.1754 44.9719 29.6478 42.4388 29.6478 39.3242ZM32.4715 39.3242C32.4715 40.8805 33.7353 42.148 35.2915 42.148H42.3547C43.9128 42.148 45.1766 40.8824 45.1766 39.3242C45.1766 37.768 43.911 36.5005 42.3547 36.5005H35.2915C33.7353 36.5005 32.4715 37.7642 32.4715 39.3242ZM21.8832 43.5598C22.6613 43.5598 23.2951 44.1917 23.2951 44.9717C23.2951 45.7498 22.6613 46.3836 21.8832 46.3836C9.7968 46.3836 0 36.5849 0 24.5004C0 12.4159 9.7968 2.61719 21.8832 2.61719C33.9677 2.61719 43.7645 12.4159 43.7645 24.5004C43.7645 25.2804 43.1326 25.9123 42.3526 25.9123C41.5726 25.9123 40.9407 25.2804 40.9407 24.5004C40.9407 13.974 32.4078 5.44103 21.8833 5.44103C11.3569 5.44103 2.82394 13.974 2.82394 24.5004C2.82394 35.0268 11.3568 43.5598 21.8832 43.5598ZM35.2949 40.7361C34.5149 40.7361 33.883 40.1042 33.883 39.3242C33.883 38.5442 34.5149 37.9124 35.2949 37.9124H38.8237C39.6036 37.9124 40.2355 38.5442 40.2355 39.3242C40.2355 40.1042 39.6036 40.7361 38.8237 40.7361H35.2949ZM29.6472 23.7955C30.4272 23.7955 31.0591 24.4273 31.0591 25.2055C31.0591 25.9855 30.4272 26.6173 29.6472 26.6173H21.1762C20.3962 26.6173 19.7643 25.9855 19.7643 25.2055V12.5003C19.7643 11.7203 20.3962 11.0885 21.1762 11.0885C21.9562 11.0885 22.588 11.7203 22.588 12.5003V23.7952L29.6472 23.7955Z" fill="#0190FF"/>
</g>
<defs>
<clipPath id="clip0_155_6853">
<rect width="48" height="48" fill="white" transform="translate(0 0.5)"/>
</clipPath>
</defs>
</svg>
