<svg width="57" height="20" viewBox="0 0 57 20" fill="none" xmlns="http://www.w3.org/2000/svg">
<path d="M15.8336 14.7914H13.9586V16.6664C13.957 17.932 12.932 18.957 11.6664 18.9586H4.1664C2.90156 18.957 1.8758 17.932 1.875 16.6664V7.6196C1.87656 6.35398 2.90156 5.329 4.1664 5.3274H5.9414V3.33364C5.94296 2.06802 6.96796 1.04304 8.2336 1.04144H15.8336C17.0984 1.043 18.1242 2.068 18.125 3.33364V12.5C18.1242 13.7657 17.0984 14.7906 15.8336 14.7914V14.7914ZM3.125 7.6196V16.6664C3.12578 17.2414 3.5914 17.707 4.1664 17.7086H11.6664C12.2414 17.707 12.707 17.2414 12.7086 16.6664V7.6196C12.707 7.0446 12.2414 6.5782 11.6664 6.57742H4.1664C3.5914 6.5782 3.12578 7.0446 3.125 7.6196ZM16.875 3.3336C16.8742 2.7586 16.4086 2.29298 15.8336 2.29142H8.2336C7.6586 2.2922 7.1922 2.7586 7.19142 3.3336V5.32736H11.6664C12.932 5.32892 13.957 6.35392 13.9586 7.61956V13.5414H15.8336C16.4086 13.5406 16.8742 13.075 16.875 12.5L16.875 3.3336Z" fill="#5048ED" stroke="#5048ED" stroke-width="0.2"/>
<path d="M32.078 12.613C32.1807 12.613 32.2717 12.6527 32.351 12.732L33.093 13.537C32.6823 14.0457 32.176 14.4353 31.574 14.706C30.9767 14.9767 30.258 15.112 29.418 15.112C28.6667 15.112 27.99 14.9837 27.388 14.727C26.7907 14.4703 26.2797 14.1133 25.855 13.656C25.4303 13.1987 25.1037 12.6527 24.875 12.018C24.651 11.3833 24.539 10.6903 24.539 9.939C24.539 9.17833 24.6603 8.483 24.903 7.853C25.1457 7.21833 25.4863 6.67233 25.925 6.215C26.3683 5.75767 26.8957 5.403 27.507 5.151C28.1183 4.89433 28.795 4.766 29.537 4.766C30.2743 4.766 30.9277 4.88733 31.497 5.13C32.071 5.37267 32.5587 5.69 32.96 6.082L32.33 6.957C32.2927 7.013 32.2437 7.062 32.183 7.104C32.127 7.146 32.0477 7.167 31.945 7.167C31.875 7.167 31.8027 7.14833 31.728 7.111C31.6533 7.069 31.5717 7.02 31.483 6.964C31.3943 6.90333 31.2917 6.838 31.175 6.768C31.0583 6.698 30.923 6.635 30.769 6.579C30.615 6.51833 30.4353 6.46933 30.23 6.432C30.0293 6.39 29.796 6.369 29.53 6.369C29.0773 6.369 28.662 6.45067 28.284 6.614C27.9107 6.77267 27.5887 7.006 27.318 7.314C27.0473 7.61733 26.8373 7.99067 26.688 8.434C26.5387 8.87267 26.464 9.37433 26.464 9.939C26.464 10.5083 26.5433 11.0147 26.702 11.458C26.8653 11.9013 27.0847 12.2747 27.36 12.578C27.6353 12.8813 27.9597 13.1147 28.333 13.278C28.7063 13.4367 29.1077 13.516 29.537 13.516C29.7937 13.516 30.0247 13.502 30.23 13.474C30.44 13.446 30.6313 13.4017 30.804 13.341C30.9813 13.2803 31.147 13.2033 31.301 13.11C31.4597 13.012 31.616 12.893 31.77 12.753C31.8167 12.711 31.8657 12.6783 31.917 12.655C31.9683 12.627 32.022 12.613 32.078 12.613ZM37.3375 7.706C37.8695 7.706 38.3525 7.79233 38.7865 7.965C39.2251 8.13767 39.5985 8.38267 39.9065 8.7C40.2191 9.01733 40.4595 9.40467 40.6275 9.862C40.7955 10.3193 40.8795 10.8303 40.8795 11.395C40.8795 11.9643 40.7955 12.4777 40.6275 12.935C40.4595 13.3923 40.2191 13.782 39.9065 14.104C39.5985 14.426 39.2251 14.6733 38.7865 14.846C38.3525 15.0187 37.8695 15.105 37.3375 15.105C36.8008 15.105 36.3131 15.0187 35.8745 14.846C35.4358 14.6733 35.0601 14.426 34.7475 14.104C34.4395 13.782 34.1991 13.3923 34.0265 12.935C33.8585 12.4777 33.7745 11.9643 33.7745 11.395C33.7745 10.8303 33.8585 10.3193 34.0265 9.862C34.1991 9.40467 34.4395 9.01733 34.7475 8.7C35.0601 8.38267 35.4358 8.13767 35.8745 7.965C36.3131 7.79233 36.8008 7.706 37.3375 7.706ZM37.3375 13.775C37.9348 13.775 38.3758 13.5743 38.6605 13.173C38.9498 12.7717 39.0945 12.1837 39.0945 11.409C39.0945 10.6343 38.9498 10.044 38.6605 9.638C38.3758 9.232 37.9348 9.029 37.3375 9.029C36.7308 9.029 36.2805 9.23433 35.9865 9.645C35.6971 10.051 35.5525 10.639 35.5525 11.409C35.5525 12.179 35.6971 12.767 35.9865 13.173C36.2805 13.5743 36.7308 13.775 37.3375 13.775ZM44.1275 13.138C44.3235 13.376 44.5359 13.544 44.7645 13.642C44.9979 13.74 45.2499 13.789 45.5205 13.789C45.7819 13.789 46.0175 13.74 46.2275 13.642C46.4375 13.544 46.6149 13.3947 46.7595 13.194C46.9089 12.9933 47.0232 12.7413 47.1025 12.438C47.1819 12.13 47.2215 11.7683 47.2215 11.353C47.2215 10.933 47.1865 10.5783 47.1165 10.289C47.0512 9.995 46.9555 9.757 46.8295 9.575C46.7035 9.393 46.5495 9.26 46.3675 9.176C46.1902 9.092 45.9872 9.05 45.7585 9.05C45.3992 9.05 45.0935 9.127 44.8415 9.281C44.5895 9.43033 44.3515 9.64267 44.1275 9.918V13.138ZM44.0365 8.798C44.3305 8.46667 44.6642 8.19833 45.0375 7.993C45.4109 7.78767 45.8495 7.685 46.3535 7.685C46.7455 7.685 47.1025 7.76667 47.4245 7.93C47.7512 8.09333 48.0312 8.33133 48.2645 8.644C48.5025 8.952 48.6845 9.33467 48.8105 9.792C48.9412 10.2447 49.0065 10.765 49.0065 11.353C49.0065 11.8897 48.9342 12.3867 48.7895 12.844C48.6449 13.3013 48.4372 13.698 48.1665 14.034C47.9005 14.37 47.5762 14.6337 47.1935 14.825C46.8155 15.0117 46.3909 15.105 45.9195 15.105C45.5182 15.105 45.1752 15.0443 44.8905 14.923C44.6059 14.797 44.3515 14.6243 44.1275 14.405V17.345H42.3985V7.818H43.4555C43.6795 7.818 43.8265 7.923 43.8965 8.133L44.0365 8.798ZM56.8745 7.818L52.9615 16.974C52.9102 17.0953 52.8425 17.1863 52.7585 17.247C52.6792 17.3123 52.5555 17.345 52.3875 17.345H51.0995L52.4435 14.461L49.5385 7.818H51.0575C51.1928 7.818 51.2978 7.85067 51.3725 7.916C51.4518 7.98133 51.5102 8.056 51.5475 8.14L53.0735 11.864C53.1248 11.99 53.1668 12.116 53.1995 12.242C53.2368 12.368 53.2718 12.4963 53.3045 12.627C53.3465 12.4963 53.3885 12.368 53.4305 12.242C53.4725 12.1113 53.5192 11.983 53.5705 11.857L55.0125 8.14C55.0498 8.04667 55.1105 7.96967 55.1945 7.909C55.2832 7.84833 55.3812 7.818 55.4885 7.818H56.8745Z" fill="#5048ED"/>
</svg>