<svg width="51" height="20" viewBox="0 0 51 20" fill="none" xmlns="http://www.w3.org/2000/svg">
<path d="M17.1062 9.82421L15.175 11.7562C14.8445 12.0859 14.3046 12.0867 13.9734 11.7562C13.6422 11.425 13.6422 10.8851 13.9734 10.5539L15.9046 8.62187C16.5125 8.01483 16.8468 7.21171 16.8476 6.36007C16.8476 5.56163 16.5578 4.79835 16.0312 4.21167C15.4789 3.59605 14.6914 3.24449 13.814 3.22027C13.782 3.22027 13.7499 3.21949 13.7171 3.21949C12.7757 3.21949 11.8624 3.59527 11.1983 4.25855L9.43738 6.01949C9.10614 6.35073 8.56706 6.34995 8.23504 6.01949C8.07489 5.85855 7.9866 5.64527 7.9866 5.41793C7.9866 5.19137 8.07566 4.97731 8.23504 4.81637L9.99598 3.05543C11.01 2.04215 12.425 1.48511 13.8584 1.52105C15.2068 1.55776 16.4272 2.10933 17.2944 3.07417C18.1014 3.97261 18.5459 5.14057 18.5459 6.35937C18.5459 7.66561 18.0351 8.89541 17.1062 9.82421Z" fill="#5048ED"/>
<path d="M11.7546 15.1766L9.98273 16.9493C8.97179 17.9602 7.58113 18.5165 6.13033 18.479C4.78501 18.4422 3.56713 17.8899 2.70213 16.9243C1.89745 16.0258 1.45369 14.8611 1.45369 13.6415C1.44197 12.3368 1.94979 11.1033 2.88493 10.1689L4.81617 8.23764C4.97711 8.0767 5.18961 7.9892 5.41695 7.9892C5.64351 7.9892 5.85757 8.07826 6.01851 8.23764C6.17867 8.39857 6.26695 8.61186 6.26695 8.8392C6.26695 9.06576 6.17789 9.27982 6.01851 9.44076L4.08727 11.372C3.47789 11.9814 3.14665 12.7861 3.15445 13.6338C3.15445 14.4385 3.44351 15.2041 3.96851 15.79C4.51929 16.4041 5.30445 16.7556 6.17711 16.7791C7.13649 16.7947 8.09821 16.4291 8.78171 15.7462L10.5536 13.9744C10.8833 13.6439 11.4239 13.6431 11.7552 13.9744C12.0856 14.3056 12.0856 14.8455 11.7544 15.1767L11.7546 15.1766Z" fill="#5048ED"/>
<path d="M6.2016 12.5938L12.5922 6.20242C12.7578 6.0368 12.975 5.95398 13.193 5.95398C13.4102 5.95398 13.6281 6.03679 13.7938 6.20242C14.125 6.53366 14.125 7.07352 13.7938 7.40476L7.40316 13.7962C7.08206 14.1173 6.5227 14.1173 6.2016 13.7962C6.04144 13.6352 5.95316 13.4219 5.95316 13.1946C5.95238 12.968 6.04144 12.7548 6.2016 12.5938Z" fill="#5048ED"/>
<path d="M31.056 13.446V15H25.127V4.878H27.01V13.446H31.056ZM34.1194 7.818V15H32.3834V7.818H34.1194ZM34.3574 5.725C34.3574 5.87433 34.3271 6.01433 34.2664 6.145C34.2058 6.27567 34.1241 6.39 34.0214 6.488C33.9234 6.586 33.8068 6.66533 33.6714 6.726C33.5361 6.782 33.3914 6.81 33.2374 6.81C33.0881 6.81 32.9458 6.782 32.8104 6.726C32.6798 6.66533 32.5654 6.586 32.4674 6.488C32.3694 6.39 32.2901 6.27567 32.2294 6.145C32.1734 6.01433 32.1454 5.87433 32.1454 5.725C32.1454 5.571 32.1734 5.42633 32.2294 5.291C32.2901 5.15567 32.3694 5.039 32.4674 4.941C32.5654 4.843 32.6798 4.766 32.8104 4.71C32.9458 4.64933 33.0881 4.619 33.2374 4.619C33.3914 4.619 33.5361 4.64933 33.6714 4.71C33.8068 4.766 33.9234 4.843 34.0214 4.941C34.1241 5.039 34.2058 5.15567 34.2664 5.291C34.3271 5.42633 34.3574 5.571 34.3574 5.725ZM37.6991 8.7C37.8438 8.55533 37.9955 8.42233 38.1541 8.301C38.3175 8.175 38.4878 8.07 38.6651 7.986C38.8471 7.89733 39.0408 7.82967 39.2461 7.783C39.4515 7.73167 39.6755 7.706 39.9181 7.706C40.3101 7.706 40.6578 7.77367 40.9611 7.909C41.2645 8.03967 41.5165 8.22633 41.7171 8.469C41.9225 8.707 42.0765 8.994 42.1791 9.33C42.2865 9.66133 42.3401 10.0277 42.3401 10.429V15H40.6111V10.429C40.6111 9.99033 40.5108 9.652 40.3101 9.414C40.1095 9.17133 39.8038 9.05 39.3931 9.05C39.0945 9.05 38.8145 9.11767 38.5531 9.253C38.2918 9.38833 38.0445 9.57267 37.8111 9.806V15H36.0821V7.818H37.1391C37.3631 7.818 37.5101 7.923 37.5801 8.133L37.6991 8.7ZM45.9135 4.598V10.555H46.2355C46.3521 10.555 46.4431 10.541 46.5085 10.513C46.5785 10.4803 46.6485 10.4173 46.7185 10.324L48.5035 8.119C48.5781 8.021 48.6598 7.94633 48.7485 7.895C48.8418 7.84367 48.9608 7.818 49.1055 7.818H50.6875L48.4545 10.485C48.2958 10.695 48.1231 10.856 47.9365 10.968C48.0345 11.038 48.1208 11.1197 48.1955 11.213C48.2748 11.3063 48.3495 11.4067 48.4195 11.514L50.8135 15H49.2525C49.1171 15 49.0005 14.979 48.9025 14.937C48.8045 14.8903 48.7228 14.8087 48.6575 14.692L46.8235 11.969C46.7581 11.8617 46.6905 11.7917 46.6205 11.759C46.5505 11.7263 46.4455 11.71 46.3055 11.71H45.9135V15H44.1845V4.598H45.9135Z" fill="#5048ED"/>
</svg>