<svg width="57" height="20" viewBox="0 0 57 20" fill="none" xmlns="http://www.w3.org/2000/svg">
<path d="M9.99999 13.6C8.97667 13.6 7.99517 13.2205 7.27167 12.5455C6.54821 11.8705 6.14145 10.9547 6.14145 9.9999C6.14145 9.04512 6.54821 8.12939 7.27167 7.45435C7.99513 6.77935 8.97665 6.39984 9.99999 6.39984C11.0233 6.39984 12.0048 6.77935 12.7283 7.45435C13.4518 8.12935 13.8585 9.04512 13.8585 9.9999C13.8585 10.9547 13.4518 11.8704 12.7283 12.5455C12.0048 13.2205 11.0233 13.6 9.99999 13.6ZM9.99999 7.59992C8.9598 7.59992 8.0217 8.18493 7.62377 9.08118C7.22506 9.97819 7.44531 11.011 8.18083 11.6972C8.91636 12.3835 10.0233 12.5889 10.9847 12.2169C11.9453 11.8457 12.5723 10.9704 12.5723 9.9999C12.5723 9.36315 12.3014 8.75264 11.8191 8.30265C11.3367 7.85265 10.6824 7.59988 9.99995 7.59988L9.99999 7.59992Z" fill="#5048ED"/>
<path d="M10 16C5.20908 16 1.27341 10.5641 1.10611 10.33C0.96463 10.1297 0.96463 9.87026 1.10611 9.67C1.27331 9.43599 5.20908 4 10 4C14.7909 4 18.7266 9.43595 18.8939 9.67C19.0354 9.87026 19.0354 10.1297 18.8939 10.33C18.7267 10.564 14.7909 16 10 16ZM2.68095 9.69345C2.53172 9.87212 2.53173 10.1278 2.68096 10.3064C3.83132 11.6836 6.78975 14.8 10 14.8C13.2103 14.8 16.1687 11.6837 17.319 10.3065C17.4683 10.1278 17.4683 9.87212 17.319 9.69346C16.1687 8.31627 13.2103 5.19991 10 5.19991C6.78974 5.19991 3.83127 8.3162 2.68095 9.69345Z" fill="#5048ED"/>
<path d="M33.8 4.878L29.712 15H28.011L23.923 4.878H25.435C25.5983 4.878 25.7313 4.91767 25.834 4.997C25.9367 5.07633 26.0137 5.179 26.065 5.305L28.452 11.479C28.5313 11.6797 28.606 11.9013 28.676 12.144C28.7507 12.382 28.8207 12.6317 28.886 12.893C28.942 12.6317 29.0027 12.382 29.068 12.144C29.1333 11.9013 29.2057 11.6797 29.285 11.479L31.658 5.305C31.6953 5.19767 31.7677 5.09967 31.875 5.011C31.987 4.92233 32.1223 4.878 32.281 4.878H33.8ZM36.5667 7.818V15H34.8307V7.818H36.5667ZM36.8047 5.725C36.8047 5.87433 36.7744 6.01433 36.7137 6.145C36.653 6.27567 36.5714 6.39 36.4687 6.488C36.3707 6.586 36.254 6.66533 36.1187 6.726C35.9834 6.782 35.8387 6.81 35.6847 6.81C35.5354 6.81 35.393 6.782 35.2577 6.726C35.127 6.66533 35.0127 6.586 34.9147 6.488C34.8167 6.39 34.7374 6.27567 34.6767 6.145C34.6207 6.01433 34.5927 5.87433 34.5927 5.725C34.5927 5.571 34.6207 5.42633 34.6767 5.291C34.7374 5.15567 34.8167 5.039 34.9147 4.941C35.0127 4.843 35.127 4.766 35.2577 4.71C35.393 4.64933 35.5354 4.619 35.6847 4.619C35.8387 4.619 35.9834 4.64933 36.1187 4.71C36.254 4.766 36.3707 4.843 36.4687 4.941C36.5714 5.039 36.653 5.15567 36.7137 5.291C36.7744 5.42633 36.8047 5.571 36.8047 5.725ZM43.1564 10.583C43.1564 10.359 43.1237 10.149 43.0584 9.953C42.9977 9.75233 42.9044 9.57733 42.7784 9.428C42.6524 9.27867 42.4914 9.162 42.2954 9.078C42.1041 8.98933 41.8801 8.945 41.6234 8.945C41.1241 8.945 40.7297 9.08733 40.4404 9.372C40.1557 9.65667 39.9737 10.0603 39.8944 10.583H43.1564ZM39.8594 11.626C39.8874 11.9947 39.9527 12.3143 40.0554 12.585C40.1581 12.851 40.2934 13.0727 40.4614 13.25C40.6294 13.4227 40.8277 13.5533 41.0564 13.642C41.2897 13.726 41.5464 13.768 41.8264 13.768C42.1064 13.768 42.3467 13.7353 42.5474 13.67C42.7527 13.6047 42.9301 13.5323 43.0794 13.453C43.2334 13.3737 43.3664 13.3013 43.4784 13.236C43.5951 13.1707 43.7071 13.138 43.8144 13.138C43.9591 13.138 44.0664 13.1917 44.1364 13.299L44.6334 13.929C44.4421 14.153 44.2274 14.342 43.9894 14.496C43.7514 14.6453 43.5017 14.7667 43.2404 14.86C42.9837 14.9487 42.7201 15.0117 42.4494 15.049C42.1834 15.0863 41.9244 15.105 41.6724 15.105C41.1731 15.105 40.7087 15.0233 40.2794 14.86C39.8501 14.692 39.4767 14.447 39.1594 14.125C38.8421 13.7983 38.5924 13.397 38.4104 12.921C38.2284 12.4403 38.1374 11.885 38.1374 11.255C38.1374 10.765 38.2167 10.3053 38.3754 9.876C38.5341 9.442 38.7604 9.06633 39.0544 8.749C39.3531 8.427 39.7147 8.17267 40.1394 7.986C40.5687 7.79933 41.0517 7.706 41.5884 7.706C42.0411 7.706 42.4587 7.77833 42.8414 7.923C43.2241 8.06767 43.5531 8.28 43.8284 8.56C44.1037 8.83533 44.3184 9.176 44.4724 9.582C44.6311 9.98333 44.7104 10.443 44.7104 10.961C44.7104 11.2223 44.6824 11.3997 44.6264 11.493C44.5704 11.5817 44.4631 11.626 44.3044 11.626H39.8594ZM56.3672 7.818L54.0852 15H52.6992C52.5405 15 52.4309 14.8973 52.3702 14.692L51.0822 10.541C51.0402 10.401 51.0005 10.2633 50.9632 10.128C50.9305 9.988 50.9025 9.848 50.8792 9.708C50.8512 9.848 50.8185 9.99033 50.7812 10.135C50.7485 10.275 50.7112 10.415 50.6692 10.555L49.3602 14.692C49.3042 14.8973 49.1805 15 48.9892 15H47.6592L45.3842 7.818H46.7632C46.8892 7.818 46.9965 7.84833 47.0852 7.909C47.1739 7.96967 47.2322 8.04667 47.2602 8.14L48.2892 11.976C48.3405 12.186 48.3849 12.3913 48.4222 12.592C48.4642 12.7927 48.4992 12.9933 48.5272 13.194C48.5785 12.9933 48.6322 12.7927 48.6882 12.592C48.7489 12.3913 48.8119 12.186 48.8772 11.976L50.0672 8.126C50.0952 8.03267 50.1489 7.95567 50.2282 7.895C50.3122 7.83433 50.4125 7.804 50.5292 7.804H51.2922C51.4135 7.804 51.5162 7.83433 51.6002 7.895C51.6889 7.95567 51.7472 8.03267 51.7752 8.126L52.9302 11.976C52.9909 12.186 53.0469 12.3937 53.0982 12.599C53.1542 12.7997 53.2079 13.0003 53.2592 13.201C53.3199 12.8043 53.4062 12.396 53.5182 11.976L54.5752 8.14C54.6079 8.04667 54.6662 7.96967 54.7502 7.909C54.8342 7.84833 54.9345 7.818 55.0512 7.818H56.3672Z" fill="#5048ED"/>
</svg>