<svg width="36" height="36" viewBox="0 0 36 36" fill="none" xmlns="http://www.w3.org/2000/svg">
<circle cx="18" cy="18" r="18" fill="#0101C8"/>
<g clip-path="url(#clip0_420_689)">
<path fill-rule="evenodd" clip-rule="evenodd" d="M26.2746 25.5539C26.9321 25.0227 27.5517 24.4697 26.6307 23.317C26.0579 22.6003 25.3683 22.0289 24.5881 21.5343C23.335 20.7393 22.6296 21.1382 21.9948 21.6642C18.7102 24.3842 12.0779 17.7519 14.7975 14.4672C15.3232 13.8326 15.7222 13.1269 14.9274 11.8738C14.4329 11.0943 13.861 10.4042 13.1443 9.83115C11.991 8.91063 11.439 9.53006 10.9071 10.1877C5.49362 16.8856 19.5745 30.9671 26.2737 25.5536L26.2746 25.5539Z" fill="white"/>
</g>
<defs>
<clipPath id="clip0_420_689">
<rect width="22" height="22" fill="white" transform="translate(7 7)"/>
</clipPath>
</defs>
</svg>
