<svg width="32" height="32" viewBox="0 0 32 32" fill="none" xmlns="http://www.w3.org/2000/svg">
<g opacity="0.87">
<path d="M15.9951 2C8.27506 2 2.00146 8.27616 2.00146 15.9962C2.00146 23.7162 8.27506 30 15.9951 30C23.7151 30 29.9989 23.7162 29.9989 15.9962C29.9989 8.27616 23.7151 2 15.9951 2ZM15.9951 4.0025C22.6338 4.0025 27.9989 9.35738 27.9989 15.9961C27.9989 22.6348 22.6338 27.9999 15.9951 27.9999C9.35635 27.9999 4.00146 22.6348 4.00146 15.9961C4.00146 9.35738 9.35635 4.0025 15.9951 4.0025ZM10.2927 10.2911C9.89891 10.6812 9.89766 11.3149 10.2877 11.7074L14.5801 15.9999L10.2877 20.2924C9.89893 20.6824 9.89893 21.3136 10.2877 21.7049C10.6764 22.0986 11.3114 22.1011 11.7039 21.7111L15.9964 17.4186L20.2889 21.7111C20.6814 22.1011 21.3164 22.0986 21.7051 21.7049C22.0939 21.3148 22.0939 20.6836 21.7051 20.2924L17.4127 15.9999L21.7064 11.7074C22.0977 11.3161 22.0952 10.6812 21.7027 10.2911C21.3127 9.9024 20.6814 9.9024 20.2902 10.2911L15.9977 14.5836L11.7039 10.2911C11.2727 9.85987 10.6627 9.92115 10.2914 10.2911H10.2927Z" fill="white"/>
</g>
</svg>
