<svg width="36" height="36" viewBox="0 0 36 36" fill="none" xmlns="http://www.w3.org/2000/svg">
<circle cx="18" cy="18" r="18" fill="#0101C8"/>
<path d="M24.3999 11C25.1719 11 25.9239 11.2574 26.5419 11.734L20.3869 17.3373C19.0229 18.5757 16.9769 18.5757 15.613 17.3373L9.45797 11.734C10.076 11.2574 10.828 11 11.6 11H24.3999ZM27.9997 21.2942C27.9977 23.3397 26.3867 24.9982 24.3999 25H11.5999C9.61288 24.9979 8.00179 23.3395 8 21.2942V14.7058C8 13.8215 8.30799 12.9671 8.86899 12.297L15.0829 17.9537C15.8889 18.6856 16.9259 19.0892 18 19.0892C19.0741 19.0892 20.111 18.6857 20.9171 17.9537L27.131 12.297C27.692 12.9671 28 13.8216 28 14.7058L27.9997 21.2942Z" fill="white"/>
</svg>
