<svg width="76" height="67" viewBox="0 0 76 67" fill="none" xmlns="http://www.w3.org/2000/svg">
<rect y="0.804688" width="76" height="66" rx="12" fill="#F4F4FF"/>
<path d="M24.325 30.6118C24.1406 30.6135 23.959 30.5663 23.7986 30.4751C23.681 30.409 23.5778 30.3201 23.495 30.2136C23.4122 30.1072 23.3514 29.9853 23.3163 29.855C23.2811 29.7248 23.2723 29.5888 23.2904 29.4552C23.3084 29.3215 23.3529 29.1927 23.4213 29.0765C24.7393 26.8767 28.7492 21.7422 37.4992 21.7422C41.2911 21.7422 44.6168 22.7382 47.3792 24.7015C49.6528 26.3127 50.927 28.1365 51.5341 29.0149C51.6111 29.1257 51.6651 29.2507 51.6931 29.3826C51.721 29.5145 51.7223 29.6507 51.6968 29.7832C51.6713 29.9156 51.6196 30.0416 51.5447 30.1537C51.4698 30.2659 51.3732 30.3619 51.2606 30.4361C51.0306 30.5882 50.7503 30.6447 50.4792 30.5937C50.2082 30.5427 49.9677 30.3881 49.8087 30.1627C48.7102 28.5829 45.3605 23.7759 37.4992 23.7759C29.8259 23.7759 26.3566 28.1994 25.2267 30.0964C25.1359 30.2548 25.0044 30.3861 24.8459 30.4767C24.6874 30.5673 24.5076 30.614 24.325 30.6118Z" fill="#0101C8"/>
<path d="M41.9078 50.7112C41.8205 50.7123 41.7335 50.7024 41.6487 50.6818C35.3015 49.1096 32.9315 42.7645 32.8351 42.5006L32.8201 42.4425C32.7681 42.2593 31.4946 37.9082 33.4497 35.3598C34.3459 34.1977 35.709 33.6016 37.5089 33.6016C39.1823 33.6016 40.3895 34.1218 41.2194 35.1984C41.903 36.0775 42.1764 37.1617 42.441 38.2062C42.9968 40.3814 43.398 41.5237 45.7079 41.6413C46.7223 41.6926 47.3888 41.0992 47.7669 40.594C48.7888 39.2166 48.9666 36.971 48.1962 34.9886C47.2063 32.4299 43.6933 27.6058 37.4993 27.6058C34.8551 27.6058 32.4257 28.4555 30.4774 30.0523C28.8648 31.3751 27.5872 33.2427 26.9719 35.1622C25.831 38.736 27.3274 44.3538 27.3418 44.4051C27.3767 44.5358 27.3851 44.6722 27.3665 44.8063C27.3479 44.9403 27.3026 45.0693 27.2333 45.1856C27.1641 45.3018 27.0723 45.4031 26.9633 45.4833C26.8543 45.5635 26.7303 45.6211 26.5987 45.6526C26.3328 45.7233 26.0498 45.6871 25.8104 45.5516C25.5709 45.4162 25.394 45.1923 25.3176 44.928C25.2493 44.6717 23.651 38.68 24.969 34.5497C26.4046 30.0742 30.8349 25.5625 37.5013 25.5625C40.5823 25.5625 43.493 26.6098 45.9225 28.5874C47.8038 30.1255 49.3405 32.1913 50.1444 34.2564C51.1664 36.8931 50.8923 39.8523 49.4478 41.7855C48.4853 43.0748 47.1147 43.7488 45.5965 43.6757C41.6412 43.4774 40.9302 40.7164 40.4121 38.7025C39.8789 36.6367 39.5378 35.6407 37.5013 35.6407C36.383 35.6407 35.5975 35.9483 35.1088 36.5854C34.4423 37.457 34.3903 38.8194 34.4641 39.8079C34.5126 40.4966 34.6294 41.1788 34.8128 41.8443C34.9755 42.2545 37.0939 47.4498 42.1676 48.7069C42.2987 48.738 42.4223 48.7948 42.5313 48.8741C42.6403 48.9533 42.7325 49.0535 42.8024 49.1687C42.8724 49.2838 42.9188 49.4118 42.9389 49.545C42.959 49.6783 42.9524 49.8142 42.9195 49.9449C42.8576 50.1656 42.7252 50.3599 42.5425 50.4982C42.3599 50.6366 42.1369 50.7114 41.9078 50.7112Z" fill="#0101C8"/>
<path d="M33.7617 50.2383C33.6195 50.2386 33.4786 50.2102 33.3475 50.1549C33.2165 50.0996 33.0979 50.0184 32.9988 49.9163C30.4586 47.2503 29.0217 44.2691 28.481 40.5415V40.5217C28.1775 38.0539 28.6218 34.5601 30.799 32.1579C32.4062 30.3854 34.6654 29.4844 37.5024 29.4844C40.8574 29.4844 43.4941 31.0443 45.1381 33.9886C46.331 36.1275 46.5675 38.259 46.5736 38.3465C46.5862 38.4814 46.5719 38.6174 46.5318 38.7469C46.4916 38.8763 46.4263 38.9965 46.3397 39.1006C46.253 39.2047 46.1466 39.2908 46.0267 39.3537C45.9067 39.4167 45.7755 39.4554 45.6405 39.4676C45.3683 39.4971 45.0953 39.4184 44.8806 39.2484C44.6658 39.0785 44.5265 38.8309 44.4928 38.5591C44.3127 37.2802 43.8989 36.0453 43.2719 34.9162C41.9977 32.6679 40.059 31.5249 37.4948 31.5249C35.28 31.5249 33.5471 32.1914 32.3549 33.5073C30.6363 35.4043 30.3041 38.3267 30.54 40.2599C31.0137 43.5562 32.2804 46.1784 34.5171 48.5218C34.6105 48.6189 34.6833 48.7338 34.7314 48.8596C34.7795 48.9855 34.8017 49.1197 34.7969 49.2543C34.792 49.3889 34.7602 49.5212 34.7032 49.6433C34.6462 49.7653 34.5652 49.8747 34.4652 49.9648C34.2724 50.1396 34.0219 50.2369 33.7617 50.2383Z" fill="#0101C8"/>
<path d="M45.4635 47.3053C43.2418 47.3053 41.353 46.69 39.8416 45.4671C36.8051 43.0205 36.4646 39.0358 36.4496 38.8677C36.4282 38.5916 36.5174 38.3184 36.6974 38.1081C36.8775 37.8978 37.1337 37.7676 37.4097 37.7462C37.6857 37.7248 37.959 37.814 38.1693 37.994C38.3796 38.1741 38.5098 38.4303 38.5312 38.7063C38.5387 38.7651 38.8422 42.0245 41.1828 43.9017C42.5678 45.0077 44.4189 45.4466 46.7001 45.1902C46.9727 45.1572 47.2474 45.2334 47.464 45.4022C47.6806 45.571 47.8216 45.8188 47.8561 46.0912C47.871 46.2258 47.859 46.362 47.8207 46.4919C47.7824 46.6218 47.7187 46.7428 47.6331 46.8478C47.5476 46.9528 47.442 47.0397 47.3226 47.1034C47.2031 47.1672 47.0721 47.2065 46.9373 47.2191C46.4481 47.2762 45.956 47.305 45.4635 47.3053ZM47.2189 20.1399C46.3521 19.576 43.2787 17.8984 37.4996 17.8984C31.4334 17.8984 28.3524 19.7517 27.6709 20.2227C27.6259 20.2503 27.5838 20.2823 27.5451 20.3184C27.541 20.3223 27.5357 20.3247 27.5301 20.3252C27.4212 20.4202 27.3339 20.5373 27.2739 20.6688C27.2139 20.8002 27.1826 20.9429 27.1821 21.0874C27.184 21.2228 27.2126 21.3566 27.2662 21.4809C27.3199 21.6053 27.3975 21.7179 27.4947 21.8122C27.592 21.9065 27.7068 21.9807 27.8328 22.0305C27.9587 22.0803 28.0933 22.1048 28.2287 22.1025C28.4458 22.1024 28.6576 22.0358 28.8357 21.9118C28.8651 21.8899 31.5168 19.9417 37.5017 19.9417C43.4865 19.9417 46.1525 21.8831 46.1812 21.8975C46.3632 22.0324 46.5843 22.1044 46.8108 22.1025C46.9464 22.1046 47.081 22.0799 47.207 22.0298C47.3329 21.9797 47.4478 21.9053 47.5449 21.8107C47.642 21.7161 47.7195 21.6033 47.7729 21.4787C47.8263 21.3541 47.8545 21.2202 47.8561 21.0847C47.8561 20.8816 47.7955 20.6832 47.682 20.5149C47.5684 20.3465 47.4072 20.216 47.2189 20.1399Z" fill="#0101C8"/>
</svg>
