<svg width="130" height="131" viewBox="0 0 130 131" fill="none" xmlns="http://www.w3.org/2000/svg">
<path d="M27.37 72.1983C25.2474 70.8371 23.6936 68.64 24.0634 66.3465C24.1 66.1197 24.1864 65.9038 24.3164 65.7144C24.4465 65.525 24.6169 65.3668 24.8155 65.2511C25.014 65.1355 25.2357 65.0654 25.4646 65.0457C25.6936 65.0261 25.924 65.0575 26.1393 65.1376C31.7891 67.2353 38.0915 65.9332 43.6729 60.6377C43.8622 60.458 44.0937 60.3289 44.346 60.2624C44.5984 60.1958 44.8634 60.1938 45.1167 60.2567C45.3701 60.3195 45.6034 60.4452 45.7954 60.622C45.9873 60.7989 46.1316 61.0212 46.215 61.2685C46.9328 63.4097 46.2895 66.2968 44.7233 68.671C43.7953 70.0703 42.5797 71.2555 41.1575 72.1478C39.7352 73.04 38.1391 73.6187 36.4755 73.8453C32.7525 74.3954 29.5888 73.6185 27.37 72.1983ZM83.1436 72.1983C85.2661 70.8371 86.8231 68.64 86.4533 66.3465C86.4167 66.1197 86.3303 65.9038 86.2002 65.7144C86.0702 65.525 85.8997 65.3668 85.7012 65.2511C85.5026 65.1355 85.2809 65.0654 85.052 65.0457C84.8231 65.0261 84.5927 65.0575 84.3773 65.1376C78.7276 67.2353 72.4252 65.9332 66.8438 60.6377C66.6545 60.458 66.423 60.3289 66.1706 60.2624C65.9183 60.1958 65.6532 60.1938 65.3999 60.2567C65.1466 60.3195 64.9132 60.4452 64.7213 60.622C64.5293 60.7989 64.385 61.0212 64.3017 61.2685C63.5807 63.4097 64.2271 66.2968 65.7934 68.671C66.721 70.0699 67.9361 71.2549 69.3578 72.1472C70.7795 73.0394 72.375 73.6183 74.0381 73.8453C77.7642 74.3954 80.9247 73.6185 83.1436 72.1983Z" fill="#E5E5FF"/>
<path fill-rule="evenodd" clip-rule="evenodd" d="M35.4142 96.867C34.8362 97.7527 34.3763 98.887 34.0748 99.9933C33.7259 101.219 33.5831 102.494 33.6522 103.766C33.7454 105.009 34.1867 106.843 35.8245 108.045C37.5337 109.298 39.591 109.173 41.3313 108.626L41.3561 108.62L41.381 108.611C48.9544 106.094 52.5625 105.087 56.0275 105.109C59.5081 105.127 63.0322 106.175 70.472 108.605C72.0476 109.155 73.9962 109.273 75.6184 107.999C77.079 106.855 77.4892 105.165 77.6073 104.058C77.7131 102.89 77.6344 101.712 77.3742 100.568C77.1565 99.5108 76.7826 98.4917 76.2648 97.5445C76.0026 97.1097 75.7141 96.6915 75.4008 96.2921L75.3449 96.2206C71.2894 90.5553 63.8247 87.0156 55.6018 87.0156C47.0805 87.0156 39.3548 90.8225 35.4142 96.867ZM39.8769 103.493L39.8831 103.511L39.8738 103.48L39.8769 103.493ZM40.0696 101.634C39.9763 101.97 39.9142 102.279 39.8831 102.56C46.9935 100.198 51.4934 98.8652 56.0648 98.8932C60.4808 98.9181 64.7881 100.217 71.3857 102.364C71.3629 102.205 71.3339 102.046 71.2987 101.889C71.2132 101.454 71.07 101.033 70.8729 100.637C70.8139 100.534 70.7828 100.494 70.7082 100.394C70.5654 100.214 70.4275 100.029 70.2949 99.841C67.5912 96.0683 62.1683 93.231 55.6018 93.231C48.7804 93.231 43.2114 96.2859 40.6196 100.264C40.3768 100.693 40.1918 101.156 40.0696 101.634ZM71.395 103.583L71.3888 103.608L71.4012 103.576L71.395 103.583Z" fill="#E5E5FF"/>
<path fill-rule="evenodd" clip-rule="evenodd" d="M111.877 74.5829C111.877 105.476 86.8318 130.521 55.9383 130.521C25.0448 130.521 0 105.476 0 74.5829C0 43.6894 25.0448 18.6445 55.9383 18.6445C86.8318 18.6445 111.877 43.6894 111.877 74.5829ZM105.661 74.5829C105.661 102.045 83.401 124.306 55.9383 124.306C28.4757 124.306 6.21537 102.045 6.21537 74.5829C6.21537 47.1203 28.4757 24.8599 55.9383 24.8599C83.401 24.8599 105.661 47.1203 105.661 74.5829Z" fill="#E5E5FF"/>
<path d="M116.059 46.3888C116.086 45.0178 116.516 43.685 117.296 42.5571C118.076 41.4293 119.171 40.5565 120.444 40.048C121.718 39.5396 123.113 39.418 124.455 39.6985C125.798 39.9791 127.027 40.6493 127.991 41.6252C128.954 42.6012 129.608 43.8396 129.871 45.1854C130.134 46.5312 129.994 47.9247 129.469 49.1915C128.944 50.4583 128.057 51.542 126.919 52.3072C125.781 53.0724 124.443 53.4849 123.071 53.4932C122.182 53.5261 121.295 53.3832 120.461 53.0726C119.626 52.762 118.862 52.2899 118.21 51.6832C117.559 51.0766 117.034 50.3474 116.664 49.5374C116.295 48.7274 116.09 47.8525 116.059 46.9629V46.3888ZM118.622 35.3785L116.828 0H129.222L127.49 35.3785H118.622Z" fill="#E5E5FF"/>
</svg>
