<svg width="76" height="66" viewBox="0 0 76 66" fill="none" xmlns="http://www.w3.org/2000/svg">
<rect width="76" height="66" rx="12" fill="#F4F4FF"/>
<g clip-path="url(#clip0_480_1520)">
<path d="M42.395 44.0166C42.395 41.7664 44.2189 39.941 46.4678 39.941H51.5649C53.8137 39.941 55.6391 41.7676 55.6391 44.0166C55.6391 46.2667 53.8152 48.0922 51.5649 48.0922H46.4678C44.219 48.0922 42.395 46.2642 42.395 44.0166ZM44.4327 44.0166C44.4327 45.1396 45.3447 46.0543 46.4677 46.0543H51.5648C52.6892 46.0543 53.6012 45.141 53.6012 44.0166C53.6012 42.8935 52.6879 41.9789 51.5648 41.9789H46.4677C45.3447 41.9789 44.4327 42.8908 44.4327 44.0166ZM36.7918 47.0732C37.3533 47.0732 37.8106 47.5291 37.8106 48.092C37.8106 48.6536 37.3533 49.1109 36.7918 49.1109C28.0698 49.1109 21 42.0397 21 33.3191C21 24.5985 28.0698 17.5273 36.7918 17.5273C45.5124 17.5273 52.5822 24.5985 52.5822 33.3191C52.5822 33.882 52.1262 34.338 51.5633 34.338C51.0004 34.338 50.5444 33.882 50.5444 33.3191C50.5444 25.7229 44.3867 19.5651 36.7918 19.5651C29.1956 19.5651 23.0379 25.7229 23.0379 33.3191C23.0379 40.9154 29.1955 47.0732 36.7918 47.0732ZM46.4702 45.0354C45.9073 45.0354 45.4513 44.5795 45.4513 44.0166C45.4513 43.4537 45.9073 42.9977 46.4702 42.9977H49.0167C49.5795 42.9977 50.0355 43.4537 50.0355 44.0166C50.0355 44.5795 49.5795 45.0354 49.0167 45.0354H46.4702ZM42.3946 32.8104C42.9575 32.8104 43.4134 33.2664 43.4134 33.8279C43.4134 34.3908 42.9575 34.8468 42.3946 34.8468H36.2815C35.7187 34.8468 35.2627 34.3908 35.2627 33.8279V24.6594C35.2627 24.0965 35.7187 23.6406 36.2815 23.6406C36.8444 23.6406 37.3004 24.0965 37.3004 24.6594V32.8102L42.3946 32.8104Z" fill="#0101C8"/>
</g>
<defs>
<clipPath id="clip0_480_1520">
<rect width="34.6387" height="34.6387" fill="white" transform="translate(21 16)"/>
</clipPath>
</defs>
</svg>
