<svg width="76" height="67" viewBox="0 0 76 67" fill="none" xmlns="http://www.w3.org/2000/svg">
<rect y="0.804688" width="76" height="66" rx="12" fill="#F4F4FF"/>
<path d="M33.3206 20.4531C29.4327 20.5406 27.162 20.9125 25.6104 22.4583C24.2512 23.8117 23.7977 25.7148 23.646 28.7656M41.6797 20.4531C45.5677 20.5406 47.8383 20.9125 49.39 22.4583C50.7491 23.8117 51.2027 25.7148 51.3543 28.7656M41.6797 48.1615C45.5677 48.074 47.8383 47.7021 49.39 46.1562C50.7491 44.8029 51.2027 42.8998 51.3543 39.849M33.3206 48.1615C29.4327 48.074 27.162 47.7021 25.6104 46.1562C24.2512 44.8029 23.7977 42.8998 23.646 39.849M30.9377 41.599C34.3385 38.0377 40.6254 37.87 44.0627 41.599M41.1387 30.6615C41.1387 32.674 39.5054 34.3073 37.4885 34.3073C37.0092 34.3081 36.5345 34.2143 36.0915 34.0314C35.6485 33.8486 35.2459 33.5801 34.9067 33.2415C34.5676 32.9029 34.2985 32.5007 34.1149 32.058C33.9313 31.6153 33.8368 31.1407 33.8368 30.6615C33.8368 28.649 35.4702 27.0156 37.4885 27.0156C37.9676 27.015 38.4422 27.1089 38.885 27.2919C39.3279 27.4749 39.7303 27.7433 40.0693 28.0819C40.4083 28.4205 40.6773 28.8226 40.8608 29.2652C41.0443 29.7079 41.1387 30.1823 41.1387 30.6615Z" stroke="#0101C8" stroke-width="2.1875" stroke-linecap="round" stroke-linejoin="round"/>
</svg>
