<svg width="72" height="63" viewBox="0 0 72 63" fill="none" xmlns="http://www.w3.org/2000/svg">
<path d="M29.0119 12C32.0911 6.66666 39.7891 6.66667 42.8683 12L64.9519 50.25C68.0311 55.5833 64.1821 62.25 58.0237 62.25H13.8564C7.698 62.25 3.849 55.5833 6.9282 50.25L29.0119 12Z" fill="#FFF5F5"/>
<path d="M39.2275 47.37C39.2148 46.7532 39.0054 46.1536 38.6257 45.6461C38.246 45.1387 37.7128 44.7461 37.0928 44.5173C36.4729 44.2886 35.7937 44.2339 35.1402 44.3601C34.4868 44.4863 33.8881 44.7878 33.4192 45.2269C32.9503 45.666 32.6319 46.2231 32.5038 46.8286C32.3758 47.4341 32.4439 48.061 32.6995 48.6309C32.9551 49.2008 33.3869 49.6884 33.9409 50.0326C34.4948 50.3769 35.1464 50.5625 35.8139 50.5662C36.247 50.581 36.6789 50.5167 37.085 50.377C37.4911 50.2373 37.8633 50.0248 38.1804 49.7519C38.4975 49.479 38.7533 49.1509 38.9329 48.7865C39.1126 48.4221 39.2127 48.0285 39.2275 47.6283V47.37ZM37.9799 42.4166L38.8532 26.5H32.8195L33.6629 42.4166H37.9799Z" fill="#AB3436"/>
</svg>
