<svg width="23" height="23" viewBox="0 0 23 23" fill="none" xmlns="http://www.w3.org/2000/svg">
<path d="M3.52669 12.4573L3.02069 12.9672C3.1553 13.1006 3.33716 13.1755 3.52669 13.1755C3.71622 13.1755 3.89809 13.1006 4.03269 12.9672L3.52669 12.4573ZM5.64269 11.3706C5.77816 11.2361 5.85467 11.0534 5.85539 10.8625C5.85611 10.6717 5.78098 10.4883 5.64653 10.3528C5.57995 10.2858 5.50082 10.2325 5.41364 10.196C5.32646 10.1595 5.23295 10.1405 5.13844 10.1401C4.94758 10.1394 4.76425 10.2146 4.62878 10.349L5.64269 11.3706ZM2.42269 10.349C2.2866 10.2185 2.1047 10.1468 1.91619 10.1492C1.72768 10.1516 1.54765 10.2279 1.41491 10.3618C1.28217 10.4957 1.20734 10.6763 1.20655 10.8648C1.20576 11.0534 1.27907 11.2347 1.41069 11.3696L2.42269 10.349ZM17.8404 7.08301C17.8885 7.16598 17.9528 7.23845 18.0295 7.29617C18.1061 7.35389 18.1935 7.39569 18.2865 7.41909C18.3796 7.4425 18.4764 7.44704 18.5712 7.43245C18.666 7.41787 18.7569 7.38444 18.8386 7.33416C18.9203 7.28387 18.9912 7.21774 19.0469 7.13965C19.1026 7.06157 19.1422 6.97312 19.1632 6.87951C19.1842 6.78591 19.1863 6.68904 19.1693 6.59462C19.1523 6.50021 19.1165 6.41015 19.0641 6.32976L17.8404 7.08301ZM16.1892 3.45572C16.1088 3.40336 16.0187 3.36762 15.9243 3.35061C15.8299 3.3336 15.733 3.33566 15.6394 3.35668C15.5458 3.3777 15.4573 3.41724 15.3793 3.47298C15.3012 3.52872 15.235 3.59952 15.1848 3.68122C15.1345 3.76292 15.101 3.85387 15.0865 3.94869C15.0719 4.04351 15.0764 4.14029 15.0998 4.23333C15.1232 4.32636 15.165 4.41377 15.2227 4.49041C15.2805 4.56704 15.3529 4.63133 15.4359 4.67951L16.1892 3.45572ZM11.9437 3.60043C12.1324 3.60688 12.3159 3.53887 12.4549 3.41111C12.5938 3.28334 12.6768 3.10606 12.6862 2.91756C12.6955 2.72906 12.6303 2.54446 12.5046 2.40362C12.379 2.26279 12.203 2.17702 12.0147 2.16485L11.9437 3.60043ZM11.5767 2.15526C6.73998 2.15526 2.80794 6.04706 2.80794 10.8598H4.24544C4.24544 6.85206 7.52294 3.59276 11.5767 3.59276V2.15526ZM2.80794 10.8598V12.4573H4.24544V10.8598H2.80794ZM4.03461 12.9681L5.64269 11.3706L4.62878 10.349L3.01878 11.9466L4.03461 12.9681ZM4.03461 11.9475L2.42269 10.349L1.40973 11.3696L3.01973 12.9662L4.03461 11.9475ZM19.0651 6.33168C18.345 5.16156 17.3602 4.17681 16.1901 3.45668L15.4369 4.68047C16.4154 5.28245 17.239 6.10569 17.8413 7.08397L19.0651 6.33168ZM12.0147 2.16485C11.8685 2.15761 11.7221 2.15409 11.5757 2.15431V3.59181C11.699 3.59181 11.8217 3.595 11.9437 3.60139L12.0147 2.16485ZM19.4666 10.5407L19.9726 10.0299C19.8381 9.89675 19.6564 9.82207 19.4671 9.82207C19.2778 9.82207 19.0962 9.89675 18.9616 10.0299L19.4666 10.5407ZM17.3459 11.6265C17.2787 11.6929 17.2253 11.7718 17.1887 11.8588C17.1521 11.9459 17.1329 12.0393 17.1324 12.1337C17.1313 12.3244 17.206 12.5077 17.3401 12.6433C17.4742 12.7789 17.6566 12.8556 17.8473 12.8567C18.038 12.8578 18.2213 12.7831 18.3569 12.649L17.3459 11.6265ZM20.5783 12.649C20.6451 12.7171 20.7247 12.7713 20.8126 12.8083C20.9005 12.8453 20.9949 12.8645 21.0902 12.8647C21.1856 12.8649 21.2801 12.8461 21.3681 12.8094C21.4561 12.7727 21.536 12.7189 21.603 12.6511C21.67 12.5832 21.7229 12.5027 21.7585 12.4142C21.7941 12.3257 21.8117 12.2311 21.8104 12.1357C21.809 12.0403 21.7887 11.9462 21.7506 11.8588C21.7125 11.7714 21.6573 11.6924 21.5884 11.6265L20.5783 12.649ZM5.09644 15.9131C4.9963 15.7508 4.83579 15.635 4.65023 15.591C4.46467 15.5471 4.26925 15.5786 4.10696 15.6788C3.94468 15.7789 3.82882 15.9394 3.78488 16.125C3.74094 16.3106 3.77251 16.506 3.87265 16.6683L5.09644 15.9131ZM11.0525 19.3976C10.862 19.3892 10.676 19.4568 10.5353 19.5856C10.3947 19.7144 10.311 19.8937 10.3026 20.0842C10.2942 20.2747 10.3618 20.4608 10.4906 20.6014C10.6194 20.742 10.7987 20.8258 10.9892 20.8341L11.0525 19.3976ZM6.81665 19.5778C6.97995 19.6761 7.17564 19.7056 7.36066 19.6597C7.54569 19.6137 7.70489 19.4962 7.80325 19.3329C7.90162 19.1696 7.93108 18.9739 7.88516 18.7889C7.83924 18.6039 7.7217 18.4447 7.5584 18.3463L6.81665 19.5778ZM11.3879 20.8428C16.239 20.8428 20.1854 16.9538 20.1854 12.1382H18.7479C18.7479 16.1441 15.4608 19.4053 11.3879 19.4053V20.8428ZM20.1854 12.1382V10.5407H18.7479V12.1382H20.1854ZM18.9616 10.0299L17.3459 11.6265L18.3569 12.649L19.9726 11.0515L18.9616 10.0299ZM18.9616 11.0515L20.5783 12.649L21.5884 11.6265L19.9726 10.0299L18.9616 11.0515ZM10.9883 20.8341C11.1212 20.8399 11.2544 20.8428 11.3879 20.8428V19.4053C11.2755 19.4053 11.1637 19.4027 11.0525 19.3976L10.9883 20.8341ZM3.87265 16.6683C4.6092 17.858 5.61834 18.8553 6.81665 19.5778L7.5584 18.3463C6.55608 17.742 5.71284 16.908 5.09644 15.9131L3.87265 16.6683Z" fill="white"/>
</svg>
