<svg width="360" height="360" viewBox="0 0 360 360" fill="none" xmlns="http://www.w3.org/2000/svg">
<path d="M309.751 99.9473H295.93V157.457H309.751V99.9473Z" fill="#EBEBEB"/>
<path d="M291.602 102.374H314.078L302.839 89.1758L291.602 102.374Z" fill="#EBEBEB"/>
<path d="M64.0731 65.0977H50.252V88.4674H64.0731V65.0977Z" fill="#EBEBEB"/>
<path d="M45.9238 67.5257H68.4001L57.1623 54.3281L45.9238 67.5257Z" fill="#EBEBEB"/>
<path d="M286.731 77.8906H272.91V101.26H286.731V77.8906Z" fill="#EBEBEB"/>
<path d="M268.582 80.3187H291.058L279.82 67.1211L268.582 80.3187Z" fill="#EBEBEB"/>
<path d="M63.0664 203.406L53.6164 203.607L48.8205 203.687C47.2178 203.721 45.6072 203.714 44.0001 203.727L43.6804 203.73L43.679 203.407L43.6401 195.35L43.6387 194.988L44.0001 194.99L53.5329 195.035C56.7103 195.039 59.8884 195.116 63.0657 195.153L63.2644 195.155L63.2623 195.35C63.2486 196.717 63.2004 198.076 63.168 199.421L63.0664 203.406ZM63.0664 203.406L62.9642 199.335C62.9318 197.994 62.8836 196.667 62.8699 195.349L63.0664 195.546C59.8891 195.582 56.711 195.66 53.5336 195.664L44.0008 195.709L44.3601 195.35L44.3212 203.407L44.0001 203.085C45.5712 203.098 47.1379 203.091 48.7132 203.125L53.4501 203.206L63.0664 203.406Z" fill="#EBEBEB"/>
<path d="M52.4317 213.564L42.9817 213.765L38.1857 213.846C36.583 213.879 34.9724 213.872 33.3653 213.885L33.0457 213.888L33.0442 213.565L33.0053 205.508L33.0039 205.146L33.3653 205.148L42.8981 205.193C46.0755 205.197 49.2536 205.274 52.4309 205.311L52.6297 205.314L52.6275 205.508C52.6138 206.875 52.5656 208.235 52.5332 209.579L52.4317 213.564ZM52.4317 213.564L52.3294 209.493C52.297 208.152 52.2488 206.826 52.2351 205.507L52.4317 205.704C49.2543 205.74 46.0762 205.818 42.8989 205.822L33.3661 205.867L33.7253 205.508L33.6865 213.565L33.3653 213.244C34.9364 213.257 36.5031 213.249 38.0785 213.283L42.8153 213.364L52.4317 213.564Z" fill="#EBEBEB"/>
<path d="M326.635 213.564L317.185 213.765L312.389 213.846C310.786 213.879 309.176 213.872 307.568 213.885L307.249 213.888L307.247 213.565L307.208 205.508L307.207 205.146L307.568 205.148L317.101 205.193C320.279 205.197 323.457 205.274 326.634 205.311L326.833 205.314L326.831 205.508C326.817 206.875 326.769 208.235 326.736 209.579L326.635 213.564ZM326.635 213.564L326.533 209.493C326.5 208.152 326.452 206.826 326.438 205.507L326.635 205.704C323.457 205.74 320.279 205.818 317.102 205.822L307.569 205.867L307.928 205.508L307.89 213.565L307.568 213.244C309.14 213.257 310.706 213.249 312.282 213.283L317.018 213.364L326.635 213.564Z" fill="#EBEBEB"/>
<path d="M315.999 40.1663L306.549 40.3672L301.753 40.4478C300.15 40.4816 298.54 40.4744 296.933 40.4874L296.613 40.4896L296.612 40.1663L296.573 32.1095L296.571 31.748L296.933 31.7495L306.466 31.7948C309.643 31.7984 312.821 31.8755 315.998 31.9129L316.197 31.9151L316.195 32.1095C316.181 33.4768 316.133 34.8361 316.101 36.1804L315.999 40.1663ZM315.999 40.1663L315.897 36.0954C315.864 34.754 315.816 33.4278 315.803 32.1095L315.999 32.306C312.822 32.3428 309.644 32.4205 306.466 32.4241L296.933 32.4695L297.293 32.1102L297.254 40.167L296.933 39.8459C298.504 39.8588 300.07 39.8516 301.646 39.8855L306.383 39.9661L315.999 40.1663Z" fill="#EBEBEB"/>
<path d="M326.635 50.3284L317.185 50.5293L312.389 50.6099C310.786 50.6438 309.176 50.6366 307.568 50.6495L307.249 50.6517L307.247 50.3284L307.208 42.2716L307.207 41.9102L307.568 41.9116L317.101 41.957C320.279 41.9606 323.457 42.0376 326.634 42.075L326.833 42.0772L326.831 42.2716C326.817 43.6389 326.769 44.9982 326.736 46.3425L326.635 50.3284ZM326.635 50.3284L326.533 46.2575C326.5 44.9162 326.452 43.5899 326.438 42.2716L326.635 42.4682C323.457 42.5049 320.279 42.5826 317.102 42.5862L307.569 42.6316L307.928 42.2723L307.89 50.3291L307.568 50.008C309.14 50.021 310.706 50.0138 312.282 50.0476L317.018 50.1282L326.635 50.3284Z" fill="#EBEBEB"/>
<path d="M201.395 244.943L191.945 245.144L187.149 245.224C185.546 245.258 183.935 245.251 182.328 245.264L182.009 245.267L182.007 244.944L181.968 236.887L181.967 236.525L182.328 236.527L191.861 236.572C195.038 236.576 198.216 236.654 201.394 236.69L201.593 236.692L201.59 236.887C201.577 238.254 201.528 239.613 201.496 240.958L201.395 244.943ZM201.395 244.943L201.292 240.872C201.26 239.531 201.212 238.204 201.198 236.886L201.395 237.083C198.217 237.119 195.039 237.197 191.862 237.201L182.329 237.246L182.688 236.887L182.649 244.944L182.328 244.623C183.899 244.635 185.466 244.628 187.041 244.662L191.778 244.743L201.395 244.943Z" fill="#EBEBEB"/>
<path d="M212.293 255.104L202.843 255.305L198.047 255.385C196.444 255.419 194.834 255.412 193.227 255.425L192.907 255.427L192.906 255.104L192.867 247.047L192.865 246.686L193.227 246.687L202.759 246.732C205.938 246.736 209.115 246.814 212.292 246.85L212.491 246.853L212.489 247.047C212.475 248.414 212.427 249.774 212.395 251.118L212.293 255.104ZM212.293 255.104L212.191 251.033C212.158 249.692 212.11 248.365 212.096 247.047L212.293 247.244C209.116 247.28 205.938 247.358 202.76 247.362L193.227 247.407L193.587 247.048L193.548 255.105L193.227 254.783C194.798 254.796 196.364 254.789 197.94 254.823L202.677 254.904L212.293 255.104Z" fill="#EBEBEB"/>
<path d="M190.659 255.104L181.209 255.305L176.413 255.385C174.811 255.419 173.2 255.412 171.593 255.425L171.273 255.427L171.272 255.104L171.233 247.047L171.231 246.686L171.593 246.687L181.126 246.732C184.303 246.736 187.481 246.814 190.658 246.85L190.857 246.853L190.855 247.047C190.841 248.414 190.793 249.774 190.761 251.118L190.659 255.104ZM190.659 255.104L190.557 251.033C190.525 249.692 190.476 248.365 190.463 247.047L190.659 247.244C187.482 247.28 184.304 247.358 181.126 247.362L171.594 247.407L171.953 247.048L171.914 255.105L171.593 254.783C173.164 254.796 174.731 254.789 176.306 254.823L181.043 254.904L190.659 255.104Z" fill="#EBEBEB"/>
<path d="M63.0667 40.1663L53.6167 40.3672L48.8208 40.4478C47.218 40.4816 45.6074 40.4744 44.0004 40.4874L43.6807 40.4896L43.6792 40.1663L43.6404 32.1095L43.6396 31.748L44.0011 31.7495L53.5339 31.7948C56.7112 31.7984 59.8893 31.8755 63.0667 31.9129L63.2654 31.9151L63.2632 32.1095C63.2496 33.4768 63.2013 34.8361 63.1689 36.1804L63.0667 40.1663ZM63.0667 40.1663L62.9644 36.0954C62.932 34.754 62.8838 33.4278 62.8701 32.1095L63.0667 32.306C59.8893 32.3428 56.7112 32.4205 53.5339 32.4241L44.0011 32.4695L44.3604 32.1102L44.3215 40.167L44.0004 39.8459C45.5714 39.8588 47.1381 39.8516 48.7135 39.8855L53.4504 39.9661L63.0667 40.1663Z" fill="#EBEBEB"/>
<path d="M293.115 224.707H218.212V328.363H293.115V224.707Z" fill="#EBEBEB"/>
<path d="M296.744 220.861H214.583V224.708H296.744V220.861Z" fill="#DBDBDB"/>
<path d="M322.584 220.861H296.745V224.708H322.584V220.861Z" fill="#EBEBEB"/>
<path d="M318.493 224.707H293.116V328.363H318.493V224.707Z" fill="#DBDBDB"/>
<path d="M284.958 239.553H226.37V272.584H284.958V239.553Z" stroke="#C7C7C7" stroke-width="0.18" stroke-miterlimit="10"/>
<path d="M258.903 249.166H247.461V255.742H258.903V249.166Z" fill="#C7C7C7"/>
<path d="M262.285 249.664H250.843V255.248H262.285V249.664Z" stroke="#C7C7C7" stroke-width="0.18" stroke-miterlimit="10"/>
<path d="M284.957 281.291H226.369V314.322H284.957V281.291Z" stroke="#C7C7C7" stroke-width="0.18" stroke-miterlimit="10"/>
<path d="M258.903 290.912H247.461V297.489H258.903V290.912Z" fill="#C7C7C7"/>
<path d="M262.285 291.408H250.843V296.993H262.285V291.408Z" stroke="#C7C7C7" stroke-width="0.18" stroke-miterlimit="10"/>
<path d="M26.001 328.361L64.5008 328.186L103 328.122L180 328.002L256.999 328.121L295.498 328.185L333.998 328.361L295.498 328.538L256.999 328.6L180 328.721L103 328.6L64.5008 328.536L26.001 328.361Z" fill="#263238"/>
<path d="M277.98 39.4434H82.0205V180.602H277.98V39.4434Z" fill="white" stroke="#C7C7C7" stroke-width="0.36" stroke-miterlimit="10"/>
<path d="M277.98 39.4434H82.0205V45.891H277.98V39.4434Z" fill="#37474F"/>
<path d="M87.1445 42.6655C87.1445 43.549 86.4288 44.2646 85.5454 44.2646C84.662 44.2646 83.9463 43.549 83.9463 42.6655C83.9463 41.7821 84.662 41.0664 85.5454 41.0664C86.4288 41.0664 87.1445 41.7821 87.1445 42.6655Z" fill="#C7C7C7"/>
<path d="M93.6748 42.6655C93.6748 43.549 92.9591 44.2646 92.0757 44.2646C91.1922 44.2646 90.4766 43.549 90.4766 42.6655C90.4766 41.7821 91.1922 41.0664 92.0757 41.0664C92.9591 41.0664 93.6748 41.7821 93.6748 42.6655Z" fill="white"/>
<path d="M100.205 42.6655C100.205 43.549 99.4894 44.2646 98.606 44.2646C97.7232 44.2646 97.0068 43.549 97.0068 42.6655C97.0068 41.7821 97.7225 41.0664 98.606 41.0664C99.4894 41.0664 100.205 41.7821 100.205 42.6655Z" fill="#0101C8"/>
<path d="M308.967 156.016L298.328 125.463L262.312 138.004L272.951 168.557L308.967 156.016Z" fill="#0101C8"/>
<path d="M285.502 154.566L305.976 147.436L291.345 138.385L285.502 154.566Z" fill="#0101C8"/>
<g opacity="0.3">
<path d="M285.502 154.566L305.976 147.436L291.345 138.385L285.502 154.566Z" fill="white"/>
</g>
<path d="M275.427 158.083L293.584 151.761L281.645 146.706L275.427 158.083Z" fill="#0101C8"/>
<g opacity="0.5">
<path d="M275.427 158.083L293.584 151.761L281.645 146.706L275.427 158.083Z" fill="white"/>
</g>
<path d="M305.98 147.439L269.964 159.98L272.954 168.567L308.97 156.026L305.98 147.439Z" fill="#0101C8"/>
<g opacity="0.5">
<path d="M305.98 147.439L269.964 159.98L272.954 168.567L308.97 156.026L305.98 147.439Z" fill="white"/>
</g>
<path opacity="0.9" d="M273.069 148.391C275.152 148.081 276.248 145.815 275.197 143.989C274.61 142.97 273.423 142.396 272.259 142.569C270.177 142.88 269.081 145.146 270.131 146.97C270.719 147.99 271.906 148.564 273.069 148.391Z" fill="white"/>
<path d="M310.096 154.773H243.818V202.817H310.096V154.773Z" fill="#0101C8"/>
<path d="M267.236 149.799H243.818V154.775H268.581L267.236 149.799Z" fill="#0101C8"/>
<g opacity="0.2">
<path d="M310.096 154.773H243.818V202.817H310.096V154.773Z" fill="white"/>
<path d="M267.236 149.799H243.818V154.775H268.581L267.236 149.799Z" fill="white"/>
</g>
<path d="M265.277 151.299H246.125V154.194H265.277V151.299Z" fill="white"/>
<path d="M309.925 202.815H243.647L238.535 158.758H304.812L309.925 202.815Z" fill="#0101C8"/>
<path d="M261.422 154.195H238.005L238.534 158.758H263.297L261.422 154.195Z" fill="#0101C8"/>
<path d="M249.48 104.599L213.381 115.776L199.033 69.4354L225.837 61.1367L237.866 67.0882L249.48 104.599Z" fill="#EBEBEB"/>
<path d="M225.836 61.1367L237.866 67.0882L228.57 69.9668L225.836 61.1367Z" fill="#DBDBDB"/>
<path d="M205.321 77.3147L225.393 71.0996L225.024 69.9097L204.952 76.1247L205.321 77.3147Z" fill="#DBDBDB"/>
<path d="M206.247 80.3147L226.319 74.0996L225.951 72.9097L205.879 79.1248L206.247 80.3147Z" fill="#DBDBDB"/>
<path d="M207.179 83.3244L227.251 77.1094L226.883 75.9195L206.811 82.1345L207.179 83.3244Z" fill="#DBDBDB"/>
<path d="M208.107 86.3228L237.516 77.2168L237.147 76.0269L207.739 85.1329L208.107 86.3228Z" fill="#DBDBDB"/>
<path d="M209.038 89.3267L238.446 80.2207L238.078 79.0308L208.67 88.1368L209.038 89.3267Z" fill="#DBDBDB"/>
<path d="M209.97 92.3289L239.379 83.2227L239.01 82.0327L209.602 91.1389L209.97 92.3289Z" fill="#DBDBDB"/>
<path d="M210.899 95.3347L240.308 86.2285L239.939 85.0386L210.53 94.1448L210.899 95.3347Z" fill="#DBDBDB"/>
<path d="M211.827 98.3384L241.235 89.2324L240.867 88.0425L211.459 97.1485L211.827 98.3384Z" fill="#DBDBDB"/>
<path d="M212.754 101.338L242.162 92.2324L241.794 91.0425L212.385 100.149L212.754 101.338Z" fill="#DBDBDB"/>
<path d="M213.685 104.34L243.093 95.2344L242.724 94.0445L213.316 103.15L213.685 104.34Z" fill="#DBDBDB"/>
<path d="M214.616 107.346L244.024 98.2402L243.656 97.0503L214.248 106.156L214.616 107.346Z" fill="#DBDBDB"/>
<path d="M215.545 110.352L244.953 101.246L244.585 100.056L215.176 109.162L215.545 110.352Z" fill="#DBDBDB"/>
<path d="M293.45 122.656L281.881 90.2734L243.708 103.911L255.277 136.294L293.45 122.656Z" fill="#0101C8"/>
<path d="M268.505 121.314L290.204 113.561L274.576 104.066L268.505 121.314Z" fill="#0101C8"/>
<g opacity="0.3">
<path d="M268.505 121.314L290.204 113.561L274.576 104.066L268.505 121.314Z" fill="white"/>
</g>
<path d="M257.827 125.147L277.071 118.272L264.338 113.002L257.827 125.147Z" fill="#0101C8"/>
<g opacity="0.5">
<path d="M257.827 125.147L277.071 118.272L264.338 113.002L257.827 125.147Z" fill="white"/>
</g>
<path d="M290.199 113.563L252.026 127.201L255.278 136.302L293.451 122.664L290.199 113.563Z" fill="#0101C8"/>
<g opacity="0.5">
<path d="M290.199 113.563L252.026 127.201L255.278 136.302L293.451 122.664L290.199 113.563Z" fill="white"/>
</g>
<path opacity="0.9" d="M255.232 114.861C257.444 114.514 258.588 112.096 257.456 110.165C256.823 109.086 255.556 108.486 254.321 108.681C252.111 109.029 250.965 111.446 252.097 113.377C252.731 114.455 253.998 115.055 255.232 114.861Z" fill="white"/>
<path d="M135.858 110.194C135.858 116.188 140.496 121.097 146.383 121.533V121.565H210.783C218.166 121.565 224.148 115.583 224.148 108.2C224.148 101.24 218.828 95.5164 212.032 94.8921C211.648 82.7962 201.722 73.1035 189.531 73.1035C179.826 73.1035 171.554 79.243 168.392 87.8498C166.594 86.9412 164.568 86.4365 162.417 86.4365C155.312 86.4365 149.5 91.9769 149.078 98.9745C148.478 98.8737 147.86 98.8234 147.229 98.8234C140.95 98.8226 135.858 103.914 135.858 110.194Z" fill="#0101C8"/>
<path d="M186.914 105.018H173.093V121.567H186.914V105.018Z" fill="white"/>
<path d="M168.765 107.446H191.241L180.003 94.248L168.765 107.446Z" fill="white"/>
<path d="M219.486 129.941H141.537V136.095H219.486V129.941Z" fill="#EBEBEB"/>
<path d="M145.656 130.967H143.588V135.085H145.656V130.967Z" fill="#0101C8"/>
<path d="M191.874 130.967H189.806V135.085H191.874V130.967Z" fill="#0101C8"/>
<path d="M148.546 130.967H146.479V135.085H148.546V130.967Z" fill="#0101C8"/>
<path d="M194.763 130.967H192.695V135.085H194.763V130.967Z" fill="#0101C8"/>
<path d="M151.433 130.967H149.365V135.085H151.433V130.967Z" fill="#0101C8"/>
<path d="M197.652 130.967H195.584V135.085H197.652V130.967Z" fill="#0101C8"/>
<path d="M154.322 130.967H152.254V135.085H154.322V130.967Z" fill="#0101C8"/>
<path d="M200.539 130.967H198.471V135.085H200.539V130.967Z" fill="#0101C8"/>
<path d="M157.211 130.967H155.144V135.085H157.211V130.967Z" fill="#0101C8"/>
<path d="M203.429 130.967H201.361V135.085H203.429V130.967Z" fill="#0101C8"/>
<path d="M160.098 130.967H158.03V135.085H160.098V130.967Z" fill="#0101C8"/>
<path d="M206.318 130.967H204.25V135.085H206.318V130.967Z" fill="#0101C8"/>
<path d="M162.988 130.967H160.92V135.085H162.988V130.967Z" fill="#0101C8"/>
<path d="M209.207 130.967H207.139V135.085H209.207V130.967Z" fill="#0101C8"/>
<path d="M165.877 130.967H163.81V135.085H165.877V130.967Z" fill="#0101C8"/>
<path d="M212.094 130.967H210.026V135.085H212.094V130.967Z" fill="#0101C8"/>
<path d="M168.766 130.967H166.698V135.085H168.766V130.967Z" fill="#0101C8"/>
<path d="M214.983 130.967H212.915V135.085H214.983V130.967Z" fill="#0101C8"/>
<path d="M171.654 130.967H169.586V135.085H171.654V130.967Z" fill="#0101C8"/>
<path d="M217.872 130.967H215.804V135.085H217.872V130.967Z" fill="#0101C8"/>
<path d="M174.542 130.967H172.475V135.085H174.542V130.967Z" fill="#0101C8"/>
<path d="M177.431 130.967H175.363V135.085H177.431V130.967Z" fill="#0101C8"/>
<path d="M180.319 130.967H178.251V135.085H180.319V130.967Z" fill="#0101C8"/>
<path d="M183.207 130.967H181.14V135.085H183.207V130.967Z" fill="#0101C8"/>
<path d="M186.097 130.967H184.029V135.085H186.097V130.967Z" fill="#0101C8"/>
<path d="M188.987 130.967H186.919V135.085H188.987V130.967Z" fill="#0101C8"/>
<path d="M112.816 234.244L114.828 246.305L128.452 328.355H130.648L120.741 246.305L119.277 234.244H112.816Z" fill="#DBDBDB"/>
<path d="M119.275 234.246H112.814L114.826 246.307H120.739L119.275 234.246Z" fill="#A6A6A6"/>
<path d="M70.0361 328.355H72.2321L85.8567 246.305L87.8677 234.244H81.4071L79.9433 246.305L70.0361 328.355Z" fill="#DBDBDB"/>
<path d="M81.4042 234.246L79.9404 246.307H85.8538L87.8647 234.246H81.4042Z" fill="#A6A6A6"/>
<path d="M29.166 328.355H31.362L44.9859 246.305L46.9975 234.244H40.5377L39.0732 246.305L29.166 328.355Z" fill="#DBDBDB"/>
<path d="M39.0742 246.307H44.9869L46.9985 234.246H40.5387L39.0742 246.307Z" fill="#A6A6A6"/>
<path d="M32.6494 239.915H132.482V229.395H95.1094L82.549 156.318H36.4553L32.6494 239.915Z" fill="#DBDBDB"/>
<path d="M32.6494 239.915H38.0912L41.6379 156.318H36.4553L32.6494 239.915Z" fill="#A6A6A6"/>
<path d="M132.256 329.553C130.449 329.723 81.2828 317.959 79.7355 316.362C79.5461 316.185 80.5167 311.716 81.9437 305.623L81.9711 305.503C82.8617 301.64 97.22 270.4 97.22 270.4L129.086 279.32L114.575 308.304C114.575 308.304 120.57 312.641 125.709 316.758C125.715 316.767 125.721 316.768 125.72 316.776C128.894 319.304 131.629 321.576 132.211 322.311C133.712 324.23 134.059 329.396 132.256 329.553Z" fill="#DEDEFF"/>
<path d="M132.253 329.548C130.452 329.72 81.2859 317.954 79.7322 316.361C79.5442 316.18 80.5184 311.717 81.9433 305.619L81.9721 305.503C82.299 304.064 84.5115 298.813 87.1438 292.797C92.3876 294.213 111.187 299.312 118.015 301.432L114.578 308.301C114.578 308.301 120.571 312.642 125.711 316.756C125.711 316.764 125.719 316.764 125.719 316.771C128.892 319.299 131.632 321.574 132.21 322.305C133.713 324.231 134.063 329.398 132.253 329.548Z" fill="white"/>
<path d="M132.416 329.786C130.558 329.945 81.3577 318.045 79.7679 316.406C79.1617 315.787 80.2582 308.023 82.9611 299.797L114.671 307.507C114.671 307.507 130.858 320.346 132.408 322.332C133.948 324.315 134.273 329.626 132.416 329.786Z" fill="#0101C8"/>
<path d="M132.185 327.644C123.987 325.446 90.7119 317.358 82.4412 315.809C82.3743 315.796 82.3628 315.841 82.429 315.861C90.5074 318.216 123.847 326.034 132.154 327.778C132.328 327.816 132.359 327.69 132.185 327.644Z" fill="#263238"/>
<path d="M129.671 319.797C127.734 319.244 125.598 319.71 124.25 320.617C122.954 321.489 121.697 322.851 121.342 324.575C121.332 324.625 121.422 324.648 121.442 324.599C122.693 321.486 126.315 319.36 129.647 319.9C129.712 319.91 129.737 319.815 129.671 319.797Z" fill="#263238"/>
<path d="M117.058 308.958C113.768 308.114 109.659 308.354 106.955 310.557C106.85 310.643 106.973 310.791 107.083 310.763C110.44 309.947 113.553 309.487 117.016 309.378C117.261 309.371 117.293 309.019 117.058 308.958Z" fill="#263238"/>
<path d="M119.367 310.568C116.077 309.723 111.968 309.963 109.263 312.167C109.159 312.253 109.281 312.4 109.391 312.373C112.747 311.557 115.861 311.096 119.325 310.988C119.569 310.981 119.602 310.629 119.367 310.568Z" fill="#263238"/>
<path d="M121.673 312.175C118.383 311.331 114.274 311.571 111.569 313.775C111.464 313.86 111.587 314.008 111.697 313.98C115.053 313.164 118.167 312.704 121.631 312.595C121.876 312.588 121.909 312.236 121.673 312.175Z" fill="#263238"/>
<path d="M123.982 313.785C120.691 312.94 116.583 313.18 113.879 315.384C113.774 315.469 113.897 315.617 114.007 315.59C117.363 314.773 120.478 314.313 123.941 314.205C124.184 314.197 124.217 313.845 123.982 313.785Z" fill="#263238"/>
<path d="M86.4369 308.485C82.7304 307.6 81.3487 313.358 85.0617 314.245C88.7676 315.13 90.1492 309.371 86.4369 308.485Z" fill="#263238"/>
<path d="M122.756 301.013C121.42 299.223 118.987 300.068 117.609 301.258C115.377 303.185 113.44 306.173 112.568 308.973C112.547 309.043 112.593 309.084 112.648 309.093C112.661 309.346 112.893 309.613 113.177 309.503C115.921 308.445 118.985 307.655 121.322 305.787C122.687 304.697 124.019 302.706 122.756 301.013ZM117.009 307.05C115.673 307.602 114.317 308.086 113.001 308.688C113.988 307.186 114.906 305.648 116.045 304.247C116.587 303.578 117.158 302.901 117.789 302.311C118.77 301.394 122.677 299.419 122.137 303.09C121.839 305.114 118.603 306.39 117.009 307.05Z" fill="#263238"/>
<path d="M104.072 308.213C106.839 309.35 110.002 309.249 112.932 309.493C113.236 309.519 113.384 309.199 113.325 308.951C113.376 308.927 113.409 308.874 113.369 308.814C111.746 306.371 109.048 304.046 106.365 302.823C104.708 302.069 102.136 301.94 101.357 304.033C100.618 306.011 102.456 307.549 104.072 308.213ZM102.533 305.852C100.984 302.481 105.289 303.281 106.488 303.885C107.259 304.274 107.997 304.764 108.705 305.253C110.191 306.279 111.503 307.498 112.872 308.663C111.44 308.454 110.004 308.37 108.565 308.215C106.852 308.028 103.387 307.711 102.533 305.852Z" fill="#263238"/>
<path d="M118.183 305.651L84.0433 295.412C84.0433 295.412 112.183 236.768 111.296 233.785C110.703 231.792 68.5114 231.655 56.1469 220.552C43.3482 209.059 53.3137 186.486 53.3137 186.486L88.7866 186.303C88.7866 186.303 88.1775 193.706 89.5326 194.858C90.4261 195.626 138.926 199.894 148.213 217.726C156.641 233.911 118.183 305.651 118.183 305.651Z" fill="#263238"/>
<path d="M111.297 233.783C111.451 234.286 110.766 236.394 109.515 239.545L135.011 270.87C144.103 250.143 152.651 226.241 148.213 217.727C138.922 199.896 90.4289 195.625 89.5275 194.859C88.1796 193.708 88.7873 186.301 88.7873 186.301L66.2715 186.417L103.692 232.38C108.198 232.877 111.143 233.264 111.297 233.783Z" fill="#263238"/>
<path d="M119.03 298.429C118.147 297.983 117.176 297.71 116.247 297.394C115.262 297.059 114.277 296.722 113.287 296.403C111.339 295.776 109.384 295.176 107.414 294.62C103.449 293.499 99.4778 292.4 95.4847 291.385C93.4032 290.856 88.9428 289.701 88.6663 289.743C88.5331 289.764 88.5036 289.986 88.6224 290.028C92.4809 291.409 96.3998 292.592 100.318 293.788C104.229 294.98 108.149 296.159 112.114 297.16C113.212 297.437 114.318 297.683 115.419 297.947C116.571 298.223 117.738 298.592 118.928 298.699C119.043 298.71 119.155 298.492 119.03 298.429Z" fill="#455A64"/>
<path d="M55.2184 193.247C55.3279 192.062 55.4604 190.881 55.5943 189.699C55.6101 189.562 55.824 189.564 55.8103 189.704C55.3372 194.501 54.8512 199.411 55.734 204.192C56.5598 208.663 58.7493 212.576 62.07 215.672C69.108 222.236 78.9482 224.168 88.1174 225.728C93.3691 226.622 98.6524 227.308 103.954 227.829C106.55 228.084 109.151 228.292 111.756 228.454C114.337 228.614 116.922 228.64 119.503 228.783C120.318 228.828 121.045 229.201 120.918 230.132C120.841 230.697 120.523 231.245 120.298 231.762C120.023 232.389 119.745 233.016 119.468 233.642C118.432 235.985 117.39 238.325 116.343 240.662C114.184 245.48 111.993 250.281 109.772 255.071C105.364 264.579 100.788 274.012 96.0532 283.362C95.4657 284.522 94.876 285.682 94.2849 286.842C94.246 286.917 94.1373 286.848 94.1733 286.773C98.6985 277.303 103.176 267.808 107.583 258.284C109.771 253.556 111.965 248.831 114.129 244.092C115.211 241.724 116.286 239.352 117.355 236.977C117.889 235.79 118.423 234.602 118.954 233.413C119.22 232.819 119.485 232.225 119.75 231.63C119.97 231.136 120.773 229.952 120.219 229.489C119.849 229.181 119.081 229.287 118.637 229.274C117.951 229.255 117.265 229.229 116.579 229.206C115.276 229.162 113.973 229.11 112.67 229.044C110.031 228.912 107.395 228.731 104.762 228.504C99.6057 228.057 94.4656 227.403 89.3565 226.581C80.2449 225.115 70.3363 223.461 63.0434 217.345C59.8272 214.647 57.2992 211.175 56.0486 207.145C54.6583 202.662 54.7915 197.868 55.2184 193.247Z" fill="#455A64"/>
<path d="M207.265 284.599C205.982 285.882 160.609 308.176 158.398 307.933C158.139 307.917 156.037 303.855 153.25 298.252L153.195 298.142C151.417 294.598 135.275 264.788 135.275 264.788L163.504 250.496L180.093 279.507C180.093 279.507 187.476 279.025 194.061 278.919C194.071 278.922 194.077 278.919 194.081 278.925C198.138 278.849 201.694 278.853 202.61 279.05C204.993 279.57 208.553 283.329 207.265 284.599Z" fill="#DEDEFF"/>
<path d="M207.266 284.596C205.981 285.879 160.61 308.175 158.396 307.931C158.139 307.918 156.036 303.854 153.25 298.255L153.195 298.145C153.071 297.899 152.944 297.647 152.811 297.399C152.723 297.216 152.629 297.036 152.528 296.86C152.394 296.595 152.25 296.328 152.105 296.06C150.875 293.729 148.857 289.958 146.634 285.829L175.417 271.322L180.095 279.507C180.095 279.507 187.477 279.028 194.062 278.919C194.072 278.922 194.079 278.918 194.082 278.924C198.138 278.851 201.697 278.853 202.608 279.049C204.991 279.572 208.557 283.326 207.266 284.596Z" fill="white"/>
<path d="M207.538 284.682C206.209 285.989 160.723 308.2 158.453 307.951C157.592 307.861 153.484 301.181 150.32 293.122L179.662 278.837C179.662 278.837 200.319 278.405 202.779 278.945C205.23 279.49 208.867 283.374 207.538 284.682Z" fill="#0101C8"/>
<path d="M206 283.18C198.283 286.716 167.495 301.707 160.136 305.789C160.077 305.822 160.097 305.864 160.16 305.836C167.885 302.499 198.55 287.259 206.061 283.305C206.219 283.222 206.162 283.105 206 283.18Z" fill="#263238"/>
<path d="M199.056 278.738C197.212 279.547 195.864 281.269 195.405 282.827C194.962 284.325 194.862 286.175 195.688 287.731C195.712 287.775 195.796 287.736 195.78 287.685C194.759 284.489 196.193 280.543 199.103 278.834C199.162 278.798 199.12 278.71 199.056 278.738Z" fill="#263238"/>
<path d="M182.43 278.436C179.357 279.883 176.345 282.689 175.667 286.111C175.642 286.243 175.83 286.279 175.898 286.188C177.962 283.419 180.067 281.078 182.666 278.785C182.849 278.624 182.649 278.333 182.43 278.436Z" fill="#263238"/>
<path d="M185.235 278.199C182.163 279.647 179.151 282.453 178.473 285.874C178.447 286.006 178.636 286.042 178.704 285.951C180.768 283.182 182.873 280.841 185.472 278.549C185.654 278.388 185.455 278.096 185.235 278.199Z" fill="#263238"/>
<path d="M188.038 277.971C184.965 279.419 181.954 282.224 181.276 285.646C181.249 285.779 181.439 285.814 181.506 285.723C183.571 282.954 185.676 280.613 188.274 278.322C188.457 278.16 188.259 277.867 188.038 277.971Z" fill="#263238"/>
<path d="M190.843 277.737C187.771 279.185 184.758 281.99 184.081 285.411C184.054 285.544 184.243 285.579 184.311 285.488C186.375 282.719 188.481 280.378 191.079 278.087C191.262 277.925 191.063 277.633 190.843 277.737Z" fill="#263238"/>
<path d="M158.542 297.597C155.122 299.279 157.731 304.596 161.155 302.911C164.574 301.229 161.967 295.912 158.542 297.597Z" fill="#263238"/>
<path d="M181.75 268.679C179.58 268.153 178.245 270.354 177.942 272.149C177.451 275.057 177.866 278.594 178.98 281.308C179.008 281.375 179.069 281.376 179.118 281.349C179.29 281.535 179.638 281.593 179.787 281.327C181.226 278.763 183.082 276.201 183.691 273.271C184.047 271.561 183.803 269.177 181.75 268.679ZM181.174 276.993C180.497 278.271 179.761 279.509 179.132 280.812C178.934 279.025 178.661 277.255 178.643 275.45C178.635 274.588 178.643 273.703 178.752 272.847C178.923 271.515 180.673 267.502 182.598 270.674C183.66 272.423 181.981 275.47 181.174 276.993Z" fill="#263238"/>
<path d="M171.952 286.141C174.808 285.251 177.18 283.156 179.592 281.476C179.843 281.302 179.752 280.962 179.549 280.808C179.572 280.758 179.565 280.696 179.495 280.675C176.686 279.828 173.126 279.758 170.28 280.527C168.522 281.002 166.46 282.543 167.193 284.652C167.888 286.647 170.284 286.66 171.952 286.141ZM169.261 285.303C165.918 283.693 169.744 281.564 171.052 281.265C171.894 281.073 172.774 280.98 173.632 280.905C175.432 280.748 177.219 280.849 179.016 280.873C177.78 281.625 176.62 282.477 175.413 283.275C173.975 284.225 171.104 286.191 169.261 285.303Z" fill="#263238"/>
<path d="M179.953 274.808L145.914 291.816C145.914 291.816 119.346 237.799 116.431 234.319C112.545 229.679 61.9341 236.232 49.9965 221.247C37.6513 205.75 48.2288 186.504 48.2288 186.504L86.7539 186.48C86.7539 186.48 86.8676 190.754 84.6472 197C84.6472 197 128.7 194.379 141.166 206.496C150.736 215.797 179.953 274.808 179.953 274.808Z" fill="#263238"/>
<path d="M77.6276 200.884C79.6148 199.539 81.6322 198.266 83.7562 197.14C84.829 196.572 87.0293 195.597 88.3988 195.265C89.522 194.992 90.0145 194.91 88.9604 195.408C88.357 195.693 87.2007 196.243 86.1265 196.754C86.3288 196.748 86.5297 196.741 86.7241 196.731C87.4808 196.692 88.2389 196.666 88.9957 196.646C90.476 196.608 91.9599 196.617 93.4409 196.609C96.4477 196.592 99.4241 196.876 102.423 197.026C102.502 197.029 102.5 197.152 102.42 197.15C99.4277 197.052 96.421 197.211 93.4265 197.199C91.9433 197.193 90.463 197.235 88.9805 197.263C88.2562 197.276 87.5326 197.29 86.8083 197.301C86.2107 197.31 85.5742 197.358 84.9687 197.304C84.6476 197.456 84.3553 197.595 84.1429 197.695C81.9649 198.722 79.7912 199.794 77.6931 200.976C77.6305 201.012 77.5657 200.926 77.6276 200.884Z" fill="#455A64"/>
<path d="M87.6634 185.035C87.2725 186.853 86.9362 188.682 86.4812 190.486C86.2724 191.313 86.0672 192.155 85.7835 192.961C85.5445 193.64 85.1744 194.42 84.4033 194.596C83.5141 194.799 83.2325 194.041 83.2808 193.299C83.3341 192.471 83.5177 191.637 83.653 190.82C83.8093 189.878 83.9677 188.937 84.1066 187.991C84.1757 187.519 84.2485 187.047 84.3125 186.573C84.3284 186.454 84.386 185.551 84.4421 185.291C84.4501 185.313 84.4645 185.333 84.4933 185.328C84.5033 185.326 84.5142 185.324 84.5242 185.322C84.5487 185.318 84.5746 185.301 84.5775 185.274C84.5847 185.203 84.5833 185.188 84.5278 185.141C84.5041 185.12 84.4709 185.122 84.4457 185.137C84.278 185.236 84.2729 185.472 84.224 185.646C84.0937 186.108 83.9605 186.568 83.8431 187.032C83.6228 187.901 83.4089 188.772 83.2189 189.648C83.0295 190.523 82.8459 191.4 82.6609 192.276C82.5226 192.931 82.3556 193.622 82.5543 194.285C82.7703 195.008 83.3657 195.356 84.0087 195.39C83.9792 195.45 83.9446 195.507 83.9194 195.569C83.8467 195.749 83.7956 195.941 83.7344 196.125C83.6725 196.314 83.6163 196.502 83.5688 196.695C83.5465 196.787 83.5335 196.882 83.5263 196.975C83.5184 197.08 83.5429 197.181 83.5335 197.286C83.5184 197.448 83.7401 197.54 83.8165 197.378C83.8604 197.283 83.9266 197.211 83.9763 197.12C84.0281 197.025 84.0641 196.916 84.0951 196.814C84.1505 196.632 84.1959 196.45 84.2362 196.264C84.2751 196.08 84.3255 195.895 84.3529 195.71C84.3694 195.599 84.3694 195.488 84.3752 195.376C84.7402 195.327 85.1017 195.189 85.4012 194.946C85.9253 194.521 86.2184 193.89 86.4229 193.263C86.6698 192.503 86.8541 191.719 87.0392 190.943C87.4971 189.021 87.8765 187.072 87.9925 185.096C88.004 184.886 87.7102 184.82 87.6634 185.035Z" fill="#455A64"/>
<path d="M69.0905 190.212C68.9573 191.112 68.8839 192.02 68.7075 192.913C68.5347 193.788 68.3288 194.664 68.071 195.517C67.8248 196.333 67.5159 197.158 67.05 197.877C66.5979 198.574 65.9909 199.182 65.3602 199.718C64.124 200.768 62.7142 201.619 61.2058 202.217C60.4462 202.519 59.6679 202.779 58.8766 202.985C58.464 203.093 58.0472 203.179 57.6267 203.247C57.2768 203.304 56.9297 203.329 56.6223 203.516C56.4905 203.596 56.52 203.806 56.6532 203.866C57.2012 204.113 57.9543 203.941 58.5274 203.862C59.1992 203.77 59.8644 203.634 60.516 203.444C61.8279 203.06 63.0929 202.46 64.2428 201.723C65.3717 201 66.5014 200.105 67.3164 199.032C68.161 197.919 68.6117 196.629 68.8817 195.27C69.2057 193.643 69.408 191.879 69.2633 190.22C69.2554 190.123 69.1056 190.113 69.0905 190.212Z" fill="#455A64"/>
<path d="M173.048 268.61C172.1 268.891 171.206 269.36 170.313 269.768C169.368 270.201 168.42 270.632 167.482 271.08C165.635 271.962 163.801 272.868 161.987 273.816C158.336 275.723 154.693 277.65 151.092 279.654C149.216 280.699 145.18 282.921 145.008 283.142C144.926 283.248 145.057 283.43 145.173 283.38C148.927 281.735 152.588 279.905 156.256 278.083C159.919 276.264 163.578 274.431 167.148 272.436C168.137 271.883 169.11 271.303 170.092 270.739C171.12 270.148 172.221 269.616 173.16 268.876C173.25 268.806 173.182 268.57 173.048 268.61Z" fill="#455A64"/>
<path d="M48.2565 195.457C48.2601 195.293 48.5136 195.297 48.5121 195.462C48.4387 203.828 49.7311 213.181 56.17 219.182C63.2304 225.761 73.4148 226.546 82.5811 226.469C87.8428 226.425 93.0938 226.291 98.3556 226.458C103.64 226.626 108.978 226.886 114.227 227.556C116.345 227.827 118.12 228.589 119.616 230.133C121.07 231.635 122.114 233.49 123.188 235.268C125.834 239.652 128.398 244.086 130.878 248.565C135.808 257.471 140.366 266.576 144.563 275.849C145.084 277.001 145.6 278.155 146.111 279.312C146.145 279.388 146.032 279.453 145.997 279.376C141.736 270.065 137.128 260.915 132.238 251.919C129.792 247.42 127.262 242.967 124.65 238.563C123.422 236.493 122.233 234.374 120.864 232.391C119.655 230.64 118.14 228.994 116.044 228.359C114.78 227.976 113.432 227.91 112.124 227.79C110.781 227.667 109.436 227.556 108.09 227.457C105.468 227.266 102.841 227.122 100.214 227.027C94.9096 226.834 89.614 226.899 84.3091 226.994C75.0996 227.161 65.039 226.844 57.4034 220.982C54.1008 218.446 51.7197 214.97 50.3064 211.07C48.8649 207.093 48.3501 202.825 48.2536 198.615C48.2277 197.563 48.2328 196.509 48.2565 195.457Z" fill="#455A64"/>
<path d="M103.392 232.096C105.271 232.129 107.149 232.207 109.027 232.271C110.59 232.323 112.161 232.307 113.689 232.687C115.111 233.04 116.241 233.212 117.404 234.803C118.857 236.789 126.766 252.067 130.087 258.831C131.007 260.707 131.917 262.587 132.809 264.477C133.73 266.429 134.547 268.428 135.464 270.381C135.498 270.452 135.392 270.513 135.356 270.441C134.543 268.808 133.637 267.219 132.797 265.6C131.956 263.979 131.139 262.345 130.323 260.711C128.676 257.413 127.029 254.114 125.371 250.821C123.727 247.557 121.732 244.375 120.064 241.124C118.662 238.391 116.751 234.661 115.415 234.107C113.843 233.457 111.284 232.812 109.6 232.695C107.529 232.55 105.456 232.423 103.387 232.245C103.294 232.236 103.295 232.094 103.392 232.096Z" fill="#455A64"/>
<path d="M71.9628 112.496C65.0148 118.453 66.9487 127.14 64.0471 131.852C62.2723 134.733 56.4928 137.777 55.3437 141.098C53.4559 146.553 58.0812 148.512 57.0465 151.477C55.5813 155.678 49.956 155.351 48.9429 162.224C47.9299 169.096 55.4913 176.407 73.438 178.387C91.384 180.367 101.244 173.796 101.887 167.966C102.531 162.135 96.5608 160.194 96.154 155.84C95.8941 153.057 99.5812 151.12 99.767 145.999C99.9535 140.877 94.9631 139.213 94.2489 134.864C93.5303 130.495 95.8358 119.946 89.4451 114.55C83.0551 109.156 75.3914 109.557 71.9628 112.496Z" fill="#263238"/>
<path d="M72.7682 112.653C70.7896 114.045 69.2798 115.837 68.1551 117.975C66.9866 120.197 66.2126 122.605 65.5898 125.029C65.2218 126.461 64.8834 127.933 64.1958 129.253C63.6004 130.397 62.7378 131.366 61.7867 132.227C59.8456 133.983 57.5279 135.317 55.7848 137.29C54.1338 139.158 52.8486 141.658 53.5082 144.205C53.8667 145.591 54.7804 146.72 55.347 148.013C55.8842 149.238 56.1016 150.76 55.0504 151.778C54.1526 152.647 52.8522 153.046 51.8327 153.758C50.8326 154.457 49.9384 155.316 49.2141 156.297C47.7352 158.299 47.0966 160.739 47.5617 163.199C48.6172 168.782 53.8559 171.957 58.6914 173.956C59.3661 174.235 60.0436 174.507 60.7211 174.777C60.8255 174.818 60.9148 174.668 60.8075 174.62C55.9547 172.447 50.3222 169.899 48.4581 164.473C47.6186 162.029 47.8929 159.447 49.2947 157.269C49.9679 156.223 50.8593 155.308 51.8586 154.57C52.835 153.85 53.9618 153.408 54.9546 152.723C55.9598 152.03 56.5386 151.012 56.4803 149.774C56.4191 148.463 55.7783 147.319 55.1447 146.206C54.4737 145.028 53.9049 143.838 53.9992 142.447C54.0878 141.143 54.6926 139.913 55.4349 138.861C56.9447 136.721 59.1818 135.318 61.187 133.698C63.2044 132.068 64.8186 130.189 65.5545 127.658C65.9267 126.377 66.1578 125.061 66.479 123.767C66.777 122.569 67.1234 121.381 67.5496 120.221C68.3927 117.925 69.5937 115.701 71.3433 113.967C71.8012 113.512 72.2879 113.106 72.8258 112.749C72.887 112.708 72.8265 112.611 72.7682 112.653Z" fill="#263238"/>
<path d="M102.684 163.691C102.461 162.747 102.044 161.841 101.442 161.078C100.817 160.288 100.063 159.619 99.3709 158.89C98.7157 158.201 98.0951 157.423 97.9036 156.467C97.6739 155.319 98.1556 154.219 98.6941 153.233C99.2593 152.198 99.8872 151.217 100.3 150.106C100.699 149.034 100.921 147.901 100.984 146.761C101.115 144.374 100.413 142.109 99.178 140.086C98.566 139.084 97.8769 138.131 97.2577 137.134C96.5759 136.036 96.0373 134.888 95.6665 133.648C94.8587 130.946 94.6837 128.095 94.0235 125.356C93.346 122.549 92.3358 119.83 91.1089 117.218C91.0787 117.153 90.9829 117.212 91.0139 117.277C92.1277 119.63 92.9615 122.097 93.5627 124.63C94.1329 127.031 94.3525 129.478 94.7766 131.905C94.9847 133.093 95.2497 134.275 95.6874 135.403C96.0964 136.457 96.6558 137.441 97.2455 138.403C98.458 140.38 99.7108 142.332 100.046 144.676C100.377 146.996 99.9829 149.324 98.8878 151.394C97.9439 153.178 96.6234 155.145 97.4478 157.234C98.1462 159.003 99.8325 160.063 100.952 161.528C102.187 163.144 102.546 165.224 102.166 167.201C101.2 172.226 96.1641 174.719 91.4488 174.968C91.3019 174.976 91.3062 175.199 91.4545 175.198C95.5535 175.149 100.013 173.347 101.935 169.51C102.827 167.728 103.143 165.638 102.684 163.691Z" fill="#263238"/>
<path d="M75.0164 148.797C76.7293 155.844 87.9483 180.483 91.9371 183.151C96.553 186.238 120.995 198.59 125.608 197.099C127.204 196.584 134.032 179.528 130.966 178.198C121.61 174.141 103.954 171.078 101.458 168.904C99.8117 167.47 89.8383 155.819 80.6986 146.025C77.2441 142.322 73.9112 144.249 75.0164 148.797Z" fill="#DEDEFF"/>
<path d="M73.7173 148.365C74.5799 152.941 78.5449 161.616 78.5449 161.616L95.7097 158.759C95.7097 158.759 85.8219 147.357 78.5953 143.361C75.6951 141.758 72.8454 143.739 73.7173 148.365Z" fill="#0101C8"/>
<path d="M73.7173 148.365C74.5799 152.941 78.5449 161.616 78.5449 161.616L95.7097 158.759C95.7097 158.759 85.8219 147.357 78.5953 143.361C75.6951 141.758 72.8454 143.739 73.7173 148.365Z" fill="#0101C8"/>
<path d="M79.0684 152.618C79.0684 153.345 78.4794 153.934 77.7529 153.934C77.0265 153.934 76.4375 153.345 76.4375 152.618C76.4375 151.892 77.0265 151.303 77.7529 151.303C78.4794 151.303 79.0684 151.892 79.0684 152.618Z" fill="white"/>
<path d="M78.2736 159.275C80.7943 158.682 83.3179 158.128 85.8696 157.684C87.1425 157.463 88.4177 157.261 89.6971 157.079C90.9744 156.897 92.2747 156.845 93.5469 156.645C93.6168 156.634 93.6305 156.747 93.5592 156.755C92.2797 156.887 91.0039 157.196 89.7331 157.399C88.4573 157.603 87.1821 157.812 85.9085 158.03C83.3654 158.464 80.8181 158.892 78.2858 159.384C78.2153 159.399 78.2059 159.291 78.2736 159.275Z" fill="#263238"/>
<path opacity="0.1" d="M91.8811 159.399L78.5381 161.613C78.5381 161.613 74.5788 152.942 73.7184 148.361C73.2756 146.001 73.7969 144.335 74.8056 143.471L91.8811 159.399Z" fill="black"/>
<path d="M88.3125 193.093L41.6406 194.624C41.6406 194.624 55.8037 153.98 66.063 144.277C70.7315 139.861 74.9723 140.838 78.4182 144.073C79.2779 144.88 89.6373 159.819 90.2853 164.845C90.8577 169.286 86.992 173.94 86.992 173.94L88.3125 193.093Z" fill="#0101C8"/>
<path d="M54.6492 165.063C54.6492 165.79 54.0588 166.381 53.3316 166.381C53.2092 166.381 53.0868 166.366 52.9716 166.323C53.3316 165.531 53.6916 164.746 54.0588 163.969C54.4188 164.199 54.6492 164.602 54.6492 165.063ZM69.6144 163.748C68.8879 163.748 68.2989 164.337 68.2989 165.063C68.2989 165.79 68.8879 166.379 69.6144 166.379C70.3409 166.379 70.9298 165.79 70.9298 165.063C70.9298 164.337 70.3409 163.748 69.6144 163.748ZM85.895 163.748C85.1685 163.748 84.5796 164.337 84.5796 165.063C84.5796 165.79 85.1685 166.379 85.895 166.379C86.6215 166.379 87.2105 165.79 87.2105 165.063C87.2112 164.337 86.6222 163.748 85.895 163.748ZM61.4733 151.297C60.7469 151.297 60.1579 151.886 60.1579 152.612C60.1579 153.339 60.7469 153.928 61.4733 153.928C62.1998 153.928 62.7895 153.339 62.7895 152.612C62.7895 151.886 62.1998 151.297 61.4733 151.297ZM77.7547 151.297C77.0282 151.297 76.4393 151.886 76.4393 152.612C76.4393 153.339 77.0282 153.928 77.7547 153.928C78.4812 153.928 79.0701 153.339 79.0701 152.612C79.0701 151.886 78.4812 151.297 77.7547 151.297ZM53.333 189.206C52.6065 189.206 52.0176 189.795 52.0176 190.522C52.0176 191.248 52.6065 191.838 53.333 191.838C54.0595 191.838 54.6485 191.249 54.6485 190.522C54.6485 189.795 54.0595 189.206 53.333 189.206ZM69.6144 189.206C68.8879 189.206 68.2989 189.795 68.2989 190.522C68.2989 191.248 68.8879 191.838 69.6144 191.838C70.3409 191.838 70.9298 191.249 70.9298 190.522C70.9298 189.795 70.3409 189.206 69.6144 189.206ZM85.895 189.206C85.1685 189.206 84.5796 189.795 84.5796 190.522C84.5796 191.248 85.1685 191.838 85.895 191.838C86.6215 191.838 87.2105 191.249 87.2105 190.522C87.2112 189.795 86.6222 189.206 85.895 189.206ZM61.4733 176.755C60.7469 176.755 60.1579 177.344 60.1579 178.071C60.1579 178.797 60.7469 179.386 61.4733 179.386C62.1998 179.386 62.7895 178.797 62.7895 178.071C62.7895 177.344 62.1998 176.755 61.4733 176.755ZM77.7547 176.755C77.0282 176.755 76.4393 177.344 76.4393 178.071C76.4393 178.797 77.0282 179.386 77.7547 179.386C78.4812 179.386 79.0701 178.797 79.0701 178.071C79.0701 177.344 78.4812 176.755 77.7547 176.755Z" fill="white"/>
<path d="M84.115 173.892C83.1826 173.76 82.2221 173.726 81.2832 173.807C80.8383 173.845 80.3883 173.884 79.9498 173.973C79.4551 174.072 78.9706 174.212 78.4774 174.315C78.3953 174.333 78.4335 174.457 78.5148 174.44C79.0008 174.338 79.5019 174.302 79.9959 174.264C80.4459 174.228 80.8937 174.166 81.3444 174.132C82.2653 174.065 83.1847 174.004 84.1071 173.956C84.1431 173.955 84.1531 173.898 84.115 173.892Z" fill="#263238"/>
<path d="M84.5086 171.893C82.3853 171.981 80.3477 172.289 78.3051 172.883C76.2128 173.492 74.1161 174.315 71.9417 174.571C71.8589 174.58 71.8611 174.711 71.9453 174.701C72.99 174.588 74.0247 174.472 75.0636 174.31C76.0997 174.148 77.1171 173.894 78.1402 173.667C80.2793 173.194 82.3479 172.393 84.5122 172.055C84.613 172.04 84.6173 171.888 84.5086 171.893Z" fill="#263238"/>
<path d="M70.4776 142.777C70.4653 143.625 72.994 149.771 76.6955 150.509C77.9015 150.748 79.497 144.224 79.497 144.224L79.7253 143.77L82.9105 137.402L76.2549 130.35L75.2778 129.393C75.2778 129.393 74.5211 131.192 73.6017 133.443C73.5585 133.547 73.5153 133.651 73.4706 133.763C73.4152 133.889 73.3612 134.007 73.3151 134.127C73.1733 134.461 73.03 134.803 72.8946 135.148C72.7902 135.409 72.688 135.662 72.5886 135.94C72.4813 136.217 72.3834 136.487 72.2769 136.764C71.2797 139.512 70.4877 142.418 70.4776 142.777Z" fill="#DEDEFF"/>
<path d="M73.6006 133.441C74.1975 139.287 77.9393 142.541 79.7249 143.768L82.9102 137.4L76.2545 130.348L75.2775 129.391C75.2775 129.391 74.52 131.191 73.6006 133.441Z" fill="#263238"/>
<path d="M95.3664 130.016C92.8413 142.253 85.2266 142.122 82.5885 141.575C80.1938 141.078 72.1025 139.081 73.3495 126.649C74.5965 114.217 81.0845 111.522 86.622 112.369C92.1602 113.216 97.8921 117.779 95.3664 130.016Z" fill="#DEDEFF"/>
<path d="M90.5547 139.512C91.0824 139.077 91.5346 138.563 91.9313 138.013C92.3446 137.474 92.6953 136.892 93.0229 136.3C93.6701 135.109 94.1698 133.841 94.5521 132.541C94.9812 131.252 95.2253 129.911 95.4752 128.574L95.7567 126.55L95.9633 124.51L95.9331 126.565L95.7495 128.614C95.5544 129.973 95.3045 131.33 94.8963 132.646C94.4801 133.957 93.9754 135.251 93.2633 136.437C92.5498 137.607 91.6959 138.741 90.5547 139.512Z" fill="#263238"/>
<path d="M94.3058 126.425C94.0279 126.327 93.7874 126.189 93.5225 126.063C93.2237 125.921 92.971 125.838 92.7938 125.541C92.6995 125.382 92.7701 125.119 92.9155 125.013C93.2561 124.764 93.665 124.848 94.0322 125.005C94.4304 125.175 94.6939 125.408 94.8948 125.79C95.0899 126.16 94.6723 126.556 94.3058 126.425Z" fill="#263238"/>
<path d="M85.7301 125.606C86.0232 125.638 86.2996 125.619 86.5927 125.621C86.9239 125.623 87.1874 125.659 87.4754 125.469C87.6302 125.367 87.6813 125.099 87.5956 124.94C87.3976 124.569 86.993 124.465 86.5941 124.446C86.1614 124.425 85.823 124.52 85.4752 124.777C85.1397 125.026 85.3428 125.564 85.7301 125.606Z" fill="#263238"/>
<path d="M86.9738 129.029C86.9738 128.996 86.9004 129.055 86.8946 129.09C86.7499 129.929 86.4439 130.865 85.6332 130.987C85.608 130.991 85.6015 131.033 85.6303 131.035C86.5771 131.094 86.9716 129.846 86.9738 129.029Z" fill="#263238"/>
<path d="M86.408 128.009C85.0883 127.632 84.4323 130.299 85.6549 130.649C86.858 130.991 87.5139 128.324 86.408 128.009Z" fill="#263238"/>
<path d="M85.8506 128.024C85.5806 128.118 85.2868 128.328 84.9996 128.287C84.6662 128.238 84.4898 127.899 84.3436 127.578C84.3285 127.545 84.2997 127.562 84.2904 127.598C84.1572 128.107 84.2248 128.68 84.754 128.89C85.2364 129.082 85.7066 128.719 85.9608 128.236C86.0076 128.147 85.9593 127.986 85.8506 128.024Z" fill="#263238"/>
<path d="M91.61 129.989C91.6244 129.959 91.6647 130.044 91.6547 130.078C91.4192 130.896 91.2867 131.872 91.9628 132.336C91.9837 132.35 91.9707 132.391 91.9441 132.38C91.0664 132.02 91.2558 130.726 91.61 129.989Z" fill="#263238"/>
<path d="M92.5659 129.313C93.9173 129.549 93.3457 132.236 92.0929 132.017C90.8602 131.801 91.4326 129.115 92.5659 129.313Z" fill="#263238"/>
<path d="M93.0871 129.613C93.2692 129.8 93.4233 130.104 93.6739 130.174C93.9633 130.256 94.2427 130.012 94.4896 129.773C94.5156 129.749 94.5321 129.775 94.5249 129.811C94.4299 130.327 94.1455 130.826 93.6314 130.82C93.1627 130.814 92.9258 130.303 92.9121 129.766C92.9107 129.667 93.0144 129.537 93.0871 129.613Z" fill="#263238"/>
<path d="M85.2118 135.796C85.3508 136.045 85.4682 136.365 85.7569 136.477C86.0341 136.585 86.4042 136.554 86.6943 136.531C86.7231 136.528 86.7411 136.563 86.7174 136.582C86.4128 136.833 85.9095 136.898 85.551 136.72C85.2003 136.546 85.1118 136.174 85.1218 135.809C85.124 135.758 85.1917 135.76 85.2118 135.796Z" fill="#263238"/>
<path d="M89.3757 133.612C89.3757 133.612 89.2576 134.889 89.1215 135.473C89.1085 135.528 88.9609 135.521 88.7608 135.486C88.7507 135.487 88.7442 135.49 88.7377 135.481C87.6693 135.401 86.7145 134.803 86.2854 133.816C86.2581 133.749 86.3466 133.706 86.3913 133.755C87.0285 134.5 87.8449 134.844 88.755 135.073C88.8342 134.921 88.8839 132.879 88.9782 132.893C89.3037 132.941 89.8818 133.304 90.2332 133.503C90.5565 130.85 90.4513 128.166 90.8128 125.528C90.8272 125.435 90.9661 125.438 90.9741 125.526C91.2829 128.331 90.9784 131.393 90.7149 134.142C90.6846 134.485 89.5859 133.766 89.3757 133.612Z" fill="#263238"/>
<path d="M74.0631 127.785C75.416 127.932 79.5272 124.836 80.7267 118.385C80.7267 118.385 79.2486 124.103 78.6683 124.88C78.0879 125.657 80.9687 123.136 82.0091 117.947C82.0091 117.947 84.5463 120.521 86.8928 121.628C89.24 122.734 90.7506 122.966 90.9572 122.818C91.1631 122.669 87.7309 120.915 86.9418 119.619C86.9418 119.619 92.9804 123.773 95.9619 124.513C96.3068 124.599 97.9383 117.484 93.7839 113.645C89.6295 109.807 81.675 111.849 79.3609 113.435C79.3609 113.435 76.9683 113.372 73.8464 116.398C70.7245 119.422 72.6059 127.627 74.0631 127.785Z" fill="#263238"/>
<path d="M83.7131 132.551C82.0621 131.972 80.9432 130.328 81.1031 128.506C81.2931 126.352 83.199 124.754 85.3525 124.943C87.5067 125.132 89.1044 127.038 88.9158 129.192C88.7264 131.346 86.8199 132.944 84.6663 132.755C84.3337 132.727 84.0147 132.657 83.7131 132.551ZM86.133 125.644C85.8723 125.552 85.5951 125.491 85.3079 125.466C83.4423 125.302 81.7907 126.686 81.6258 128.552C81.4623 130.418 82.8469 132.072 84.7124 132.234C86.5787 132.398 88.2296 131.013 88.3945 129.147C88.532 127.57 87.5636 126.145 86.133 125.644Z" fill="white"/>
<path d="M92.5068 134.471C91.0906 133.975 90.3144 132.075 90.7608 130.078C90.9862 129.071 91.4858 128.184 92.1677 127.583C92.8726 126.961 93.689 126.714 94.4659 126.888C95.2457 127.061 95.8757 127.633 96.2494 128.496C96.6101 129.331 96.6843 130.345 96.4589 131.352C95.9866 133.462 94.3248 134.893 92.7545 134.542C92.6695 134.523 92.5875 134.5 92.5068 134.471ZM94.543 127.456C94.4803 127.434 94.417 127.415 94.3515 127.401C93.7431 127.265 93.0907 127.469 92.514 127.977C91.915 128.506 91.4736 129.293 91.272 130.193C90.8638 132.021 91.5744 133.743 92.8683 134.031C94.1571 134.319 95.538 133.066 95.947 131.239C96.1479 130.339 96.0845 129.439 95.767 128.704C95.4955 128.075 95.065 127.639 94.543 127.456Z" fill="white"/>
<path d="M88.6875 129.609L88.4463 129.143C89.1353 128.786 90.6243 128.43 91.3349 129.64L90.8828 129.906C90.2485 128.821 88.7509 129.577 88.6875 129.609Z" fill="white"/>
<path d="M71.4184 126.778L71.0166 126.441C71.1743 126.254 72.5848 124.612 73.7684 124.682C74.8744 124.75 81.5884 126.927 81.8735 127.02L81.7115 127.518C79.7869 126.892 74.5921 125.255 73.7375 125.205C72.9556 125.16 71.7985 126.325 71.4184 126.778Z" fill="white"/>
<path d="M72.3972 131.156C72.5736 131.29 72.7421 131.39 72.9091 131.464C73.1021 131.562 73.2907 131.618 73.4693 131.648C73.7465 131.703 74.0014 131.687 74.226 131.631C74.4319 131.586 74.622 131.505 74.7826 131.417C75.198 131.183 75.4371 130.88 75.4371 130.88L75.7294 127.483C75.7294 127.483 74.2282 122.966 72.2583 123.394C70.2804 123.82 70.626 129.822 72.3972 131.156Z" fill="#DEDEFF"/>
<path d="M72.3979 125.106C72.3669 125.093 72.3468 125.137 72.3713 125.155C73.5981 126.137 73.9466 127.652 74.0611 129.147C73.7997 128.507 73.3195 128.055 72.48 128.342C72.4361 128.357 72.4533 128.425 72.4951 128.428C73.1035 128.476 73.4865 128.698 73.7364 129.272C73.9128 129.678 73.9776 130.143 74.0618 130.576C74.0899 130.72 74.3354 130.721 74.3304 130.563C74.3297 130.552 74.3289 130.54 74.3282 130.527C74.8949 128.759 74.2555 125.855 72.3979 125.106Z" fill="#263238"/>
<path d="M72.7133 130.702C72.6845 131.02 72.9185 131.301 73.2375 131.331C73.5557 131.36 73.8373 131.125 73.8668 130.807C73.8956 130.489 73.6616 130.207 73.3433 130.178C73.0244 130.149 72.7429 130.383 72.7133 130.702Z" fill="white"/>
<path d="M71.8239 129.524C71.8038 129.75 71.9694 129.948 72.194 129.969C72.4194 129.99 72.6181 129.824 72.639 129.599C72.6599 129.374 72.4935 129.175 72.2689 129.154C72.0435 129.133 71.8448 129.299 71.8239 129.524Z" fill="white"/>
<path d="M79.3103 123.478L76.4007 120.332L75.6289 121.169L78.8653 123.94L79.3103 123.478Z" fill="white"/>
<path d="M78.6333 124.341L75.2119 121.762L74.6006 122.722L78.2776 124.874L78.6333 124.341Z" fill="white"/>
<path d="M63.3519 146.566C58.2047 151.395 42.5137 170.37 42.5411 175.799C42.5821 184.065 71.5203 195.043 76.0506 197.781C77.9823 198.948 84.7899 178.844 82.7509 177.554C80.9747 176.429 61.4187 171.581 61.4605 170.689C61.4951 169.948 65.7114 160.588 68.8967 149.196C71.3929 140.268 66.0404 144.043 63.3519 146.566Z" fill="#DEDEFF"/>
<path d="M89.7615 184.576C88.8551 183.629 89.3454 183.147 91.653 183.474C93.9879 183.799 102.817 187.053 103.69 183.868C104.572 180.674 92.0029 176.275 88.1192 176.025C84.2348 175.765 77.8643 176.731 77.8643 176.731C80.1366 178.079 85.3371 181.874 89.7615 184.576Z" fill="#DEDEFF"/>
<path d="M93.0224 183.765C94.2975 183.912 95.5532 184.197 96.8046 184.474C98.0516 184.76 99.2965 185.09 100.547 185.222C101.167 185.279 101.802 185.285 102.35 185.098C102.896 184.924 103.286 184.434 103.402 183.892C103.506 183.37 103.176 182.824 102.78 182.379C102.369 181.93 101.877 181.54 101.359 181.187C100.327 180.47 99.2014 179.867 98.0566 179.316C96.9039 178.77 95.7404 178.26 94.5387 177.843C93.3349 177.42 92.1145 177.037 90.884 176.695C89.655 176.364 88.4151 175.989 87.1328 175.981C88.4209 175.866 89.6953 176.192 90.9495 176.439C92.2016 176.731 93.44 177.071 94.6698 177.449C95.9111 177.811 97.0947 178.344 98.2669 178.871C99.434 179.419 100.59 180.006 101.666 180.747C102.2 181.122 102.715 181.537 103.164 182.041C103.586 182.536 104.028 183.203 103.88 183.986C103.73 184.696 103.194 185.321 102.503 185.536C101.827 185.761 101.145 185.704 100.5 185.626C97.9213 185.212 95.5439 184.26 93.0224 183.765Z" fill="#263238"/>
<path d="M121.821 196.588H73.8672V198.739H121.821V196.588Z" fill="#C7C7C7"/>
<path d="M93.1729 196.588L91.5312 198.739H130.866V196.588H93.1729Z" fill="#A6A6A6"/>
<path d="M95.2246 198.735H141.959L145.849 166.994H99.1155L95.2246 198.735Z" fill="#C7C7C7"/>
<path d="M117.692 182.866C117.664 184.437 118.915 185.711 120.486 185.711C122.057 185.711 123.353 184.437 123.381 182.866C123.408 181.295 122.157 180.021 120.586 180.021C119.016 180.021 117.72 181.295 117.692 182.866Z" fill="white"/>
<path d="M69.8311 194.451C76.5011 198.951 84.2959 202.848 92.6939 202.57C94.3413 202.515 95.2615 201.658 95.2615 201.658C99.0278 201.6 100.132 199.805 100.132 199.805C103.623 198.678 104.499 196.685 104.499 196.685C104.499 196.685 108.92 196.569 109.294 193.885C109.721 190.877 103.429 191.629 99.7154 189.926C91.2079 186.024 80.2055 178.1 77.8634 176.73L69.8311 194.451Z" fill="#DEDEFF"/>
<path d="M87.9264 192.104C90.4529 193.202 92.9067 194.346 95.5685 195.097C98.4895 195.92 101.438 196.222 104.433 196.605C104.527 196.617 104.52 196.748 104.425 196.751C98.8949 196.917 92.592 195.088 87.8746 192.218C87.7601 192.149 87.799 192.049 87.9264 192.104Z" fill="#263238"/>
<path d="M84.8267 196.895C87.3445 197.828 91.7804 199.437 100.136 199.714C100.163 199.715 100.171 199.761 100.14 199.764C94.6914 200.307 89.6989 199.32 84.782 197.015C84.6294 196.943 84.6589 196.833 84.8267 196.895Z" fill="#263238"/>
<path d="M83.2047 199.503C87.5463 200.925 90.4638 201.272 95.2417 201.638C95.269 201.64 95.2727 201.687 95.2424 201.688C89.7682 201.843 87.7652 201.278 83.1349 199.645C82.9758 199.589 83.0355 199.447 83.2047 199.503Z" fill="#263238"/>
<path d="M48.9062 160.457L66.5535 162.386C66.5535 162.386 69.6149 154.005 70.6546 149.128C72.0305 142.675 69.9569 140.651 63.4791 145.497C59.1454 148.738 48.9062 160.457 48.9062 160.457Z" fill="#0101C8"/>
<path d="M48.9062 160.457L66.5535 162.386C66.5535 162.386 69.6149 154.005 70.6546 149.128C72.0305 142.675 69.9569 140.651 63.4791 145.497C59.1454 148.738 48.9062 160.457 48.9062 160.457Z" fill="#0101C8"/>
<path d="M62.7908 152.62C62.7908 153.347 62.2018 153.936 61.4746 153.936C60.7481 153.936 60.1592 153.347 60.1592 152.62C60.1592 151.894 60.7481 151.305 61.4746 151.305C62.2011 151.305 62.7908 151.894 62.7908 152.62Z" fill="white"/>
<path d="M64.4019 162.152C64.5955 162.138 66.4143 162.277 66.5417 162.324C66.8772 161.329 67.1991 160.331 67.5461 159.339C67.7189 158.844 67.9011 158.351 68.0897 157.861C68.2978 157.321 68.5059 156.697 68.6902 156.219C68.719 156.144 68.8162 156.173 68.7953 156.251C68.6182 156.895 68.4648 157.37 68.3079 157.927C68.1682 158.423 68.0148 158.919 67.8528 159.41C67.5087 160.447 67.1875 161.568 66.7937 162.588C66.7635 162.666 64.5768 162.271 64.3925 162.215C64.3601 162.206 64.3716 162.155 64.4019 162.152Z" fill="#263238"/>
<path d="M51.6259 158.404C54.1149 158.504 56.596 158.638 59.0757 158.883C60.3127 159.006 61.5468 159.146 62.7787 159.306C64.0092 159.466 65.2274 159.752 66.4586 159.893C66.5263 159.901 66.5097 160.01 66.442 159.998C65.2224 159.792 63.9602 159.751 62.7304 159.612C61.4956 159.473 60.2594 159.339 59.0232 159.213C56.5543 158.961 54.0832 158.704 51.6093 158.509C51.5395 158.504 51.5589 158.402 51.6259 158.404Z" fill="#263238"/>
<path d="M59.5156 149.237C59.5639 149.19 59.4969 149.116 59.4458 149.16C58.6351 149.858 57.8373 150.563 57.0482 151.279C57.2707 150.936 57.5219 150.611 57.8092 150.323C57.8243 150.308 57.8027 150.285 57.7869 150.299C57.3693 150.685 57.0237 151.127 56.7004 151.592C55.6708 152.536 54.6628 153.503 53.6872 154.514C51.911 156.354 50.1095 158.262 48.5975 160.33C48.5075 160.453 48.6155 160.606 48.7487 160.619C49.5832 160.705 50.4616 160.764 51.2839 160.927C51.376 160.945 51.4005 160.813 51.3055 160.799C50.5754 160.696 49.8338 160.503 49.1102 160.325C50.8101 158.528 52.4128 156.634 54.1106 154.833C55.8868 152.949 57.6681 151.053 59.5156 149.237Z" fill="#263238"/>
<path d="M145.123 172.354C146.884 175.073 151.233 178.252 151.83 180.585C152.37 182.691 150.692 183.678 150.692 183.678C150.692 183.678 153.213 184.545 153.406 186.751C153.506 187.886 151.779 189.042 151.779 189.042C151.779 189.042 153.769 189.824 153.82 191.797C153.86 193.369 152.125 194.292 152.125 194.292C152.125 194.292 153.684 195.932 153.211 197.546C152.254 200.819 138.876 202.588 136.158 197.933C134.891 195.764 138.183 195.509 138.183 195.509C138.183 195.509 133.362 194.732 132.927 191.983C132.492 189.234 136.788 189.162 136.788 189.162C136.788 189.162 132.122 188.368 131.959 185.473C131.789 182.459 136.098 183.123 136.098 183.123C136.098 183.123 132.857 181.499 133.239 179.254C133.871 175.547 141.5 179.487 144.348 178.401L145.123 172.354Z" fill="#DEDEFF"/>
<path d="M151.873 194.474C151.917 194.464 151.939 194.524 151.895 194.541C147.636 196.194 142.451 196.706 138.006 195.541C137.86 195.503 137.859 195.249 138.027 195.261C142.839 195.586 147.135 195.491 151.873 194.474Z" fill="#263238"/>
<path d="M151.85 189.058C151.901 189.046 151.921 189.132 151.868 189.152C147.471 190.832 141.614 191.247 136.648 189.301C136.478 189.234 136.392 189.003 136.594 189.065C139.994 190.11 147.59 189.995 151.85 189.058Z" fill="#263238"/>
<path d="M135.782 182.865C140.616 184.547 145.502 184.511 150.516 183.753C150.582 183.743 150.589 183.837 150.537 183.86C148.185 184.899 144.939 185.049 142.403 184.953C139.973 184.86 137.8 184.289 135.723 183.034C135.643 182.985 135.679 182.829 135.782 182.865Z" fill="#263238"/>
<path d="M308.487 267.527C307.827 270.329 307.132 273.085 306.996 275.96C307.073 276.101 307.058 276.622 306.973 276.481C306.957 276.944 306.252 276.859 306.251 276.403C306.258 276.105 306.266 275.807 306.28 275.517C304.633 273.471 302.24 272.176 300.306 270.397C298.742 268.958 297.624 267.244 297.032 265.187C295.428 259.659 296.932 253.801 295.003 248.287C293.34 243.533 290.357 239.4 287.832 235.092C285.168 230.537 283.202 225.75 283.005 220.415C282.848 216.33 283.336 210.886 286.447 207.825C289.745 204.577 293.833 207.011 296.361 209.907C303.682 218.311 307.071 228.93 308.44 239.789C309.195 245.799 309.979 251.844 309.799 257.911C309.695 261.173 309.227 264.361 308.487 267.527Z" fill="#0101C8"/>
<path d="M307.028 278.167C307.407 272.488 307.383 266.798 306.827 261.141C306.837 261.12 306.855 261.107 306.855 261.079C306.948 256.477 307.313 251.894 307.133 247.286C306.937 242.28 306.203 237.374 305.106 232.49C305.093 232.434 305.006 232.447 305.017 232.505C305.919 237.268 306.444 242.129 306.618 246.973C306.711 249.573 306.693 252.175 306.556 254.774C306.511 255.619 306.433 256.471 306.377 257.323C306.376 257.321 306.376 257.318 306.376 257.315C304.52 244.364 299.74 232.077 292.684 221.081C292.588 220.932 292.323 221.092 292.417 221.245C297.498 229.541 301.244 238.655 303.561 248.111C300.04 241.588 294.722 236.223 290.776 229.955C290.755 229.921 290.698 229.955 290.717 229.991C294.261 236.97 300.117 242.473 303.85 249.348C304.497 252.151 305.028 254.979 305.423 257.825C305.965 261.732 306.219 265.664 306.271 269.601C304.127 265.592 301.901 261.758 300.146 257.518C300.1 257.405 299.938 257.482 299.976 257.594C301.468 261.998 303.475 266.743 306.284 270.498C306.299 273.286 306.216 276.075 306.052 278.859C305.613 286.292 304.344 293.626 303.757 301.035C303.739 301.258 304.053 301.284 304.097 301.072C305.639 293.595 306.521 285.782 307.028 278.167Z" fill="white"/>
<path d="M299.134 220.845C299.111 220.791 299.031 220.828 299.051 220.882C300.409 224.636 301.176 228.439 302.157 232.288C302.202 232.464 302.456 232.426 302.437 232.242C302.038 228.339 300.644 224.444 299.134 220.845Z" fill="white"/>
<path d="M333.61 239.839C332.73 242.044 331.637 244.179 330.487 246.254C328.043 250.694 325.493 254.762 325.031 259.931C324.825 262.24 324.752 264.559 324.048 266.782C323.441 268.707 322.454 270.484 321.318 272.145C318.669 276.005 315.357 279.332 312.901 283.336C310.347 287.499 308.463 292.079 307.309 296.822C307.248 297.081 306.838 297.012 306.899 296.753C306.909 296.732 306.911 296.715 306.915 296.694C306.906 296.681 306.892 296.667 306.891 296.639C306.502 285.555 307.386 274.383 310.767 263.765C312.246 259.122 314.069 254.504 316.139 250.09C317.95 246.24 320.208 242.538 323.387 239.662C325.45 237.804 329.925 234.282 332.862 236.145C334.27 237.041 334.165 238.456 333.61 239.839Z" fill="#0101C8"/>
<path d="M322.469 264.967C320.569 268.217 318.314 271.242 316.028 274.227C314.954 275.628 313.866 277.018 312.795 278.42C312.289 279.084 311.721 279.744 311.256 280.455C311.549 279.289 311.834 278.122 312.132 276.958C313.562 271.358 314.937 265.708 317.067 260.323C319.149 255.06 321.919 250.116 324.763 245.236C324.838 245.107 324.631 245.015 324.555 245.138C322.213 248.99 319.836 252.837 317.866 256.898C316.766 259.167 315.841 261.5 315.027 263.876C315.985 258.785 317.133 253.896 318.807 248.967C318.822 248.923 318.759 248.892 318.74 248.936C316.697 253.77 315.227 259.206 314.818 264.444C314.817 264.454 314.822 264.461 314.825 264.469C314.345 265.908 313.904 267.362 313.491 268.826C311.745 275.028 310.211 281.294 308.79 287.582C308.815 283.43 309.075 279.353 309.86 275.256C309.878 275.162 309.737 275.14 309.715 275.232C308.684 279.451 308.219 283.89 308.644 288.225C308.107 290.616 307.583 293.01 307.073 295.405C305.984 300.514 304.644 305.715 304.008 310.903C303.991 311.038 304.178 311.065 304.212 310.938C304.973 308.141 305.431 305.242 306.053 302.411C306.677 299.571 307.32 296.735 307.981 293.903C308.943 289.78 309.952 285.666 310.979 281.558C311.666 280.051 312.993 278.714 313.987 277.451C315.079 276.064 316.17 274.677 317.231 273.268C319.209 270.644 321.023 267.918 322.565 265.014C322.6 264.951 322.504 264.908 322.469 264.967Z" fill="white"/>
<path d="M322.941 260.227C320.537 263.313 318.354 266.729 316.637 270.244C316.615 270.289 316.685 270.337 316.713 270.292C318.835 266.967 320.921 263.617 323.039 260.29C323.074 260.234 322.981 260.175 322.941 260.227Z" fill="white"/>
<path d="M273.393 252.844C274.925 255.261 276.679 258.165 276.178 261.158C275.86 263.051 274.544 264.63 274.37 266.557C273.979 270.809 278.303 273.441 281.432 275.322C289.231 280.016 299.835 284.06 301.614 294.196C301.681 294.555 302.301 294.44 302.242 294.089C302.241 294.067 302.232 294.044 302.224 294.022C302.238 293.999 302.26 293.99 302.259 293.961C303.043 288.76 302.816 283.5 301.512 278.402C300.173 273.193 297.697 268.563 294.813 264.054C289.933 256.424 284.774 248.616 277.621 242.903C275.64 241.324 271.601 238.5 270.221 242.294C268.881 245.982 271.517 249.899 273.393 252.844Z" fill="#0101C8"/>
<path d="M280.996 269.128C286.251 274.391 294.386 277.139 298.964 283.086C296.028 273.814 291.444 265.552 284.615 258.486C284.44 258.305 284.692 258.028 284.883 258.198C289.853 262.616 293.61 267.861 296.425 273.6C295.099 269.476 293.317 265.595 291.252 261.749C291.174 261.603 291.379 261.468 291.47 261.61C294.069 265.67 295.87 270.274 297.068 274.94C303.325 288.563 304.486 304.781 303.855 319.421C303.845 319.629 303.528 319.649 303.525 319.434C303.407 307.921 302.767 296.227 299.574 285.102C299.507 284.869 299.434 284.641 299.366 284.41C294.389 278.011 286.288 275.27 280.912 269.219C280.861 269.16 280.939 269.071 280.996 269.128Z" fill="white"/>
<path d="M279.649 264.483C282.391 266.809 285.093 269.191 287.839 271.515C287.866 271.538 287.833 271.587 287.802 271.567C284.839 269.727 281.809 267.26 279.498 264.646C279.403 264.541 279.537 264.388 279.649 264.483Z" fill="white"/>
<path d="M278.82 253.983C281.373 257.743 284.035 261.259 287.162 264.569C287.203 264.613 287.144 264.679 287.098 264.638C283.763 261.667 280.763 258.033 278.681 254.072C278.632 253.979 278.759 253.894 278.82 253.983Z" fill="white"/>
<path d="M293.062 328.355H316.265L313.138 297.137H296.636L293.062 328.355Z" fill="#455A64"/>
<path d="M296.054 302.209H313.65L313.14 297.135H296.634L296.054 302.209Z" fill="white"/>
<path d="M293.789 298.662H315.539V293.678H293.789V298.662Z" fill="#455A64"/>
</svg>
