<svg width="33" height="33" viewBox="0 0 33 33" fill="none" xmlns="http://www.w3.org/2000/svg">
<path d="M16.1838 27.5V26.125H25.2794C25.5085 26.125 25.7065 26.0544 25.8734 25.9133C26.0411 25.7721 26.125 25.5869 26.125 25.3578V15.8868C26.125 13.3109 25.1781 11.16 23.2843 9.43388C21.3895 7.70688 19.1281 6.84338 16.5 6.84338C13.8719 6.84338 11.6105 7.70688 9.71575 9.43388C7.82192 11.16 6.875 13.3109 6.875 15.8868V23.6926H6.1875C5.62558 23.6926 5.14113 23.5024 4.73413 23.122C4.32804 22.7425 4.125 22.2723 4.125 21.7113V19.1194C4.125 18.7087 4.25837 18.3443 4.52512 18.0263C4.79279 17.7073 5.11775 17.4483 5.5 17.2494L5.52338 15.5595C5.54813 14.1249 5.85979 12.7958 6.45838 11.572C7.05696 10.3483 7.85629 9.28354 8.85637 8.37788C9.85646 7.47221 11.0133 6.76638 12.3269 6.26038C13.6405 5.75438 15.0315 5.50092 16.5 5.5C17.9685 5.49909 19.3586 5.75209 20.6704 6.259C21.9821 6.76592 23.1339 7.47084 24.1257 8.37375C25.1176 9.27667 25.9128 10.34 26.5114 11.5638C27.11 12.7875 27.4317 14.1167 27.4766 15.5513L27.5 17.2054C27.8648 17.3768 28.1852 17.6073 28.4611 17.897C28.737 18.1858 28.875 18.5327 28.875 18.9379V21.9161C28.875 22.3213 28.737 22.6683 28.4611 22.957C28.1852 23.2458 27.8648 23.4758 27.5 23.6473V25.3578C27.5 25.9554 27.2837 26.4619 26.851 26.8771C26.4183 27.2924 25.8945 27.5 25.2794 27.5H16.1838ZM12.9044 18.6161C12.6202 18.6161 12.3727 18.5194 12.1619 18.326C11.951 18.1335 11.8456 17.8952 11.8456 17.611C11.8456 17.3268 11.951 17.0839 12.1619 16.8823C12.3727 16.6806 12.6202 16.5798 12.9044 16.5798C13.1885 16.5798 13.4356 16.6806 13.6455 16.8823C13.8554 17.0839 13.9608 17.3268 13.9618 17.611C13.9627 17.8952 13.8572 18.1335 13.6455 18.326C13.4337 18.5185 13.1862 18.6148 12.903 18.6148M20.097 18.6148C19.8128 18.6148 19.5653 18.5185 19.3545 18.326C19.1437 18.1335 19.0382 17.8952 19.0382 17.611C19.0382 17.3268 19.1437 17.0839 19.3545 16.8823C19.5653 16.6806 19.8128 16.5798 20.097 16.5798C20.3812 16.5798 20.6282 16.6806 20.8381 16.8823C21.048 17.0839 21.1535 17.3268 21.1544 17.611C21.1553 17.8952 21.0499 18.1335 20.8381 18.326C20.6264 18.5185 20.3789 18.6148 20.0956 18.6148M9.23725 16.4313C9.11258 14.3724 9.77579 12.6175 11.2269 11.1664C12.677 9.71529 14.4581 8.98975 16.5701 8.98975C18.3448 8.98975 19.9178 9.52279 21.2891 10.5889C22.6605 11.655 23.4974 13.0552 23.7999 14.7895C21.9785 14.7666 20.2881 14.3018 18.7289 13.3953C17.1696 12.4887 15.9734 11.2283 15.1401 9.614C14.8083 11.2008 14.1185 12.5913 13.0707 13.7858C12.0221 14.9802 10.7442 15.862 9.23725 16.4313Z" fill="#0101C8"/>
<path d="M12.9044 18.6161C12.6202 18.6161 12.3727 18.5194 12.1619 18.326C11.951 18.1335 11.8456 17.8952 11.8456 17.611C11.8456 17.3268 11.951 17.0839 12.1619 16.8823C12.3727 16.6806 12.6202 16.5798 12.9044 16.5798C13.1885 16.5798 13.4356 16.6806 13.6455 16.8823C13.8554 17.0839 13.9608 17.3268 13.9618 17.611C13.9627 17.8952 13.8572 18.1335 13.6455 18.326C13.4337 18.5185 13.1862 18.6148 12.903 18.6148M20.097 18.6148C19.8128 18.6148 19.5653 18.5185 19.3545 18.326C19.1437 18.1335 19.0382 17.8952 19.0382 17.611C19.0382 17.3268 19.1437 17.0839 19.3545 16.8823C19.5653 16.6806 19.8128 16.5798 20.097 16.5798C20.3812 16.5798 20.6282 16.6806 20.8381 16.8823C21.048 17.0839 21.1535 17.3268 21.1544 17.611C21.1553 17.8952 21.0499 18.1335 20.8381 18.326C20.6264 18.5185 20.3789 18.6148 20.0956 18.6148M16.1838 27.5V26.125H25.2794C25.5085 26.125 25.7065 26.0544 25.8734 25.9133C26.0411 25.7721 26.125 25.5869 26.125 25.3578V15.8868C26.125 13.3109 25.1781 11.16 23.2843 9.43388C21.3895 7.70688 19.1281 6.84338 16.5 6.84338C13.8719 6.84338 11.6105 7.70688 9.71575 9.43388C7.82192 11.16 6.875 13.3109 6.875 15.8868V23.6926H6.1875C5.62558 23.6926 5.14113 23.5024 4.73413 23.122C4.32804 22.7425 4.125 22.2723 4.125 21.7113V19.1194C4.125 18.7087 4.25837 18.3443 4.52512 18.0263C4.79279 17.7073 5.11775 17.4483 5.5 17.2494L5.52338 15.5595C5.54813 14.1249 5.85979 12.7958 6.45838 11.572C7.05696 10.3483 7.85629 9.28354 8.85637 8.37788C9.85646 7.47221 11.0133 6.76638 12.3269 6.26038C13.6405 5.75438 15.0315 5.50092 16.5 5.5C17.9685 5.49909 19.3586 5.75209 20.6704 6.259C21.9821 6.76592 23.1339 7.47084 24.1257 8.37375C25.1176 9.27667 25.9128 10.34 26.5114 11.5638C27.11 12.7875 27.4317 14.1167 27.4766 15.5513L27.5 17.2054C27.8648 17.3768 28.1852 17.6073 28.4611 17.897C28.737 18.1858 28.875 18.5327 28.875 18.9379V21.9161C28.875 22.3213 28.737 22.6683 28.4611 22.957C28.1852 23.2458 27.8648 23.4758 27.5 23.6473V25.3578C27.5 25.9554 27.2837 26.4619 26.851 26.8771C26.4183 27.2924 25.8945 27.5 25.2794 27.5H16.1838ZM9.23725 16.4313C9.11258 14.3724 9.77579 12.6175 11.2269 11.1664C12.677 9.71529 14.4581 8.98975 16.5701 8.98975C18.3448 8.98975 19.9178 9.52279 21.2891 10.5889C22.6605 11.655 23.4974 13.0552 23.7999 14.7895C21.9785 14.7666 20.2881 14.3018 18.7289 13.3953C17.1696 12.4887 15.9734 11.2283 15.1401 9.614C14.8083 11.2008 14.1185 12.5913 13.0707 13.7858C12.0221 14.9802 10.7442 15.862 9.23725 16.4313Z" stroke="#E2E2FF" stroke-width="0.6875"/>
</svg>
