<svg width="18" height="18" viewBox="0 0 18 18" fill="none" xmlns="http://www.w3.org/2000/svg">
<g id="call">
<path fill-rule="evenodd" clip-rule="evenodd" d="M5.78833 7.60604C5.59269 7.80169 5.59269 8.11857 5.78833 8.31421C5.98397 8.50985 6.30148 8.50985 6.49712 8.31421C6.69276 8.11857 6.69276 7.80169 6.49712 7.60604C6.30148 7.4104 5.98397 7.4104 5.78833 7.60604ZM14.9971 11.1493C14.9134 11.0655 14.8215 10.9955 14.7284 10.9293C14.6902 10.903 14.6509 10.878 14.6115 10.8549C14.5596 10.8236 14.5052 10.7968 14.4515 10.7705C14.3221 10.7093 14.189 10.658 14.0515 10.6249C13.3952 10.4661 12.6758 10.6368 12.1639 11.1493C12.1314 11.1818 12.0151 11.2312 11.9738 11.2562C11.2013 11.7324 10.1774 11.6412 9.50749 10.9718C9.50749 10.9718 7.75941 9.21916 7.55987 9.02352C7.36033 8.82788 7.04673 8.82788 6.85109 9.02352C6.65544 9.21916 6.65544 9.53666 6.85109 9.73168L8.7987 11.6799C9.92312 12.8044 11.7156 12.8487 12.8957 11.8187C13.2895 11.4605 13.9082 11.4774 14.2883 11.8574L15.7052 13.2738C16.0965 13.665 16.0965 14.2994 15.7052 14.6907L14.997 15.3989C14.9695 15.4264 14.9383 15.4464 14.9039 15.462C13.3126 16.7427 9.64734 15.362 6.14222 11.8569C2.65021 8.36486 1.26758 4.71397 2.52396 3.11325C2.54146 3.07387 2.56646 3.037 2.60084 3.00262L2.66272 2.94137L3.30963 2.29446C3.7009 1.90319 4.33467 1.90319 4.72595 2.29446L6.1429 3.71078C6.52292 4.0908 6.53042 4.69896 6.17228 5.09272C6.17478 5.09584 6.1779 5.10022 6.1804 5.10334C6.16853 5.11335 6.15415 5.11709 6.1429 5.12835C5.94726 5.32399 5.94726 5.64087 6.1429 5.83651C6.33854 6.03215 6.65604 6.03215 6.85169 5.83651C7.36421 5.32461 7.53422 4.6052 7.37546 3.9489C7.34233 3.81077 7.29045 3.67701 7.2292 3.54763C7.2042 3.49513 7.17732 3.442 7.14669 3.39137C7.12232 3.35012 7.09732 3.30949 7.06982 3.27012C7.00419 3.17699 6.93418 3.08636 6.85105 3.00322L5.4341 1.5869C4.65157 0.804366 3.38345 0.804366 2.60085 1.5869L1.71517 2.47257C-0.0455516 4.23266 1.53891 8.67159 5.43407 12.5668C9.32994 16.4614 13.7676 18.0452 15.5283 16.2851L16.414 15.3994C17.1965 14.6175 17.1965 13.3481 16.414 12.5655L14.9971 11.1493Z" fill="#0101C8"/>
<path d="M14.9971 11.1493L14.8231 11.3234L14.8231 11.3233L14.9971 11.1493ZM14.7284 10.9293L14.868 10.7265L14.8711 10.7287L14.7284 10.9293ZM14.6115 10.8549L14.4868 11.0672L14.4845 11.0657L14.6115 10.8549ZM14.4515 10.7705L14.5568 10.548L14.5595 10.5493L14.4515 10.7705ZM14.0515 10.6249L13.9938 10.8642L13.9936 10.8641L14.0515 10.6249ZM12.1639 11.1493L12.338 11.3232L12.3379 11.3233L12.1639 11.1493ZM11.9738 11.2562L11.8447 11.0466L11.8463 11.0456L11.9738 11.2562ZM9.50749 10.9718L9.3335 11.1459L9.33321 11.1456L9.50749 10.9718ZM6.85109 9.73168L7.02487 9.55735L7.02517 9.55765L6.85109 9.73168ZM8.7987 11.6799L8.62464 11.854L8.62461 11.854L8.7987 11.6799ZM12.8957 11.8187L13.0614 12.0008L13.0576 12.0041L12.8957 11.8187ZM14.2883 11.8574L14.1142 12.0315L14.1142 12.0315L14.2883 11.8574ZM15.7052 13.2738L15.8792 13.0997L15.8793 13.0997L15.7052 13.2738ZM15.7052 14.6907L15.5312 14.5167L15.5312 14.5167L15.7052 14.6907ZM14.997 15.3989L15.1711 15.5729L15.1711 15.5729L14.997 15.3989ZM14.9039 15.462L14.7496 15.2702L14.7738 15.2508L14.8021 15.2379L14.9039 15.462ZM2.52396 3.11325L2.7489 3.21322L2.73648 3.24117L2.71759 3.26523L2.52396 3.11325ZM2.60084 3.00262L2.42678 2.82856L2.42767 2.82768L2.60084 3.00262ZM2.66272 2.94137L2.83678 3.11543L2.83589 3.11631L2.66272 2.94137ZM3.30963 2.29446L3.48369 2.46851L3.48369 2.46851L3.30963 2.29446ZM4.72595 2.29446L4.55193 2.46855L4.5519 2.46852L4.72595 2.29446ZM6.1429 3.71078L6.31692 3.53668L6.31696 3.53672L6.1429 3.71078ZM6.17228 5.09272L5.98009 5.24653L5.84882 5.0825L5.99018 4.92709L6.17228 5.09272ZM6.1804 5.10334L6.37264 4.9496L6.52254 5.13702L6.33897 5.29162L6.1804 5.10334ZM6.1429 5.12835L5.96884 4.95429L6.1429 5.12835ZM6.85169 5.83651L6.67763 5.66245L6.67773 5.66235L6.85169 5.83651ZM7.37546 3.9489L7.1362 4.00677L7.13609 4.0063L7.37546 3.9489ZM7.2292 3.54763L7.45144 3.4418L7.45168 3.4423L7.2292 3.54763ZM7.14669 3.39137L6.93607 3.51879L6.93477 3.5166L7.14669 3.39137ZM7.06982 3.27012L7.27103 3.12832L7.27162 3.12917L7.06982 3.27012ZM6.85105 3.00322L7.02507 2.82913L7.02512 2.82918L6.85105 3.00322ZM5.4341 1.5869L5.26009 1.76099L5.26005 1.76096L5.4341 1.5869ZM2.60085 1.5869L2.42679 1.41284L2.4268 1.41284L2.60085 1.5869ZM1.71517 2.47257L1.88923 2.64663L1.8892 2.64666L1.71517 2.47257ZM5.43407 12.5668L5.26004 12.7409L5.26001 12.7409L5.43407 12.5668ZM15.5283 16.2851L15.7024 16.4591L15.7023 16.4592L15.5283 16.2851ZM16.414 15.3994L16.2399 15.2253L16.24 15.2253L16.414 15.3994ZM16.414 12.5655L16.588 12.3914L16.5881 12.3915L16.414 12.5655ZM5.96239 7.7801C5.86288 7.87961 5.86288 8.04064 5.96239 8.14015L5.61428 8.48826C5.32251 8.19649 5.32251 7.72376 5.61428 7.43199L5.96239 7.7801ZM5.96239 8.14015C6.0619 8.23966 6.22355 8.23966 6.32306 8.14015L6.67118 8.48826C6.37941 8.78003 5.90605 8.78003 5.61428 8.48826L5.96239 8.14015ZM6.32306 8.14015C6.42257 8.04064 6.42257 7.87961 6.32306 7.7801L6.67118 7.43199C6.96295 7.72376 6.96295 8.19649 6.67118 8.48826L6.32306 8.14015ZM6.32306 7.7801C6.22355 7.68059 6.0619 7.68059 5.96239 7.7801L5.61428 7.43199C5.90605 7.14022 6.37941 7.14022 6.67118 7.43199L6.32306 7.7801ZM14.8231 11.3233C14.7539 11.2542 14.6752 11.1935 14.5857 11.1298L14.8711 10.7287C14.9678 10.7975 15.0729 10.8769 15.1712 10.9752L14.8231 11.3233ZM14.5888 11.132C14.5557 11.1092 14.5213 11.0874 14.4868 11.0671L14.7362 10.6426C14.7805 10.6687 14.8248 10.6968 14.868 10.7265L14.5888 11.132ZM14.4845 11.0657C14.4431 11.0408 14.3978 11.0182 14.3435 10.9917L14.5595 10.5493C14.6127 10.5753 14.6762 10.6065 14.7385 10.644L14.4845 11.0657ZM14.3462 10.993C14.2274 10.9368 14.1106 10.8923 13.9938 10.8642L14.1091 10.3856C14.2674 10.4237 14.4168 10.4817 14.5568 10.548L14.3462 10.993ZM13.9936 10.8641C13.4156 10.7243 12.7856 10.8751 12.338 11.3232L11.9897 10.9753C12.5659 10.3984 13.3747 10.2079 14.1093 10.3856L13.9936 10.8641ZM12.3379 11.3233C12.3067 11.3545 12.2707 11.3767 12.2521 11.3877C12.2291 11.4014 12.2046 11.4143 12.184 11.4248C12.1646 11.4347 12.1407 11.4465 12.127 11.4534C12.1189 11.4574 12.1126 11.4606 12.1077 11.4633C12.1024 11.4661 12.1008 11.4671 12.1014 11.4667L11.8463 11.0456C11.8661 11.0336 11.8895 11.0218 11.9058 11.0136C11.9264 11.0032 11.9414 10.9959 11.9603 10.9863C11.9779 10.9772 11.9912 10.9701 12.0004 10.9646C12.0048 10.962 12.0064 10.9609 12.0058 10.9613C12.0055 10.9615 12.0039 10.9626 12.0015 10.9646C11.9992 10.9665 11.995 10.97 11.9898 10.9752L12.3379 11.3233ZM12.103 11.4657C11.2367 11.9998 10.0868 11.8985 9.3335 11.1459L9.68147 10.7976C10.2681 11.3838 11.166 11.4651 11.8447 11.0466L12.103 11.4657ZM9.50749 10.9718C9.33321 11.1456 9.3332 11.1456 9.33319 11.1456C9.33317 11.1456 9.33315 11.1456 9.33313 11.1455C9.33307 11.1455 9.33299 11.1454 9.33289 11.1453C9.33268 11.1451 9.33236 11.1448 9.33194 11.1443C9.3311 11.1435 9.32984 11.1422 9.32819 11.1406C9.32488 11.1373 9.31996 11.1323 9.31353 11.1259C9.30068 11.113 9.28181 11.0941 9.25772 11.0699C9.20954 11.0216 9.14048 10.9524 9.05699 10.8687C8.89 10.7014 8.66528 10.4762 8.43433 10.2449C7.97159 9.78156 7.4861 9.29591 7.38754 9.19928L7.73221 8.84775C7.83319 8.94676 8.3215 9.43524 8.78269 9.89708C9.0137 10.1284 9.23847 10.3536 9.40548 10.521C9.48899 10.6047 9.55806 10.6739 9.60625 10.7222C9.63035 10.7464 9.64923 10.7653 9.66208 10.7782C9.66851 10.7846 9.67343 10.7896 9.67675 10.7929C9.6784 10.7946 9.67966 10.7958 9.6805 10.7967C9.68092 10.7971 9.68124 10.7974 9.68145 10.7976C9.68156 10.7977 9.68164 10.7978 9.68169 10.7979C9.68172 10.7979 9.68174 10.7979 9.68175 10.7979C9.68176 10.7979 9.68177 10.7979 9.50749 10.9718ZM7.38754 9.19928C7.28277 9.09656 7.12372 9.099 7.02514 9.19758L6.67703 8.84946C6.96974 8.55675 7.4379 8.5592 7.73221 8.84775L7.38754 9.19928ZM7.02514 9.19758C6.92548 9.29724 6.92588 9.45867 7.02487 9.55735L6.67731 9.90602C6.38501 9.61465 6.38541 9.14108 6.67703 8.84946L7.02514 9.19758ZM7.02517 9.55765L8.97279 11.5059L8.62461 11.854L6.677 9.90571L7.02517 9.55765ZM8.97276 11.5059C10.0047 12.5379 11.6504 12.579 12.7338 11.6332L13.0576 12.0041C11.7809 13.1185 9.84151 13.0709 8.62464 11.854L8.97276 11.5059ZM12.7301 11.6366C13.2224 11.1888 13.9907 11.2117 14.4623 11.6834L14.1142 12.0315C13.8258 11.7431 13.3565 11.7323 13.0613 12.0008L12.7301 11.6366ZM14.4623 11.6833L15.8792 13.0997L15.5312 13.4479L14.1142 12.0315L14.4623 11.6833ZM15.8793 13.0997C16.3667 13.5871 16.3667 14.3774 15.8793 14.8648L15.5312 14.5167C15.8263 14.2215 15.8263 13.743 15.5312 13.4478L15.8793 13.0997ZM15.8793 14.8648L15.1711 15.5729L14.823 15.2248L15.5312 14.5167L15.8793 14.8648ZM15.1711 15.5729C15.1189 15.6251 15.0617 15.6607 15.0058 15.6861L14.8021 15.2379C14.8149 15.2321 14.8202 15.2277 14.823 15.2248L15.1711 15.5729ZM15.0582 15.6538C14.1537 16.3818 12.7235 16.3142 11.1491 15.6826C9.55708 15.0438 7.73748 13.8003 5.96816 12.0309L6.31627 11.6828C8.05208 13.4186 9.81766 14.6179 11.3324 15.2257C12.8647 15.8405 14.0629 15.8229 14.7496 15.2702L15.0582 15.6538ZM5.96816 12.0309C4.20543 10.2682 2.96476 8.45561 2.32417 6.86793C1.69059 5.29763 1.61679 3.87037 2.33033 2.96127L2.71759 3.26523C2.17476 3.95684 2.16407 5.1554 2.78072 6.68372C3.39035 8.19468 4.587 9.95354 6.31627 11.6828L5.96816 12.0309ZM2.29902 3.01328C2.32915 2.9455 2.37167 2.88368 2.42678 2.82856L2.7749 3.17668C2.76126 3.19032 2.75378 3.20225 2.7489 3.21322L2.29902 3.01328ZM2.42767 2.82768L2.48955 2.76643L2.83589 3.11631L2.77401 3.17756L2.42767 2.82768ZM2.48866 2.76731L3.13557 2.1204L3.48369 2.46851L2.83677 3.11542L2.48866 2.76731ZM3.13557 2.1204C3.62297 1.633 4.4126 1.63301 4.90001 2.1204L4.5519 2.46852C4.25674 2.17337 3.77882 2.17338 3.48369 2.46851L3.13557 2.1204ZM4.89997 2.12036L6.31692 3.53668L5.96888 3.88488L4.55193 2.46855L4.89997 2.12036ZM6.31696 3.53672C6.79155 4.01131 6.79938 4.76909 6.35437 5.25835L5.99018 4.92709C6.26147 4.62882 6.25429 4.17028 5.96884 3.88484L6.31696 3.53672ZM6.36446 4.93891C6.36684 4.94188 6.36885 4.9445 6.37014 4.9462C6.37144 4.9479 6.37266 4.94954 6.37327 4.95035C6.37365 4.95085 6.37387 4.95115 6.37408 4.95143C6.37427 4.95168 6.37434 4.95178 6.37434 4.95177C6.37434 4.95177 6.37419 4.95158 6.37394 4.95125C6.37369 4.95093 6.37324 4.95036 6.37264 4.9496L5.98817 5.25709C5.9858 5.25413 5.9838 5.25153 5.98252 5.24984C5.98123 5.24815 5.98001 5.24651 5.97941 5.24571C5.97904 5.24522 5.97881 5.24492 5.97861 5.24465C5.97842 5.2444 5.97835 5.24431 5.97836 5.24432C5.97837 5.24432 5.97852 5.24452 5.97877 5.24486C5.97903 5.24518 5.97948 5.24576 5.98009 5.24653L6.36446 4.93891ZM6.33897 5.29162C6.32315 5.30494 6.30862 5.31439 6.29861 5.32045C6.29363 5.32347 6.2893 5.32592 6.28641 5.32754C6.28496 5.32835 6.28364 5.32908 6.28274 5.32957C6.28165 5.33017 6.28126 5.33039 6.28073 5.33068C6.27844 5.33195 6.2829 5.32959 6.28896 5.32552C6.29574 5.32097 6.30593 5.31343 6.31696 5.3024L5.96884 4.95429C6.00105 4.92209 6.03453 4.90427 6.0421 4.90007C6.0488 4.89636 6.04572 4.89806 6.04362 4.89932C6.04 4.90152 6.03172 4.90675 6.02184 4.91507L6.33897 5.29162ZM6.31696 5.3024C6.21744 5.40192 6.21744 5.56294 6.31696 5.66245L5.96884 6.01057C5.67707 5.7188 5.67707 5.24606 5.96884 4.95429L6.31696 5.3024ZM6.31696 5.66245C6.41647 5.76196 6.57812 5.76196 6.67763 5.66245L7.02574 6.01057C6.73397 6.30234 6.26061 6.30234 5.96884 6.01057L6.31696 5.66245ZM6.67773 5.66235C7.12577 5.21486 7.27605 4.58491 7.1362 4.00677L7.61471 3.89102C7.79238 4.62549 7.60264 5.43437 7.02564 6.01067L6.67773 5.66235ZM7.13609 4.0063C7.10805 3.8894 7.06312 3.7721 7.00672 3.65296L7.45168 3.4423C7.51778 3.58193 7.57661 3.73214 7.61482 3.89149L7.13609 4.0063ZM7.00696 3.65346C6.98342 3.60404 6.96057 3.55927 6.93608 3.51879L7.35731 3.26396C7.39407 3.32473 7.42497 3.38622 7.45144 3.4418L7.00696 3.65346ZM6.93477 3.5166C6.91168 3.47752 6.89031 3.443 6.86801 3.41107L7.27162 3.12917C7.30432 3.17599 7.33295 3.22272 7.35862 3.26615L6.93477 3.5166ZM6.8686 3.41191C6.8068 3.32422 6.74601 3.24631 6.67699 3.17727L7.02512 2.82918C7.12235 2.92642 7.20157 3.02976 7.27103 3.12832L6.8686 3.41191ZM6.67703 3.17732L5.26009 1.76099L5.60812 1.4128L7.02507 2.82913L6.67703 3.17732ZM5.26005 1.76096C4.57365 1.07456 3.46137 1.07455 2.7749 1.76096L2.4268 1.41284C3.30552 0.534186 4.72949 0.534176 5.60816 1.41284L5.26005 1.76096ZM2.7749 1.76096L1.88923 2.64663L1.54112 2.29852L2.42679 1.41284L2.7749 1.76096ZM1.8892 2.64666C1.11595 3.41963 1.03002 4.84001 1.6849 6.63464C2.33272 8.40991 3.67942 10.464 5.60813 12.3928L5.26001 12.7409C3.29356 10.7744 1.90044 8.66143 1.22243 6.8034C0.55147 4.96473 0.553674 3.2856 1.54115 2.29849L1.8892 2.64666ZM5.6081 12.3927C7.53717 14.3212 9.59113 15.6676 11.3662 16.3152C13.1607 16.9699 14.581 16.884 15.3543 16.111L15.7023 16.4592C14.7149 17.4462 13.036 17.4485 11.1975 16.7777C9.33964 16.0998 7.22684 14.7071 5.26004 12.7409L5.6081 12.3927ZM15.3543 16.111L16.2399 15.2253L16.5881 15.5735L15.7024 16.4591L15.3543 16.111ZM16.24 15.2253C16.9263 14.5396 16.9264 13.4261 16.2399 12.7396L16.5881 12.3915C17.4667 13.2701 17.4668 14.6954 16.588 15.5735L16.24 15.2253ZM16.24 12.7396L14.8231 11.3234L15.1712 10.9752L16.588 12.3914L16.24 12.7396Z" fill="#E2E2FF"/>
</g>
</svg>
