<svg width="99" height="105" viewBox="0 0 99 105" fill="none" xmlns="http://www.w3.org/2000/svg">
<path d="M77.4629 73.6067H12.1974C12.1974 64.3901 12.1714 55.1996 12.2911 46.0246C12.1258 40.2259 13.5578 34.4934 16.4306 29.4536C19.3034 24.4138 23.5064 20.2608 28.5802 17.4485C31.4719 15.9754 34.4528 14.684 37.5053 13.5818C36.7873 12.4728 36.3348 11.2131 36.1832 9.90066C36.0316 8.58823 36.1848 7.25851 36.631 6.01498C37.3432 4.34613 38.4336 2.86563 39.816 1.69032C41.2566 0.593785 43.0171 0 44.8276 0C46.638 0 48.3985 0.593785 49.8392 1.69032C53.4405 4.2924 54.117 7.76879 52.1863 13.6131L62.4697 17.9169C59.2982 21.1568 57.112 25.2307 56.1654 29.6645C55.2188 34.0983 55.5507 38.7098 57.1225 42.9624C58.6943 47.2149 61.4414 50.9337 65.0441 53.686C68.6469 56.4384 72.9571 58.111 77.4733 58.5094L77.4629 73.6067ZM9.34035 77.999C8.32259 77.8407 7.28268 78.0752 6.43135 78.6549C5.58002 79.2347 4.98093 80.1165 4.75548 81.1215C4.15795 83.9654 3.80969 86.856 3.71465 89.7604C3.55852 92.7997 4.17782 93.2837 7.28471 93.2837C14.607 93.2837 21.9292 93.3357 29.2515 93.242C31.0938 93.242 32.0513 93.5855 32.7071 95.5527C33.5712 98.106 35.2351 100.313 37.452 101.847C39.6689 103.38 42.3209 104.159 45.0149 104.067C47.6723 104.041 50.2542 103.18 52.3957 101.607C54.5371 100.033 56.1297 97.826 56.9481 95.2977C57.0433 94.6524 57.3903 94.0711 57.9131 93.681C58.4358 93.2909 59.0918 93.1237 59.7375 93.216H59.8364C67.4501 93.3149 75.069 93.216 82.6827 93.2576C84.0982 93.2576 85.6491 93.0547 85.7688 91.4674C86.5087 87.6968 86.0084 83.788 84.3428 80.3253C83.9727 79.5799 83.3902 78.9607 82.6688 78.5458C81.9473 78.1309 81.1192 77.9388 80.2888 77.9938C68.4285 78.1031 56.5682 78.0459 44.7079 78.0459C32.8476 78.0459 21.1278 78.1499 9.31953 77.999H9.34035ZM79.3936 15.4918C74.2798 15.5248 69.3875 17.5837 65.789 21.2174C62.1904 24.851 60.1791 29.7629 60.1956 34.8769C60.2121 39.9908 62.2552 44.8897 65.8772 48.5C69.4991 52.1103 74.4046 54.1375 79.5185 54.1375C84.6325 54.1375 89.538 52.1103 93.1599 48.5C96.7819 44.8897 98.825 39.9908 98.8415 34.8769C98.858 29.7629 96.8467 24.851 93.2481 21.2174C89.6495 17.5837 84.7573 15.5248 79.6435 15.4918H79.3936ZM3.49087 37.5106C3.49087 37.292 2.14299 15.8561 27.5289 6.87367L26.358 3.54821C21.1439 5.10766 16.3258 7.76916 12.2297 11.3525C8.13363 14.9359 4.85527 19.3575 2.61657 24.318C0.762364 28.5575 -0.126426 33.1561 0.0144826 37.7812L3.49087 37.5106Z" fill="#E5E5FF"/>
<path d="M76.5151 44.9278C76.5285 44.2318 76.7468 43.5552 77.1427 42.9826C77.5386 42.4101 78.0947 41.967 78.7412 41.7089C79.3877 41.4508 80.0959 41.3891 80.7773 41.5315C81.4587 41.6739 82.083 42.0141 82.572 42.5096C83.061 43.005 83.393 43.6336 83.5265 44.3168C83.66 45 83.589 45.7074 83.3225 46.3505C83.0559 46.9936 82.6056 47.5437 82.028 47.9322C81.4503 48.3206 80.7709 48.53 80.0748 48.5342C79.6232 48.5509 79.1728 48.4784 78.7494 48.3207C78.3259 48.163 77.9377 47.9234 77.607 47.6154C77.2764 47.3075 77.0097 46.9373 76.8223 46.5261C76.635 46.1149 76.5306 45.6708 76.5151 45.2192V44.9278ZM77.8162 39.3385L76.9055 21.3789H83.1973L82.3178 39.3385H77.8162Z" fill="white"/>
</svg>
