<svg width="15" height="19" viewBox="0 0 15 19" fill="none" xmlns="http://www.w3.org/2000/svg">
<path d="M7.17484 1.66667V1.575H7.08317H3.4165C2.90596 1.575 2.41633 1.77781 2.05532 2.13882C1.69432 2.49983 1.4915 2.98946 1.4915 3.5V15.4167C1.4915 15.9272 1.69432 16.4168 2.05532 16.7778C2.41633 17.1389 2.90596 17.3417 3.4165 17.3417H11.6665C12.177 17.3417 12.6667 17.1389 13.0277 16.7778C13.3887 16.4168 13.5915 15.9272 13.5915 15.4167V8.08333V7.99167H13.4998H9.83317C9.12814 7.99167 8.45198 7.71159 7.95344 7.21306C7.45491 6.71452 7.17484 6.03837 7.17484 5.33333V1.66667ZM13.124 7.25833H13.3453L13.1888 7.10185L8.06466 1.97768L7.90817 1.8212V2.0425V5.33333C7.90817 5.84387 8.11098 6.33351 8.47199 6.69451C8.833 7.05552 9.32263 7.25833 9.83317 7.25833H13.124ZM3.4165 0.841667H7.96187L14.3248 7.20464V15.4167C14.3248 16.1217 14.0448 16.7979 13.5462 17.2964C13.0477 17.7949 12.3715 18.075 11.6665 18.075H3.4165C2.71147 18.075 2.03531 17.7949 1.53678 17.2964C1.03824 16.7979 0.758171 16.1217 0.758171 15.4167V3.5C0.758171 2.79497 1.03824 2.11881 1.53678 1.62027C2.03531 1.12174 2.71147 0.841667 3.4165 0.841667Z" fill="#0101C8" stroke="#E2E2FF" stroke-width="0.183333"/>
</svg>
