<svg width="18" height="18" viewBox="0 0 18 18" fill="none" xmlns="http://www.w3.org/2000/svg">
<g id="Group 3 Copy 2">
<g id="Combined Shape">
<path fill-rule="evenodd" clip-rule="evenodd" d="M9.08772 1C11.1471 1 12.826 2.71369 12.826 4.81811L12.8261 4.81796C12.8261 6.84416 11.2744 8.50718 9.3421 8.63503C9.29044 8.66141 9.23977 8.66141 9.18911 8.66141H9.08777C5.32352 8.66141 2.27162 11.7784 2.27162 15.623C2.27162 15.9863 1.99146 16.2724 1.63581 16.2724C1.28016 16.2724 1 15.9863 1 15.623C1 11.9096 3.39141 8.79248 6.67169 7.72708C5.85806 7.02601 5.34941 5.98699 5.34941 4.81811C5.34941 2.71478 7.02729 1 9.08772 1ZM6.59521 4.82018C6.59521 6.19707 7.68901 7.33957 9.06196 7.33957C10.4349 7.33957 11.5287 6.19606 11.5287 4.82018C11.5287 3.44328 10.4101 2.30078 9.06196 2.30078C7.71384 2.30078 6.59521 3.44328 6.59521 4.82018ZM13.0881 9.6384C12.8201 9.40444 12.7528 8.9662 12.9091 8.61584C13.0881 8.26548 13.4235 8.1776 13.6915 8.38182C15.7488 10.105 17.0001 13.0266 17.0001 16.2702C17.0001 16.6787 16.7538 17.0006 16.4412 17.0006C16.1286 17.0006 15.8077 16.6787 15.8077 16.2702C15.8077 13.5528 14.8319 11.0992 13.0881 9.6384Z" fill="#0101C8"/>
<path d="M12.826 4.81811H12.459L13.1727 4.93878L12.826 4.81811ZM12.8261 4.81796H13.1931L12.4794 4.69729L12.8261 4.81796ZM9.3421 8.63503L9.31786 8.26878L9.24246 8.27377L9.17516 8.30814L9.3421 8.63503ZM6.67169 7.72708L6.78507 8.07617L7.40533 7.87472L6.91128 7.44902L6.67169 7.72708ZM12.9091 8.61584L12.5823 8.44885L12.5779 8.45746L12.5739 8.4663L12.9091 8.61584ZM13.0881 9.6384L12.8467 9.915L12.8524 9.91977L13.0881 9.6384ZM13.6915 8.38182L13.9272 8.10044L13.9207 8.095L13.9139 8.08987L13.6915 8.38182ZM13.1931 4.81811C13.1931 2.51826 11.357 0.632955 9.08772 0.632955V1.36705C10.9372 1.36705 12.459 2.90913 12.459 4.81811H13.1931ZM12.4794 4.69729L12.4794 4.69744L13.1727 4.93878L13.1727 4.93863L12.4794 4.69729ZM9.36633 9.00127C11.4976 8.86026 13.1931 7.03127 13.1931 4.81796H12.459C12.459 6.65705 11.0511 8.1541 9.31786 8.26878L9.36633 9.00127ZM9.18911 9.02845C9.2319 9.02845 9.3684 9.03373 9.50903 8.96192L9.17516 8.30814C9.1842 8.30352 9.19318 8.30011 9.20139 8.29773C9.20941 8.29541 9.21537 8.29446 9.21808 8.29411C9.22051 8.29379 9.22021 8.29398 9.2152 8.29414C9.21274 8.29422 9.20955 8.29429 9.20512 8.29432C9.20053 8.29436 9.19569 8.29436 9.18911 8.29436V9.02845ZM9.08777 9.02845H9.18911V8.29436H9.08777V9.02845ZM2.63867 15.623C2.63867 11.9738 5.5335 9.02845 9.08777 9.02845V8.29436C5.11353 8.29436 1.90458 11.5831 1.90458 15.623H2.63867ZM1.63581 16.6395C2.20144 16.6395 2.63867 16.1816 2.63867 15.623H1.90458C1.90458 15.7909 1.78148 15.9054 1.63581 15.9054V16.6395ZM0.632955 15.623C0.632955 16.1816 1.07018 16.6395 1.63581 16.6395V15.9054C1.49015 15.9054 1.36705 15.7909 1.36705 15.623H0.632955ZM6.55831 7.37798C3.12885 8.49184 0.632955 11.7484 0.632955 15.623H1.36705C1.36705 12.0708 3.65397 9.09312 6.78507 8.07617L6.55831 7.37798ZM4.98236 4.81811C4.98236 6.0962 5.53937 7.23591 6.4321 8.00514L6.91128 7.44902C6.17674 6.8161 5.71645 5.87779 5.71645 4.81811H4.98236ZM9.08772 0.632955C6.81724 0.632955 4.98236 2.51949 4.98236 4.81811H5.71645C5.71645 2.91008 7.23734 1.36705 9.08772 1.36705V0.632955ZM9.06196 6.97252C7.90137 6.97252 6.96226 6.00414 6.96226 4.82018H6.22817C6.22817 6.39001 7.47666 7.70662 9.06196 7.70662V6.97252ZM11.1617 4.82018C11.1617 6.00322 10.2225 6.97252 9.06196 6.97252V7.70662C10.6474 7.70662 11.8957 6.3889 11.8957 4.82018H11.1617ZM9.06196 2.66783C10.2001 2.66783 11.1617 3.63864 11.1617 4.82018H11.8957C11.8957 3.24791 10.6201 1.93374 9.06196 1.93374V2.66783ZM6.96226 4.82018C6.96226 3.63864 7.92382 2.66783 9.06196 2.66783V1.93374C7.50385 1.93374 6.22817 3.24791 6.22817 4.82018H6.96226ZM12.5739 8.4663C12.3647 8.93528 12.4352 9.55572 12.8468 9.91494L13.3295 9.36187C13.2049 9.25316 13.141 8.99712 13.2443 8.76539L12.5739 8.4663ZM13.9139 8.08987C13.6966 7.9243 13.4271 7.86277 13.1653 7.93816C12.9087 8.01208 12.7079 8.20301 12.5823 8.44885L13.236 8.78284C13.2894 8.67831 13.3458 8.65012 13.3685 8.64357C13.3862 8.63848 13.4183 8.63513 13.469 8.67378L13.9139 8.08987ZM17.3671 16.2702C17.3671 12.9391 16.0827 9.90585 13.9272 8.10044L13.4558 8.66321C15.4149 10.3041 16.633 13.1141 16.633 16.2702H17.3671ZM16.4412 17.3676C17.0418 17.3676 17.3671 16.7841 17.3671 16.2702H16.633C16.633 16.4031 16.5926 16.5051 16.5464 16.5655C16.5013 16.6245 16.4621 16.6335 16.4412 16.6335V17.3676ZM15.4407 16.2702C15.4407 16.8469 15.893 17.3676 16.4412 17.3676V16.6335C16.4097 16.6335 16.3445 16.614 16.2791 16.542C16.217 16.4735 16.1748 16.3774 16.1748 16.2702H15.4407ZM12.8524 9.91977C14.4932 11.2943 15.4407 13.6327 15.4407 16.2702H16.1748C16.1748 13.4729 15.1706 10.9041 13.3238 9.35704L12.8524 9.91977Z" fill="#E2E2FF"/>
</g>
</g>
</svg>
