<svg width="17" height="20" viewBox="0 0 17 20" fill="none" xmlns="http://www.w3.org/2000/svg">
<g id="history">
<path fill-rule="evenodd" clip-rule="evenodd" d="M16.2306 14.5003V16.4289C16.2294 17.8477 15.0931 18.9988 13.6926 19H7.09709C6.74608 19 6.4617 18.7119 6.4617 18.3575C6.4617 18.002 6.74608 17.7139 7.09709 17.7139H13.6926C14.3923 17.7139 14.961 17.1377 14.961 16.4289V15.1428H6.07727V16.4289C6.07727 17.8489 4.94091 19 3.53804 19C2.13633 19 1 17.8488 1 16.4289V1.64246C1 1.28689 1.28438 1 1.63421 1H13.6926C13.8604 1 14.0222 1.0675 14.1413 1.18804C14.2603 1.30858 14.3269 1.47251 14.3269 1.64249V4.21356C14.3269 4.56914 14.0425 4.85722 13.6927 4.85722C13.3417 4.85722 13.0573 4.56914 13.0573 4.21356V2.28495H2.26969V16.4289C2.26969 17.1389 2.83727 17.7139 3.53813 17.7139C4.23898 17.7139 4.80776 17.1389 4.80776 16.4289V14.5003C4.80776 14.1448 5.09214 13.8567 5.44196 13.8567H13.0573V6.81954C13.0573 6.46517 13.3417 6.17708 13.6927 6.17708C14.0425 6.17708 14.3269 6.46516 14.3269 6.81954V13.8567H15.5965C15.7643 13.8567 15.9261 13.9254 16.0451 14.0459C16.1641 14.1665 16.2308 14.3292 16.2308 14.5004L16.2306 14.5003ZM10.7613 3.76953H5.77806C5.43348 3.76953 5.1543 4.07968 5.1543 4.46119C5.1543 4.844 5.43348 5.15415 5.77806 5.15415H10.7613C11.1059 5.15415 11.3851 4.844 11.3851 4.46119C11.3851 4.07968 11.1059 3.76953 10.7613 3.76953H10.7613ZM4.40883 6.19141H11.437C11.7904 6.19141 12.0767 6.50156 12.0767 6.88436C12.0767 7.26587 11.7904 7.57602 11.437 7.57602H4.40883C4.05539 7.57602 3.76904 7.26587 3.76904 6.88436C3.76904 6.50155 4.05539 6.19141 4.40883 6.19141ZM11.437 8.61328L4.40883 8.61458C4.05539 8.61458 3.76904 8.92343 3.76904 9.30624C3.76904 9.68905 4.05539 9.9979 4.40883 9.9979H11.437C11.7904 9.9979 12.0767 9.68905 12.0767 9.30624C12.0767 8.92343 11.7904 8.61458 11.437 8.61458V8.61328ZM4.40883 11.0404L11.437 11.0391V11.0404C11.7904 11.0404 12.0767 11.3502 12.0767 11.7314C12.0767 12.1138 11.7904 12.4237 11.437 12.4237H4.40883C4.05539 12.4237 3.76904 12.1138 3.76904 11.7314C3.76904 11.3502 4.05539 11.0404 4.40883 11.0404Z" fill="#0101C8"/>
<path d="M16.2306 16.4289L16.5768 16.4292V16.4289H16.2306ZM16.2306 14.5003L16.3461 14.174L15.8845 14.0107V14.5003H16.2306ZM13.6926 19L13.6926 19.3462L13.6929 19.3462L13.6926 19ZM14.961 15.1428H15.3072V14.7966H14.961V15.1428ZM6.07727 15.1428V14.7966H5.73112V15.1428H6.07727ZM14.1413 1.18804L14.3876 0.94484L14.3876 0.944839L14.1413 1.18804ZM13.0573 2.28495H13.4034V1.93879H13.0573V2.28495ZM2.26969 2.28495V1.93879H1.92353V2.28495H2.26969ZM13.0573 13.8567V14.2028H13.4035V13.8567H13.0573ZM14.3269 13.8567H13.9808V14.2028H14.3269V13.8567ZM16.0451 14.0459L16.2915 13.8027L16.2915 13.8027L16.0451 14.0459ZM16.2308 14.5004L16.1153 14.8267L16.5769 14.99V14.5004H16.2308ZM4.40883 8.61458L4.40883 8.96073L4.40889 8.96073L4.40883 8.61458ZM11.437 8.61328H11.7831V8.26706L11.4369 8.26713L11.437 8.61328ZM11.437 8.61458H11.0908V8.96073H11.437V8.61458ZM11.437 11.0391H11.7831V10.6928L11.4369 10.6929L11.437 11.0391ZM4.40883 11.0404L4.40883 11.3865L4.40889 11.3865L4.40883 11.0404ZM11.437 11.0404H11.0908V11.3865H11.437V11.0404ZM16.5768 16.4289V14.5003H15.8845V16.4289H16.5768ZM13.6929 19.3462C15.2885 19.3448 16.5754 18.0347 16.5768 16.4292L15.8845 16.4286C15.8834 17.6607 14.8976 18.6528 13.6923 18.6538L13.6929 19.3462ZM7.09709 19.3462H13.6926V18.6538H7.09709V19.3462ZM6.11554 18.3575C6.11554 18.8993 6.55112 19.3462 7.09709 19.3462V18.6538C6.94104 18.6538 6.80785 18.5245 6.80785 18.3575H6.11554ZM7.09709 17.3677C6.5507 17.3677 6.11554 17.815 6.11554 18.3575H6.80785C6.80785 18.1889 6.94146 18.06 7.09709 18.06V17.3677ZM13.6926 17.3677H7.09709V18.06H13.6926V17.3677ZM14.6149 16.4289C14.6149 16.9508 14.1969 17.3677 13.6926 17.3677V18.06C14.5876 18.06 15.3072 17.3246 15.3072 16.4289H14.6149ZM14.6149 15.1428V16.4289H15.3072V15.1428H14.6149ZM6.07727 15.4889H14.961V14.7966H6.07727V15.4889ZM6.42343 16.4289V15.1428H5.73112V16.4289H6.42343ZM3.53804 19.3462C5.13619 19.3462 6.42343 18.0359 6.42343 16.4289H5.73112C5.73112 17.6618 4.74564 18.6538 3.53804 18.6538V19.3462ZM0.653846 16.4289C0.653846 18.0358 1.94095 19.3462 3.53804 19.3462V18.6538C2.33172 18.6538 1.34615 17.6619 1.34615 16.4289H0.653846ZM0.653846 1.64246V16.4289H1.34615V1.64246H0.653846ZM1.63421 0.653846C1.08942 0.653846 0.653846 1.09952 0.653846 1.64246H1.34615C1.34615 1.47425 1.47935 1.34615 1.63421 1.34615V0.653846ZM13.6926 0.653846H1.63421V1.34615H13.6926V0.653846ZM14.3876 0.944839C14.2037 0.758632 13.9533 0.653846 13.6926 0.653846V1.34615C13.7676 1.34615 13.8408 1.37637 13.8949 1.43124L14.3876 0.944839ZM14.673 1.64249C14.673 1.38258 14.5713 1.13095 14.3876 0.94484L13.8949 1.43124C13.9492 1.48622 13.9807 1.56245 13.9807 1.64249H14.673ZM14.673 4.21356V1.64249H13.9807V4.21356H14.673ZM13.6927 5.20338C14.2383 5.20338 14.673 4.75565 14.673 4.21356H13.9807C13.9807 4.38262 13.8467 4.51107 13.6927 4.51107V5.20338ZM12.7111 4.21356C12.7111 4.75608 13.1463 5.20338 13.6927 5.20338V4.51107C13.537 4.51107 13.4034 4.3822 13.4034 4.21356H12.7111ZM12.7111 2.28495V4.21356H13.4034V2.28495H12.7111ZM2.26969 2.6311H13.0573V1.93879H2.26969V2.6311ZM2.61584 16.4289V2.28495H1.92353V16.4289H2.61584ZM3.53813 17.3677C3.03265 17.3677 2.61584 16.952 2.61584 16.4289H1.92353C1.92353 17.3259 2.64189 18.0601 3.53813 18.0601V17.3677ZM4.4616 16.4289C4.4616 16.9516 4.04402 17.3677 3.53813 17.3677V18.0601C4.43395 18.0601 5.15391 17.3263 5.15391 16.4289H4.4616ZM4.4616 14.5003V16.4289H5.15391V14.5003H4.4616ZM5.44196 13.5105C4.89634 13.5105 4.4616 13.9582 4.4616 14.5003H5.15391C5.15391 14.3313 5.28794 14.2028 5.44196 14.2028V13.5105ZM13.0573 13.5105H5.44196V14.2028H13.0573V13.5105ZM12.7112 6.81954V13.8567H13.4035V6.81954H12.7112ZM13.6927 5.83092C13.1467 5.83092 12.7112 6.2778 12.7112 6.81954H13.4035C13.4035 6.65253 13.5367 6.52323 13.6927 6.52323V5.83092ZM14.6731 6.81954C14.6731 6.27822 14.2379 5.83092 13.6927 5.83092V6.52323C13.8471 6.52323 13.9808 6.65211 13.9808 6.81954H14.6731ZM14.6731 13.8567V6.81954H13.9808V13.8567H14.6731ZM15.5965 13.5105H14.3269V14.2028H15.5965V13.5105ZM16.2915 13.8027C16.1088 13.6177 15.8588 13.5105 15.5965 13.5105V14.2028C15.6698 14.2028 15.7435 14.233 15.7988 14.2891L16.2915 13.8027ZM16.5769 14.5004C16.5769 14.2389 16.4749 13.9886 16.2915 13.8027L15.7988 14.2891C15.8533 14.3443 15.8846 14.4195 15.8846 14.5004H16.5769ZM16.1152 14.8266L16.1153 14.8267L16.3462 14.174L16.3461 14.174L16.1152 14.8266ZM5.77806 4.11569H10.7613V3.42338H5.77806V4.11569ZM5.50045 4.46119C5.50045 4.23615 5.65761 4.11569 5.77806 4.11569V3.42338C5.20935 3.42338 4.80814 3.92321 4.80814 4.46119H5.50045ZM5.77806 4.80799C5.658 4.80799 5.50045 4.68797 5.50045 4.46119H4.80814C4.80814 5.00002 5.20895 5.5003 5.77806 5.5003V4.80799ZM10.7613 4.80799H5.77806V5.5003H10.7613V4.80799ZM11.0389 4.46119C11.0389 4.68797 10.8814 4.80799 10.7613 4.80799V5.5003C11.3304 5.5003 11.7312 5.00003 11.7312 4.46119H11.0389ZM10.7613 4.11569C10.8818 4.11569 11.0389 4.23615 11.0389 4.46119H11.7312C11.7312 3.92322 11.33 3.42338 10.7613 3.42338V4.11569ZM10.7613 4.11569H10.7613V3.42338H10.7613V4.11569ZM11.437 5.84525H4.40883V6.53756H11.437V5.84525ZM12.4229 6.88436C12.4229 6.33692 12.0071 5.84525 11.437 5.84525V6.53756C11.5737 6.53756 11.7306 6.66619 11.7306 6.88436H12.4229ZM11.437 7.92218C12.0067 7.92218 12.4229 7.43095 12.4229 6.88436H11.7306C11.7306 7.1008 11.5741 7.22987 11.437 7.22987V7.92218ZM4.40883 7.92218H11.437V7.22987H4.40883V7.92218ZM3.42289 6.88436C3.42289 7.43094 3.83912 7.92218 4.40883 7.92218V7.22987C4.27167 7.22987 4.1152 7.1008 4.1152 6.88436H3.42289ZM4.40883 5.84525C3.83872 5.84525 3.42289 6.33692 3.42289 6.88436H4.1152C4.1152 6.66619 4.27207 6.53756 4.40883 6.53756V5.84525ZM4.40889 8.96073L11.437 8.95944L11.4369 8.26713L4.40876 8.26843L4.40889 8.96073ZM4.1152 9.30624C4.1152 9.08894 4.27126 8.96073 4.40883 8.96073V8.26843C3.83953 8.26843 3.42289 8.75792 3.42289 9.30624H4.1152ZM4.40883 9.65174C4.27126 9.65174 4.1152 9.52354 4.1152 9.30624H3.42289C3.42289 9.85456 3.83952 10.3441 4.40883 10.3441V9.65174ZM11.437 9.65174H4.40883V10.3441H11.437V9.65174ZM11.7306 9.30624C11.7306 9.52353 11.5745 9.65174 11.437 9.65174V10.3441C12.0063 10.3441 12.4229 9.85456 12.4229 9.30624H11.7306ZM11.437 8.96073C11.5745 8.96073 11.7306 9.08894 11.7306 9.30624H12.4229C12.4229 8.75792 12.0063 8.26843 11.437 8.26843V8.96073ZM11.0908 8.61328V8.61458H11.7831V8.61328H11.0908ZM11.4369 10.6929L4.40876 10.6942L4.40889 11.3865L11.437 11.3852L11.4369 10.6929ZM11.7831 11.0404V11.0391H11.0908V11.0404H11.7831ZM12.4229 11.7314C12.4229 11.1848 12.0064 10.6942 11.437 10.6942V11.3865C11.5744 11.3865 11.7306 11.5156 11.7306 11.7314H12.4229ZM11.437 12.7698C12.0068 12.7698 12.4229 12.2788 12.4229 11.7314H11.7306C11.7306 11.9489 11.574 12.0775 11.437 12.0775V12.7698ZM4.40883 12.7698H11.437V12.0775H4.40883V12.7698ZM3.42289 11.7314C3.42289 12.2788 3.83901 12.7698 4.40883 12.7698V12.0775C4.27178 12.0775 4.1152 11.9489 4.1152 11.7314H3.42289ZM4.40883 10.6942C3.83941 10.6942 3.42289 11.1848 3.42289 11.7314H4.1152C4.1152 11.5156 4.27137 11.3865 4.40883 11.3865V10.6942Z" fill="#E2E2FF"/>
</g>
</svg>
