<svg width="18" height="18" viewBox="0 0 18 18" fill="none" xmlns="http://www.w3.org/2000/svg">
<g id="Group 3 Copy">
<g id="Combined Shape">
<path fill-rule="evenodd" clip-rule="evenodd" d="M2.66845 15.8571H9.8984C10.2057 15.8571 10.4545 16.1129 10.4545 16.4286C10.4545 16.7443 10.2057 17 9.8984 17H2.66845C1.74732 17 1 16.2321 1 15.2857V2.71429C1 1.76785 1.74732 1 2.66845 1H9.8984C10.2057 1 10.4545 1.25571 10.4545 1.57143C10.4545 1.88715 10.2057 2.14286 9.8984 2.14286H2.66845C2.36117 2.14286 2.1123 2.39856 2.1123 2.71429V15.2857C2.1123 15.6014 2.36117 15.8571 2.66845 15.8571ZM12.9587 4.77898L16.8364 8.91532L16.8364 8.9152C17.0524 9.14417 17.0552 9.51643 16.8419 9.74837L12.9642 13.8847C12.8638 14.0095 12.719 14.0841 12.5646 14.0908C12.4109 14.0974 12.2606 14.0346 12.1519 13.9179C12.0425 13.802 11.9837 13.6417 11.9899 13.4777C11.9961 13.313 12.0661 13.1586 12.1831 13.0515L15.1135 9.92568H5.91773C5.61166 9.92568 5.36377 9.66126 5.36377 9.33478C5.36377 9.00829 5.61166 8.74387 5.91773 8.74387H15.108L12.1776 5.61216C11.9892 5.37801 12.0017 5.02789 12.2067 4.81C12.4109 4.59136 12.7392 4.57807 12.9587 4.77898Z" fill="#0101C8"/>
<path d="M16.8364 8.91532L16.6772 9.06455L17.0425 8.84359L16.8364 8.91532ZM12.9587 4.77898L13.1178 4.62975L13.1121 4.62366L13.106 4.61803L12.9587 4.77898ZM16.8364 8.9152L16.995 8.76546L16.6303 8.98693L16.8364 8.9152ZM16.8419 9.74837L17.0011 9.89759L17.0025 9.89604L16.8419 9.74837ZM12.9642 13.8847L12.805 13.7355L12.7993 13.7415L12.7942 13.748L12.9642 13.8847ZM12.5646 14.0908L12.5552 13.8728L12.5552 13.8728L12.5646 14.0908ZM12.1519 13.9179L12.3116 13.7692L12.3106 13.7682L12.1519 13.9179ZM11.9899 13.4777L12.2079 13.486L12.2079 13.486L11.9899 13.4777ZM12.1831 13.0515L12.3304 13.2125L12.3365 13.2068L12.3423 13.2008L12.1831 13.0515ZM15.1135 9.92568L15.2727 10.0749L15.6171 9.7075H15.1135V9.92568ZM15.108 8.74387V8.96205H15.611L15.2673 8.5948L15.108 8.74387ZM12.1776 5.61216L12.0076 5.74891L12.0127 5.75527L12.0183 5.76123L12.1776 5.61216ZM12.2067 4.81L12.3656 4.95949L12.3661 4.95895L12.2067 4.81ZM9.8984 15.639H2.66845V16.0753H9.8984V15.639ZM10.6727 16.4286C10.6727 15.998 10.3317 15.639 9.8984 15.639V16.0753C10.0796 16.0753 10.2364 16.2277 10.2364 16.4286H10.6727ZM9.8984 17.2182C10.3317 17.2182 10.6727 16.8592 10.6727 16.4286H10.2364C10.2364 16.6294 10.0796 16.7818 9.8984 16.7818V17.2182ZM2.66845 17.2182H9.8984V16.7818H2.66845V17.2182ZM0.781818 15.2857C0.781818 16.347 1.62129 17.2182 2.66845 17.2182V16.7818C1.87336 16.7818 1.21818 16.1173 1.21818 15.2857H0.781818ZM0.781818 2.71429V15.2857H1.21818V2.71429H0.781818ZM2.66845 0.781818C1.62129 0.781818 0.781818 1.65297 0.781818 2.71429H1.21818C1.21818 1.88274 1.87336 1.21818 2.66845 1.21818V0.781818ZM9.8984 0.781818H2.66845V1.21818H9.8984V0.781818ZM10.6727 1.57143C10.6727 1.14082 10.3317 0.781818 9.8984 0.781818V1.21818C10.0796 1.21818 10.2364 1.37059 10.2364 1.57143H10.6727ZM9.8984 2.36104C10.3317 2.36104 10.6727 2.00204 10.6727 1.57143H10.2364C10.2364 1.77226 10.0796 1.92468 9.8984 1.92468V2.36104ZM2.66845 2.36104H9.8984V1.92468H2.66845V2.36104ZM2.33048 2.71429C2.33048 2.51345 2.4872 2.36104 2.66845 2.36104V1.92468C2.23514 1.92468 1.89412 2.28368 1.89412 2.71429H2.33048ZM2.33048 15.2857V2.71429H1.89412V15.2857H2.33048ZM2.66845 15.639C2.48721 15.639 2.33048 15.4865 2.33048 15.2857H1.89412C1.89412 15.7163 2.23513 16.0753 2.66845 16.0753V15.639ZM16.9956 8.7661L13.1178 4.62975L12.7995 4.9282L16.6772 9.06455L16.9956 8.7661ZM16.6303 8.98693L16.6303 8.98706L17.0425 8.84359L17.0424 8.84346L16.6303 8.98693ZM17.0025 9.89604C17.2934 9.57969 17.2895 9.07758 16.995 8.76546L16.6777 9.06493C16.8153 9.21075 16.8169 9.45316 16.6813 9.60069L17.0025 9.89604ZM13.1233 14.0339L17.0011 9.89759L16.6827 9.59914L12.805 13.7355L13.1233 14.0339ZM12.574 14.3088C12.7937 14.2993 12.996 14.1932 13.1342 14.0215L12.7942 13.748C12.7315 13.8258 12.6444 13.869 12.5552 13.8728L12.574 14.3088ZM11.9923 14.0667C12.1428 14.2283 12.3541 14.3183 12.574 14.3088L12.5552 13.8728C12.4677 13.8766 12.3784 13.841 12.3116 13.7692L11.9923 14.0667ZM11.7719 13.4694C11.7635 13.6898 11.8422 13.9076 11.9932 14.0677L12.3106 13.7682C12.2428 13.6963 12.2038 13.5936 12.2079 13.486L11.7719 13.4694ZM12.0358 12.8906C11.8738 13.0388 11.7802 13.2491 11.7719 13.4695L12.2079 13.486C12.212 13.377 12.2583 13.2785 12.3304 13.2125L12.0358 12.8906ZM14.9543 9.77646L12.0239 12.9023L12.3423 13.2008L15.2727 10.0749L14.9543 9.77646ZM5.91773 10.1439H15.1135V9.7075H5.91773V10.1439ZM5.14559 9.33478C5.14559 9.76827 5.47811 10.1439 5.91773 10.1439V9.7075C5.74521 9.7075 5.58195 9.55424 5.58195 9.33478H5.14559ZM5.91773 8.52569C5.47811 8.52569 5.14559 8.90128 5.14559 9.33478H5.58195C5.58195 9.11531 5.74521 8.96205 5.91773 8.96205V8.52569ZM15.108 8.52569H5.91773V8.96205H15.108V8.52569ZM12.0183 5.76123L14.9487 8.89294L15.2673 8.5948L12.3369 5.46308L12.0183 5.76123ZM12.0477 4.66051C11.7675 4.95843 11.7516 5.43074 12.0076 5.74891L12.3476 5.4754C12.2268 5.32527 12.2359 5.09734 12.3656 4.95949L12.0477 4.66051ZM13.106 4.61803C12.7976 4.33582 12.3327 4.35558 12.0472 4.66104L12.3661 4.95895C12.4892 4.82715 12.6807 4.82031 12.8114 4.93992L13.106 4.61803Z" fill="#E2E2FF"/>
</g>
</g>
</svg>
