<svg width="24" height="24" viewBox="0 0 24 24" fill="none" xmlns="http://www.w3.org/2000/svg">
<path d="M18.1302 19.82C18.4102 19.77 18.5902 19.51 18.5402 19.24L18.1302 19.82ZM18.1302 19.82C17.5602 19.93 17.0602 19.94 16.9202 19.94C15.7302 19.94 14.6802 19.64 13.8202 19.05L18.1302 19.82ZM17.6298 4.32318L17.6299 4.32309L17.6261 4.32112C15.6931 3.32445 14.0175 2.9 12.0102 2.9C10.0141 2.9 8.11751 3.37393 6.39233 4.32222C6.20275 4.42472 5.96209 4.35562 5.84758 4.16127C5.7983 4.0678 5.78739 3.95877 5.81721 3.85735C5.84717 3.75549 5.91584 3.66943 6.00848 3.61759C7.85362 2.61577 9.87703 2.1 12.0102 2.1C14.123 2.1 15.9673 2.56557 17.9943 3.60881C18.195 3.7133 18.2654 3.95199 18.1623 4.14237L18.1622 4.1423L18.1599 4.14714C18.1284 4.21349 18.0788 4.26961 18.0169 4.30904C17.955 4.34841 17.8833 4.36954 17.8099 4.37C17.7465 4.36995 17.6838 4.35402 17.6298 4.32318ZM3.50023 9.62L3.4993 9.62C3.4256 9.62069 3.35314 9.60095 3.28997 9.56296C3.2268 9.52498 3.17539 9.47024 3.14144 9.40482C3.10748 9.3394 3.09231 9.26585 3.09762 9.19233C3.10292 9.11881 3.12848 9.0482 3.17147 8.98832L3.17188 8.98774C4.15278 7.60061 5.40054 6.51145 6.8859 5.74896L6.88608 5.74887C9.99746 4.14364 13.9833 4.13376 17.1045 5.73893L17.1046 5.73896C18.5902 6.50161 19.838 7.58096 20.8188 8.95801L20.8188 8.9581C20.8495 9.0011 20.8714 9.04974 20.8832 9.10124C20.895 9.15273 20.8965 9.20605 20.8876 9.25811C20.8786 9.31018 20.8595 9.35996 20.8312 9.40458C20.803 9.44917 20.7662 9.48773 20.7229 9.51804C20.5366 9.64752 20.2896 9.60583 20.1623 9.42289L20.1619 9.42227C19.2765 8.16979 18.101 7.15032 16.7358 6.451L16.6902 6.54L16.7358 6.451C13.8373 4.96639 10.1333 4.96625 7.24447 6.46109C5.8698 7.16864 4.71776 8.17941 3.80886 9.45188L3.80844 9.45158L3.80341 9.46039C3.74469 9.56314 3.63196 9.62 3.50023 9.62ZM9.75023 21.69L9.74901 21.69C9.69739 21.6906 9.64621 21.6805 9.59875 21.6601C9.5513 21.6398 9.50863 21.6097 9.47348 21.5719L9.47353 21.5719L9.47094 21.5693C8.60617 20.7045 8.14234 20.1518 7.47772 18.9516L7.47745 18.9511C6.79705 17.7382 6.44023 16.2555 6.44023 14.66C6.44023 11.7498 8.93081 9.37 12.0002 9.37C15.0697 9.37 17.5602 11.7498 17.5602 14.66C17.5602 14.8848 17.385 15.06 17.1602 15.06C16.9355 15.06 16.7602 14.8848 16.7602 14.66C16.7602 12.1792 14.6198 10.17 12.0002 10.17C9.3807 10.17 7.24023 12.1792 7.24023 14.66C7.24023 16.1142 7.56332 17.4617 8.18304 18.559C8.82855 19.7188 9.27492 20.216 10.0484 20.9996C10.2002 21.1601 10.2008 21.4072 10.0502 21.5685C9.95803 21.6512 9.85271 21.69 9.75023 21.69ZM13.8768 18.9675L13.8763 18.9672C12.4126 17.975 11.5402 16.3654 11.5402 14.66C11.5402 14.4352 11.7155 14.26 11.9402 14.26C12.165 14.26 12.3402 14.4352 12.3402 14.66C12.3402 16.1045 13.0778 17.465 14.3242 18.3028C15.0536 18.7959 15.9039 19.03 16.9202 19.03C17.1665 19.03 17.5722 18.9994 17.9775 18.9285L17.9784 18.9283C18.1926 18.8887 18.4013 19.0309 18.4418 19.2576L18.4419 19.2582C18.4816 19.4724 18.3393 19.6811 18.1127 19.7215L18.1113 19.7218C17.5498 19.8302 17.0567 19.84 16.9202 19.84C15.7473 19.84 14.7178 19.5445 13.8768 18.9675ZM8.99023 14.6604V14.66C8.99023 13.0995 10.3211 11.82 11.9702 11.82C13.6194 11.82 14.9502 13.0995 14.9502 14.66C14.9502 15.7916 15.9316 16.7 17.1302 16.7C18.3289 16.7 19.3102 15.7916 19.3102 14.66C19.3102 10.8292 16.0097 7.73 11.9602 7.73C9.08424 7.73 6.44774 9.32989 5.26006 11.8168C4.86264 12.6423 4.66023 13.6074 4.66023 14.66C4.66023 15.448 4.73117 16.6906 5.3366 18.3051L5.3369 18.3059C5.41736 18.5151 5.31209 18.7447 5.10752 18.8155L5.1075 18.8154L5.10434 18.8167C4.89739 18.8963 4.66559 18.7841 4.59432 18.5861L4.59434 18.5861L4.59366 18.5843C4.11528 17.3313 3.8701 16.0013 3.87023 14.66C3.87023 13.4729 4.09773 12.3978 4.54056 11.4629C5.85311 8.70964 8.76673 6.92 11.9602 6.92C16.46 6.92 20.1102 10.3901 20.1102 14.65C20.1102 16.2105 18.7794 17.49 17.1302 17.49C15.4811 17.49 14.1502 16.2105 14.1502 14.65C14.1502 13.5184 13.1689 12.61 11.9702 12.61C10.7716 12.61 9.79023 13.5184 9.79023 14.65C9.79023 16.3863 10.4607 18.012 11.6898 19.231L11.6899 19.2311C12.6529 20.184 13.5783 20.7122 15.0036 21.1064L15.0051 21.1068C15.2186 21.1621 15.34 21.3849 15.2837 21.594L15.2836 21.594L15.2825 21.5988C15.2431 21.7801 15.076 21.9 14.9102 21.9C14.8834 21.9 14.8439 21.8928 14.8057 21.8833C13.2317 21.4476 12.2072 20.8657 11.1305 19.8089C10.4494 19.1361 9.90927 18.3342 9.54177 17.4502C9.17428 16.5662 8.98677 15.6177 8.99023 14.6604Z" fill="#0101C8" stroke="#E2E2FF" stroke-width="0.2"/>
</svg>
