<svg width="16" height="16" viewBox="0 0 16 16" fill="none" xmlns="http://www.w3.org/2000/svg">
<path d="M13.4655 2.58715L13.4655 2.58718L13.4686 2.58991C14.1914 3.21994 14.7727 3.9957 15.1745 4.86628C15.5762 5.73653 15.7893 6.68185 15.8 7.64024C15.7999 7.69622 15.7886 7.75162 15.7668 7.80317C15.7448 7.85503 15.7127 7.90195 15.6722 7.94113C15.6318 7.98032 15.5839 8.01096 15.5313 8.03126C15.4788 8.05155 15.4227 8.06107 15.3665 8.05925L15.3665 8.05915L15.36 8.05915C15.2471 8.05916 15.1388 8.0148 15.0583 7.93563C14.9782 7.85678 14.9321 7.74972 14.93 7.63737C14.9289 4.19963 11.7408 1.33915 8 1.33913L7.99764 1.33916C6.87228 1.35242 5.76391 1.61546 4.75259 2.10926C4.65034 2.15859 4.53274 2.16548 4.42543 2.12843C4.31799 2.09134 4.22961 2.01322 4.1796 1.91116L4.17982 1.91105L4.17511 1.90252C4.14672 1.85108 4.12945 1.79426 4.1244 1.73572C4.11935 1.67718 4.12663 1.61824 4.14579 1.5627C4.16494 1.50715 4.19553 1.45624 4.23559 1.41326C4.27565 1.37028 4.32428 1.33618 4.37834 1.31317L4.37842 1.31336L4.38669 1.30938C5.51382 0.767245 6.7489 0.486849 7.99963 0.489152L8.00091 0.489146C10.0208 0.479946 11.9707 1.22857 13.4655 2.58715ZM1.04005 7.63485L1.04 7.63485V7.63915C1.04 7.6943 1.02914 7.74892 1.00803 7.79988C0.986922 7.85083 0.955985 7.89713 0.916985 7.93613C0.877984 7.97513 0.831683 8.00607 0.780727 8.02718C0.730264 8.04808 0.676216 8.05894 0.621605 8.05915C0.509321 8.05695 0.402325 8.01092 0.323521 7.93084C0.244763 7.85081 0.200448 7.74317 0.200003 7.63093C0.227013 6.26255 0.66332 4.93361 1.45268 3.8155C1.51904 3.72414 1.618 3.66178 1.72908 3.64135C1.84005 3.62094 1.95461 3.64395 2.04908 3.70558C2.09481 3.73672 2.13394 3.77659 2.16422 3.82291C2.19475 3.8696 2.21567 3.9219 2.22576 3.97677C2.23585 4.03163 2.23491 4.08796 2.22299 4.14246C2.21115 4.19662 2.1887 4.24789 2.15694 4.29333C1.45528 5.26858 1.06585 6.43368 1.04005 7.63485ZM7.98667 5.6087L7.99771 5.60944L8.00877 5.60896C8.60535 5.58277 9.1935 5.75733 9.6792 6.10474C10.1625 6.45046 10.5167 6.94748 10.6856 7.51704C10.9115 8.65524 10.9507 9.82263 10.8017 10.9735L10.8015 10.9735L10.8009 10.9805C10.6869 12.1939 10.4487 13.3924 10.0898 14.5572C10.0612 14.6394 10.0077 14.7108 9.93671 14.7613C9.865 14.8124 9.77905 14.8396 9.69101 14.8392L9.67732 14.8391L9.66375 14.8409C9.61884 14.8468 9.57343 14.8477 9.52838 14.8434C9.43104 14.8025 9.35186 14.7272 9.30636 14.6314C9.25808 14.5297 9.25157 14.4133 9.28818 14.3069C9.57302 13.544 9.7942 12.1546 9.90429 10.8535C9.95968 10.1989 9.98759 9.55903 9.98061 9.02217C9.9738 8.49892 9.93398 8.04692 9.84077 7.77879C9.72806 7.38245 9.48416 7.03602 9.14889 6.79625C8.81537 6.55773 8.41119 6.43889 8.00189 6.45878C7.4745 6.42299 6.95375 6.59434 6.55055 6.93669L6.54406 6.9422L6.53806 6.94824C6.49902 6.98757 6.45259 7.01878 6.40143 7.04008C6.35028 7.06138 6.29541 7.07234 6.24 7.07234C6.18459 7.07234 6.12972 7.06138 6.07857 7.04008C6.02741 7.01878 5.98098 6.98757 5.94194 6.94824L5.94198 6.9482L5.93852 6.94489C5.89867 6.90662 5.86697 6.8607 5.84531 6.80988C5.82366 6.75906 5.81249 6.70439 5.81249 6.64915C5.81249 6.59391 5.82366 6.53923 5.84531 6.48841C5.86697 6.43759 5.89867 6.39167 5.93852 6.35341C6.2094 6.09379 6.53143 5.89348 6.88404 5.76526C7.23671 5.63702 7.61224 5.5837 7.98667 5.6087ZM5.69567 8.53853L5.69568 8.53858L5.7002 8.53813C5.7554 8.53252 5.81116 8.53791 5.86427 8.55399C5.91738 8.57006 5.96678 8.5965 6.00961 8.63177C6.05244 8.66704 6.08786 8.71045 6.11381 8.75949C6.13921 8.80747 6.15506 8.85991 6.1605 8.91389C6.25483 10.7395 5.92006 12.5618 5.1831 14.2346C5.1469 14.2896 5.09796 14.3351 5.04037 14.3672C4.97947 14.4012 4.91092 14.4191 4.8412 14.4191C4.76026 14.4181 4.68154 14.3926 4.61544 14.3458L4.61552 14.3457L4.6091 14.3415C4.56275 14.3114 4.52282 14.2723 4.49159 14.2267C4.46036 14.1811 4.43845 14.1297 4.42712 14.0756C4.41579 14.0214 4.41526 13.9656 4.42557 13.9113C4.43587 13.8569 4.45681 13.8052 4.48717 13.7589L4.49811 13.7423L4.50556 13.7238C5.10966 12.2217 5.38393 10.6073 5.30979 8.98999L5.30984 8.98999L5.30954 8.98563C5.30207 8.87528 5.33842 8.76643 5.41072 8.68272C5.48301 8.59901 5.58541 8.5472 5.69567 8.53853Z" fill="#0101C8" stroke="#E2E2FF" stroke-width="0.4"/>
</svg>
