<svg width="3" height="9" viewBox="0 0 3 9" fill="none" xmlns="http://www.w3.org/2000/svg">
<path d="M1.9324 0.859205L1.93241 0.85922L1.93484 0.858789C1.98959 0.849086 2.04572 0.85035 2.09997 0.862508C2.15423 0.874665 2.20553 0.897475 2.2509 0.929614C2.29627 0.961753 2.33481 1.00258 2.36428 1.04973C2.3923 1.09455 2.41159 1.14423 2.42117 1.19616C2.58139 3.43573 2.28003 5.68432 1.53579 7.80265C1.48507 7.89807 1.40019 7.97104 1.29792 8.00677C1.19271 8.04353 1.07737 8.038 0.976192 7.9914C0.874974 7.94125 0.797531 7.85326 0.760651 7.74643C0.72356 7.639 0.730513 7.52125 0.77999 7.41892L0.785559 7.4074L0.789615 7.39527C1.43792 5.45615 1.70613 3.41018 1.57955 1.36948L1.57896 1.36001L1.57748 1.35063C1.55975 1.23845 1.58712 1.12381 1.65362 1.03174C1.72011 0.939668 1.82034 0.877642 1.9324 0.859205Z" fill="#0101C8" stroke="#E2E2FF" stroke-width="0.4"/>
</svg>
