<svg width="12" height="12" viewBox="0 0 12 12" fill="none" xmlns="http://www.w3.org/2000/svg">
<path d="M8.39022 1.35158C8.54139 1.41788 8.66003 1.54152 8.72004 1.6953C8.78006 1.84908 8.77652 2.0204 8.71022 2.17158C8.64391 2.32275 8.52027 2.44139 8.36649 2.5014C8.21271 2.56142 8.04139 2.55788 7.89022 2.49158C7.29397 2.23224 6.65041 2.09945 6.00022 2.10158M8.39022 1.35158L1.82022 5.64158C1.82022 3.69158 3.70022 2.10158 6.00022 2.10158M8.39022 1.35158L8.39021 1.35159L8.39022 1.35158ZM8.39022 1.35158C7.63713 1.02008 6.82303 0.849765 6.00022 0.851577L8.39022 1.35158ZM6.00022 2.10158V1.90158C6.00011 1.90158 6 1.90158 5.99989 1.90158C5.99978 1.90158 5.99967 1.90158 5.99956 1.90158L6.00022 2.10158ZM0.269424 10.3573L0.265208 10.3676C0.244195 10.4187 0.233486 10.4735 0.233694 10.5288C0.233903 10.5841 0.245026 10.6388 0.266425 10.6898C0.287824 10.7408 0.319077 10.787 0.358393 10.8259C0.397709 10.8648 0.444313 10.8955 0.495531 10.9163L0.507959 10.9214L0.507762 10.9218C0.552528 10.9436 0.602015 10.9539 0.651762 10.9518L0.660765 10.9514L0.660764 10.9516C0.744887 10.9518 0.827229 10.9274 0.897593 10.8813C0.965066 10.8371 1.01868 10.7748 1.05241 10.7017L0.269424 10.3573ZM0.269424 10.3573L0.27248 10.3467M0.269424 10.3573L0.27248 10.3467M0.27248 10.3467C0.710799 8.81685 0.879225 7.22238 0.770222 5.63478L0.27248 10.3467ZM9.7026 3.02149L9.70262 3.02151L9.70502 3.01932C9.78798 2.94362 9.89727 2.90338 10.0095 2.9072C10.1208 2.911 10.2263 2.95784 10.3037 3.0378C10.6371 3.40905 10.8941 3.94491 11.079 4.59316C11.2637 5.24081 11.373 5.98781 11.4193 6.76718C11.5119 8.32623 11.3511 9.99286 11.0563 11.2125C11.0319 11.3038 10.9782 11.3845 10.9033 11.4422C10.828 11.5002 10.7355 11.5317 10.6404 11.5316H10.6402H10.5171C10.416 11.5008 10.3295 11.4337 10.2746 11.3429C10.2157 11.2457 10.1978 11.1292 10.2246 11.0188C10.5248 9.7824 10.6484 8.23502 10.5712 6.8554C10.5325 6.16512 10.4433 5.51123 10.2983 4.95573C10.1544 4.40472 9.95037 3.93024 9.66881 3.61771L9.66873 3.61762C9.63154 3.57639 9.60289 3.52819 9.58445 3.47582C9.56601 3.42344 9.55813 3.36793 9.56128 3.31249C9.56443 3.25705 9.57854 3.20279 9.6028 3.15284C9.62706 3.10289 9.66098 3.05825 9.7026 3.02149Z" fill="#0101C8" stroke="#E2E2FF" stroke-width="0.4"/>
</svg>
